<svg xmlns="http://www.w3.org/2000/svg" width="997" height="238" version="1.0" viewBox="0 0 747.75 178.5"><defs><clipPath id="F"><path d="M564.371 99.688h129.48v1.714h-129.48Zm0 0"/></clipPath><clipPath id="a"><path d="M561.426 27.098h135.418v135.414H561.426Zm0 0"/></clipPath><clipPath id="c"><path d="M564.422 94.809c0-35.743 28.973-64.715 64.715-64.715 35.742 0 64.715 28.972 64.715 64.715 0 35.738-28.973 64.714-64.715 64.714-35.742 0-64.715-28.976-64.715-64.714Zm0 0"/></clipPath><clipPath id="d"><path d="M596.496 36h64.984v1.152h-64.984Zm0 0"/></clipPath><clipPath id="e"><path d="M564.422 94.809c0-35.743 28.973-64.715 64.715-64.715 35.742 0 64.715 28.972 64.715 64.715 0 35.738-28.973 64.714-64.715 64.714-35.742 0-64.715-28.976-64.715-64.714Zm0 0"/></clipPath><clipPath id="f"><path d="M589.383 40.586h78.472v1.227h-78.472Zm0 0"/></clipPath><clipPath id="g"><path d="M564.422 94.809c0-35.743 28.973-64.715 64.715-64.715 35.742 0 64.715 28.972 64.715 64.715 0 35.738-28.973 64.714-64.715 64.714-35.742 0-64.715-28.976-64.715-64.714Zm0 0"/></clipPath><clipPath id="h"><path d="M584 45h90.477v1.469H584Zm0 0"/></clipPath><clipPath id="i"><path d="M564.422 94.809c0-35.743 28.973-64.715 64.715-64.715 35.742 0 64.715 28.972 64.715 64.715 0 35.738-28.973 64.714-64.715 64.714-35.742 0-64.715-28.976-64.715-64.714Zm0 0"/></clipPath><clipPath id="j"><path d="M579.328 49.66h99.563v1.227h-99.563Zm0 0"/></clipPath><clipPath id="k"><path d="M564.422 94.809c0-35.743 28.973-64.715 64.715-64.715 35.742 0 64.715 28.972 64.715 64.715 0 35.738-28.973 64.714-64.715 64.714-35.742 0-64.715-28.976-64.715-64.714Zm0 0"/></clipPath><clipPath id="l"><path d="M576.14 54.074h106.43v1.469H576.14Zm0 0"/></clipPath><clipPath id="m"><path d="M564.422 94.809c0-35.743 28.973-64.715 64.715-64.715 35.742 0 64.715 28.972 64.715 64.715 0 35.738-28.973 64.714-64.715 64.714-35.742 0-64.715-28.976-64.715-64.714Zm0 0"/></clipPath><clipPath id="n"><path d="M573.2 58.73H686V60H573.2Zm0 0"/></clipPath><clipPath id="o"><path d="M564.422 94.809c0-35.743 28.973-64.715 64.715-64.715 35.742 0 64.715 28.972 64.715 64.715 0 35.738-28.973 64.714-64.715 64.714-35.742 0-64.715-28.976-64.715-64.714Zm0 0"/></clipPath><clipPath id="p"><path d="M570.254 63.145h118.445v1.472H570.254Zm0 0"/></clipPath><clipPath id="q"><path d="M564.422 94.809c0-35.743 28.973-64.715 64.715-64.715 35.742 0 64.715 28.972 64.715 64.715 0 35.738-28.973 64.714-64.715 64.714-35.742 0-64.715-28.976-64.715-64.714Zm0 0"/></clipPath><clipPath id="r"><path d="M567.313 67.805h123.105v1.472H567.312Zm0 0"/></clipPath><clipPath id="s"><path d="M564.422 94.809c0-35.743 28.973-64.715 64.715-64.715 35.742 0 64.715 28.972 64.715 64.715 0 35.738-28.973 64.714-64.715 64.714-35.742 0-64.715-28.976-64.715-64.714Zm0 0"/></clipPath><clipPath id="t"><path d="M566.578 72.219h125.8v1.719h-125.8Zm0 0"/></clipPath><clipPath id="u"><path d="M564.422 94.809c0-35.743 28.973-64.715 64.715-64.715 35.742 0 64.715 28.972 64.715 64.715 0 35.738-28.973 64.714-64.715 64.714-35.742 0-64.715-28.976-64.715-64.714Zm0 0"/></clipPath><clipPath id="v"><path d="M564.371 77h129.48v1.352h-129.48Zm0 0"/></clipPath><clipPath id="w"><path d="M564.422 94.809c0-35.743 28.973-64.715 64.715-64.715 35.742 0 64.715 28.972 64.715 64.715 0 35.738-28.973 64.714-64.715 64.714-35.742 0-64.715-28.976-64.715-64.714Zm0 0"/></clipPath><clipPath id="x"><path d="M564.371 81.54h129.48V83h-129.48Zm0 0"/></clipPath><clipPath id="y"><path d="M564.422 94.809c0-35.743 28.973-64.715 64.715-64.715 35.742 0 64.715 28.972 64.715 64.715 0 35.738-28.973 64.714-64.715 64.714-35.742 0-64.715-28.976-64.715-64.714Zm0 0"/></clipPath><clipPath id="z"><path d="M564.371 86h129.48v1.668h-129.48Zm0 0"/></clipPath><clipPath id="A"><path d="M564.422 94.809c0-35.743 28.973-64.715 64.715-64.715 35.742 0 64.715 28.972 64.715 64.715 0 35.738-28.973 64.714-64.715 64.714-35.742 0-64.715-28.976-64.715-64.714Zm0 0"/></clipPath><clipPath id="B"><path d="M564.371 90.613h129.48v1.469h-129.48Zm0 0"/></clipPath><clipPath id="C"><path d="M564.422 94.809c0-35.743 28.973-64.715 64.715-64.715 35.742 0 64.715 28.972 64.715 64.715 0 35.738-28.973 64.714-64.715 64.714-35.742 0-64.715-28.976-64.715-64.714Zm0 0"/></clipPath><clipPath id="D"><path d="M564.371 95.027h129.48v1.715h-129.48Zm0 0"/></clipPath><clipPath id="E"><path d="M564.422 94.809c0-35.743 28.973-64.715 64.715-64.715 35.742 0 64.715 28.972 64.715 64.715 0 35.738-28.973 64.714-64.715 64.714-35.742 0-64.715-28.976-64.715-64.714Zm0 0"/></clipPath><clipPath id="b"><path d="M610 31.512h41.918v1.226H610Zm0 0"/></clipPath><clipPath id="G"><path d="M564.422 94.809c0-35.743 28.973-64.715 64.715-64.715 35.742 0 64.715 28.972 64.715 64.715 0 35.738-28.973 64.714-64.715 64.714-35.742 0-64.715-28.976-64.715-64.714Zm0 0"/></clipPath><clipPath id="H"><path d="M564.371 104.102h129.48v1.714h-129.48Zm0 0"/></clipPath><clipPath id="I"><path d="M564.422 94.809c0-35.743 28.973-64.715 64.715-64.715 35.742 0 64.715 28.972 64.715 64.715 0 35.738-28.973 64.714-64.715 64.714-35.742 0-64.715-28.976-64.715-64.714Zm0 0"/></clipPath><clipPath id="J"><path d="M564.371 108.758h129.48v1.719h-129.48Zm0 0"/></clipPath><clipPath id="K"><path d="M564.422 94.809c0-35.743 28.973-64.715 64.715-64.715 35.742 0 64.715 28.972 64.715 64.715 0 35.738-28.973 64.714-64.715 64.714-35.742 0-64.715-28.976-64.715-64.714Zm0 0"/></clipPath><clipPath id="L"><path d="M565.594 113.172h128.258v1.965H565.594Zm0 0"/></clipPath><clipPath id="M"><path d="M564.422 94.809c0-35.743 28.973-64.715 64.715-64.715 35.742 0 64.715 28.972 64.715 64.715 0 35.738-28.973 64.714-64.715 64.714-35.742 0-64.715-28.976-64.715-64.714Zm0 0"/></clipPath><clipPath id="N"><path d="M567.8 117.832h123.598v1.719H567.801Zm0 0"/></clipPath><clipPath id="O"><path d="M564.422 94.809c0-35.743 28.973-64.715 64.715-64.715 35.742 0 64.715 28.972 64.715 64.715 0 35.738-28.973 64.714-64.715 64.714-35.742 0-64.715-28.976-64.715-64.714Zm0 0"/></clipPath><clipPath id="P"><path d="M568.785 122.492h120.653v1.715H568.784Zm0 0"/></clipPath><clipPath id="Q"><path d="M564.422 94.809c0-35.743 28.973-64.715 64.715-64.715 35.742 0 64.715 28.972 64.715 64.715 0 35.738-28.973 64.714-64.715 64.714-35.742 0-64.715-28.976-64.715-64.714Zm0 0"/></clipPath><clipPath id="R"><path d="M571.48 127h115.258v1.867H571.48Zm0 0"/></clipPath><clipPath id="S"><path d="M564.422 94.809c0-35.743 28.973-64.715 64.715-64.715 35.742 0 64.715 28.972 64.715 64.715 0 35.738-28.973 64.714-64.715 64.714-35.742 0-64.715-28.976-64.715-64.714Zm0 0"/></clipPath><clipPath id="T"><path d="M573.688 131.566H684v1.715H573.687Zm0 0"/></clipPath><clipPath id="U"><path d="M564.422 94.809c0-35.743 28.973-64.715 64.715-64.715 35.742 0 64.715 28.972 64.715 64.715 0 35.738-28.973 64.714-64.715 64.714-35.742 0-64.715-28.976-64.715-64.714Zm0 0"/></clipPath><clipPath id="V"><path d="M577.121 136h103.734v1.941H577.121Zm0 0"/></clipPath><clipPath id="W"><path d="M564.422 94.809c0-35.743 28.973-64.715 64.715-64.715 35.742 0 64.715 28.972 64.715 64.715 0 35.738-28.973 64.714-64.715 64.714-35.742 0-64.715-28.976-64.715-64.714Zm0 0"/></clipPath><clipPath id="X"><path d="M581.29 140.64h95.148v1.962h-95.149Zm0 0"/></clipPath><clipPath id="Y"><path d="M564.422 94.809c0-35.743 28.973-64.715 64.715-64.715 35.742 0 64.715 28.972 64.715 64.715 0 35.738-28.973 64.714-64.715 64.714-35.742 0-64.715-28.976-64.715-64.714Zm0 0"/></clipPath><clipPath id="Z"><path d="M586 145.055h84.8V147H586Zm0 0"/></clipPath><clipPath id="aa"><path d="M564.422 94.809c0-35.743 28.973-64.715 64.715-64.715 35.742 0 64.715 28.972 64.715 64.715 0 35.738-28.973 64.714-64.715 64.714-35.742 0-64.715-28.976-64.715-64.714Zm0 0"/></clipPath><clipPath id="ab"><path d="M592.324 149.71h72.098v1.966h-72.098Zm0 0"/></clipPath><clipPath id="ac"><path d="M564.422 94.809c0-35.743 28.973-64.715 64.715-64.715 35.742 0 64.715 28.972 64.715 64.715 0 35.738-28.973 64.714-64.715 64.714-35.742 0-64.715-28.976-64.715-64.714Zm0 0"/></clipPath><clipPath id="ad"><path d="M600.418 154.125H656v2.207h-55.582Zm0 0"/></clipPath><clipPath id="ae"><path d="M564.422 94.809c0-35.743 28.973-64.715 64.715-64.715 35.742 0 64.715 28.972 64.715 64.715 0 35.738-28.973 64.714-64.715 64.714-35.742 0-64.715-28.976-64.715-64.714Zm0 0"/></clipPath><clipPath id="af"><path d="M613.414 158.785h31.145v.738h-31.145Zm0 0"/></clipPath><clipPath id="ag"><path d="M564.422 94.809c0-35.743 28.973-64.715 64.715-64.715 35.742 0 64.715 28.972 64.715 64.715 0 35.738-28.973 64.714-64.715 64.714-35.742 0-64.715-28.976-64.715-64.714Zm0 0"/></clipPath><clipPath id="ah"><path d="M86 142h10v8.832H86Zm0 0"/></clipPath><clipPath id="ai"><path d="M70 142h11v8.832H70Zm0 0"/></clipPath><clipPath id="aj"><path d="M71 81h3v69.832h-3Zm0 0"/></clipPath><clipPath id="ak"><path d="M77 15.414h16V22H77Zm0 0"/></clipPath></defs><g clip-path="url(#a)"><path fill="#745b2e" d="M696.844 94.809c0 37.394-30.313 67.707-67.707 67.707-37.399 0-67.711-30.313-67.711-67.707 0-37.399 30.312-67.711 67.71-67.711 37.395 0 67.708 30.312 67.708 67.71"/></g><path fill="#ded5ba" d="M564.422 94.809c0-35.743 28.973-64.715 64.715-64.715 35.742 0 64.715 28.972 64.715 64.715 0 35.738-28.973 64.714-64.715 64.714-35.742 0-64.715-28.976-64.715-64.714"/><g clip-path="url(#b)"><g clip-path="url(#c)"><path fill="#745b2e" fill-rule="evenodd" d="M610.215 31.527v.996h41.648v-.996h-41.648"/></g></g><g clip-path="url(#d)"><g clip-path="url(#e)"><path fill="#745b2e" fill-rule="evenodd" d="M596.734 36.078v1.024h64.633v-1.024h-64.633"/></g></g><g clip-path="url(#f)"><g clip-path="url(#g)"><path fill="#745b2e" fill-rule="evenodd" d="M589.61 40.625v1.059h78.015v-1.059h-78.016"/></g></g><g clip-path="url(#h)"><g clip-path="url(#i)"><path fill="#745b2e" fill-rule="evenodd" d="M584.027 45.172v1.09h90.442v-1.09h-90.442"/></g></g><g clip-path="url(#j)"><g clip-path="url(#k)"><path fill="#745b2e" fill-rule="evenodd" d="M579.5 49.723v1.117h99.324v-1.117H579.5"/></g></g><g clip-path="url(#l)"><g clip-path="url(#m)"><path fill="#745b2e" fill-rule="evenodd" d="M576.227 54.27v1.148h106.168V54.27H576.227"/></g></g><g clip-path="url(#n)"><g clip-path="url(#o)"><path fill="#745b2e" fill-rule="evenodd" d="M573.242 58.82v1.176h112.613V58.82H573.242"/></g></g><g clip-path="url(#p)"><g clip-path="url(#q)"><path fill="#745b2e" fill-rule="evenodd" d="M570.445 63.367v1.207h118.2v-1.207h-118.2"/></g></g><g clip-path="url(#r)"><g clip-path="url(#s)"><path fill="#745b2e" fill-rule="evenodd" d="M567.414 67.914v1.238h122.793v-1.238H567.414"/></g></g><g clip-path="url(#t)"><g clip-path="url(#u)"><path fill="#745b2e" fill-rule="evenodd" d="M566.621 72.465v1.265h125.707v-1.265H566.621"/></g></g><g clip-path="url(#v)"><g clip-path="url(#w)"><path fill="#745b2e" fill-rule="evenodd" d="M564.383 77.012v1.297H693.89v-1.297H564.383"/></g></g><g clip-path="url(#x)"><g clip-path="url(#y)"><path fill="#745b2e" fill-rule="evenodd" d="M562.406 81.563v1.328h131.485v-1.329H562.406"/></g></g><g clip-path="url(#z)"><g clip-path="url(#A)"><path fill="#745b2e" fill-rule="evenodd" d="M562.406 86.11v1.359h133.047v-1.36H562.406"/></g></g><g clip-path="url(#B)"><g clip-path="url(#C)"><path fill="#745b2e" fill-rule="evenodd" d="M562.406 90.656v1.39h133.047v-1.39H562.406"/></g></g><g clip-path="url(#D)"><g clip-path="url(#E)"><path fill="#745b2e" fill-rule="evenodd" d="M562.406 95.203v1.422h133.047v-1.422H562.406"/></g></g><g clip-path="url(#F)"><g clip-path="url(#G)"><path fill="#745b2e" fill-rule="evenodd" d="M563.176 99.754v1.445h132.277v-1.445H563.176"/></g></g><g clip-path="url(#H)"><g clip-path="url(#I)"><path fill="#745b2e" fill-rule="evenodd" d="M563.176 104.3v1.481h130.84v-1.48h-130.84"/></g></g><g clip-path="url(#J)"><g clip-path="url(#K)"><path fill="#745b2e" fill-rule="evenodd" d="M563.176 108.852v1.507h130.84v-1.507h-130.84"/></g></g><g clip-path="url(#L)"><g clip-path="url(#M)"><path fill="#745b2e" fill-rule="evenodd" d="M565.613 113.5v1.54l128.403-.103v-1.539l-128.403.102"/></g></g><g clip-path="url(#N)"><g clip-path="url(#O)"><path fill="#745b2e" fill-rule="evenodd" d="M567.855 117.95v1.57h123.372v-1.57H567.855"/></g></g><g clip-path="url(#P)"><g clip-path="url(#Q)"><path fill="#745b2e" fill-rule="evenodd" d="M568.82 122.496v1.598h120.543v-1.598H568.82"/></g></g><g clip-path="url(#R)"><g clip-path="url(#S)"><path fill="#745b2e" fill-rule="evenodd" d="M571.54 127.043v1.629h115.093v-1.629H571.539"/></g></g><g clip-path="url(#T)"><g clip-path="url(#U)"><path fill="#745b2e" fill-rule="evenodd" d="M573.828 131.59v1.66h110.047v-1.66H573.828"/></g></g><g clip-path="url(#V)"><g clip-path="url(#W)"><path fill="#745b2e" fill-rule="evenodd" d="M577.18 136.14v1.692h103.57v-1.691H577.18"/></g></g><g clip-path="url(#X)"><g clip-path="url(#Y)"><path fill="#745b2e" fill-rule="evenodd" d="M581.348 140.688v1.722h94.925v-1.722h-94.925"/></g></g><g clip-path="url(#Z)"><g clip-path="url(#aa)"><path fill="#745b2e" fill-rule="evenodd" d="M586.008 145.238v1.75h84.746v-1.75h-84.746"/></g></g><g clip-path="url(#ab)"><g clip-path="url(#ac)"><path fill="#745b2e" fill-rule="evenodd" d="M592.387 149.785v1.781h72.008v-1.78h-72.008"/></g></g><g clip-path="url(#ad)"><g clip-path="url(#ae)"><path fill="#745b2e" fill-rule="evenodd" d="M600.477 154.332v1.813h55.39v-1.813h-55.39"/></g></g><g clip-path="url(#af)"><g clip-path="url(#ag)"><path fill="#745b2e" fill-rule="evenodd" d="M613.555 158.879v1.844h30.836v-1.844h-30.836"/></g></g><path fill="#ded5ba" d="M652.707 66.363c1.695 1.176 1.492 3.973-.21 5.57.019 2.27-.61 4.665-1.845 7.172 4.907 2.008 8.504 4.997 10.723 8.989 12.973 5.898 21.41 20.816 22.613 41.07-11.445 18.234-31.734 30.36-54.851 30.36-20.766 0-39.246-9.782-51.09-24.989-1.91-22.578 4.992-39.246 20.312-46.98 1.207-3.727 4.559-6.922 17.707-11.817l-.851-3.504c-3.945-3.484-5.125-8.504-3.735-14.855-10.082-3.207-2.02-18.602 6.832-13.008 11.97-9.566 40.325-3.312 35.032 15.762.168 2-.14 3.664-1.102 4.824l.465 1.406"/><path fill="#745b2e" d="m651.39 64.773.692 2.086c1.418.75 1.484 3.309-.344 4.743.098 2.425-.61 5.062-2.129 7.898 5.266 1.988 9.008 5.047 11.23 9.172 12.97 5.77 21.49 20.824 22.458 41.57-11.563 17.633-31.5 29.281-54.16 29.281-20.278 0-38.375-9.328-50.242-23.921-2.239-23.133 4.695-39.918 20.085-47.52 1.028-3.527 3.903-6.7 17.97-11.871l-1.063-4.387c-3.961-3.37-5.133-8.363-3.516-14.972-10.59-2.559-1.93-17.23 5.988-11.543 11.786-10.168 39.348-3.215 34.227 14.754.207 2.183-.191 3.753-1.195 4.71"/><path fill="#ded5ba" fill-rule="evenodd" d="M643.89 65.672c-.538-3.281.598-5.086 3.41-5.406 2.852-10.118-3.581-12.696-19.3-7.739-4.496 4.106-5.965 8.32-4.41 12.645-.535 3.86.574 7.215 3.328 10.066-1.828-.351-3.578-1.875-5.242-4.574-1.746 20.879 32.113 18.633 19.133 10.395 3.203.093 4.082-.887 2.902-2.282-3.414.106-5.86-.547-6.594-1.164l4.442-.152c.468.648 1.086.7 1.851.152l-.402-2.742c3.078-.953 3.797-2.637 2.156-5.05l-1.273-4.15M619.184 71.652l-.387-3.078c-.43-1.351-1.184-2.465-2.262-3.34l1.195 2.746c-.5 2.297-.015 3.52 1.454 3.672Zm.91-2.777a16.568 16.568 0 0 0-.227 5.492c-5.808-3.355-6.12-19.828.227-5.492"/><path fill="#745b2e" fill-rule="evenodd" d="M640.02 62.93c-3.008-3.282-6.004-3.453-8.985-.52 3.04-1.137 6.035-.965 8.985.52"/><path fill="#745b2e" d="M635.113 64.684c0 .187.157.34.344.34a.34.34 0 0 0 .34-.34.34.34 0 0 0-.34-.344.344.344 0 0 0-.344.344Zm2.746.714c-.191-.886-.836-1.144-1.554-1.207.035.118.054.246.054.375a1.252 1.252 0 1 1-2.379-.546 3.24 3.24 0 0 0-1.773 1.277c.535-2.555 5.504-3.098 6.258.07l-.606.031"/><path fill="#745b2e" fill-rule="evenodd" d="M630.469 66.867c3.558-.418 6.304-.152 8.238.793 2.02-.773 4.11-.805 6.27-.094l-.235-.699c-1.793-1.297-3.789-1.234-5.988.188-3.188-1.223-5.95-1.285-8.285-.188M637.676 68.41c.125 3.746-2.23 4.403-7.067 1.965 3.5.645 5.856-.008 7.067-1.965M641.98 69.113c-2.046.457-2.28 1.395-.703 2.809-.32-.961-.086-1.895.703-2.809M639.828 73.98c1.031-1.449 2.152-1.593 1.918-.14-.418.558-1.098-.238-1.918.14M644.742 70.61c1.301 2.03.664 3.136-1.918 3.32 1.457-.403 2.098-1.508 1.918-3.32"/><path fill="#745b2e" d="m623.168 65.555-.324-1.262 5.941 2.574c-.031 3.945 3.043 5.758 7.914 5.613 1.153-1.058 2.2-1.898 3.27-1.964-1.684.656-2.762 2.714-1.543 3.511l-1.219-.468c-.75.875-2.375 1.683-4.863 2.433 1.535-.847 2.172-1.781 3.34-2.867-5.438 1.3-7.52-1.445-7.32-5.324l-5.196-2.246"/><path fill="#ded5ba" fill-rule="evenodd" d="M646.418 67.805c1.281-.078 2.297.386 3.047 1.394l1.847.399.051-1.692c-2.097-1.02-3.746-1.054-4.945-.101Zm-.313 2.578c-.43-1.063-.761-1.903-.68-2.735 1.638-1.953 3.825-1.918 6.563.106.422 3.348-1.433 4.152-5.883 2.629M646.922 64.34a.342.342 0 1 1 .683 0 .343.343 0 0 1-.34.344.344.344 0 0 1-.343-.344Zm-2.254.426c.316-.618.754-1.032 1.242-1.266a1.2 1.2 0 0 0 1.02 1.828 1.199 1.199 0 0 0 .972-1.898c.52.207.97.586 1.258 1.11-.57.839-3.031 1.374-4.492.226M645.281 63.125c1.301-2.344 2.477-2.438 3.524-.285-1.149-.274-2.325-.18-3.524.285M619.207 80.27c6.438 7.824 10.996 13.796 13.617 14.39l-5.914 5.074c-4.082-2.832-6.648-9.32-7.703-19.464M645.945 86.91c-3.394 3.375-6.996 5.762-10.808 7.16l4.601 6.97c3.106-2.872 5.172-7.583 6.207-14.13M634.328 107.852c-.082-.848.067-1.399.442-1.657-1.008.04-1.157.996-.442 1.657Zm.567 3.082c-.004-.852.109-1.403.332-1.66-.758.44-.868.996-.332 1.66Zm1.699 3.875c-.067-.715.054-1.18.37-1.395-.847.031-.972.836-.37 1.395Zm1 3.582c-.067-.715.058-1.18.375-1.391-.852.031-.973.832-.375 1.39Zm-32.07 9.754c9.081-9.676 9.117-14.079 12.359-18.208l6.828-5.292 6.555-.407 3.87 1.774c1.825.87.954 2.84-.355 2.386l-3.218-1.023-4.684.098-3.676 2.605 4.297-1.633 4.266-.355c1.543.222 2.906.82 3.777 1.183 1.742.641 1.379 2.512.102 2.512-1.684-.453-2.223-.664-3.848-.93l-2.938.293-4.062 2.997 4.492-2.082 3.793-.278 4.129 1.496c1.57.582.848 2.442-.434 2.043-2.332-.543-2.683-.68-3.66-1.027a29.16 29.16 0 0 1-2.855.371l-3.48 2.371 3.812-1.398 3.285-.098 4.105 1.277c2.125.637 1.082 2.61-.507 2.172l-3.622-.855c-.632.316-1.714.578-3.593.789-2.41 3.949-5.664 6.09-9.762 6.418l-10.582 12.855c-3.152-1.785-4.617-5.137-4.395-10.054M621.953 105.848l-8.703-8.637c-1.984-2.367 1.027-4.629 3.727-1.844l8.808 8.809-1.906.054-1.926 1.618"/><path fill="#ded5ba" fill-rule="evenodd" d="m634.145 119.672 7.277 6.93c1.758.757 3.824.734 6.2-.067l-6.548-6.234-1.953 1.078-4.976-1.707"/><path fill="#ded5ba" fill-rule="evenodd" d="M670.117 125.629c-.414 2.664-2.027 7.8-5.172 12.082l-2.187.523-3.578-1.96c-4.555-1.907-4.317 2.878-4.317 2.878-3.304-1.187-3.832 1.871-2.472 2.938-3.094-1.285-4.121.89-2.88 2.41-1.433-.508-5.179-1.477-2.937 2.777-12.734-.289-19.597-7.074-23.793-19.472 1.172.187 2.328.363 3.473.527.664 7.348 5.074 12.727 13.23 16.145-4.148-5.372-5.726-10.426-4.734-15.168 15.418 1.34 27.762-.082 35.367-3.68M643.824 120.223c12.762-1.211 21.086-.278 24.977 2.804L666.824 125c-.687-3.203-8.355-4.793-23-4.777"/><path fill="#ded5ba" fill-rule="evenodd" d="m636.492 123.758 3.664 3.187c-1.812.657-6.113.348-12.902-.925 2.828-1.075 5.113-2.372 9.238-2.262M643.887 128.156c21.633.762 28.004-4.844 8.058-4.844 9.89 1.458 7.203 3.075-8.058 4.844M658.883 138.438l-1.09 1.09c.984.113 1.348-.25 1.09-1.09Zm6.137 3.425-2.856.828-5.52-3.156c-1.402-1.047.254-3.273 2.395-2.058l3.688 2.25 2.75-1.438c1.609 1.418 1.66 2.527-.457 3.574"/><path fill="#ded5ba" fill-rule="evenodd" d="m656.188 140.855-1.09 1.09c.984.11 1.347-.254 1.09-1.09Zm8.851 1.465c-.562 1.149-1.726 2.254-2.93 2.594l-3.894-.453-3.992-2.379c-1.344-1.144-.028-2.941 2.035-1.86l3.562 2.294 2.492.754 2.727-.95"/><path fill="#ded5ba" fill-rule="evenodd" d="m652.621 143.23-1.086 1.09c.98.11 1.348-.254 1.086-1.09Zm8.246 1.88c-1.054.796-4.285 1.445-5.523 1.406l-4.559-2.25c-1.125-.621-.312-2.47 1.735-1.68l4.77 2.418 3.577.105M604.594 125.547s-7.465 1.52-12.774 6.668l9.121-4.14c-.191 6.702 2.809 13.007 6.996 16.472-3.738-6.649-5.523-13.793-3.343-19M648.926 84.707c.11 7.027-3.223 14.254-10.004 21.68 5.437.566 7.734-.813 6.89-4.137 3.668-1.91 5.008-4.305 4.016-7.18 3.406-2.441 3.883-4.894 1.43-7.367l-2.332-2.996M615.781 79.313c.871 5.843 2.754 12.832 6.192 17.968l-6.344-3.777c-2.422-.754-2.762-1.871-1.024-3.352-3.742-1.609-5.242-5.386-4.492-8.086l5.668-2.754M643.535 48.047c-.851-1.758-4.789-4.793-14.312-4.91 7.304.66 11.406 3.097 13.054 5.031l1.258-.121"/><path fill="#ded5ba" fill-rule="evenodd" d="M639.582 48.707c-.852-1.762-4.793-4.793-14.312-4.91 7.304.656 11.648 3.039 13.296 4.969l1.016-.059"/><path fill="#ded5ba" fill-rule="evenodd" d="M635.09 49.184c-.852-1.758-2.817-4.61-12.336-4.73 7.305.66 9.73 2.917 11.379 4.85l.957-.12M648.926 51.469c1.648 2.031 2.027 5.047 1.136 9.043.258-3.453-.117-6.469-1.136-9.043M616.648 49.313c-2.16 1.707-3.375 3.832-3.648 6.367-1.977-.532-3.438-2.121-4.383-4.762 1.39 1.316 4.067.781 8.031-1.605M625.852 84.328c3.433 6.387 7.312 7.957 11.636 4.703-3.379.211-7.258-1.355-11.636-4.703M667.406 134.773c4.828-.445 1.723 4.325-1.61 2.77l1.61-2.77M650.105 145.367l-1.09 1.09c.985.11 1.348-.254 1.09-1.09Zm4.079 1.215c-.457.574-1.457.793-3 .656-1.41-.316-2.309-.582-2.688-.793-1.52-.894-.07-2.136 1.55-1.484l2.208 1.207 1.93.414"/><path fill="#ded5ba" d="m635.809 99.023-.692-1.195-1.363 1.129c1.344 4.695 2.027 4.719 2.055.066Zm-.555-2.875 4.445 6.395-.816 1.77-2.324-4c1.027 6.203-4.305 6.164-3.254-.985l-4.043 3.352-1.133-1.496 7.125-5.036"/><path fill="#ded5ba" fill-rule="evenodd" d="M621.785 59.168c-1.41.07-3.531-.805-6.36-2.625 2.704 2.281 4.805 3.527 6.298 3.738l.062-1.113M621.54 61.344c-1.411.07-3.532-.805-6.364-2.625 2.707 2.281 4.804 3.527 6.3 3.738l.063-1.113M650.586 72.445c.07 2.078-.61 4.282-2.035 6.621.93-2.496 1.402-4.687 1.414-6.578l.62-.043"/><path d="M211.367 82.103h1.957l-11.457-35.286-5.156-6.406 13.137 40.555c.219.703.816 1.137 1.52 1.137Zm-38.707 3.422H183.9v-2.282h-1.63c-1.683 0-2.495-.703-2.495-1.953 0-.379.109-.762.214-1.195l2.336-7.492h10.043l2.606 8.578c.054.164.11.433.11.652 0 .707-.38 1.41-1.63 1.41h-2.062v2.282h20.902v-2.282h-.926c-1.246 0-2.222-.758-2.605-1.953L195.734 41.01h-5.265l-13.192 39.574c-.543 1.629-1.957 2.66-3.695 2.66h-.922ZM191.61 44.7l.488-1.414h1.953l.433 1.414Zm-.872 2.715.489-1.414h3.746l.433 1.414Zm-.921 2.766.488-1.41h5.539l.433 1.41Zm-.922 2.77.488-1.41h7.383l.433 1.41Zm.648 2.714-.434-1.41h8.524l.434 1.41Zm-6.457 14.66 4.34-13.843 4.234 13.843Zm7.273-11.89-.433-1.41h8.578l.434 1.41Zm.868 2.77-.434-1.415h8.578l.488 1.414Zm-6.567 7.98h5.48l-2.714-8.852Zm7.438-5.211-.438-1.414h8.633l.488 1.414Zm.812 2.71-.433-1.41h8.687l.488 1.41Zm.867 2.77-.433-1.41h8.742l.488 1.41Zm.817 2.77-.434-1.41h8.793l.434 1.41Zm.867 2.715-.434-1.41h8.848l.438 1.41Zm-19 17.156h12.922v-3.8l-3.422-4.235 1.52-4.887h5.703l-1.684-5.43h-8.363l-2.063 6.68c-.054.16-.054.379-.054.543 0 .648.492 1.137 1.25 1.137h2.77v4.562h-12.923Zm19.816-14.387-.433-1.414h8.902l.434 1.414Zm.868 2.766-.434-1.41h8.957l.434 1.41Zm-20.196 2.824c.653-.488 1.196-1.14 1.465-1.684.055.598.328 1.141.762 1.684Zm20.086-.055c.164-.433.274-.922.328-1.41h9.172l.055.164c.164.38.383.867.598 1.246Zm-1.843 8.852h22.582v-3.91l-4.45-6.082v4.562h-22.476ZM217.774 85.525h19.27c12.054 0 19.11-7.98 19.11-22.258 0-15.203-7.872-21.989-19.11-21.989h-19.27v2.282h1.625c2.282 0 2.715.433 2.715 2.715v34.253c0 2.282-.433 2.715-2.715 2.715h-1.625Zm18.403-2.118c-.434 0-1.465-.054-1.848-.164V43.56c.383-.11.98-.164 1.469-.164 5.425 0 7.543 6.84 7.543 20.035 0 13.246-2.118 19.976-7.164 19.976ZM224.34 44.915c-.055-.488-.164-.976-.38-1.355h8.09v1.355Zm18.132 0c-.164-.27-.597-.867-.812-1.137.977.16 2.441.649 3.254 1.137Zm-7.003 37.352h.707c1.52 0 2.93-1.032 3.636-2.496V49.966h.325c.273 0 .543 0 .761.055-.652-2.446-2.008-5.485-5.101-5.485h-.328Zm-14.493-32.899v-3.093c0-1.575 0-1.575-1.578-1.575h-2.168Zm3.418-1.683v-1.41h7.657v1.41Zm19.383 0c-.164-.543-.383-.977-.597-1.41h3.851c.598.378 1.14.867 1.684 1.41Zm-22.207 44.41h19.817c12.812 0 20.25-8.633 20.25-23.399 0-6.949-1.684-12.597-4.887-16.558l-3.801-4.778c2.824 3.856 4.344 9.227 4.344 15.907 0 14.765-7.438 23.398-20.25 23.398H217.23Zm2.824-41.695v-1.41h7.657v1.41Zm20.141 0c-.11-.489-.27-.977-.379-1.41h5.7c.378.433.706.921 1.03 1.41Zm-20.14 2.714v-1.41h7.656v1.41Zm20.628 0c-.054-.488-.11-.922-.215-1.41h6.84c.215.488.434.922.598 1.41Zm-20.629 2.77V54.47h7.657v1.414Zm20.957 0-.164-1.414h7.493c.164.437.269.926.433 1.414Zm-20.957 2.715v-1.414h7.657v1.414Zm21.172 0c-.054-.489-.054-.926-.11-1.414h7.93c.106.433.16.925.215 1.414Zm-21.172 2.715V59.9h7.657v1.414Zm21.227 0c0-.438 0-.926-.055-1.414h8.2c0 .488.054.976.109 1.414Zm-21.227 2.765v-1.41h7.657v1.41Zm21.227 0v-1.41h8.254v1.41Zm-21.227 2.715v-1.41h7.657v1.41Zm21.172 0c.055-.434.055-.922.055-1.41h8.2c0 .488-.056.976-.11 1.41Zm-21.172 2.715v-1.41h7.657v1.41Zm21.063 0c.055-.434.055-.922.055-1.41h8.09c-.11.488-.165.976-.27 1.41Zm-21.063 2.77v-1.41h7.657v1.41Zm20.848 0 .164-1.41h7.652c-.109.488-.214.921-.378 1.41Zm-20.848 2.714V73.58h7.657v1.414Zm20.414 0c.106-.433.16-.922.27-1.414h7.113l-.652 1.414Zm-20.414 2.77v-1.414h7.657v1.414Zm19.817 0c.16-.488.27-.926.379-1.414h6.242l-.977 1.414Zm-19.817 2.71v-1.41h7.657v1.41Zm18.895 0c.215-.433.379-.921.543-1.41h4.828c-.543.489-1.031.977-1.629 1.41Zm-19.274 2.716c.16-.38.27-.868.38-1.41h7.71v1.41Zm17.805-.215c.219-.274.598-.871.762-1.196h2.332c-.758.489-2.168 1.032-3.094 1.196ZM285.143 92.692c9.282 0 14.223-4.183 14.223-12.164V51.704c0-1.629-.055-1.574 1.574-1.574h2.227v-3.8l-4.344-5.485V44.7h-2.226c-1.63 0-1.575-.054-1.575 1.575v28.828c0 7.98-4.941 12.16-14.222 12.16-5.649 0-9.23-1.684-11.618-4.399l4.125 5.157c2.282 2.988 6.188 4.671 11.836 4.671Zm.16-11.511V51.704c0-1.629-.054-1.574 1.575-1.574h2.77v-2.012l.433.543v-2.386c0-1.63.055-1.575-1.574-1.575h-1.735v-1.683l-1.738-2.172V44.7h-2.496c-1.629 0-1.578-.054-1.578 1.575v29.37c0 3.528 1.578 5.481 4.344 5.536Zm-4.503 4.941c9.12 0 13.082-4.07 13.082-11.02V46.276c0-2.282.433-2.715 2.715-2.715h1.085v-2.282h-9.988v2.282h.813c2.28 0 2.715.433 2.715 2.715v28.828c0 5.047-2.497 7.218-5.754 7.218-3.258 0-5.645-2.171-5.645-6.675V46.275c0-2.282.434-2.715 2.715-2.715h1.355v-2.282h-20.52v2.282h1.63c2.277 0 2.71.433 2.71 2.715V74.56c0 6.023 3.044 11.562 13.087 11.562Zm11.78-41.312c-.218-.438-.437-.871-.76-1.305h1.519c-.325.434-.543.867-.758 1.305Zm-22.64.105c-.054-.543-.215-.976-.379-1.355h8.414c-.164.379-.27.812-.324 1.355Zm-3.363 4.453v-3.093c0-1.63.05-1.575-1.574-1.575h-2.172Zm3.418-1.683v-1.41h7.547v1.41Zm0 2.77v-1.41h7.547v1.41Zm0 2.823v-1.414h7.547v1.414Zm0 2.766v-1.41h7.547v1.41Zm0 2.77v-1.41h7.547v1.41Zm0 2.77v-1.411h7.547v1.41Zm0 2.769v-1.414h7.547v1.414Zm0 2.77v-1.415h7.547v1.414Zm0 2.765v-1.41h7.547v1.41Zm0 2.824v-1.41h7.547v1.41Zm.055 2.77c-.055-.325-.055-.653-.055-.922v-.489h7.547v1.41Zm.488 2.77c-.164-.435-.27-.927-.379-1.415h7.438c.054.488.109.98.214 1.414Zm1.629 2.765c-.38-.434-.762-.867-1.031-1.41h7.058c.215.488.434.976.703 1.41Zm7.71 2.77c-2.445-.055-4.398-.544-5.972-1.41h6.024c.543.597 1.195 1.03 1.957 1.41ZM324.878 82.267c1.195 0 2.605-.813 3.258-1.356V51.704c0-1.629-.055-1.574 1.574-1.574h2.77v-3.8l-4.344-5.43v3.8h-2.77c-1.629 0-1.574-.054-1.574 1.575v33.222c0 2.5.219 2.77 1.086 2.77Zm-18.781 3.258H337.8l.433-17.97h-2.28c-.544 6.786-5.919 15.852-11.075 15.852-1.684 0-2.227-.922-2.227-3.91V46.275c0-2.282.438-2.715 2.715-2.715h1.63v-2.282h-20.9v2.282h1.626c2.281 0 2.715.433 2.715 2.715v34.253c0 2.282-.434 2.715-2.715 2.715h-1.625Zm6.566-40.555c-.11-.543-.215-1.031-.379-1.41h8.524c-.164.379-.274.867-.328 1.41Zm-3.363 4.398v-3.093c0-1.63.05-1.575-1.578-1.575h-2.168Zm3.418-1.683v-1.41h7.656v1.41Zm0 2.77v-1.41h7.656v1.41Zm0 2.714v-1.41h7.656v1.41Zm0 2.715V54.47h7.656v1.414Zm0 2.77v-1.415h7.656v1.414Zm0 2.71v-1.41h7.656v1.41Zm0 2.715v-1.41h7.656v1.41Zm0 2.77v-1.41h7.656v1.41Zm-2.824 25.246h33.336l.488-19.492-4.344-5.426-.488 19.488h-33.332Zm2.824-22.531v-1.41h7.656v1.41Zm0 2.77v-1.415h7.656v1.414Zm0 2.714v-1.414h7.656v1.414Zm0 2.715v-1.414h7.656v1.414Zm21.988.215c.27-.434.758-1.141.977-1.63l.054 1.63Zm-21.988 2.55v-1.41h7.656v.38l.055 1.03Zm20.414.055c.379-.488.703-.922 1.031-1.41h1.52v1.41Zm-20.848 2.66c.164-.433.27-.867.38-1.41h7.925c.055.488.219.977.383 1.41Zm18.293 0c.543-.433 1.035-.922 1.524-1.41h3.527l-.055 1.41ZM384.378 40.845V60.66h-4.075l4.344 5.43h4.074V46.329Zm-26.168 2.66c.324 0 .597 0 .597.543v36.48c0 2.282-.433 2.715-2.714 2.715h-1.63v2.282h21.282v-2.282h-1.629c-2.281 0-2.715-.433-2.715-2.715v-36.48c0-.543.274-.543.598-.543 4.344.055 8.847 9.988 8.847 16.016h2.391V41.278h-36.266v18.243h2.391c0-6.028 4.504-15.961 8.848-16.016Zm-8.957.055h4.234c-.434.433-.871.922-1.305 1.41h-2.93Zm19.922 0c-.055.164-.055.324-.055.488v.922h-8.031v-.922c0-.164 0-.324-.055-.488Zm11.78 0v1.41h-2.929a33.124 33.124 0 0 0-1.305-1.41Zm-26.382 21.336c0-3.04 1.14-7.493 3.094-10.805v-9.176c0-.27-.27-.105-.38-.055-3.042 1.47-6.788 9.067-6.788 14.606 0 .434.054.812.054 1.195h-4.125l4.344 5.43h3.856c-.055-.383-.055-.762-.055-1.195Zm22.746-14.551c-1.25-2.606-2.93-4.778-4.344-5.485-.16-.05-.433-.214-.433.055v35.613c0 1.63-.055 1.575 1.574 1.575h2.77V50.18c.109 0 .269.054.433.164Zm-16.23-2.66v-1.41h8.03v1.41Zm-11.836-1.356h1.953c-.813 1.086-1.246 1.63-1.953 2.93Zm31.703 2.93c-.703-1.3-1.14-1.844-1.953-2.93h1.953Zm-19.867 1.195v-1.41h8.03v1.41Zm0 2.715v-1.41h8.03v1.41Zm0 2.715V54.47h8.03v1.414Zm0 2.77v-1.415h8.03v1.414Zm0 2.71v-1.41h8.03v1.41Zm0 2.715v-1.41h8.03v1.41Zm0 2.77v-1.41h8.03v1.41Zm0 2.715v-1.41h8.03v1.41Zm0 2.77v-1.415h8.03v1.414Zm0 2.714v-1.414h8.03v1.414Zm0 2.715v-1.414h8.03v1.414Zm8.03 1.355v1.41h-8.03v-1.41Zm-8.14 2.715h8.25c.055.543.164 1.031.328 1.41h-8.906c.164-.379.274-.867.328-1.41Zm15.907 4.832H353.92l4.343 5.43h22.965v-4.13l-4.343-5.862ZM409.51 86.337c10.423 0 18.512-9.715 18.512-22.96 0-13.196-8.09-22.75-18.457-22.75-10.261 0-18.351 9.339-18.351 22.855 0 13.52 8.09 22.855 18.297 22.855Zm.11-2.008c-2.66 0-4.617-3.094-4.617-9.39v-23.02c0-6.352 1.957-9.336 4.617-9.336 2.766 0 4.668 3.094 4.668 9.336v23.02c0 6.296-1.902 9.39-4.668 9.39Zm0-1.14c.38 0 .703-.106 1.031-.27a18.221 18.221 0 0 1-.164-2.55v-23.02c0-4.399.977-7.168 2.551-7.98-.379-3.637-1.629-5.645-3.418-5.645-2.117 0-3.476 2.984-3.476 8.195v23.02c0 5.21 1.41 8.25 3.476 8.25Zm-8.035-37.676c1.031-.703 1.68-1.086 2.605-1.465-.218.434-.433.977-.597 1.465Zm14.113 0a11.714 11.714 0 0 0-.597-1.465c.816.324 1.464.652 2.605 1.465Zm-17.047 2.66c.434-.488.871-.977 1.36-1.41h3.203c-.11.433-.164.922-.274 1.41Zm17.645 0a10.737 10.737 0 0 0-.274-1.41h3.204c.492.433.925.922 1.359 1.41Zm-2.441 44.734c11.183 0 19.652-10.367 19.652-24.105 0-6.402-1.848-12.32-5.266-16.555l-3.91-4.887c3.04 4.18 4.832 9.72 4.832 16.016 0 13.734-8.469 24.102-19.652 24.102-5.106 0-9.664-2.172-13.086-5.864l3.148 3.965c3.64 4.559 8.688 7.328 14.282 7.328Zm-17.102-42.074c.27-.488.598-.976.922-1.41h5.156l-.105 1.41Zm19.812 0-.105-1.41h5.156c.324.434.598.922.922 1.41Zm-21.117 2.66.653-1.41h6.625v1.41Zm21.117 0v-1.41h6.625c.274.434.489.922.653 1.41Zm-22.093 2.715.433-1.41h7.82v1.41Zm22.093 0v-1.41h7.82l.434 1.41Zm-22.636 2.66.273-1.41h8.524v1.41Zm22.636 0v-1.41h8.524l.273 1.41Zm-22.96 2.66.105-1.41h9.016v1.41Zm22.96 0v-1.41h9.016l.106 1.41Zm-23.015 2.66v-1.41h9.176v1.41Zm23.015 0v-1.41h9.176v1.41Zm-22.855 2.66-.105-1.41h9.12v1.41Zm22.855 0v-1.41h9.122l-.16 1.41Zm-22.363 2.66-.273-1.41h8.797v1.41Zm22.363 0v-1.41h8.797l-.273 1.41ZM394.96 72.17l-.434-1.41h8.2v1.41Zm21.605 0v-1.41h8.2l-.434 1.41Zm-20.41 2.715-.652-1.41h7.223v1.41Zm20.41 0v-1.41h7.223a6.606 6.606 0 0 1-.652 1.41Zm-18.835 2.66a12.512 12.512 0 0 1-.922-1.41h5.918l.105 1.41Zm18.73 0 .105-1.41h5.918c-.27.488-.597.976-.921 1.41Zm-16.395 2.66c-.492-.433-.925-.922-1.359-1.41h4.29c.054.488.163.977.269 1.41Zm15.957 0c.11-.433.22-.922.274-1.41h4.289c-.434.488-.867.977-1.36 1.41Zm-11.777 2.715c-.816-.324-1.469-.652-2.605-1.465h2.007c.16.488.38 1.031.598 1.465Zm10.8 0c.22-.434.438-.977.599-1.465h2.007c-1.03.703-1.68 1.086-2.605 1.465ZM453.644 86.177c6.516 0 13.844-4.235 13.844-14.063 0-15.96-19.219-13.734-19.219-23.453 0-3.363 2.008-5.48 5.156-5.48 5.918 0 9.176 6.84 9.285 13.082h2.387V41.278h-2.332c-.11 1.684-.328 2.77-1.25 2.77-1.683 0-3.691-3.527-9.77-3.527-7.222 0-13.3 4.722-13.3 13.355 0 14.492 17.805 12.375 17.805 22.906 0 4.075-2.77 6.028-5.54 6.028-4.882 0-10.148-5.809-10.53-14.711h-2.227v17.426h2.336c.109-1.684.273-3.094 1.629-3.094 2.171 0 5.59 3.746 11.726 3.746Zm16.938-23.344V46.33l-4.344-5.484v16.558l-4.07-.054 4.343 5.43ZM444.847 44.86c.871-.648 1.684-1.082 2.88-1.464-.325.433-.653.976-.923 1.464Zm8.906 9.45v-.434c0-2.445 1.465-4.129 4.016-4.129 1.031 0 2.008.219 2.77.653-1.356-3.418-3.746-6.079-7.114-6.079-2.496 0-4.015 1.575-4.015 4.286 0 2.28 1.52 4.128 4.343 5.703Zm9.336-6.246c-.27-.649-.921-1.625-1.3-2.223.379 0 1.03-.11 1.3-.328Zm-20.793-.434c.329-.488.653-.977 1.032-1.41h2.988c-.164.433-.219.922-.273 1.41Zm-1.14 2.77c.11-.489.273-.977.492-1.41h4.34c0 .488.055.976.11 1.41Zm-.434 2.824c0-.489.055-.977.11-1.414h5.593c.215.488.38.98.649 1.414Zm.164 2.77-.164-1.415h7.223c.433.488.867.977 1.355 1.414Zm1.032 2.765a6.802 6.802 0 0 1-.653-1.41h9.828c.703.488 1.465.976 2.278 1.41Zm2.39 2.77c-.492-.434-.98-.922-1.414-1.41h12.922c.812.433 1.629.921 2.441 1.41Zm13.68 31.214c8.738 0 14.984-6.242 14.984-15.199 0-3.91-1.14-7.492-3.422-10.043l-3.8-4.832c1.793 2.281 2.878 5.266 2.878 9.445 0 8.957-6.242 15.203-14.984 15.203-6.516 0-10.152-3.746-11.617-3.746-.434 0-.543.38-.652 3.094h-3.965l4.343 5.43h3.965c.11-2.715.215-3.098.653-3.098 1.464 0 5.101 3.746 11.617 3.746Zm-9.34-28.39a32.783 32.783 0 0 1-2.387-1.414h14.114c.597.437 1.14.925 1.628 1.414ZM455 75.59c-1.137-5.703-8.957-6.352-14.114-11.89l3.961 4.831c2.66 3.203 7.223 5.102 10.153 7.059Zm-1.735-8.469a31.613 31.613 0 0 0-2.226-1.414h12.16c.324.434.652.926.867 1.414Zm-6.027 13.406c-.977-2.171-1.52-4.668-1.574-7.437l-4.344-5.375c.055 5.918 2.988 11.078 5.918 12.812Zm9.012-10.64a10.464 10.464 0 0 0-1.301-1.41h9.66c.164.433.273.922.383 1.41Zm1.574 2.77a6.606 6.606 0 0 0-.653-1.41h7.98c0 .269.056.597.056.866l-.055.543Zm.652 2.769c-.055-.488-.11-.977-.219-1.41h6.84c-.05.488-.16.976-.27 1.41Zm-.055 2.824c.055-.434.11-.926.11-1.414h5.863c-.164.488-.383.98-.652 1.414Zm-18.187 2.277v-3.093a18.986 18.986 0 0 0 1.684 2.715c-.653 0-1.25.164-1.684.378Zm17.32.489c.215-.434.434-.922.594-1.41h4.777c-.379.488-.812.976-1.3 1.41ZM455 83.84a6.948 6.948 0 0 0 1.628-1.465h3.149A11.539 11.539 0 0 1 455 83.841ZM529.372 82.103h1.957l-11.457-35.286-5.157-6.406 13.137 40.555c.219.703.817 1.137 1.52 1.137Zm-38.707 3.422h11.238v-2.282h-1.629c-1.684 0-2.496-.703-2.496-1.953 0-.379.11-.762.215-1.195l2.336-7.492h10.043l2.605 8.578c.055.164.11.433.11.652 0 .707-.38 1.41-1.63 1.41h-2.062v2.282h20.903v-2.282h-.926c-1.246 0-2.223-.758-2.606-1.953L513.74 41.01h-5.266l-13.191 39.574c-.543 1.629-1.957 2.66-3.695 2.66h-.922ZM509.614 44.7l.488-1.414h1.953l.434 1.414Zm-.871 2.715.488-1.414h3.746l.434 1.414Zm-.922 2.766.488-1.41h5.54l.433 1.41Zm-.922 2.77.488-1.41h7.383l.434 1.41Zm.649 2.714-.434-1.41h8.523l.434 1.41Zm-6.458 14.66 4.34-13.843 4.235 13.843Zm7.274-11.89-.434-1.41h8.578l.434 1.41Zm.867 2.77-.433-1.415h8.578l.488 1.414Zm-6.566 7.98h5.48l-2.715-8.852Zm7.437-5.211-.437-1.414h8.633l.488 1.414Zm.813 2.71-.434-1.41h8.688l.488 1.41Zm.867 2.77-.434-1.41h8.742l.489 1.41Zm.816 2.77-.433-1.41h8.793l.433 1.41Zm.867 2.715-.433-1.41h8.848l.437 1.41Zm-19 17.156h12.922v-3.8l-3.422-4.235 1.52-4.887h5.703l-1.683-5.43h-8.364l-2.062 6.68c-.055.16-.055.379-.055.543 0 .648.492 1.137 1.25 1.137h2.77v4.562h-12.922Zm19.817-14.387-.434-1.414h8.903l.433 1.414Zm.867 2.766-.434-1.41h8.958l.433 1.41Zm-20.195 2.824c.652-.488 1.195-1.14 1.465-1.684.054.598.328 1.141.761 1.684Zm20.086-.055c.164-.433.273-.922.328-1.41h9.172l.054.164c.164.38.383.867.598 1.246Zm-1.844 8.852h22.582v-3.91l-4.45-6.082v4.562h-22.476ZM148.447 100.39v34.255c0 2.281-.433 2.715-2.714 2.715h-1.625v2.28h20.898v-2.28h-1.629c-2.277 0-2.715-.434-2.715-2.715v-13.57h1.903c7.601 0 17.047-2.442 17.047-13.032 0-10.531-9.446-12.648-17.047-12.648h-18.457v2.281h1.625c2.28 0 2.714.434 2.714 2.715Zm12.215-2.878c.328-.11.817-.16 1.305-.16 3.313 0 5.863 2.66 5.863 10.855 0 8.633-2.824 10.75-5.863 10.75-.707 0-1.195-.109-1.305-.164Zm-2.277.164v1.41h-7.711c-.11-.543-.215-1.031-.379-1.41Zm13.406 1.41h-3.472c-.164-.379-.707-1.031-.977-1.41 1.465.27 3.363.867 4.45 1.41Zm-5.644 14.606v-9.774h.273c-.492-3.039-1.738-5.43-4.453-5.43h-.164v19.329h.164c2.117 0 3.473-1.356 4.18-4.125ZM147.31 100.39c0-1.52 0-1.574-1.578-1.574h-2.168l3.746 4.668Zm3.418 1.41v-1.41h7.656v1.41Zm24.593 0h-5.917c-.11-.488-.274-.976-.434-1.41h4.887c.543.434 1.03.922 1.464 1.41Zm-8.414 25.844c11.508 0 18.184-5.106 18.184-14.172 0-3.258-.867-6.078-2.605-8.195l-3.582-4.563c1.195 2.008 1.847 4.508 1.847 7.328 0 9.067-6.68 14.172-18.187 14.172h-.762v12.43c0 1.629-.055 1.574 1.574 1.574h2.606v-8.574Zm-16.18-23.13v-1.41h7.657v1.41Zm26.114 0h-6.95a12.57 12.57 0 0 0-.218-1.41h6.57c.22.49.434.923.598 1.41Zm-26.113 2.77v-1.41h7.656v1.41Zm26.547 0h-7.22c0-.488 0-.976-.054-1.41h7.11c.109.434.164.922.164 1.41ZM150.729 110v-1.414h7.656V110Zm26.437 0h-7.11c.056-.433.056-.925.056-1.414h7.218c-.054.489-.054.98-.164 1.414Zm-26.437 2.77v-1.414h7.656v1.414Zm25.625 0h-6.57l.163-1.414h6.95a16.63 16.63 0 0 1-.543 1.414Zm-25.625 2.71v-1.41h7.656v1.41Zm23.562 0h-5.16c.164-.433.274-.921.383-1.41h6.023a7.441 7.441 0 0 1-1.246 1.41Zm-23.562 2.716v-1.41h7.656v1.41Zm17.047.109c.324-.434.652-.977.867-1.52h3.746c-1.465.813-3.04 1.25-4.613 1.52Zm-17.047 2.66v-1.41h7.656v1.41Zm0 2.715v-1.41h7.656v1.41Zm0 2.715v-1.41h7.656v1.41Zm0 2.77v-1.415h7.656v1.414Zm0 2.714v-1.414h7.656v1.414Zm7.656 1.301v1.41h-7.656v-1.41Zm-7.711 2.77h7.766c.105.542.215.976.379 1.41h-8.524c.164-.434.27-.868.379-1.41Zm-7.11 4.832 4.34 5.43h22.586v-4.235l-4.507-5.758v4.563ZM191.279 100.39v34.255c0 2.281-.434 2.715-2.715 2.715h-1.625v2.28h20.629v-2.28h-1.63c-2.28 0-2.714-.434-2.714-2.715v-16.828c.11-.055.215-.055.707-.055 4.07 0 5.156 4.234 6.078 10.64.653 4.563 1.793 11.946 9.664 11.946 6.133 0 9.23-4.453 9.446-10.805l-2.282-.379c-.215 2.875-.867 4.668-2.007 4.668-1.141 0-.977-1.738-1.086-2.77-.215-2.495-1.086-12.105-10.043-13.679v-.219c5.648-.648 9.5-4.832 9.5-11.129 0-7.546-5.59-10.64-16.286-10.64H186.94v2.281h1.625c2.281 0 2.715.434 2.715 2.715Zm11.945-2.933c.379-.105.813-.16 1.3-.16 4.184 0 6.083 3.363 6.083 9.39 0 5.864-1.793 9.286-6.027 9.286-.543 0-.977-.055-1.356-.219Zm-2.281.22v1.41h-7.438c-.11-.544-.215-1.032-.379-1.41Zm16.125 1.573h-5.809a10.524 10.524 0 0 0-.922-1.52c1.735 0 5.047.598 6.73 1.52Zm-8.36 12.703v-8.09h.594c-.488-3.69-2.062-5.425-4.777-5.425h-.16v16.394h.215c2.011 0 3.367-.925 4.128-2.879Zm-18.566-11.562c0-1.52-.055-1.574-1.578-1.574h-2.168l3.746 4.668Zm27.25 16.992c6.57 3.258 7.328 11.399 7.492 13.57.055.598.164 1.032.219 1.36.27-.762.652-2.446.652-4.508l1.301.273-1.195-1.793c-.106-.214-.27-.378-.434-.597l-2.715-3.363c3.801-2.067 5.973-6.028 5.973-10.86 0-2.77-.707-5.156-2.496-7.383l-3.692-4.613c1.247 1.734 1.844 3.906 1.844 6.566 0 5.375-2.605 9.5-6.949 11.348Zm-23.832-15.582v-1.41h7.383v1.41Zm26.332.219h-7.602c-.109-.488-.273-.977-.433-1.414h7c.383.437.762.87 1.035 1.414Zm-26.332 2.55v-1.41h7.383v1.41Zm27.254.22h-7.98c-.055-.493-.11-.981-.22-1.415h7.872c.164.434.273.922.328 1.414Zm-27.254 2.495v-1.41h7.383v1.41Zm27.363-1.03c0 .433-.054.921-.11 1.355h-7.98c.055-.325.055-.598.055-.868v-.542h8.035ZM193.56 110v-1.414h7.383V110Zm26.437.38h-7.437c.11-.49.164-.923.219-1.41h7.761c-.105.487-.324.92-.543 1.41Zm-26.437 2.39v-1.414h7.383v1.414Zm24.375.379h-6.188l.489-1.414h6.949c-.328.492-.762.98-1.25 1.414Zm-24.375 2.332v-1.41h7.383v1.41Zm16.45.492a8.166 8.166 0 0 0 1.14-1.469h4.941c-1.957 1.086-3.586 1.469-6.082 1.469Zm-16.45 2.223v-1.41h7.383v1.41Zm21.227 1.086H209.9c-.27-.543-.488-.922-.813-1.301 2.063 0 3.801.324 5.7 1.3Zm-10.422-.38v15.743c0 1.629-.055 1.574 1.574 1.574h2.66v-9.555c-.977-5.808-2.172-7.707-4.234-7.761Zm-10.805 2.063v-1.41h7.383v1.41Zm24.484.977h-7.004c-.164-.489-.324-.977-.543-1.41h6.137c.488.433.977.867 1.41 1.41Zm-24.484 1.738v-1.41h7.383v1.41Zm26.168.977h-8.035l-.324-1.41h7.597c.274.433.543.921.762 1.41Zm-26.168 1.793v-1.415h7.383v1.415Zm27.2.867h-8.579l-.219-1.41h8.364c.16.433.324.921.433 1.41Zm-27.2 1.847v-1.414h7.383v1.414Zm27.797.813h-8.797l-.215-1.41h8.738Zm8.738-1.031c.055 8.199-3.906 12.812-10.422 12.812-3.039 0-5.593-1.086-7.328-3.094l4.45 5.536c1.738 1.957 4.234 2.988 7.222 2.988 6.516 0 10.477-4.617 10.586-12.38Zm-36.535 2.933v-1.414h7.383v1.414Zm28.066.758h-8.468c-.16-.434-.27-.922-.38-1.41h8.688v.055c0 .433.051.867.16 1.355Zm-20.683.598v1.41h-7.383v-1.41Zm21.77 2.117h-8.305a11.567 11.567 0 0 1-.762-1.41h8.309c.16.543.433 1.031.757 1.41Zm-29.208.598h7.547c.055.542.164.976.324 1.41h-8.25c.164-.434.27-.868.38-1.41Zm15.094 4.832h-22.203l4.34 5.43h22.312v-4.13l-4.449-5.863Zm15.578-4.18c-1.3 1.086-2.82 1.465-4.722 1.465-1.41 0-2.766-.325-4.07-1.465ZM253.276 140.453c10.422 0 18.512-9.714 18.512-22.96 0-13.196-8.09-22.75-18.457-22.75-10.262 0-18.352 9.34-18.352 22.855 0 13.52 8.09 22.855 18.297 22.855Zm.11-2.007c-2.66 0-4.618-3.094-4.618-9.391v-23.02c0-6.351 1.957-9.335 4.617-9.335 2.766 0 4.668 3.093 4.668 9.335v23.02c0 6.297-1.902 9.39-4.668 9.39Zm0-1.141c.378 0 .702-.105 1.03-.27a18.221 18.221 0 0 1-.164-2.55v-23.02c0-4.398.977-7.168 2.551-7.98-.379-3.637-1.629-5.645-3.418-5.645-2.117 0-3.476 2.985-3.476 8.195v23.02c0 5.21 1.41 8.25 3.476 8.25Zm-8.036-37.676c1.031-.703 1.68-1.086 2.606-1.465-.22.434-.434.977-.598 1.465Zm14.113 0a11.714 11.714 0 0 0-.597-1.465c.816.325 1.465.653 2.605 1.465Zm-17.046 2.66c.433-.488.87-.976 1.359-1.41h3.203c-.11.434-.164.922-.273 1.41Zm17.644 0a10.737 10.737 0 0 0-.273-1.41h3.203c.492.434.926.922 1.36 1.41Zm-2.441 44.735c11.183 0 19.652-10.367 19.652-24.106 0-6.402-1.848-12.32-5.266-16.554l-3.91-4.887c3.04 4.18 4.832 9.719 4.832 16.015 0 13.735-8.469 24.102-19.652 24.102-5.106 0-9.664-2.172-13.086-5.863l3.148 3.965c3.641 4.558 8.688 7.328 14.282 7.328Zm-17.102-42.074c.27-.489.598-.977.922-1.41h5.156l-.105 1.41Zm19.813 0-.106-1.41h5.156c.325.433.598.921.922 1.41Zm-21.118 2.66.653-1.41h6.625v1.41Zm21.118 0v-1.41h6.625c.273.433.488.921.652 1.41Zm-22.094 2.715.433-1.41h7.82v1.41Zm22.094 0v-1.41h7.82l.433 1.41Zm-22.637 2.66.273-1.41h8.524v1.41Zm22.637 0v-1.41h8.523l.273 1.41Zm-22.961 2.66.105-1.41h9.016v1.41Zm22.96 0v-1.41h9.016l.106 1.41Zm-23.015 2.66v-1.41h9.176v1.41Zm23.016 0v-1.41h9.175v1.41Zm-22.856 2.66-.105-1.41h9.12v1.41Zm22.856 0v-1.41h9.12l-.16 1.41Zm-22.364 2.66-.273-1.41h8.797v1.41Zm22.364 0v-1.41h8.796l-.273 1.41Zm-21.606 2.66-.433-1.41h8.199v1.41Zm21.606 0v-1.41h8.199l-.434 1.41ZM239.92 129l-.653-1.41h7.223V129Zm20.41 0v-1.41h7.222a6.606 6.606 0 0 1-.652 1.41Zm-18.836 2.66a12.512 12.512 0 0 1-.922-1.41h5.918l.105 1.41Zm18.73 0 .106-1.41h5.918c-.27.489-.598.977-.922 1.41Zm-16.394 2.66c-.493-.433-.926-.921-1.36-1.41h4.29c.054.489.163.977.269 1.41Zm15.957 0c.109-.433.218-.921.273-1.41h4.29c-.434.489-.868.977-1.36 1.41Zm-11.778 2.715c-.816-.324-1.468-.652-2.605-1.464h2.008c.16.488.379 1.03.597 1.464Zm10.801 0c.219-.433.438-.976.598-1.464h2.008c-1.032.703-1.68 1.086-2.606 1.464ZM297.245 140.508c5.211 0 9.719-2.008 13.684-2.008 2.062 0 3.691.543 5.265 1.465l.16-2.496a12.991 12.991 0 0 0-3.472-1.52v-12.593c0-.762.379-1.196 1.086-1.305l2.715-.27v-2.066H297.03v2.012l2.82.324c.762.11 1.141.543 1.141 1.305v14.492c-.597.11-1.195.219-1.789.219-6.68 0-6.789-9.121-6.789-21.227 0-12.433 2.012-19.543 7.168-19.543 5.375 0 9.988 4.778 10.856 14.168h2.28V95.18h-2.28c-.16 1.953-.434 2.93-1.52 2.93-1.574.054-4.45-3.368-10.91-3.368-9.883 0-18.785 6.79-18.785 22.641 0 13.844 6.785 23.125 18.023 23.125Zm16.992-22.473h3.965v-17.808l-4.344-5.43v17.809h-3.91Zm-24.101-19.164c1.3-.707 2.55-1.14 4.125-1.52-.328.434-.762.977-1.086 1.52Zm8.578 38c-.762-3.527-.817-8.304-.817-13.898l-2.007-.215v-4.18h2.062c.434-10.043 2.442-14.714 5.973-14.714 1.41 0 2.66.328 3.851 1.03-1.68-4.124-4.613-6.456-8.195-6.456-3.965 0-6.027 5.86-6.027 18.402 0 11.727.11 19.598 5.16 20.031Zm11.941-34.418c-.379-.816-.867-1.738-1.41-2.39h.16c.383 0 .926-.106 1.25-.38Zm-24.105-.867c.488-.488 1.031-.98 1.574-1.414h4.344a16.14 16.14 0 0 0-.543 1.414Zm-2.008 2.766c.273-.488.598-.977.922-1.41h6.082c-.11.488-.274.922-.379 1.41Zm-1.355 2.77c.16-.489.378-.977.597-1.41h7.11c-.055.433-.16.921-.215 1.41Zm-.872 2.769c.11-.488.274-.977.383-1.41h7.817l-.164 1.41Zm-.543 2.77c.11-.489.165-.977.274-1.415h8.25c-.055.438-.055.926-.106 1.414Zm-.269 2.714c.055-.437.11-.925.11-1.414h8.523v1.414Zm0 2.766v-1.41h8.633v1.41Zm40.066 29.047.27-4.668-3.473-4.344v-9.394c0-.106.051-.16.215-.16l3.582-.383v-3.473l-4.34-5.43v3.477l-3.586.379c-.215 0-.215.11-.215.218v11.723c1.247.383 2.497 1.035 3.528 1.738l-.324 4.942c-2.446-1.36-4.02-2.172-6.297-2.172-3.746 0-8.254 2.008-13.684 2.008-5.32 0-9.824-1.953-13.082-5.59l3.149 3.96c3.527 4.454 8.304 7.06 14.277 7.06 5.43 0 9.933-2.008 13.68-2.008 2.28 0 4.02.812 6.3 2.117Zm-39.902-26.278c-.055-.488-.055-.921-.11-1.41h8.579v1.41Zm.379 2.77-.274-1.41h8.364c0 .433.054.922.054 1.41Zm21.226 0v-.379a3.12 3.12 0 0 0-.164-1.031h7.657a3.12 3.12 0 0 0-.164 1.031v.379Zm-20.574 2.77c-.11-.489-.273-.977-.383-1.415h7.926c.055.438.055.926.11 1.415Zm20.574 0v-1.415h7.329v1.415Zm-19.542 2.714a10.973 10.973 0 0 1-.598-1.414h7.273l.164 1.414Zm19.542 0v-1.414h7.329v1.414Zm-18.023 2.77c-.328-.438-.598-.926-.871-1.414h6.406c.055.488.164.976.219 1.414Zm18.023 0v-1.414h7.329v1.414ZM287.69 134.7a17.156 17.156 0 0 1-1.41-1.41h5.102c.11.488.273.976.433 1.41Zm15.582 0v-1.41h7.329v1.41Zm-9.664 3.203c-2.007-.653-3.093-1.192-4.18-1.844h2.985c.219.488.871 1.41 1.195 1.844Zm9.664-.489v-1.355h7.329v.27c-2.442.054-4.778.488-7.329 1.085ZM329.978 100.39v34.255c0 2.281-.433 2.715-2.715 2.715h-1.625v2.28h20.63v-2.28h-1.63c-2.28 0-2.715-.434-2.715-2.715v-16.828c.11-.055.215-.055.708-.055 4.07 0 5.156 4.234 6.078 10.64.652 4.563 1.793 11.946 9.664 11.946 6.133 0 9.23-4.453 9.445-10.805l-2.281-.379c-.215 2.875-.867 4.668-2.008 4.668-1.14 0-.977-1.738-1.086-2.77-.215-2.495-1.086-12.105-10.043-13.679v-.219c5.648-.648 9.5-4.832 9.5-11.129 0-7.546-5.59-10.64-16.285-10.64h-19.977v2.281h1.625c2.282 0 2.715.434 2.715 2.715Zm11.945-2.933c.38-.105.813-.16 1.301-.16 4.184 0 6.082 3.363 6.082 9.39 0 5.864-1.793 9.286-6.027 9.286-.543 0-.977-.055-1.356-.219Zm-2.28.22v1.41h-7.438c-.11-.544-.215-1.032-.38-1.41Zm16.124 1.573h-5.808a10.524 10.524 0 0 0-.922-1.52c1.734 0 5.047.598 6.73 1.52Zm-8.36 12.703v-8.09h.595c-.489-3.69-2.063-5.425-4.778-5.425h-.16v16.394h.215c2.012 0 3.367-.925 4.129-2.879Zm-18.566-11.562c0-1.52-.054-1.574-1.578-1.574h-2.168l3.746 4.668Zm27.25 16.992c6.57 3.258 7.329 11.399 7.493 13.57.054.598.164 1.032.218 1.36.27-.762.653-2.446.653-4.508l1.3.273-1.195-1.793c-.105-.214-.27-.378-.433-.597l-2.715-3.363c3.8-2.067 5.972-6.028 5.972-10.86 0-2.77-.707-5.156-2.496-7.383l-3.691-4.613c1.246 1.734 1.844 3.906 1.844 6.566 0 5.375-2.606 9.5-6.95 11.348Zm-23.832-15.582v-1.41h7.383v1.41Zm26.332.219h-7.601c-.11-.488-.274-.977-.434-1.414h7c.383.437.762.87 1.035 1.414Zm-26.332 2.55v-1.41h7.383v1.41Zm27.254.22h-7.98c-.055-.493-.11-.981-.219-1.415h7.871c.164.434.274.922.328 1.414Zm-27.254 2.495v-1.41h7.383v1.41Zm27.364-1.03c0 .433-.055.921-.11 1.355h-7.98c.055-.325.055-.598.055-.868v-.542h8.035ZM332.259 110v-1.414h7.383V110Zm26.438.38h-7.438c.11-.49.164-.923.22-1.41h7.76c-.105.487-.323.92-.542 1.41Zm-26.438 2.39v-1.414h7.383v1.414Zm24.375.379h-6.187l.488-1.414h6.95c-.329.492-.762.98-1.25 1.414Zm-24.375 2.332v-1.41h7.383v1.41Zm16.45.492a8.166 8.166 0 0 0 1.14-1.469h4.942c-1.957 1.086-3.586 1.469-6.082 1.469Zm-16.45 2.223v-1.41h7.383v1.41Zm21.227 1.086h-4.887c-.27-.543-.488-.922-.812-1.301 2.062 0 3.8.324 5.699 1.3Zm-10.422-.38v15.743c0 1.629-.055 1.574 1.574 1.574h2.66v-9.555c-.976-5.808-2.171-7.707-4.234-7.761Zm-10.805 2.063v-1.41h7.383v1.41Zm24.485.977h-7.004c-.164-.489-.324-.977-.543-1.41h6.137c.488.433.976.867 1.41 1.41Zm-24.485 1.738v-1.41h7.383v1.41Zm26.168.977h-8.035l-.324-1.41h7.598c.273.433.543.921.761 1.41Zm-26.168 1.793v-1.415h7.383v1.415Zm27.2.867h-8.578l-.22-1.41h8.364c.16.433.324.921.434 1.41Zm-27.2 1.847v-1.414h7.383v1.414Zm27.797.813h-8.797l-.214-1.41h8.738Zm8.739-1.031c.054 8.199-3.907 12.812-10.422 12.812-3.04 0-5.594-1.086-7.328-3.094l4.449 5.536c1.738 1.957 4.234 2.988 7.222 2.988 6.516 0 10.477-4.617 10.586-12.38Zm-36.536 2.933v-1.414h7.383v1.414Zm28.067.758h-8.469c-.16-.434-.27-.922-.379-1.41h8.688v.055c0 .433.05.867.16 1.355Zm-20.684.598v1.41h-7.383v-1.41Zm21.77 2.117h-8.305a11.567 11.567 0 0 1-.762-1.41h8.309c.16.543.434 1.031.758 1.41Zm-29.207.598h7.547c.054.542.164.976.324 1.41h-8.25c.164-.434.27-.868.379-1.41Zm15.093 4.832h-22.203l4.34 5.43h22.313v-4.13l-4.45-5.863Zm15.579-4.18c-1.301 1.086-2.82 1.465-4.723 1.465-1.41 0-2.766-.325-4.07-1.465Zm0 0"/><path d="M411.3 136.22h1.957L401.8 100.933l-5.157-6.406 13.137 40.554c.219.703.816 1.137 1.52 1.137Zm-38.707 3.42h11.238v-2.28h-1.63c-1.683 0-2.495-.703-2.495-1.953 0-.38.11-.762.215-1.196l2.336-7.492H392.3l2.605 8.578c.055.164.11.434.11.653 0 .707-.38 1.41-1.63 1.41h-2.062v2.28h20.902v-2.28h-.925c-1.247 0-2.223-.758-2.606-1.953l-13.027-40.282H390.4L377.21 134.7c-.543 1.628-1.957 2.66-3.696 2.66h-.921Zm18.949-40.823.488-1.414h1.953l.434 1.414Zm-.871 2.715.488-1.415h3.746l.434 1.415Zm-.922 2.765.488-1.41h5.54l.433 1.41Zm-.922 2.77.488-1.41h7.383l.434 1.41Zm.648 2.715-.433-1.41h8.523l.434 1.41Zm-6.457 14.66 4.34-13.844 4.235 13.844Zm7.274-11.89-.434-1.411h8.578l.434 1.41Zm.867 2.769-.434-1.414h8.578l.489 1.414Zm-6.566 7.98h5.48l-2.715-8.851Zm7.437-5.21-.437-1.415h8.632l.489 1.414Zm.813 2.71-.434-1.41h8.687l.489 1.41Zm.867 2.77-.434-1.41h8.742l.489 1.41Zm.816 2.77-.433-1.411h8.792l.434 1.41Zm.867 2.714-.433-1.41h8.847l.438 1.41Zm-19 17.156h12.922v-3.8l-3.422-4.235 1.52-4.887h5.703l-1.684-5.43h-8.363l-2.062 6.68c-.055.16-.055.38-.055.543 0 .649.492 1.137 1.25 1.137h2.77v4.563H372.05Zm19.817-14.386-.434-1.415h8.902l.434 1.415Zm.867 2.765-.434-1.41h8.957l.434 1.41Zm-20.195 2.824c.652-.488 1.195-1.14 1.464-1.683.055.597.329 1.14.762 1.683Zm20.086-.054c.164-.434.273-.922.328-1.41h9.172l.054.164c.164.378.383.867.598 1.246Zm-1.844 8.851h22.582v-3.91l-4.45-6.082v4.563H390.78ZM443.437 112.063l-3.04-11.781-4.343-5.43 5.973 22.8Zm24.863-7.817h2.77v-3.8l-4.344-5.485v3.856h-2.766c-1.628 0-1.578-.055-1.578 1.574v34.254c0 1.629-.05 1.574 1.578 1.574h2.66v-30.398c0-1.63-.054-1.575 1.68-1.575Zm-46.09-4.507-.109 34.906c-.055 2.336-.543 2.715-2.77 2.715h-1.624v2.28h11.398v-2.28h-1.629c-2.281 0-2.715-.434-2.715-2.715v-29.477l9.121 34.528 6.082-.055 9.336-35.016v30.02c0 2.281-.433 2.715-2.715 2.715h-1.628v2.28h20.628v-2.28h-1.625c-2.28 0-2.714-.434-2.714-2.715V100.39c0-2.281.433-2.715 2.714-2.715h1.625v-2.281h-16.718l-6.84 26.82-7.004-26.82h-17.156v2.281h1.629c2.062 0 2.605.324 2.714 2.063Zm11.075-2.063.382 1.41h-8.144l-.379-1.41Zm18.297 0h7.816c-.164.379-.27.867-.324 1.41h-7.492Zm-30.567 2.063c0-.868.055-.922-1.52-.922h-2.171l3.691 4.613Zm13.3 2.062h-8.089l-.379-1.41h8.145Zm17.267-1.41h7.382v1.41h-7.382Zm-16.56 4.125h-8.089l-.379-1.41h8.145Zm16.56-1.41h7.382v1.41h-7.382Zm-16.18 2.77.383 1.41h-8.09l-.383-1.41Zm16.18 0h7.382v1.41h-7.382ZM436.488 110h-8.09l-.379-1.414h8.09Zm15.094-1.414h7.382V110h-7.382Zm-14.387 4.184h-8.09l-.379-1.414h8.09Zm14.387-1.414h7.382v1.414h-7.382Zm-7.766 29.426v-4.563h2.77c1.628 0 1.574.055 1.574-1.574v-21.332l-7.328 27.469-7.817.054-7.113-26.875v20.684c0 1.629-.055 1.574 1.574 1.574h2.715v4.563h-13.027l4.34 5.43h13.355v-3.477l2.824 3.53 7.492-.054.922-3.367 2.66 3.367h22.313v-4.074l-4.45-5.918v4.563Zm-5.863-25.301h-8.086l-.383-1.41h8.09Zm13.629-1.41h7.382v1.41h-7.382Zm-12.977 4.125h-8.035l-.38-1.41h8.036Zm12.977-1.41h7.382v1.41h-7.382Zm-12.27 4.18h-8.035l-.38-1.411h8.087Zm12.27-1.411h7.382v1.41h-7.382Zm-11.512 4.125h-8.031l-.383-1.41h8.035Zm11.512-1.41h7.382v1.41h-7.382Zm-10.805 4.125h-8.035l-.38-1.41h8.036Zm10.805-1.41h7.382v1.41h-7.382Zm-11.184 4.18h-6.95l-.378-1.415h7.652Zm11.184-1.415h7.382v1.414h-7.382Zm-11.891 4.13h-5.484l-.38-1.415h6.243Zm11.89-1.415h7.383v1.414h-7.382Zm-12.648 4.125h-4.02l-.378-1.41h4.777Zm12.649-1.41h7.382v1.41h-7.382Zm-13.41 4.18h-2.551l-.38-1.41h3.31Zm13.355-1.41h7.547c.054.542.16.976.324 1.41h-8.25c.16-.434.324-.868.379-1.41Zm-28.23.164c.163.433.324.867.761 1.3h-1.523c.437-.433.652-.867.761-1.3ZM510.968 136.22h1.957l-11.457-35.286-5.157-6.406 13.137 40.554c.219.703.817 1.137 1.52 1.137Zm-38.707 3.42h11.238v-2.28h-1.629c-1.684 0-2.496-.703-2.496-1.953 0-.38.11-.762.215-1.196l2.336-7.492h10.043l2.605 8.578c.055.164.11.434.11.653 0 .707-.38 1.41-1.63 1.41h-2.062v2.28h20.902v-2.28h-.925c-1.246 0-2.223-.758-2.606-1.953l-13.027-40.282h-5.266L476.878 134.7c-.543 1.628-1.957 2.66-3.695 2.66h-.922Zm18.949-40.823.488-1.414h1.953l.434 1.414Zm-.871 2.715.488-1.415h3.746l.434 1.415Zm-.922 2.765.488-1.41h5.54l.433 1.41Zm-.922 2.77.488-1.41h7.383l.434 1.41Zm.648 2.715-.433-1.41h8.523l.434 1.41Zm-6.457 14.66 4.34-13.844 4.235 13.844Zm7.274-11.89-.434-1.411h8.578l.434 1.41Zm.867 2.769-.434-1.414h8.579l.488 1.414Zm-6.566 7.98h5.48l-2.715-8.851Zm7.437-5.21-.437-1.415h8.632l.489 1.414Zm.813 2.71-.434-1.41h8.688l.488 1.41Zm.867 2.77-.434-1.41h8.742l.489 1.41Zm.816 2.77-.433-1.411h8.793l.433 1.41Zm.867 2.714-.433-1.41h8.848l.437 1.41Zm-19 17.156h12.922v-3.8l-3.422-4.235 1.52-4.887h5.703l-1.683-5.43h-8.364l-2.062 6.68c-.055.16-.055.38-.055.543 0 .649.492 1.137 1.25 1.137h2.77v4.563h-12.922Zm19.817-14.386-.434-1.415h8.903l.433 1.415Zm.867 2.765-.434-1.41h8.957l.434 1.41Zm-20.195 2.824c.652-.488 1.195-1.14 1.465-1.683.054.597.328 1.14.761 1.683Zm20.086-.054c.164-.434.273-.922.328-1.41h9.172l.054.164c.164.378.383.867.598 1.246Zm-1.844 8.851h22.582v-3.91l-4.45-6.082v4.563h-22.476ZM521.715 100.39v34.255c0 2.281-.434 2.715-2.715 2.715h-1.625v2.28h20.629v-2.28h-1.63c-2.28 0-2.714-.434-2.714-2.715v-16.828c.11-.055.215-.055.707-.055 4.07 0 5.156 4.234 6.078 10.64.652 4.563 1.793 11.946 9.664 11.946 6.133 0 9.23-4.453 9.445-10.805l-2.28-.379c-.216 2.875-.868 4.668-2.009 4.668-1.14 0-.976-1.738-1.086-2.77-.214-2.495-1.086-12.105-10.043-13.679v-.219c5.649-.648 9.5-4.832 9.5-11.129 0-7.546-5.59-10.64-16.285-10.64h-19.976v2.281H519c2.28 0 2.715.434 2.715 2.715Zm11.945-2.933c.379-.105.812-.16 1.3-.16 4.184 0 6.083 3.363 6.083 9.39 0 5.864-1.793 9.286-6.028 9.286-.543 0-.976-.055-1.355-.219Zm-2.281.22v1.41h-7.438c-.11-.544-.215-1.032-.379-1.41Zm16.125 1.573h-5.809a10.524 10.524 0 0 0-.922-1.52c1.735 0 5.047.598 6.73 1.52Zm-8.36 12.703v-8.09h.594c-.488-3.69-2.063-5.425-4.777-5.425h-.16v16.394h.214c2.012 0 3.368-.925 4.13-2.879Zm-18.566-11.562c0-1.52-.055-1.574-1.578-1.574h-2.168l3.746 4.668Zm27.25 16.992c6.57 3.258 7.328 11.399 7.492 13.57.055.598.164 1.032.219 1.36.27-.762.652-2.446.652-4.508l1.3.273-1.194-1.793c-.106-.214-.27-.378-.434-.597l-2.715-3.363c3.8-2.067 5.973-6.028 5.973-10.86 0-2.77-.707-5.156-2.496-7.383l-3.692-4.613c1.246 1.734 1.844 3.906 1.844 6.566 0 5.375-2.605 9.5-6.95 11.348Zm-23.832-15.582v-1.41h7.383v1.41Zm26.332.219h-7.602c-.11-.488-.273-.977-.433-1.414h7c.382.437.761.87 1.035 1.414Zm-26.332 2.55v-1.41h7.383v1.41Zm27.254.22h-7.98c-.055-.493-.11-.981-.22-1.415h7.872c.164.434.273.922.328 1.414Zm-27.254 2.495v-1.41h7.383v1.41Zm27.363-1.03c0 .433-.055.921-.11 1.355h-7.98c.055-.325.055-.598.055-.868v-.542h8.035ZM523.996 110v-1.414h7.383V110Zm26.437.38h-7.437c.11-.49.164-.923.219-1.41h7.761c-.105.487-.324.92-.543 1.41Zm-26.437 2.39v-1.414h7.383v1.414Zm24.375.379h-6.188l.489-1.414h6.949c-.328.492-.762.98-1.25 1.414Zm-24.375 2.332v-1.41h7.383v1.41Zm16.449.492a8.166 8.166 0 0 0 1.14-1.469h4.942c-1.957 1.086-3.586 1.469-6.082 1.469Zm-16.45 2.223v-1.41h7.384v1.41Zm21.227 1.086h-4.886c-.27-.543-.489-.922-.813-1.301 2.063 0 3.8.324 5.7 1.3Zm-10.422-.38v15.743c0 1.629-.054 1.574 1.575 1.574h2.66v-9.555c-.977-5.808-2.172-7.707-4.235-7.761Zm-10.804 2.063v-1.41h7.383v1.41Zm24.484.977h-7.004c-.164-.489-.324-.977-.543-1.41h6.137c.488.433.977.867 1.41 1.41Zm-24.484 1.738v-1.41h7.383v1.41Zm26.168.977h-8.035l-.325-1.41h7.598c.273.433.543.921.762 1.41Zm-26.168 1.793v-1.415h7.383v1.415Zm27.199.867h-8.578l-.219-1.41h8.363c.16.433.325.921.434 1.41Zm-27.2 1.847v-1.414h7.384v1.414Zm27.798.813h-8.797l-.215-1.41h8.738Zm8.738-1.031c.055 8.199-3.906 12.812-10.422 12.812-3.039 0-5.594-1.086-7.328-3.094l4.45 5.536c1.737 1.957 4.234 2.988 7.222 2.988 6.515 0 10.476-4.617 10.586-12.38Zm-36.535 2.933v-1.414h7.383v1.414Zm28.066.758h-8.469c-.16-.434-.27-.922-.378-1.41h8.687v.055c0 .433.05.867.16 1.355Zm-20.683.598v1.41h-7.383v-1.41Zm21.77 2.117h-8.306a11.567 11.567 0 0 1-.761-1.41h8.308c.16.543.434 1.031.758 1.41Zm-29.208.598h7.547c.055.542.164.976.324 1.41h-8.25c.164-.434.27-.868.38-1.41Zm15.094 4.832h-22.203l4.34 5.43h22.312v-4.13l-4.45-5.863Zm15.578-4.18c-1.3 1.086-2.82 1.465-4.723 1.465-1.41 0-2.765-.325-4.07-1.465Zm0 0"/><path fill="#3c6236" d="M100.21 60.504s10.087 10.871 12.114 12.281c2.031 1.414-2.734 6.774-2.734 6.774l-10.63-1.516 1.25-17.54M66.234 61.922S52.461 81.988 52.461 84.727c0 2.738.77 3.984 3.664 3.984 2.89 0 12.914-9.332 12.914-9.332l-2.805-17.457"/><path fill="#fab493" d="M89.652 86.125s-1.336-.035-2.05-.375c-.715-.34-1.297-.828-1.899-1.39-.601-.567-1.308-1.223-1.71-1.715-.395-.477-.868-.81-.868-.243 0 0 .395 1.09.715 2.387 0 0 .133.32-.32.285-.454-.039-5.043-1.129-5.043-1.129s-.903-.265-.825.375c0 0 0 .153.75.453 0 0 3.368 1.258 3.141 1.372-.14.07-1.828.066-3.102.066-.765-.004-1.379-.004-1.421.008-.114.039-.422.086-.422.285 0 .223.129.254.433.328.301.074 4.223.516 4.336.594 0 0-.031.047-.332.156-.3.113-3.531.516-3.734.547-.301.047-.48.406-.14.52.339.113 4.253.206 4.253.206s-.887.262-1.3.415c-.415.148-1.665.43-1.813.656 0 0-.196.21 0 .34.148.097.3.093.488.093s6.914-.773 7.59-1.261c.68-.489.867-.489 1.207-.563.336-.078 2.066.074 2.066.074v-2.484"/><path fill="#e2c673" d="M106.61 73.371c-1.997 2.164-9.376 9.723-17.462 12.54v3.132s12.645 2.766 19.36-2.598c0 0-1.555-13.445-1.899-13.074M138.941 72.785s12.102 17.63 12.102 20.035c0 2.403-.68 3.5-3.219 3.5-2.539 0-11.344-8.199-11.344-8.199l2.461-15.336"/><path fill="#290c11" d="M128.91 142.887s2.356 2.851 2.75 3.902c.285.762-.105 2.191-1.246 2.336-1.144.14-4.672-2.098-5.39-3.766-.438-1.02.05-2.476.05-2.476l3.836.004"/><path fill="#fff" d="M126.637 143.348s.925 2.25 1.597 2.37c.668.126 2.215-.394 1.766-1.214-.453-.82-1.285-1.813-1.285-1.813s-2.028-.004-2.078.657"/><path fill="#fab493" d="m128.91 142.887-3.86.078-.382-19.66 7.129-.547-2.887 20.129"/><path fill="#fff" d="m129.602 138.066-.692 4.82-3.86.079-.097-5.008c.91-.004 3.762 0 4.649.11"/><path fill="#d2e0e4" d="m129.582 138.215-.2 1.375c-.816.055-3.663.281-3.745.773-.094.57-.117 1.383.12 1.594.208.191 2.462-.254 3.212.516l-.059.414-3.86.078-.09-4.563c1.243-.05 3.33-.136 4.622-.187"/><path fill="#3d1119" d="M131.71 146.957s.595.938-.026 1.98c-.621 1.04-2.7.575-3.715.192-1.012-.379-2.645-2.008-3.125-3.293 0 0-.227-.856.004-1.332 0 0 2.086 4.238 5.554 3.918 0 0 1.348-.035 1.309-1.465"/><path fill="#290c11" d="M128.91 142.887s-.082-.715-.676-.688c-.597.024-2.359.281-2.765 1.047-.297.566.265.5.86.383.597-.121 1.898-.906 2.581-.742"/><path fill="#fff" d="M129.652 137.719s.274.094.297.406c.024.309-.156 1.04-.52 1.137h-4.476s-.226-.235-.285-.637c-.055-.406-.059-.836.277-1.004l4.707.098"/><path fill="#290c11" d="M115.395 142.887s-2.356 2.851-2.75 3.902c-.286.762.105 2.191 1.246 2.336 1.144.14 4.671-2.098 5.39-3.766.438-1.02-.05-2.476-.05-2.476l-3.836.004"/><path fill="#fff" d="M117.668 143.348s-.926 2.25-1.594 2.37c-.672.126-2.219-.394-1.765-1.214.449-.82 1.28-1.813 1.28-1.813s2.028-.004 2.079.657"/><path fill="#fab493" d="m115.395 142.887 3.859.078.383-19.66-7.13-.547 2.888 20.129"/><path fill="#fff" d="m114.703 138.066.692 4.82 3.859.079.098-5.008c-.91-.004-3.762 0-4.649.11"/><path fill="#d2e0e4" d="m114.723 138.215.199 1.375c.816.055 3.664.281 3.746.773.094.57.117 1.383-.121 1.594-.207.191-2.461-.254-3.211.516l.059.414 3.859.078.09-4.563c-1.242-.05-3.328-.136-4.621-.187"/><path fill="#3d1119" d="M112.594 146.957s-.594.938.027 1.98c.625 1.04 2.7.575 3.715.192 1.012-.379 2.644-2.008 3.129-3.293 0 0 .222-.856-.004-1.332 0 0-2.09 4.238-5.555 3.918 0 0-1.351-.035-1.312-1.465"/><path fill="#290c11" d="M115.395 142.887s.082-.715.68-.688c.593.024 2.355.281 2.76 1.047.298.566-.265.5-.858.383-.598-.121-1.899-.906-2.582-.742"/><path fill="#fff" d="M114.652 137.719s-.273.094-.297.406c-.023.309.157 1.04.52 1.137h4.477s.226-.235.285-.637c.054-.406.058-.836-.278-1.004l-4.707.098"/><path fill="#d0b8ab" d="M106.848 56.168s.375 7.562 2.722 9.672c2.352 2.11 12.606 4.226 14.703 3.89 2.098-.335-2.71-4.406-2.71-4.406l-11.555-10.773-3.16 1.617"/><path fill="#d0b8ab" d="M140.723 50.371s1.105 11.29-2.45 16.176c0 0-7.253 3.605-13.644 3.144-6.387-.457 6.336-11.238 6.336-11.238l9.758-8.082"/><path fill="#1d2e42" d="M142.953 128.879s-2.68-17.441-3.683-26.52h-33.528l-3.504 26.633s2.02 2.203 3.547 2.203c1.524 0 1.63-1.523 3.903-.675 2.277.843 3.66 3.328 6.378 2.34 2.723-.989 3.82-.356 4.301 0 .48.359 4.012 1.156 6.258 0 2.246-1.157 3.25-1.325 4.688-.817 1.437.508 3.593 1.523 5.074 0 1.484-1.523 6.218-.57 6.566-3.164"/><path fill="#121f2e" d="M139.625 105.375a217.467 217.467 0 0 1-.355-3.016h-33.528l-.918 6.977c16.39 4.246 30.598-1.856 34.801-3.961"/><path fill="#ec4733" d="M140.238 75.93c0-7.918-17.21-11.825-17.21-11.825l-.032.016-.031-.016s-17.207 3.907-17.207 11.825l-1.512 28.476s8.496 1.965 18.64 1.906c10.419.06 18.641-1.738 18.641-1.738l-1.289-28.644"/><path fill="#f7ac71" d="M135.383 148.793a.956.956 0 1 1-1.914 0v-58.98c0-.528.43-.958.957-.958.527 0 .957.43.957.957v58.981"/><path fill="#c83123" d="M123.434 79.559h-.88v26.754H123.435V79.558"/><path fill="#d2c784" d="M128.621 75.93c0 3.054-2.508 5.53-5.601 5.53-3.094 0-5.602-2.476-5.602-5.53 0-3.055 2.508-5.528 5.602-5.528 3.093 0 5.601 2.473 5.601 5.528"/><path fill="#e3d8a1" d="M123.152 75.02s-8.261 2.53-8.925 3.023c0 0-.368-4.691 1.714-12.02l4.157-.738 3.054 9.735M123.16 75.02s8.262 2.53 8.926 3.023c0 0 .367-4.691-1.715-12.02l-4.156-.738-3.055 9.735"/><path fill="#f89a7c" d="M119.305 67.258s.68 5.586 3.847 7.762c0 0 3.375-2.754 3.594-7.762h-7.441"/><path fill="#ea8469" d="M119.648 69c1.13.672 3.512 1.793 6.477 1.488.328-.941.566-2.02.621-3.23h-7.441s.086.719.343 1.742"/><path fill="#f89a7c" d="M139.957 53.672c.027-.95.063-1.899-.016-2.848a8.076 8.076 0 0 0-.25-.996 2.753 2.753 0 0 1-.129-.808c-1.14.21-2.34 1.257-2.34 1.257s-2.687 5.985-.538 6.727c1.058.367 2.336-.02 3.328-.965a19.88 19.88 0 0 1-.055-2.367"/><path fill="#ea8469" d="M138.445 56.176s2.075-1.14 2.27-3.973c0 0 .172-2.433-1.461-1.527 0 0-1.356.629-1.875 2.8 0 0 .516.137.465.895 0 0-.11.543-.672.691 0 0 .203 1.333 1.273 1.114"/><path fill="#cc7057" d="M140.797 52.594c0-.004.02-.219.02-.512 0-.277-.02-.625-.094-.934-.075-.308-.203-.597-.47-.726a.709.709 0 0 0-.304-.063c-.43 0-.976.282-1.484.805-.508.523-.969 1.293-1.188 2.29a.113.113 0 0 0 .059.116l.016.008a.81.81 0 0 1 .234.188c.09.109.168.25.172.441 0 .047-.008.094-.016.145-.054.28-.199.425-.336.507a.62.62 0 0 1-.176.082l-.054.016h-.016a.107.107 0 0 0-.094.113c.004.008.036.297.172.594.07.148.168.3.309.418.14.117.324.2.55.2.196 0 .423-.06.68-.196a.107.107 0 0 0 .043-.14.104.104 0 0 0-.14-.044c-.235.125-.43.172-.582.172a.615.615 0 0 1-.418-.152c-.164-.133-.27-.352-.328-.54a2.002 2.002 0 0 1-.063-.237l-.016-.094-.101.011.012.102a.87.87 0 0 0 .332-.125.954.954 0 0 0 .43-.648.886.886 0 0 0-.254-.813.987.987 0 0 0-.266-.195l-.047.094.101.02c.211-.958.653-1.692 1.133-2.188.477-.496 1-.746 1.336-.743a.52.52 0 0 1 .219.043c.164.075.285.301.355.586.067.285.086.617.086.887 0 .14-.004.266-.011.352-.004.086-.008.136-.008.136a.1.1 0 0 0 .094.114c.054.007.105-.036.113-.09"/><path fill="#cc7057" d="M139.828 53.332c0-.004.012-.102.012-.254 0-.254-.031-.66-.211-1.02-.176-.355-.531-.66-1.117-.656-.075 0-.153.004-.235.016a.1.1 0 0 0-.09.113c.008.055.06.098.114.09.074-.008.144-.012.21-.012.516.004.774.239.934.547.157.305.188.684.188.922 0 .07-.004.129-.004.168-.004.043-.008.063-.008.063-.004.054.035.109.094.113a.101.101 0 0 0 .113-.09"/><path fill="#f89a7c" d="M108.645 50.242s-3.543-3.101-4.247.29c-.918 4.44 2.446 7.238 4.774 6.44 2.148-.738-.527-6.73-.527-6.73"/><path fill="#ea8469" d="M107.41 56.14s-2.07-1.148-2.258-3.976c0 0-.168-2.434 1.461-1.527 0 0 1.352.633 1.867 2.804 0 0-.515.141-.464.899 0 0 .105.539.671.691 0 0-.21 1.332-1.277 1.11"/><path fill="#cc7057" d="m105.273 52.531-.007-.133a4.086 4.086 0 0 1-.012-.343c0-.266.02-.602.09-.89.066-.29.191-.52.355-.595a.52.52 0 0 1 .219-.043c.336-.004.855.246 1.336.743.476.5.918 1.234 1.125 2.195l.101-.024-.043-.093c-.007.004-.136.066-.269.199a.861.861 0 0 0-.27.629c0 .058.004.117.016.183a.93.93 0 0 0 .426.645c.172.105.324.125.332.129l.016-.102-.106-.011-.004.039c-.016.101-.07.359-.2.578-.128.222-.316.402-.62.402-.153 0-.344-.047-.582-.172a.104.104 0 0 0-.14.043.104.104 0 0 0 .042.14c.258.138.484.196.68.196.226 0 .41-.078.55-.2.419-.355.477-.995.481-1.007.008-.055-.035-.105-.09-.113h-.004c-.02-.004-.144-.028-.27-.114a.722.722 0 0 1-.308-.492c-.008-.05-.015-.101-.015-.144 0-.219.105-.375.21-.485a1 1 0 0 1 .149-.117l.05-.031.012-.008a.096.096 0 0 0 .059-.113c-.219-1-.676-1.77-1.18-2.293-.507-.524-1.054-.805-1.484-.809-.11 0-.215.02-.305.063-.265.129-.394.422-.472.73a4.27 4.27 0 0 0-.094.942c0 .289.02.496.02.496.007.058.058.101.113.094a.1.1 0 0 0 .093-.114"/><path fill="#cc7057" d="M106.238 53.27s-.004-.02-.004-.06c-.004-.038-.004-.093-.004-.163 0-.234.032-.617.188-.926.16-.305.418-.543.934-.547.066 0 .136.004.21.012a.099.099 0 0 0 .114-.09.099.099 0 0 0-.09-.113 1.647 1.647 0 0 0-.234-.016c-.586-.004-.942.305-1.118.66-.183.36-.21.766-.21 1.02 0 .148.007.246.007.246a.108.108 0 0 0 .117.094.105.105 0 0 0 .09-.117"/><path fill="#fab493" d="M122.727 68.496c-10.754-2.266-12.332-7.8-12.332-7.8-1.497-4.673-2.258-14.372-1.707-19.04 1.003-8.543 8.378-11.297 14.41-11.293 5.101.008 13.398 2.782 14.382 11.325.54 4.671-.246 14.37-1.75 19.035 0 0-1.59 5.53-12.351 7.773 0 0-.34.067-.652 0"/><path fill="#592a32" d="m131.66 49.938.942-.2c.043-.008.09.02.097.063l-.023.082-.711.644a.345.345 0 1 1-.305-.59M130.93 48.938l.785-.364c.043-.015.09 0 .11.043l-.005.078-.449.739a.349.349 0 0 1-.476.117.349.349 0 0 1 .035-.614M129.957 48.277l.54-.586.116-.004.028.07-.078.79a.352.352 0 0 1-.7-.07.33.33 0 0 1 .094-.2M113.965 50.18l-.711-.649-.004-.117.078-.023.942.199c.183.043.3.222.261.41a.34.34 0 0 1-.406.262.33.33 0 0 1-.16-.082M114.297 49.46l-.707-.648-.008-.117.078-.023.942.203a.341.341 0 1 1-.145.668.33.33 0 0 1-.16-.082M115.133 48.715l-.34-.961c-.016-.043.008-.094.05-.106l.083.016.758.684a.34.34 0 0 1 .027.48.345.345 0 0 1-.484.027.371.371 0 0 1-.094-.14"/><path fill="#f6828b" d="M112.844 55.586c0 .844 1.191 1.527 2.668 1.527 1.476.004 2.672-.675 2.675-1.52 0-.84-1.195-1.527-2.671-1.527-1.473-.004-2.672.68-2.672 1.52M127.637 55.605c-.004.84 1.191 1.524 2.668 1.528 1.476 0 2.672-.68 2.672-1.524.003-.84-1.192-1.527-2.668-1.527-1.477 0-2.672.68-2.672 1.523"/><path fill="#f7ebe2" d="M118.063 43.938a6.469 6.469 0 0 0-1.22-.165c-.421-.02-.847 0-1.265.059a5.135 5.135 0 0 0-1.219.336c-.394.156-.746.395-1.086.66l-.015.016a.245.245 0 0 1-.34-.04.242.242 0 0 1 .008-.312c.324-.36.683-.699 1.101-.953a6.048 6.048 0 0 1 1.332-.613c.47-.149.95-.254 1.438-.309a7.63 7.63 0 0 1 1.504-.043.696.696 0 1 1-.223 1.367l-.016-.004M127.035 42.586a7.63 7.63 0 0 1 1.504.043c.488.059.969.164 1.434.312a5.9 5.9 0 0 1 1.332.618c.418.257.777.597 1.101.953a.25.25 0 0 1-.02.343.242.242 0 0 1-.312.008l-.015-.011c-.34-.27-.692-.508-1.086-.664-.395-.16-.801-.282-1.22-.34a7.216 7.216 0 0 0-1.265-.063c-.414.02-.863.074-1.218.164l-.012.004a.696.696 0 0 1-.844-.504.696.696 0 0 1 .621-.863"/><path fill="#fff" d="M113.86 51.04a2.722 2.722 0 1 0 5.444.007 2.722 2.722 0 0 0-5.445-.008"/><path fill="#592a32" d="M118.406 49.02a3.179 3.179 0 0 0-1.316-.52 2.897 2.897 0 0 0-1.356.133c-.433.148-.824.41-1.14.746-.317.344-.551.762-.7 1.23.008-.492.188-.988.5-1.394a2.654 2.654 0 0 1 2.746-.969c.497.121.95.395 1.266.774"/><path fill="#592a32" d="M115.266 51.203a1.837 1.837 0 1 0 3.677.005 1.837 1.837 0 0 0-3.677-.005"/><path fill="#37171d" d="M116.398 51.203a.707.707 0 0 0 1.415.004.707.707 0 0 0-1.415-.004"/><path fill="#fff" d="M115.633 50.496a.707.707 0 0 0 1.414.004.707.707 0 0 0-1.414-.004M131.973 51.059a2.72 2.72 0 0 1-2.727 2.718 2.722 2.722 0 1 1 .008-5.445 2.725 2.725 0 0 1 2.719 2.727"/><path fill="#592a32" d="M127.43 49.031c.316-.379.77-.652 1.265-.773a2.655 2.655 0 0 1 2.746.976c.309.407.489.903.496 1.395a3.193 3.193 0 0 0-.695-1.23 2.865 2.865 0 0 0-1.137-.75c-.43-.157-.902-.2-1.359-.137-.46.066-.91.246-1.316.52"/><path fill="#592a32" d="M130.563 51.219a1.837 1.837 0 1 1-3.675-.003 1.837 1.837 0 0 1 3.674.003"/><path fill="#37171d" d="M129.434 51.219a.707.707 0 0 1-1.414-.004.706.706 0 0 1 1.414.004"/><path fill="#fff" d="M130.2 50.512a.707.707 0 1 1-1.414 0 .707.707 0 0 1 1.413 0"/><path fill="#d6816d" d="M125.297 59.203h-.004c-.027.027-.832.79-2.324.79-.77 0-1.735-.204-2.887-.833-.102-.05-.227-.015-.277.082a.2.2 0 0 0 .082.278c1.203.656 2.238.882 3.082.882 1.691 0 2.594-.89 2.613-.91a.204.204 0 0 0 .004-.289.2.2 0 0 0-.29 0M124.21 61.527l-.022.004c-.114.04-.645.207-1.313.207-.383 0-.813-.054-1.234-.215a.206.206 0 0 0-.266.118.208.208 0 0 0 .121.265c.48.18.957.239 1.379.239.84 0 1.465-.23 1.477-.235a.207.207 0 0 0 .12-.265.199.199 0 0 0-.261-.118M124.41 56.598c-.164-.63-.832-.942-1.48-.946-.645 0-1.317.313-1.48.946l-.009.02a.235.235 0 0 1-.285.167.24.24 0 0 1-.172-.191c-.086-.5.196-1.028.586-1.324.39-.313.883-.454 1.364-.461.48.007.972.148 1.359.464.39.297.668.825.582 1.329a.235.235 0 0 1-.27.191.236.236 0 0 1-.187-.172l-.008-.023"/><path fill="#161a21" d="M112.328 50.965h-.226v.004c0 2.472 2 4.48 4.476 4.48h.004c2.473 0 4.477-2 4.48-4.472v-.004a4.485 4.485 0 0 0-4.476-4.485h-.004a4.48 4.48 0 0 0-4.48 4.477h.449a4.032 4.032 0 0 1 4.031-4.024h.004a4.03 4.03 0 0 1 4.023 4.032v.004A4.026 4.026 0 0 1 116.582 55h-.004a4.035 4.035 0 0 1-4.027-4.031v-.004h-.223"/><path fill="#161a21" d="m106.809 49.152 5.472 2.426c.055.027.121 0 .149-.055a.118.118 0 0 0-.059-.152l-5.473-2.426c-.054-.027-.12 0-.148.055a.118.118 0 0 0 .059.152"/><path fill="#161a21" d="M112.328 50.965s-.914-.29-1.055-.227c-.14.063-.101.461-.101.461l1.152.707.004-.941"/><path fill="#f7f9fd" d="M112.738 49.965c-.105.34-.027.668.172.726.2.063.45-.16.555-.504.105-.34.027-.664-.172-.726-.203-.063-.45.164-.555.504M113.844 48.164c-.356.434-.438.953-.18 1.164.254.211.75.031 1.106-.402.355-.434.437-.953.18-1.164-.255-.211-.75-.032-1.106.402"/><path fill="#161a21" d="M133.742 51.063h-.226a4.027 4.027 0 0 1-4.032 4.023h-.004a4.03 4.03 0 0 1-4.023-4.031v-.004a4.029 4.029 0 0 1 4.027-4.024h.008a4.029 4.029 0 0 1 4.024 4.028v.008h.226-.226.226l.227-.004v-.004a4.485 4.485 0 0 0-4.477-4.48h-.008a4.482 4.482 0 0 0-4.48 4.476h.226l-.226-.004v.008a4.48 4.48 0 0 0 4.476 4.48h.004c2.477 0 4.48-2 4.485-4.472v-.004l-.227.004"/><path fill="#161a21" d="m139.172 49.05-5.477 2.419c-.058.023-.082.09-.058.148.027.059.093.082.148.059l5.48-2.418a.11.11 0 0 0 .055-.149.115.115 0 0 0-.148-.058"/><path fill="#161a21" d="M133.742 51.063s.914-.29 1.055-.227c.14.062.098.46.098.46l-1.153.704v-.938"/><path fill="#f7f9fd" d="M133.332 50.059c.106.34.027.668-.172.726-.203.063-.45-.16-.555-.504-.105-.34-.027-.664.172-.726.203-.063.45.164.555.504M132.23 48.258c.356.433.434.953.18 1.164-.258.207-.754.027-1.105-.406-.356-.434-.438-.957-.18-1.164.258-.211.75-.028 1.105.406"/><path fill="#161a21" d="M120.988 51.367c.016-.012.211-.203.551-.383.34-.183.816-.363 1.398-.363.606.004 1.325.188 2.145.777l.266-.367c-.887-.636-1.711-.86-2.41-.86a3.399 3.399 0 0 0-2.266.88l.316.316"/><path fill="#d6816d" d="M118.605 57.512c-.023.015-.8.593-1.347 2.199a.169.169 0 0 0 .105.215.169.169 0 0 0 .215-.106c.262-.765.574-1.28.82-1.597a2.84 2.84 0 0 1 .383-.418l.024-.024a.165.165 0 0 0 .035-.234.168.168 0 0 0-.235-.035M126.035 57.621l.004.004c.063.05.727.598 1.219 2.035.031.09.125.137.215.106a.166.166 0 0 0 .105-.215c-.547-1.602-1.32-2.184-1.344-2.2a.161.161 0 0 0-.234.036.161.161 0 0 0 .035.234"/><path fill="#d4d8d5" d="M108.645 51.488s-.387-4.402.949-6.031c1.336-1.625 6.91-7.871 7.699-10.535 0 0 6.727 3.168 10.738 5.598 4.012 2.43 12.946 8.925 12.27 20.761 0 0 4.742-21.043-4.426-29.953-5.352-5.203-16.328-6.398-19.266-3.273 0 0-3.07-1.114-6.078 2.234-2.215 2.469-5.726 6.727-4.875 18.672 0 0 2.016-.395 2.989 2.527"/><path fill="#5ecbf5" d="M106.61 56.445a.96.96 0 1 0 1.918.003.96.96 0 0 0-1.919-.003M137.168 56.613a.96.96 0 0 0 1.922.004.96.96 0 0 0-1.922-.004"/><path fill="#d0b8ab" d="M117.305 32.09s.054.004.164.008c.804.058 4.55.445 8.98 2.894 4.434 2.446 9.555 6.946 13.133 15.254.04.086.137.125.223.09.09-.04.125-.137.09-.223-3.848-8.933-9.489-13.531-14.168-15.886-4.68-2.356-8.395-2.473-8.41-2.477a.173.173 0 0 0-.176.164.17.17 0 0 0 .164.176"/><path fill="#d0b8ab" d="M117.863 29.98s.035-.007.11-.015c.218-.027.757-.09 1.543-.09 1.941 0 5.355.36 9.023 2.418 3.664 2.055 7.582 5.805 10.527 12.617.04.086.137.13.223.09a.168.168 0 0 0 .09-.223c-2.973-6.87-6.945-10.691-10.676-12.78-3.73-2.09-7.207-2.458-9.187-2.458-1.067 0-1.704.106-1.707.106a.17.17 0 0 0-.141.195.169.169 0 0 0 .195.14"/><path fill="#d0b8ab" d="M120.707 27.41h.063c.445 0 3.175.055 6.46 1.387 3.29 1.332 7.125 3.93 9.81 9.023a.171.171 0 0 0 .23.07.168.168 0 0 0 .07-.226c-2.723-5.176-6.637-7.828-9.98-9.18-3.344-1.355-6.118-1.414-6.59-1.414h-.07a.175.175 0 0 0-.165.172.175.175 0 0 0 .172.168M115.535 33.27c-.004.011-6.222 5.832-7.902 12.937a.164.164 0 0 0 .125.203c.09.02.18-.035.203-.125.82-3.484 2.773-6.68 4.52-9.004.874-1.16 1.699-2.101 2.3-2.754.305-.324.551-.578.723-.75l.195-.195c.047-.043.07-.062.07-.062a.176.176 0 0 0 .008-.243.176.176 0 0 0-.242-.007M114.688 30.277c-.036.008-5.739 2.508-7.715 12.399-.02.094.039.18.132.199.09.02.18-.04.2-.133.976-4.887 2.867-7.926 4.507-9.746a12.023 12.023 0 0 1 2.126-1.89c.273-.188.5-.317.652-.403l.176-.09.043-.02.015-.007a.166.166 0 0 0 .086-.223.166.166 0 0 0-.222-.086"/><path fill="#f8eae9" d="M124.266 85.91a.537.537 0 0 0 1.074 0 .537.537 0 0 0-1.074 0M124.266 94.402a.537.537 0 0 0 1.074 0 .537.537 0 0 0-1.074 0M124.266 102.895a.537.537 0 1 0 1.073.004.537.537 0 0 0-1.073-.004"/><path fill="#fceba7" d="M149.766 90.07s-8.93-1.168-9.63-1.011c-.698.156-2.823 2.445-1.05 4.199.926.91 8.738 3.062 8.738 3.062s2.196.489 3.219-.472c1.394-1.313 1.46-4.332-1.277-5.778"/><path fill="#f89a7c" d="M140.238 90.102s-3.66-1.774-4.789-1.774c-1.129 0-1.918 1.461-1.918 1.774 0 0-.414 2.164.903 1.668 0 0 1.27 2.085 2.046.992 0 0 .836 1.52 1.528.922l.992-.813c.547.344 1.238-.11 1.238-.11s1.438-2 0-2.66"/><path fill="#e3d8a1" d="M88.602 89.336h2.226V85.21h-2.226Zm0 0"/><path fill="#7b4925" d="M91.574 139.582s3.344 4.527 3.88 6.195c.39 1.207-.141 3.473-1.696 3.7-1.551.226-6.344-3.325-7.32-5.97-.594-1.609.07-3.925.07-3.925h5.066"/><g clip-path="url(#ah)"><path fill="#bb8c67" d="M95.52 146.043s.812 1.484-.036 3.137c-.843 1.652-3.668.91-5.043.308-1.379-.605-3.597-3.183-4.25-5.222 0 0-.308-1.356.004-2.114 0 0 2.836 6.72 7.547 6.211 0 0 1.832-.058 1.778-2.32"/></g><path fill="#bb8c67" d="M94.074 143.215s-1.414-.461-2.5.785c0 0-.89 1.246-1.246.793-.355-.453-.023-1.133.555-1.66.578-.531 1.793-1.09 2.496-.98 0 0 .75.163.695 1.062"/><path fill="#bb8c67" d="M93.234 141.852s-1.414-.461-2.5.785c0 0-.894 1.246-1.25.793-.355-.453-.02-1.133.559-1.66.574-.532 1.789-1.09 2.496-.98 0 0 .75.163.695 1.062M87.965 141.809c0 .46-.32.832-.711.832-.395 0-.715-.371-.715-.832 0-.457.32-.829.715-.829.39 0 .71.372.71.829"/><path fill="#7b4925" d="M75.148 139.48s-3.343 4.532-3.878 6.196c-.391 1.207.136 3.472 1.69 3.699 1.556.227 6.349-3.32 7.325-5.965.594-1.613-.07-3.93-.07-3.93h-5.067"/><path fill="#fab493" d="m74.227 139.945 5.246.118.515-31.157-9.683-.87 3.922 31.91"/><path fill="#312a27" d="M83.516 98.66h-.004l-.188-.043-.191.043h-.004l-15.313-3.402s2.395 24.535 6.41 44.687c0 0 .715.621 6.508.118 0 0 .844-30.731 2.399-31.356.097-.086.262-.074.379 0 1.554.625 2.402 31.356 2.402 31.356 5.79.503 6.504-.118 6.504-.118 4.016-20.152 6.41-44.687 6.41-44.687L83.516 98.66"/><path fill="#292320" d="m83.512 98.66-.188-.043-.191.043h-.004l-15.313-3.402s.125 1.27.364 3.465c3.843 1.617 15.66 6.543 30 2.558.425-3.738.648-6.023.648-6.023L83.516 98.66h-.004M81.496 121.969c-3.937 9.992-8.144 2.722-11.047-4.906 1.008 7.234 2.281 15.363 3.778 22.882 0 0 .714.621 6.507.118 0 0 .262-9.536.762-18.094M95.664 120.781c-1.398 2.387-3.152 4.887-4.832 5.934-2.41 1.508-4.648-4.004-5.879-7.863.629 9.164.961 21.21.961 21.21 5.79.504 6.504-.117 6.504-.117 1.246-6.254 2.336-12.93 3.246-19.164"/><g clip-path="url(#ai)"><path fill="#bb8c67" d="M71.2 145.941s-.81 1.489.034 3.141c.848 1.648 3.668.91 5.047.305 1.375-.606 3.594-3.184 4.25-5.223 0 0 .305-1.355-.004-2.113 0 0-2.84 6.722-7.55 6.21 0 0-1.832-.054-1.778-2.32"/></g><path fill="#bb8c67" d="M72.648 143.113s1.415-.46 2.5.785c0 0 .891 1.247 1.247.797.355-.457.02-1.136-.555-1.664-.578-.527-1.793-1.09-2.496-.98 0 0-.75.164-.696 1.062"/><path fill="#bb8c67" d="M73.488 141.75s1.414-.46 2.5.785c0 0 .89 1.246 1.246.793.36-.453.024-1.129-.554-1.66-.578-.527-1.793-1.09-2.496-.98 0 0-.75.164-.696 1.062"/><path fill="#bb8c67" d="M74.43 140.375s1.41-.46 2.496.785c0 0 .894 1.246 1.25.793.355-.453.02-1.133-.555-1.664-.578-.527-1.793-1.09-2.5-.976 0 0-.75.164-.691 1.062M78.758 141.71c0 .458.32.83.71.83.395 0 .716-.372.716-.83 0-.46-.32-.831-.715-.831-.39 0-.711.371-.711.832"/><path fill="#7b4925" d="M67.625 94.984s-.16.309 0 1.047c0 0-.281.735.45 1.7 0 0 16.804 6.968 30.495 0 0 0 .27-1.715.258-2.473 0 0-14.137 6.515-31.203-.274"/><path fill="#312a27" d="M70.797 96.11s.027 2.847.223 3.148c.195.305 1.003.418 1.101.265.098-.152 0-3.023 0-3.023l-1.324-.39M72.805 96.676s.027 2.847.222 3.152c.196.3 1.004.414 1.102.262.098-.153.183-3.043.183-3.043l-1.507-.371M94.645 96.645s-.028 2.847-.223 3.152c-.195.3-1.004.414-1.102.262-.097-.149 0-3.024 0-3.024l1.325-.39M92.79 97.11s-.18 2.949-.376 3.253c-.191.301-1.004.414-1.102.262-.093-.148-.355-3.16-.355-3.16l1.832-.356"/><path fill="#d9a847" d="M84.8 99.7c.032.417.024.855-.019.972-.043.121-.886.293-1.59.285-.703.004-1.367-.098-1.48-.16-.113-.059-.164-.68-.129-1.098.031-.414.102-.844.156-.953.059-.105.825-.133 1.453-.137.63 0 1.23-.007 1.34.032.106.043.239.644.27 1.058Zm.45-1.946c-.172-.055-1.094.004-2.059 0-.964.004-1.886-.055-2.058 0-.164.062-.418 1.035-.504 1.71-.086.68-.106 1.4-.04 1.599.06.203 1.442.558 2.602.542 1.16.008 2.254-.214 2.434-.328.184-.113.215-1.132.129-1.812-.086-.676-.34-1.649-.504-1.711"/><path fill="#d9a847" d="M81.473 99.488a.29.29 0 0 0-.024.207c.012.063.375.16.676.157.3 0 .582-.059.633-.094.047-.031.047-.219.02-.274-.032-.046-.376-.043-.653-.046-.277.003-.621 0-.652.05"/><path fill="#bb8c67" d="M92.293 140.477s-1.414-.461-2.5.78c0 0-.89 1.25-1.246.798-.356-.453-.024-1.133.555-1.664.578-.528 1.793-1.09 2.496-.98 0 0 .75.163.695 1.066"/><path fill="#4d7d4b" d="M100.691 62.477c0-6.872-17.336-11.426-17.336-11.426l-.03.015-.036-.015s-17.46 5.562-17.566 11.62l.062 32.696s7.145 3.645 17.426 3.582c10.562.063 17.648-3.582 17.648-3.582l-.168-32.89"/><path fill="#395736" d="M91.555 56.574c0 3.117-3.293 5.645-7.352 5.645-4.058 0-7.348-2.528-7.348-5.645 0-3.117 3.29-5.644 7.348-5.644 4.059 0 7.352 2.527 7.352 5.644"/><path fill="#cfedc1" d="m100.77 78.3.003.595c.02-.012.036-.028.055-.043v-.543l-.058-.008"/><path fill="#55874b" d="m100.82 74.871-.066.098.016 3.332.058.008-.008-3.438"/><path fill="#bfcd73" d="M100.828 78.852c-.02.015-.035.03-.055.043v.183l.055-.074v-.152"/><path fill="#629c59" d="m93.7 70.547-4.602 6.723-5.141-6.516-6.227 6.285-6.062-5.184-5.848 5.872-.007 3.386 5.964-5.988 6.067 5.184 5.937-5.996 5.434 6.882 4.629-6.757 5.508 6.757 1.421-2.117v-.183l-.003-.594-.016-3.332-1.559 2.316-5.496-6.738"/><path fill="#bfcd73" d="m100.836 82.77-.043.058.023 4.11.028-.04-.008-4.128"/><path fill="#629c59" d="m93.7 78.465-4.602 6.722-5.141-6.515-6.227 6.285-6.062-5.184-5.863 5.887-.008 3.383 5.98-6 6.067 5.184 5.937-5.993 5.434 6.883 4.629-6.762 5.508 6.758 1.464-2.175-.023-4.11-1.598 2.379-5.496-6.742"/><g clip-path="url(#aj)"><path fill="#bf6b4c" d="M73.426 149.23a.959.959 0 0 1-1.918 0V82.59a.96.96 0 0 1 1.918 0v66.64"/></g><path fill="#55874b" d="m100.805 66.824-.09.133.02 4.11.078-.114-.008-4.129"/><path fill="#629c59" d="m93.7 62.477-4.602 6.722-5.141-6.515-6.227 6.28-6.062-5.179-5.832 5.856-.008 3.382 5.95-5.968 6.066 5.183 5.937-5.996 5.434 6.883 4.629-6.762 5.508 6.758 1.382-2.055-.02-4.109-1.519 2.258-5.496-6.738"/><path fill="#f89a7c" d="M89.8 55.742c0 2.375-2.503 4.297-5.597 4.297-3.09 0-5.594-1.922-5.594-4.297s2.504-4.297 5.594-4.297c3.094 0 5.598 1.922 5.598 4.297M98.7 38.586s3.542-3.098 4.241.293c.914 4.441-2.453 7.234-4.777 6.437-2.148-.742.535-6.73.535-6.73"/><path fill="#ea8469" d="M99.926 44.488s2.07-1.148 2.261-3.98c0 0 .172-2.43-1.457-1.524 0 0-1.355.63-1.875 2.801 0 0 .516.14.465.899 0 0-.105.539-.672.687 0 0 .207 1.332 1.278 1.117"/><path fill="#cc7057" d="M102.273 40.898s.02-.21.02-.503c0-.278-.02-.625-.094-.938-.078-.309-.207-.598-.469-.727a.716.716 0 0 0-.308-.066c-.426.004-.977.285-1.484.809-.504.523-.965 1.293-1.18 2.289a.103.103 0 0 0 .055.117l.015.008c.04.02.145.086.238.191a.667.667 0 0 1 .153.586.721.721 0 0 1-.512.59l-.055.012-.011.004h-.004a.107.107 0 0 0-.09.113c0 .008.031.293.172.59.07.148.168.3.308.418.137.117.325.199.551.199.195 0 .422-.059.68-.195a.107.107 0 0 0 .043-.141.104.104 0 0 0-.14-.043c-.24.125-.43.172-.583.172a.632.632 0 0 1-.418-.149c-.164-.136-.27-.355-.332-.543a2.894 2.894 0 0 1-.058-.234l-.012-.07-.004-.028-.106.012.016.102a.93.93 0 0 0 .758-.77.87.87 0 0 0-.25-.813c-.133-.132-.262-.195-.27-.199l-.047.094.102.024c.211-.961.652-1.696 1.133-2.192.476-.496.996-.746 1.332-.746.086 0 .16.016.219.047.168.074.289.3.359.59.066.285.086.62.086.887 0 .14-.004.261-.012.347-.004.086-.008.137-.008.137-.007.059.036.105.094.113a.107.107 0 0 0 .113-.094"/><path fill="#cc7057" d="M101.305 41.64c0-.003.011-.1.011-.25 0-.253-.03-.66-.21-1.019-.176-.36-.532-.664-1.118-.66-.074 0-.152.004-.234.016a.101.101 0 0 0-.09.113c.004.058.059.097.113.094.075-.012.145-.016.211-.016.516.004.774.242.934.547.156.308.187.687.187.926 0 .07 0 .125-.004.168l-.003.058a.099.099 0 0 0 .09.113c.054.008.105-.035.113-.09"/><path fill="#f89a7c" d="M70.117 38.586s-3.543-3.098-4.242.293c-.914 4.441 2.45 7.234 4.777 6.437 2.149-.742-.535-6.73-.535-6.73"/><path fill="#ea8469" d="M68.89 44.488s-2.07-1.148-2.265-3.98c0 0-.168-2.43 1.46-1.524 0 0 1.356.63 1.872 2.801 0 0-.516.14-.46.899 0 0 .105.539.667.687 0 0-.207 1.332-1.273 1.117"/><path fill="#cc7057" d="m66.75 40.879-.012-.137a7.744 7.744 0 0 1-.008-.347c0-.266.02-.602.086-.887.07-.29.192-.516.36-.59a.454.454 0 0 1 .219-.047c.332 0 .855.25 1.332.746.48.496.921 1.23 1.132 2.192l.098-.024-.043-.094c-.008.004-.137.067-.27.2a.87.87 0 0 0-.25.812.93.93 0 0 0 .758.77l.012-.102-.102-.012-.007.043c-.016.102-.067.36-.196.578-.129.223-.316.403-.62.403-.153 0-.348-.047-.583-.172a.104.104 0 0 0-.14.043.104.104 0 0 0 .043.14c.257.137.484.196.68.196.226 0 .41-.082.55-.2.414-.355.477-1 .48-1.007a.107.107 0 0 0-.09-.113h-.003c-.02-.004-.145-.028-.274-.114a.733.733 0 0 1-.304-.492.67.67 0 0 1 .195-.629.75.75 0 0 1 .148-.12l.047-.028.016-.008a.103.103 0 0 0 .055-.117c-.22-.996-.676-1.766-1.184-2.29-.508-.523-1.055-.804-1.48-.808a.716.716 0 0 0-.31.066c-.26.13-.394.418-.468.727-.074.313-.094.66-.094.938 0 .292.02.503.02.503a.107.107 0 0 0 .113.094.105.105 0 0 0 .094-.113"/><path fill="#cc7057" d="M67.715 41.617s0-.02-.004-.058c-.004-.043-.004-.098-.004-.168-.004-.239.031-.618.188-.926.16-.305.418-.543.933-.547.067 0 .137.004.211.016a.107.107 0 0 0 .113-.094c.008-.055-.035-.106-.09-.113a1.647 1.647 0 0 0-.234-.016c-.586-.004-.941.3-1.117.66-.184.36-.211.766-.211 1.02 0 .148.012.246.012.25a.1.1 0 0 0 .113.09.102.102 0 0 0 .09-.114"/><path fill="#fab493" d="M84.063 56.848c-10.758-2.258-12.34-7.79-12.34-7.79-1.5-4.667-2.274-14.367-1.73-19.038.995-8.54 8.37-11.305 14.398-11.305 5.105 0 13.402 2.765 14.394 11.305.547 4.671-.226 14.37-1.726 19.039 0 0-1.582 5.53-12.344 7.789 0 0-.34.062-.653 0"/><path fill="#f6828b" d="M74.324 43.926c0 .844 1.196 1.523 2.668 1.523 1.477 0 2.672-.68 2.672-1.523 0-.844-1.195-1.524-2.672-1.524-1.472 0-2.668.68-2.668 1.524M89.113 43.926c0 .844 1.2 1.523 2.672 1.523 1.477 0 2.672-.68 2.672-1.523 0-.844-1.195-1.524-2.672-1.524-1.472 0-2.672.68-2.672 1.524"/><path fill="#f7ebe2" d="M79.531 32.273a6.552 6.552 0 0 0-1.219-.168 7.216 7.216 0 0 0-1.265.063c-.422.055-.828.18-1.219.336-.394.156-.75.398-1.086.664l-.02.012a.238.238 0 0 1-.34-.04.242.242 0 0 1 .013-.312c.32-.355.68-.695 1.101-.95a5.735 5.735 0 0 1 1.332-.616 7.752 7.752 0 0 1 1.434-.313 7.64 7.64 0 0 1 1.504-.039.692.692 0 1 1-.105 1.383.528.528 0 0 1-.114-.016l-.016-.004M88.5 30.91a7.64 7.64 0 0 1 1.504.04c.488.058.969.163 1.433.312.47.144.918.36 1.333.617.421.254.78.594 1.101.95a.242.242 0 0 1-.02.343.237.237 0 0 1-.308.008l-.02-.012c-.335-.266-.691-.508-1.085-.664a5.035 5.035 0 0 0-1.22-.336 7.216 7.216 0 0 0-1.265-.063c-.41.02-.863.079-1.219.168h-.011a.694.694 0 1 1-.34-1.347c.039-.008.078-.016.117-.016"/><path fill="#fff" d="M75.332 39.375a2.722 2.722 0 1 0 5.445 0 2.722 2.722 0 0 0-5.445 0"/><path fill="#592a32" d="M79.879 37.352a3.2 3.2 0 0 0-1.317-.52 2.843 2.843 0 0 0-1.355.137c-.434.148-.824.41-1.14.75-.317.34-.551.758-.7 1.226.008-.492.188-.988.5-1.394a2.672 2.672 0 0 1 1.227-.899 2.688 2.688 0 0 1 1.52-.074c.495.121.948.395 1.265.774"/><path fill="#592a32" d="M76.742 39.54a1.837 1.837 0 1 0 3.677-.002 1.837 1.837 0 0 0-3.677.001"/><path fill="#37171d" d="M77.871 39.54a.707.707 0 1 0 1.414 0 .707.707 0 0 0-1.414 0"/><path fill="#fff" d="M77.11 38.832a.706.706 0 1 0 1.411.002.706.706 0 0 0-1.412-.002M93.445 39.375a2.722 2.722 0 1 1-5.444 0 2.722 2.722 0 0 1 5.444 0"/><path fill="#592a32" d="M88.902 37.352c.317-.38.77-.653 1.266-.774a2.688 2.688 0 0 1 1.52.074c.484.176.917.493 1.226.899.309.406.488.902.5 1.394a3.206 3.206 0 0 0-.7-1.226 2.811 2.811 0 0 0-1.14-.75c-.43-.157-.898-.2-1.355-.137-.461.066-.91.246-1.317.52"/><path fill="#592a32" d="M92.04 39.54a1.837 1.837 0 1 1-3.677-.002 1.837 1.837 0 0 1 3.676.001"/><path fill="#37171d" d="M90.906 39.54a.706.706 0 1 1-1.412.001.706.706 0 0 1 1.412-.002"/><path fill="#fff" d="M91.672 38.832a.706.706 0 1 1-1.408.002.706.706 0 0 1 1.408-.002"/><path fill="#d6816d" d="m88.508 47.063-.016.015c-.168.149-1.719 1.465-4.168 1.465-1.308-.004-2.879-.371-4.656-1.504a.204.204 0 1 0-.219.344c1.836 1.172 3.489 1.566 4.875 1.566 2.774 0 4.446-1.57 4.465-1.59a.204.204 0 0 0 .008-.289.204.204 0 0 0-.29-.008M85.695 49.852l-.02.007a4.39 4.39 0 0 1-1.32.203c-.382 0-.808-.054-1.23-.21a.202.202 0 0 0-.262.117.206.206 0 0 0 .117.265c.48.18.957.239 1.375.239.844 0 1.47-.235 1.485-.239a.204.204 0 1 0-.145-.382M85.895 44.926c-.168-.63-.84-.946-1.485-.946-.644 0-1.316.317-1.48.946l-.008.02a.235.235 0 0 1-.285.167.235.235 0 0 1-.172-.187c-.086-.504.195-1.028.586-1.328.386-.313.879-.453 1.36-.461.48.008.972.148 1.362.46.387.301.668.825.586 1.329a.241.241 0 0 1-.273.191.236.236 0 0 1-.188-.172l-.003-.02"/><g clip-path="url(#ak)"><path fill="#d4d8d5" d="M77.621 19.965s.434-3.953 5.043-4.285c3.68-.266 5.742 2.816 7.54 2.215 1.792-.602 2.394-1.282 2.394-1.282s1.523 4.442-1.871 5.043c-3.395.602-9.715-2.59-13.106-1.691"/></g><path fill="#d4d8d5" d="M70.117 39.816s1.934-2.582 1.711-5.14c-.226-2.559-1.371-7.23-.996-8.078.371-.852-3.617 3.64-3.23 8.152.277 3.227 2.515 5.066 2.515 5.066M98.555 39.816s-1.938-2.582-1.711-5.14c.226-2.559 1.367-7.23.996-8.078-.371-.852 3.613 3.64 3.23 8.152-.277 3.227-2.515 5.066-2.515 5.066"/><path fill="#161a21" d="M73.8 39.305h-.226a4.48 4.48 0 1 0 8.961 0 4.48 4.48 0 0 0-8.96 0h.452c0-1.114.45-2.117 1.18-2.848a4.009 4.009 0 0 1 2.848-1.18 4.025 4.025 0 0 1 2.852 6.875 4.018 4.018 0 0 1-2.852 1.18 4.009 4.009 0 0 1-2.848-1.18 4.002 4.002 0 0 1-1.18-2.847h-.226"/><path fill="#161a21" d="m68.281 37.496 5.473 2.422c.058.023.125 0 .148-.059a.111.111 0 0 0-.054-.148l-5.477-2.422a.114.114 0 0 0-.148.059.114.114 0 0 0 .058.148"/><path fill="#161a21" d="M73.8 39.305s-.913-.29-1.054-.227c-.14.063-.101.461-.101.461l1.156.707v-.941"/><path fill="#f7f9fd" d="M74.21 38.3c-.105.345-.026.669.173.731.203.063.449-.164.555-.504.105-.34.027-.668-.172-.726-.204-.063-.45.16-.555.5M75.316 36.504c-.355.434-.437.953-.18 1.164.255.207.75.027 1.106-.406.356-.434.434-.953.18-1.164-.258-.211-.754-.028-1.106.406"/><path fill="#161a21" d="M95.215 39.375h-.223a4.034 4.034 0 0 1-1.18 2.852 4.034 4.034 0 0 1-6.882-2.852 4.028 4.028 0 0 1 1.183-2.848 4.002 4.002 0 0 1 2.848-1.18 4.025 4.025 0 0 1 4.031 4.027l.45.001a4.48 4.48 0 1 0-8.961 0 4.48 4.48 0 0 0 8.96 0h-.226"/><path fill="#161a21" d="m100.645 37.363-5.473 2.422c-.059.024-.086.09-.059.149a.111.111 0 0 0 .149.054l5.476-2.422a.11.11 0 0 0 .055-.148.11.11 0 0 0-.148-.055"/><path fill="#161a21" d="M95.215 39.375s.914-.29 1.055-.223c.14.063.101.457.101.457l-1.156.707v-.941"/><path fill="#f7f9fd" d="M94.809 38.375c.101.34.027.664-.176.727-.2.062-.45-.164-.555-.504-.105-.34-.027-.664.176-.727.2-.062.45.16.555.504M93.703 36.574c.356.434.434.953.18 1.164-.258.207-.754.028-1.106-.406-.355-.434-.437-.953-.18-1.164.255-.211.75-.027 1.106.406"/><path fill="#161a21" d="M82.465 39.695c.015-.011.21-.203.55-.386a2.94 2.94 0 0 1 1.403-.36c.602 0 1.32.188 2.14.774l.262-.368c-.882-.636-1.707-.859-2.402-.859a3.43 3.43 0 0 0-2.273.883l.32.316"/><path fill="#d0b8ab" d="m78.676 18.852.011-.008c.126-.086 1.297-.809 2.762-.809a4.23 4.23 0 0 1 1.543.29c.852.331 2.203.878 3.63 1.343 1.429.465 2.925.848 4.093.852.422 0 .805-.051 1.129-.176.32-.121.59-.324.75-.621a.169.169 0 0 0-.067-.23.169.169 0 0 0-.23.066c-.117.214-.309.367-.574.468-.27.102-.614.153-1.008.153-1.098 0-2.578-.371-3.988-.832-1.41-.461-2.758-1.004-3.61-1.34a4.606 4.606 0 0 0-1.668-.309c-1.68 0-2.949.867-2.965.875a.17.17 0 0 0-.046.235.17.17 0 0 0 .238.043M80.785 16.79s.043-.005.117-.005c.075-.004.188-.004.328-.004a15.5 15.5 0 0 1 2.504.2c1.016.167 2.094.48 2.875 1.023a.168.168 0 0 0 .235-.04.17.17 0 0 0-.043-.237c-.848-.59-1.969-.907-3.012-1.082a16.285 16.285 0 0 0-2.559-.204c-.289 0-.457.008-.46.008a.17.17 0 0 0-.16.18c.003.09.085.164.175.16M97.8 30.063s.352.742.813 1.597c.461.86 1.02 1.824 1.477 2.305.062.07.172.07.238.008a.168.168 0 0 0 .008-.239c-.402-.422-.973-1.386-1.426-2.234-.226-.422-.43-.82-.574-1.11-.145-.288-.23-.472-.23-.472a.167.167 0 0 0-.223-.082.17.17 0 0 0-.082.227M97.816 33.156s1.82 2.45 2.262 3.028c.055.074.16.09.238.03a.171.171 0 0 0 .032-.234c-.22-.289-.785-1.046-1.293-1.73-.512-.684-.965-1.297-.965-1.297a.173.173 0 0 0-.238-.035.173.173 0 0 0-.036.238M70.906 30.414l-.008.016c-.074.18-.8 1.73-2.375 2.574a.172.172 0 0 0-.07.23.169.169 0 0 0 .23.067c1.801-.969 2.528-2.742 2.536-2.758a.171.171 0 0 0-.09-.223.17.17 0 0 0-.223.094M70.914 33.074l-.055.102c-.125.226-.464.812-.921 1.379-.454.57-1.032 1.117-1.594 1.293a.171.171 0 0 0-.11.21c.028.09.125.141.215.114.774-.254 1.45-.992 1.95-1.66.496-.668.812-1.278.816-1.282a.166.166 0 0 0-.074-.226.168.168 0 0 0-.227.07"/><path fill="#d6816d" d="M80.89 44.668c-.007.012-1.855 1.719-2.308 4.047-.02.09.043.18.133.195.094.02.183-.039.2-.133.21-1.093.76-2.062 1.265-2.757.25-.344.484-.622.66-.813.086-.098.16-.168.207-.219l.058-.054.016-.02a.164.164 0 0 0 .008-.238.171.171 0 0 0-.238-.008M87.121 44.914l.016.02c.195.18 1.8 1.793 2.191 3.843a.163.163 0 0 0 .195.133.168.168 0 0 0 .137-.195c-.453-2.328-2.3-4.035-2.308-4.047a.176.176 0 0 0-.243.008.168.168 0 0 0 .012.238"/><path fill="#4d7d4b" d="M53.914 81.598s10.164-1.332 10.961-1.153c.797.176 3.215 2.785 1.195 4.778-1.054 1.039-9.945 3.488-9.945 3.488s-2.504.559-3.664-.54c-1.59-1.491-1.664-4.929 1.453-6.573"/><path fill="#f89a7c" d="M64.762 81.633s4.164-2.02 5.449-2.02c1.285 0 2.187 1.664 2.187 2.02 0 0 .47 2.465-1.027 1.898 0 0-1.45 2.375-2.332 1.13 0 0-.953 1.73-1.738 1.05l-1.133-.926c-.621.395-1.406-.125-1.406-.125s-1.64-2.277 0-3.027"/></svg>