<svg xmlns="http://www.w3.org/2000/svg" xmlns:xlink="http://www.w3.org/1999/xlink" width="997" zoomAndPan="magnify" viewBox="0 0 747.75 178.499995" height="238" preserveAspectRatio="xMidYMid meet" version="1.0"><defs><g/><clipPath id="7a21373e07"><path d="M 479 38 L 492 38 L 492 62 L 479 62 Z M 479 38 " clip-rule="nonzero"/></clipPath><clipPath id="10864b1978"><path d="M 443.578125 37.191406 L 491.449219 38.265625 L 490.84375 65.191406 L 442.972656 64.117188 Z M 443.578125 37.191406 " clip-rule="nonzero"/></clipPath><clipPath id="aa94c89a4c"><path d="M 443.578125 37.191406 L 491.449219 38.265625 L 490.84375 65.191406 L 442.972656 64.117188 Z M 443.578125 37.191406 " clip-rule="nonzero"/></clipPath><clipPath id="8d7e8b4255"><path d="M 443.578125 37.191406 L 491.449219 38.265625 L 490.84375 65.191406 L 442.972656 64.117188 Z M 443.578125 37.191406 " clip-rule="nonzero"/></clipPath><clipPath id="6d56ec666e"><path d="M 451 44 L 476 44 L 476 61 L 451 61 Z M 451 44 " clip-rule="nonzero"/></clipPath><clipPath id="832ff02198"><path d="M 443.578125 37.191406 L 491.449219 38.265625 L 490.84375 65.191406 L 442.972656 64.117188 Z M 443.578125 37.191406 " clip-rule="nonzero"/></clipPath><clipPath id="f4d23fcdf6"><path d="M 443.578125 37.191406 L 491.449219 38.265625 L 490.84375 65.191406 L 442.972656 64.117188 Z M 443.578125 37.191406 " clip-rule="nonzero"/></clipPath><clipPath id="7541ce5c1c"><path d="M 443.578125 37.191406 L 491.449219 38.265625 L 490.84375 65.191406 L 442.972656 64.117188 Z M 443.578125 37.191406 " clip-rule="nonzero"/></clipPath><clipPath id="deea439991"><path d="M 466 56 L 471 56 L 471 60 L 466 60 Z M 466 56 " clip-rule="nonzero"/></clipPath><clipPath id="7fff5ab40e"><path d="M 443.578125 37.191406 L 491.449219 38.265625 L 490.84375 65.191406 L 442.972656 64.117188 Z M 443.578125 37.191406 " clip-rule="nonzero"/></clipPath><clipPath id="39fa4fed22"><path d="M 443.578125 37.191406 L 491.449219 38.265625 L 490.84375 65.191406 L 442.972656 64.117188 Z M 443.578125 37.191406 " clip-rule="nonzero"/></clipPath><clipPath id="1f5adfd7de"><path d="M 443.578125 37.191406 L 491.449219 38.265625 L 490.84375 65.191406 L 442.972656 64.117188 Z M 443.578125 37.191406 " clip-rule="nonzero"/></clipPath><clipPath id="13d7153c54"><path d="M 467 56 L 470 56 L 470 60 L 467 60 Z M 467 56 " clip-rule="nonzero"/></clipPath><clipPath id="6244f7b98c"><path d="M 443.578125 37.191406 L 491.449219 38.265625 L 490.84375 65.191406 L 442.972656 64.117188 Z M 443.578125 37.191406 " clip-rule="nonzero"/></clipPath><clipPath id="c24f5d83a3"><path d="M 443.578125 37.191406 L 491.449219 38.265625 L 490.84375 65.191406 L 442.972656 64.117188 Z M 443.578125 37.191406 " clip-rule="nonzero"/></clipPath><clipPath id="796cd6313e"><path d="M 443.578125 37.191406 L 491.449219 38.265625 L 490.84375 65.191406 L 442.972656 64.117188 Z M 443.578125 37.191406 " clip-rule="nonzero"/></clipPath><clipPath id="94720b35c1"><path d="M 455 56 L 461 56 L 461 60 L 455 60 Z M 455 56 " clip-rule="nonzero"/></clipPath><clipPath id="8e479ae6bc"><path d="M 443.578125 37.191406 L 491.449219 38.265625 L 490.84375 65.191406 L 442.972656 64.117188 Z M 443.578125 37.191406 " clip-rule="nonzero"/></clipPath><clipPath id="cca8b1fbe8"><path d="M 443.578125 37.191406 L 491.449219 38.265625 L 490.84375 65.191406 L 442.972656 64.117188 Z M 443.578125 37.191406 " clip-rule="nonzero"/></clipPath><clipPath id="991689e3d9"><path d="M 443.578125 37.191406 L 491.449219 38.265625 L 490.84375 65.191406 L 442.972656 64.117188 Z M 443.578125 37.191406 " clip-rule="nonzero"/></clipPath><clipPath id="24da1a8d06"><path d="M 457 56 L 459 56 L 459 60 L 457 60 Z M 457 56 " clip-rule="nonzero"/></clipPath><clipPath id="89790550a7"><path d="M 443.578125 37.191406 L 491.449219 38.265625 L 490.84375 65.191406 L 442.972656 64.117188 Z M 443.578125 37.191406 " clip-rule="nonzero"/></clipPath><clipPath id="eab7bf6c5f"><path d="M 443.578125 37.191406 L 491.449219 38.265625 L 490.84375 65.191406 L 442.972656 64.117188 Z M 443.578125 37.191406 " clip-rule="nonzero"/></clipPath><clipPath id="950a9c1d4f"><path d="M 443.578125 37.191406 L 491.449219 38.265625 L 490.84375 65.191406 L 442.972656 64.117188 Z M 443.578125 37.191406 " clip-rule="nonzero"/></clipPath><clipPath id="bc179257a5"><path d="M 443 58 L 452 58 L 452 65 L 443 65 Z M 443 58 " clip-rule="nonzero"/></clipPath><clipPath id="516ab63fbf"><path d="M 443.578125 37.191406 L 491.449219 38.265625 L 490.84375 65.191406 L 442.972656 64.117188 Z M 443.578125 37.191406 " clip-rule="nonzero"/></clipPath><clipPath id="8dcb553c6a"><path d="M 443.578125 37.191406 L 491.449219 38.265625 L 490.84375 65.191406 L 442.972656 64.117188 Z M 443.578125 37.191406 " clip-rule="nonzero"/></clipPath><clipPath id="49b3068408"><path d="M 443.578125 37.191406 L 491.449219 38.265625 L 490.84375 65.191406 L 442.972656 64.117188 Z M 443.578125 37.191406 " clip-rule="nonzero"/></clipPath><clipPath id="82ae13d8d5"><path d="M 474 59 L 484 59 L 484 65 L 474 65 Z M 474 59 " clip-rule="nonzero"/></clipPath><clipPath id="e0f971a447"><path d="M 443.578125 37.191406 L 491.449219 38.265625 L 490.84375 65.191406 L 442.972656 64.117188 Z M 443.578125 37.191406 " clip-rule="nonzero"/></clipPath><clipPath id="d80cccd362"><path d="M 443.578125 37.191406 L 491.449219 38.265625 L 490.84375 65.191406 L 442.972656 64.117188 Z M 443.578125 37.191406 " clip-rule="nonzero"/></clipPath><clipPath id="63d6521842"><path d="M 443.578125 37.191406 L 491.449219 38.265625 L 490.84375 65.191406 L 442.972656 64.117188 Z M 443.578125 37.191406 " clip-rule="nonzero"/></clipPath><clipPath id="318880bbd1"><path d="M 326 47.136719 L 339.648438 47.136719 L 339.648438 66.589844 L 326 66.589844 Z M 326 47.136719 " clip-rule="nonzero"/></clipPath><clipPath id="1e3ce9f5e6"><path d="M 298.5 47.136719 L 314 47.136719 L 314 66.589844 L 298.5 66.589844 Z M 298.5 47.136719 " clip-rule="nonzero"/></clipPath><clipPath id="a608482526"><path d="M 367.761719 82 L 414.148438 82 L 414.148438 94 L 367.761719 94 Z M 367.761719 82 " clip-rule="nonzero"/></clipPath><clipPath id="29ada24d1c"><path d="M 338.886719 42.503906 L 374 42.503906 L 374 60.460938 L 338.886719 60.460938 Z M 338.886719 42.503906 " clip-rule="nonzero"/></clipPath></defs><g fill="#000000" fill-opacity="1"><g transform="translate(265.427579, 115.306418)"><g><path d="M 33.589844 -11.28125 L 33.589844 -18.882812 L 22.226562 -18.882812 L 22.226562 -11.28125 L 14.707031 -11.28125 L 14.707031 -45.453125 L 22.226562 -45.453125 L 22.226562 -37.851562 L 33.589844 -37.851562 L 33.589844 -45.453125 C 33.589844 -47.039062 33.339844 -48.460938 32.753906 -49.882812 C 32.167969 -51.300781 31.332031 -52.472656 30.332031 -53.558594 C 29.242188 -54.5625 28.074219 -55.394531 26.652344 -55.980469 C 25.234375 -56.566406 23.8125 -56.816406 22.226562 -56.816406 L 14.707031 -56.816406 C 13.117188 -56.816406 11.699219 -56.566406 10.277344 -55.980469 C 8.855469 -55.394531 7.6875 -54.5625 6.683594 -53.558594 C 5.597656 -52.472656 4.847656 -51.300781 4.261719 -49.882812 C 3.675781 -48.460938 3.34375 -47.039062 3.34375 -45.453125 L 3.34375 -11.28125 C 3.34375 -9.691406 3.675781 -8.273438 4.261719 -6.933594 C 4.847656 -5.515625 5.597656 -4.34375 6.683594 -3.34375 C 7.6875 -2.257812 8.855469 -1.503906 10.277344 -0.917969 C 11.699219 -0.335938 13.117188 0 14.707031 0 L 22.226562 0 C 23.8125 0 25.234375 -0.335938 26.652344 -0.917969 C 28.074219 -1.503906 29.242188 -2.257812 30.332031 -3.34375 C 31.332031 -4.34375 32.167969 -5.515625 32.753906 -6.933594 C 33.339844 -8.273438 33.589844 -9.691406 33.589844 -11.28125 Z M 33.589844 -11.28125 "/></g></g></g><g fill="#000000" fill-opacity="1"><g transform="translate(301.520283, 115.306418)"><g><path d="M 33.589844 -45.535156 C 33.589844 -47.125 33.339844 -48.542969 32.753906 -49.882812 C 32.167969 -51.300781 31.332031 -52.472656 30.332031 -53.472656 C 29.242188 -54.5625 28.074219 -55.3125 26.652344 -55.898438 C 25.234375 -56.484375 23.8125 -56.816406 22.226562 -56.816406 L 14.707031 -56.816406 C 13.117188 -56.816406 11.699219 -56.484375 10.277344 -55.898438 C 8.855469 -55.3125 7.6875 -54.5625 6.683594 -53.472656 C 5.597656 -52.472656 4.847656 -51.300781 4.261719 -49.882812 C 3.675781 -48.542969 3.34375 -47.125 3.34375 -45.535156 L 3.34375 0 L 14.707031 0 L 14.707031 -22.726562 L 22.226562 -22.726562 L 22.226562 0 L 33.589844 0 Z M 14.707031 -34.089844 L 14.707031 -45.535156 L 22.226562 -45.535156 L 22.226562 -34.089844 Z M 14.707031 -34.089844 "/></g></g></g><g fill="#000000" fill-opacity="1"><g transform="translate(338.448462, 115.306418)"><g><path d="M 22.726562 -45.453125 L 31.417969 -45.453125 L 31.417969 -56.816406 L 2.507812 -56.816406 L 2.507812 -45.453125 L 11.363281 -45.453125 L 11.363281 0 L 22.726562 0 Z M 22.726562 -45.453125 "/></g></g></g><g fill="#fa2904" fill-opacity="1"><g transform="translate(372.366988, 115.306418)"><g><path d="M 33.589844 -56.816406 L 22.226562 -56.816406 L 22.226562 -34.089844 L 14.707031 -34.089844 L 14.707031 -56.816406 L 3.34375 -56.816406 L 3.34375 0 L 14.707031 0 L 14.707031 -22.726562 L 22.226562 -22.726562 L 22.226562 0 L 33.589844 0 Z M 33.589844 -56.816406 "/></g></g></g><g fill="#fa2904" fill-opacity="1"><g transform="translate(409.295168, 115.306418)"><g><path d="M 33.589844 -11.28125 L 33.589844 -56.816406 L 22.226562 -56.816406 L 22.226562 -11.28125 L 14.707031 -11.28125 L 14.707031 -56.816406 L 3.34375 -56.816406 L 3.34375 -11.28125 C 3.34375 -9.691406 3.675781 -8.273438 4.261719 -6.933594 C 4.847656 -5.515625 5.597656 -4.34375 6.683594 -3.34375 C 7.6875 -2.257812 8.855469 -1.503906 10.277344 -0.917969 C 11.699219 -0.335938 13.117188 0 14.707031 0 L 22.226562 0 C 23.8125 0 25.234375 -0.335938 26.652344 -0.917969 C 28.074219 -1.503906 29.242188 -2.257812 30.332031 -3.34375 C 31.332031 -4.34375 32.167969 -5.515625 32.753906 -6.933594 C 33.339844 -8.273438 33.589844 -9.691406 33.589844 -11.28125 Z M 33.589844 -11.28125 "/></g></g></g><g fill="#fa2904" fill-opacity="1"><g transform="translate(446.223347, 115.306418)"><g><path d="M 33.589844 -11.28125 L 33.589844 -20.972656 C 33.589844 -22.726562 33.085938 -24.3125 32.167969 -25.566406 C 31.25 -26.820312 29.914062 -27.824219 28.324219 -28.410156 C 30.078125 -28.910156 31.417969 -29.828125 32.335938 -31.164062 C 33.171875 -32.417969 33.589844 -34.007812 33.589844 -35.761719 L 33.589844 -45.453125 C 33.589844 -47.039062 33.339844 -48.460938 32.753906 -49.882812 C 32.167969 -51.300781 31.332031 -52.472656 30.332031 -53.558594 C 29.242188 -54.5625 28.074219 -55.394531 26.652344 -55.980469 C 25.234375 -56.566406 23.8125 -56.816406 22.226562 -56.816406 L 6.769531 -56.816406 C 4.847656 -56.816406 3.34375 -55.3125 3.34375 -53.390625 L 3.34375 -3.425781 C 3.34375 -1.503906 4.847656 0 6.769531 0 L 22.226562 0 C 23.8125 0 25.234375 -0.335938 26.652344 -0.917969 C 28.074219 -1.503906 29.242188 -2.257812 30.332031 -3.34375 C 31.332031 -4.34375 32.167969 -5.515625 32.753906 -6.933594 C 33.339844 -8.273438 33.589844 -9.691406 33.589844 -11.28125 Z M 14.707031 -11.28125 L 14.707031 -22.644531 L 22.226562 -22.644531 L 22.226562 -11.28125 Z M 14.707031 -34.089844 L 14.707031 -45.453125 L 22.226562 -45.453125 L 22.226562 -34.089844 Z M 14.707031 -34.089844 "/></g></g></g><g clip-path="url(#7a21373e07)"><g clip-path="url(#10864b1978)"><g clip-path="url(#aa94c89a4c)"><g clip-path="url(#8d7e8b4255)"><path fill="#040606" d="M 483.289062 54.167969 C 484.023438 56.113281 484.480469 58.738281 483.753906 61.238281 L 488.214844 61.339844 C 488.324219 60.222656 488.410156 58.414062 488.121094 56.519531 C 487.679688 53.648438 486.519531 50.996094 484.917969 48.585938 C 484.441406 47.871094 483.941406 47.199219 483.910156 46.304688 C 483.867188 45.121094 484.414062 43.648438 485.65625 43.324219 C 486.179688 43.191406 486.84375 43.167969 487.335938 43.382812 C 488.0625 43.699219 488.804688 44.199219 489.628906 43.9375 C 490.371094 43.703125 491.070312 43.042969 491.195312 42.265625 C 491.347656 41.324219 490.886719 40.394531 490.210938 39.78125 C 489.761719 39.378906 489.222656 39.066406 488.703125 38.859375 C 486.933594 38.15625 484.941406 38.429688 483.308594 39.257812 C 480.519531 40.667969 479.011719 43.804688 479.5625 46.582031 C 480.117188 49.363281 482.496094 52.050781 483.289062 54.167969 " fill-opacity="1" fill-rule="nonzero"/></g></g></g></g><g clip-path="url(#6d56ec666e)"><g clip-path="url(#832ff02198)"><g clip-path="url(#f4d23fcdf6)"><g clip-path="url(#7541ce5c1c)"><path fill="#040606" d="M 473.949219 45.148438 C 473.386719 45.277344 472.835938 45.636719 472.367188 46.003906 C 471.246094 46.875 470.179688 47.882812 469.058594 48.753906 C 468.777344 48.976562 468.484375 49.199219 468.152344 49.308594 C 467.46875 49.527344 466.757812 49.21875 466.0625 49.0625 C 465.40625 48.914062 463.929688 48.839844 463.554688 48.824219 C 463.179688 48.824219 461.703125 48.832031 461.039062 48.949219 C 460.339844 49.078125 459.613281 49.351562 458.941406 49.101562 C 458.613281 48.980469 458.332031 48.742188 458.058594 48.507812 C 456.980469 47.585938 455.960938 46.535156 454.878906 45.613281 C 454.425781 45.222656 453.894531 44.839844 453.335938 44.6875 C 451.089844 44.066406 451.316406 47.660156 451.625 49.074219 C 451.886719 50.285156 452.582031 51.480469 452.660156 52.71875 C 452.679688 53.007812 451.238281 55.871094 451.917969 60.4375 C 451.925781 60.496094 457.558594 60.648438 463.289062 60.777344 C 469.015625 60.90625 474.648438 61.003906 474.660156 60.949219 C 475.546875 56.414062 474.234375 53.492188 474.265625 53.203125 C 474.398438 51.96875 475.144531 50.808594 475.460938 49.609375 C 475.832031 48.210938 476.222656 44.628906 473.949219 45.148438 " fill-opacity="1" fill-rule="nonzero"/></g></g></g></g><g clip-path="url(#deea439991)"><g clip-path="url(#7fff5ab40e)"><g clip-path="url(#39fa4fed22)"><g clip-path="url(#1f5adfd7de)"><path fill="#61b95e" d="M 469.1875 59.523438 C 470.449219 58.886719 470.804688 57.0625 470.804688 57.0625 C 470.804688 57.0625 469.113281 56.273438 467.851562 56.910156 C 466.589844 57.546875 466.238281 59.371094 466.238281 59.371094 C 466.238281 59.371094 467.925781 60.160156 469.1875 59.523438 " fill-opacity="1" fill-rule="nonzero"/></g></g></g></g><g clip-path="url(#13d7153c54)"><g clip-path="url(#6244f7b98c)"><g clip-path="url(#c24f5d83a3)"><g clip-path="url(#796cd6313e)"><path fill="#040606" d="M 469.109375 58.246094 C 469.074219 59.011719 468.421875 59.605469 468.421875 59.605469 C 468.421875 59.605469 467.828125 58.953125 467.867188 58.183594 C 467.90625 57.417969 468.558594 56.828125 468.558594 56.828125 C 468.558594 56.828125 469.148438 57.480469 469.109375 58.246094 " fill-opacity="1" fill-rule="nonzero"/></g></g></g></g><g clip-path="url(#94720b35c1)"><g clip-path="url(#8e479ae6bc)"><g clip-path="url(#cca8b1fbe8)"><g clip-path="url(#991689e3d9)"><path fill="#61b95e" d="M 457.449219 59.261719 C 456.214844 58.566406 455.945312 56.730469 455.945312 56.730469 C 455.945312 56.730469 457.671875 56.015625 458.902344 56.707031 C 460.132812 57.402344 460.402344 59.238281 460.402344 59.238281 C 460.402344 59.238281 458.679688 59.953125 457.449219 59.261719 " fill-opacity="1" fill-rule="nonzero"/></g></g></g></g><g clip-path="url(#24da1a8d06)"><g clip-path="url(#89790550a7)"><g clip-path="url(#eab7bf6c5f)"><g clip-path="url(#950a9c1d4f)"><path fill="#040606" d="M 457.574219 57.988281 C 457.578125 58.765625 458.210938 59.394531 458.210938 59.394531 C 458.210938 59.394531 458.839844 58.761719 458.835938 57.984375 C 458.832031 57.203125 458.199219 56.574219 458.199219 56.574219 C 458.199219 56.574219 457.570312 57.210938 457.574219 57.988281 " fill-opacity="1" fill-rule="nonzero"/></g></g></g></g><g clip-path="url(#bc179257a5)"><g clip-path="url(#516ab63fbf)"><g clip-path="url(#8dcb553c6a)"><g clip-path="url(#49b3068408)"><path fill="#040606" d="M 451.019531 60.261719 C 450.710938 59.359375 449.308594 58.601562 447.570312 58.480469 C 445.679688 58.34375 444.066406 59.011719 443.8125 59.996094 C 443.429688 60.332031 443.167969 60.839844 443.125 61.421875 C 443.046875 62.519531 443.777344 63.464844 444.753906 63.535156 C 445.179688 63.5625 445.578125 63.425781 445.902344 63.167969 C 446.179688 63.738281 446.699219 64.140625 447.324219 64.183594 C 447.929688 64.226562 448.484375 63.925781 448.839844 63.433594 C 449.117188 63.695312 449.464844 63.867188 449.859375 63.894531 C 450.835938 63.964844 451.691406 63.128906 451.769531 62.035156 C 451.824219 61.304688 451.515625 60.644531 451.019531 60.261719 " fill-opacity="1" fill-rule="nonzero"/></g></g></g></g><g clip-path="url(#82ae13d8d5)"><g clip-path="url(#e0f971a447)"><g clip-path="url(#d80cccd362)"><g clip-path="url(#63d6521842)"><path fill="#040606" d="M 475.566406 60.8125 C 475.914062 59.925781 477.351562 59.230469 479.089844 59.1875 C 480.988281 59.136719 482.566406 59.875 482.777344 60.867188 C 483.144531 61.222656 483.382812 61.742188 483.398438 62.324219 C 483.429688 63.425781 482.65625 64.335938 481.675781 64.359375 C 481.253906 64.371094 480.859375 64.214844 480.546875 63.945312 C 480.246094 64.5 479.707031 64.878906 479.082031 64.898438 C 478.476562 64.910156 477.933594 64.585938 477.601562 64.078125 C 477.3125 64.328125 476.957031 64.484375 476.5625 64.492188 C 475.582031 64.519531 474.765625 63.648438 474.734375 62.546875 C 474.714844 61.816406 475.050781 61.171875 475.566406 60.8125 " fill-opacity="1" fill-rule="nonzero"/></g></g></g></g><g clip-path="url(#318880bbd1)"><path fill="#000000" d="M 338.710938 53.902344 C 338.269531 54.417969 337.703125 54.664062 337.105469 54.949219 C 336.734375 55.128906 336.558594 55.296875 336.464844 55.703125 C 336.375 56.082031 336.300781 56.460938 336.21875 56.839844 C 335.53125 60.058594 334.84375 63.277344 334.152344 66.496094 C 334.144531 66.527344 334.136719 66.554688 334.125 66.582031 L 326.707031 66.582031 C 327.402344 64.332031 329.0625 59.335938 329.375 58 C 329.566406 57.183594 329.90625 56.253906 329.878906 55.40625 C 329.851562 54.574219 329.117188 53.929688 328.851562 53.171875 C 328.421875 51.949219 328.953125 50.386719 330.210938 49.898438 C 330.921875 49.621094 331.726562 49.75 332.332031 50.160156 C 332.644531 48.714844 333.347656 47.34375 335.039062 47.214844 C 335.988281 47.140625 336.84375 47.730469 337.117188 48.640625 C 337.257812 49.101562 337.25 49.578125 337.167969 50.050781 C 337.765625 49.988281 338.40625 50.195312 338.820312 50.671875 C 339.644531 51.617188 339.492188 52.988281 338.710938 53.902344 " fill-opacity="1" fill-rule="nonzero"/></g><path fill="#d7a790" d="M 335.175781 54.082031 C 335.066406 54.019531 334.65625 53.972656 334.601562 53.875 C 334.566406 53.820312 334.675781 53.371094 334.6875 53.28125 C 334.703125 53.125 334.730469 52.957031 334.707031 52.796875 C 334.625 52.210938 333.96875 52.199219 333.566406 52.480469 C 333.257812 52.695312 333.136719 53.070312 332.921875 53.359375 C 332.785156 53.371094 332.648438 53.367188 332.542969 53.378906 C 332.238281 53.417969 331.929688 53.511719 331.714844 53.746094 C 331.316406 54.171875 331.425781 54.871094 331.976562 55.09375 C 332.234375 55.199219 332.527344 55.183594 332.800781 55.148438 C 333.179688 55.101562 333.40625 55.011719 333.753906 55.210938 C 334.265625 55.507812 334.902344 55.84375 335.398438 55.300781 C 335.761719 54.90625 335.632812 54.328125 335.175781 54.082031 " fill-opacity="1" fill-rule="nonzero"/><path fill="#d7a790" d="M 332.109375 51.445312 C 331.84375 50.992188 331.171875 50.851562 330.828125 51.300781 C 330.695312 51.472656 330.648438 51.699219 330.726562 51.898438 C 330.726562 51.910156 330.730469 51.917969 330.730469 51.929688 C 330.761719 52.03125 330.8125 52.140625 330.871094 52.230469 C 331.03125 52.476562 331.253906 52.644531 331.550781 52.667969 C 331.851562 52.6875 332.125 52.472656 332.210938 52.195312 C 332.289062 51.949219 332.238281 51.664062 332.109375 51.445312 " fill-opacity="1" fill-rule="nonzero"/><path fill="#d7a790" d="M 335.761719 50.273438 C 335.757812 50.265625 335.761719 50.257812 335.761719 50.25 C 335.75 50.136719 335.710938 50.03125 335.648438 49.941406 C 335.601562 49.871094 335.539062 49.8125 335.457031 49.773438 C 335.453125 49.769531 335.449219 49.765625 335.441406 49.761719 C 335.285156 49.675781 335.097656 49.664062 334.925781 49.71875 C 334.734375 49.777344 334.617188 49.925781 334.503906 50.082031 C 334.308594 50.359375 334.191406 50.742188 334.359375 51.0625 C 334.546875 51.410156 334.945312 51.464844 335.265625 51.269531 C 335.5 51.125 335.671875 50.882812 335.738281 50.617188 C 335.765625 50.515625 335.773438 50.394531 335.761719 50.273438 " fill-opacity="1" fill-rule="nonzero"/><path fill="#d7a790" d="M 337.457031 52.398438 C 337.335938 52.292969 337.1875 52.253906 337.039062 52.265625 C 336.671875 52.25 336.269531 52.476562 336.089844 52.78125 C 335.9375 53.046875 335.957031 53.378906 336.183594 53.59375 C 336.40625 53.804688 336.734375 53.792969 336.996094 53.664062 C 337.433594 53.441406 337.949219 52.835938 337.457031 52.398438 " fill-opacity="1" fill-rule="nonzero"/><g clip-path="url(#1e3ce9f5e6)"><path fill="#000000" d="M 313.316406 66.582031 L 305.621094 66.582031 C 305.621094 66.570312 305.617188 66.5625 305.613281 66.554688 C 304.566406 63.433594 303.523438 60.308594 302.480469 57.1875 C 302.359375 56.820312 302.242188 56.449219 302.113281 56.085938 C 301.96875 55.691406 301.78125 55.542969 301.390625 55.40625 C 300.761719 55.1875 300.175781 55.007812 299.679688 54.542969 C 298.800781 53.722656 298.496094 52.375 299.210938 51.34375 C 299.570312 50.828125 300.179688 50.550781 300.785156 50.542969 C 300.648438 50.085938 300.585938 49.609375 300.675781 49.136719 C 300.847656 48.203125 301.632812 47.523438 302.582031 47.492188 C 304.277344 47.429688 305.128906 48.714844 305.601562 50.117188 C 306.15625 49.640625 306.941406 49.425781 307.679688 49.621094 C 308.984375 49.96875 309.6875 51.460938 309.394531 52.722656 C 309.214844 53.507812 308.558594 54.226562 308.625 55.058594 C 308.691406 55.90625 309.132812 56.789062 309.414062 57.582031 C 309.898438 58.941406 312.4375 64.503906 313.316406 66.582031 " fill-opacity="1" fill-rule="nonzero"/></g><path fill="#d7a790" d="M 302.867188 55.109375 C 303.34375 55.664062 303.992188 55.347656 304.511719 55.066406 C 304.867188 54.875 305.09375 54.96875 305.46875 55.027344 C 305.738281 55.070312 306.03125 55.097656 306.292969 55 C 306.851562 54.789062 306.976562 54.09375 306.59375 53.65625 C 306.382812 53.417969 306.078125 53.316406 305.773438 53.269531 C 305.671875 53.25 305.53125 53.25 305.394531 53.238281 C 305.1875 52.945312 305.078125 52.5625 304.777344 52.339844 C 304.382812 52.046875 303.726562 52.042969 303.625 52.628906 C 303.597656 52.785156 303.625 52.953125 303.632812 53.113281 C 303.640625 53.199219 303.738281 53.652344 303.703125 53.707031 C 303.644531 53.800781 303.234375 53.839844 303.121094 53.894531 C 302.65625 54.132812 302.515625 54.703125 302.867188 55.109375 " fill-opacity="1" fill-rule="nonzero"/><path fill="#d7a790" d="M 306.136719 52.089844 C 306.214844 52.375 306.484375 52.59375 306.785156 52.582031 C 307.085938 52.570312 307.3125 52.40625 307.476562 52.164062 C 307.539062 52.074219 307.59375 51.972656 307.625 51.867188 C 307.628906 51.859375 307.628906 51.847656 307.632812 51.839844 C 307.714844 51.636719 307.675781 51.414062 307.546875 51.238281 C 307.210938 50.777344 306.539062 50.898438 306.261719 51.347656 C 306.125 51.5625 306.066406 51.84375 306.136719 52.089844 " fill-opacity="1" fill-rule="nonzero"/><path fill="#d7a790" d="M 302.644531 50.074219 C 302.644531 50.066406 302.644531 50.058594 302.644531 50.050781 C 302.65625 49.9375 302.699219 49.832031 302.765625 49.746094 C 302.816406 49.675781 302.878906 49.617188 302.960938 49.582031 C 302.964844 49.578125 302.96875 49.574219 302.976562 49.570312 C 303.136719 49.488281 303.324219 49.480469 303.492188 49.539062 C 303.683594 49.605469 303.796875 49.757812 303.902344 49.917969 C 304.09375 50.199219 304.199219 50.585938 304.019531 50.902344 C 303.824219 51.246094 303.425781 51.285156 303.109375 51.082031 C 302.882812 50.933594 302.714844 50.683594 302.65625 50.417969 C 302.632812 50.3125 302.628906 50.191406 302.644531 50.074219 " fill-opacity="1" fill-rule="nonzero"/><path fill="#d7a790" d="M 301.316406 53.425781 C 301.570312 53.566406 301.898438 53.585938 302.128906 53.378906 C 302.359375 53.171875 302.390625 52.839844 302.246094 52.574219 C 302.074219 52.261719 301.679688 52.027344 301.3125 52.03125 C 301.164062 52.015625 301.011719 52.046875 300.886719 52.152344 C 300.382812 52.574219 300.882812 53.195312 301.316406 53.425781 " fill-opacity="1" fill-rule="nonzero"/><g clip-path="url(#a608482526)"><path fill="#000000" d="M 397.488281 92.742188 C 394.988281 93.597656 391.351562 92.1875 391.253906 89.328125 C 398.84375 85.894531 395.605469 79.320312 391.105469 83.4375 C 388.34375 79.859375 382.773438 84.039062 390.464844 89.148438 C 390.359375 92.363281 385.707031 94.109375 383.214844 92.234375 C 383.097656 92.132812 382.996094 92.019531 382.90625 91.894531 C 382.492188 91.441406 382.027344 92.039062 382.402344 92.433594 C 384.597656 95.03125 389.621094 93.859375 390.882812 90.878906 C 391.992188 93.179688 394.992188 94.3125 397.460938 93.679688 C 398.179688 93.453125 399.808594 92.820312 399.308594 91.894531 C 398.785156 91.324219 398.453125 92.53125 397.488281 92.742188 Z M 385.984375 87.625 C 385.988281 87.628906 385.988281 87.632812 385.992188 87.636719 C 386.320312 88.210938 386.273438 88.363281 386.179688 88.441406 C 386.144531 88.46875 386.105469 88.484375 386.0625 88.484375 C 385.933594 88.484375 385.796875 88.375 385.722656 88.3125 C 385.714844 88.308594 385.710938 88.304688 385.707031 88.300781 C 382.867188 85.21875 378.628906 83.5625 372.746094 83.234375 C 372.664062 83.230469 372.621094 83.1875 372.617188 83.105469 C 372.617188 83.019531 372.660156 82.976562 372.746094 82.96875 C 375.003906 82.792969 377.644531 83.117188 379.996094 83.859375 C 381.875 84.453125 384.4375 85.585938 385.984375 87.625 Z M 367.980469 87.199219 C 367.902344 87.222656 367.847656 87.199219 367.816406 87.125 C 367.785156 87.046875 367.804688 86.992188 367.878906 86.957031 C 372.410156 84.6875 380.667969 85.378906 384.550781 88.347656 C 385.175781 88.878906 385.164062 89.023438 385.097656 89.125 C 385.058594 89.1875 385 89.21875 384.925781 89.210938 C 384.820312 89.210938 384.695312 89.167969 384.578125 89.121094 C 384.570312 89.117188 384.566406 89.113281 384.558594 89.113281 C 379.230469 86.046875 373.808594 85.421875 367.980469 87.199219 Z M 383.597656 90.289062 C 378.617188 88.917969 374.804688 89.085938 370.839844 90.859375 C 370.765625 90.894531 370.707031 90.875 370.664062 90.808594 C 370.625 90.738281 370.636719 90.679688 370.703125 90.632812 C 373.628906 88.527344 380.089844 88 383.503906 89.589844 C 384.015625 89.875 384.09375 90.019531 384.050781 90.144531 C 384 90.320312 383.746094 90.304688 383.625 90.296875 C 383.613281 90.292969 383.605469 90.292969 383.597656 90.289062 Z M 409.164062 82.96875 C 409.25 82.976562 409.289062 83.019531 409.289062 83.105469 C 409.289062 83.1875 409.246094 83.230469 409.160156 83.234375 C 403.28125 83.5625 399.039062 85.21875 396.203125 88.300781 C 396.195312 88.304688 396.191406 88.308594 396.1875 88.3125 C 396.109375 88.375 395.972656 88.484375 395.847656 88.484375 C 395.800781 88.484375 395.761719 88.46875 395.726562 88.441406 C 395.636719 88.363281 395.585938 88.210938 395.914062 87.636719 C 395.917969 87.632812 395.921875 87.628906 395.925781 87.625 C 397.46875 85.585938 400.03125 84.453125 401.910156 83.859375 C 404.261719 83.117188 406.90625 82.792969 409.164062 82.96875 Z M 414.09375 87.125 C 414.0625 87.199219 414.003906 87.222656 413.925781 87.199219 C 408.097656 85.421875 402.675781 86.046875 397.347656 89.113281 C 397.34375 89.113281 397.335938 89.117188 397.332031 89.121094 C 397.210938 89.167969 397.085938 89.210938 396.984375 89.210938 C 396.90625 89.21875 396.847656 89.1875 396.808594 89.125 C 396.742188 89.023438 396.734375 88.878906 397.351562 88.351562 C 401.242188 85.378906 409.496094 84.6875 414.027344 86.957031 C 414.101562 86.992188 414.125 87.046875 414.09375 87.125 Z M 411.203125 90.632812 C 411.269531 90.679688 411.285156 90.738281 411.242188 90.808594 C 411.199219 90.875 411.140625 90.894531 411.066406 90.859375 C 407.105469 89.085938 403.289062 88.917969 398.3125 90.289062 C 398.300781 90.292969 398.292969 90.292969 398.28125 90.296875 C 398.160156 90.304688 397.910156 90.320312 397.855469 90.144531 C 397.816406 90.019531 397.890625 89.875 398.390625 89.59375 C 401.820312 88 408.28125 88.527344 411.203125 90.632812 Z M 411.203125 90.632812 " fill-opacity="1" fill-rule="nonzero"/></g><g clip-path="url(#29ada24d1c)"><path fill="#000000" d="M 373.859375 51.910156 C 373.605469 50.433594 372.859375 49.082031 372.605469 47.601562 C 372.472656 46.90625 372.472656 46.199219 372.539062 45.496094 C 372.589844 44.691406 372.679688 43.5625 372.132812 42.914062 C 371.90625 42.644531 371.539062 42.507812 371.191406 42.566406 C 370.117188 42.761719 369.78125 43.914062 369.683594 44.875 C 369.515625 46.402344 370.046875 47.570312 370.636719 48.925781 C 371.003906 49.78125 371.464844 50.59375 371.789062 51.472656 C 371.984375 51.984375 372.140625 52.523438 372.234375 53.066406 C 372.300781 53.445312 372.359375 53.832031 372.34375 54.21875 C 372.3125 54.722656 372.144531 55.246094 371.851562 55.664062 C 371.476562 53.582031 369.917969 51.882812 367.992188 51.128906 C 367.863281 51.066406 367.730469 51.007812 367.597656 50.953125 C 367.964844 50.625 368.046875 50.046875 368.085938 49.523438 C 368.128906 49.0625 368.113281 48.589844 368.226562 48.136719 C 368.269531 47.9375 368.386719 47.765625 368.40625 47.5625 C 368.433594 46.96875 367.863281 46.875 367.535156 47.296875 C 367.171875 47.710938 367.125 48.238281 367.070312 48.765625 C 367.03125 49.003906 367.003906 49.597656 366.722656 49.660156 C 366.546875 49.640625 366.429688 49.484375 366.308594 49.371094 C 365.871094 48.894531 365.171875 48.65625 364.554688 48.882812 C 363.949219 49.136719 363.523438 49.753906 363.324219 50.375 C 361.136719 50.617188 358.984375 51.53125 356.789062 52.292969 C 355.804688 52.644531 354.835938 53.019531 353.863281 53.394531 C 353.867188 53.378906 353.867188 53.367188 353.871094 53.355469 C 353.917969 53.066406 354.019531 52.761719 354.179688 52.511719 C 354.363281 52.195312 354.675781 51.976562 354.851562 51.65625 C 355.101562 51.152344 354.832031 50.761719 354.277344 50.910156 C 353.753906 51.027344 353.316406 51.425781 353.027344 51.875 C 352.84375 52.179688 352.726562 52.511719 352.574219 52.832031 C 352.328125 53.382812 352.027344 53.835938 351.636719 54.21875 C 351.414062 54.296875 351.1875 54.371094 350.964844 54.445312 C 350.488281 54.609375 350.011719 54.726562 349.515625 54.828125 C 349.054688 54.507812 348.554688 54.238281 348.027344 54.050781 C 346.792969 53.621094 345.421875 53.742188 344.210938 54.257812 C 344.035156 54.160156 343.859375 54.066406 343.6875 53.96875 C 343.246094 53.730469 342.8125 53.480469 342.382812 53.21875 C 342.265625 53.152344 342.152344 53.082031 342.03125 53.019531 C 341.980469 52.996094 341.925781 52.953125 341.867188 52.964844 C 341.722656 53.007812 341.839844 53.167969 341.875 53.253906 C 341.972656 53.457031 342.074219 53.65625 342.171875 53.855469 C 342.378906 54.273438 342.578125 54.695312 342.804688 55.105469 C 342.398438 55.433594 342.035156 55.816406 341.742188 56.242188 C 341.503906 56.589844 341.21875 57.132812 341.023438 57.703125 C 340.609375 57.773438 340.199219 57.84375 339.789062 57.910156 C 339.523438 57.964844 339.25 57.980469 338.996094 58.074219 C 338.9375 58.097656 338.886719 58.167969 338.910156 58.230469 C 338.941406 58.308594 339.023438 58.34375 339.085938 58.390625 C 339.367188 58.566406 339.664062 58.722656 339.960938 58.875 C 340.234375 59.015625 340.511719 59.148438 340.796875 59.257812 C 340.800781 59.269531 340.800781 59.285156 340.804688 59.296875 C 340.847656 60.460938 342.066406 60.339844 342.929688 60.242188 C 343.03125 60.230469 343.132812 60.222656 343.234375 60.214844 C 351.476562 60.03125 359.722656 60.027344 367.964844 59.929688 C 368.59375 59.960938 369.21875 59.941406 369.84375 59.824219 C 371.066406 59.621094 371.691406 58.535156 371.878906 57.371094 C 372.117188 57.234375 372.335938 57.070312 372.539062 56.882812 C 373.050781 56.410156 373.445312 55.808594 373.667969 55.140625 C 374 54.105469 374.050781 52.980469 373.859375 51.910156 Z M 373.859375 51.910156 " fill-opacity="1" fill-rule="nonzero"/></g><path fill="#ffffff" d="M 366.171875 57.960938 C 366.0625 57.976562 366.078125 57.800781 366.050781 57.730469 C 366.007812 57.515625 365.972656 57.292969 365.945312 57.074219 C 365.859375 56.363281 365.835938 55.628906 366.078125 54.945312 C 366.132812 54.789062 366.203125 54.640625 366.292969 54.5 C 366.519531 54.160156 366.921875 53.917969 367.335938 53.933594 C 367.507812 53.9375 367.683594 53.980469 367.839844 54.054688 C 367.910156 54.082031 367.972656 54.117188 368.046875 54.140625 C 368.261719 54.214844 368.449219 54.035156 368.523438 53.84375 C 368.625 53.605469 368.617188 53.34375 368.65625 53.09375 C 368.679688 52.929688 368.714844 52.761719 368.808594 52.625 C 369.007812 52.339844 369.40625 52.210938 369.707031 52.40625 C 369.953125 52.550781 370.121094 52.945312 369.898438 53.175781 C 369.867188 53.207031 369.828125 53.210938 369.800781 53.242188 C 369.726562 53.351562 369.699219 53.480469 369.675781 53.605469 C 369.59375 54.160156 369.808594 54.726562 369.660156 55.277344 C 369.621094 55.4375 369.542969 55.59375 369.414062 55.699219 C 369.257812 55.824219 369.039062 55.84375 368.851562 55.789062 C 368.832031 55.785156 368.8125 55.773438 368.800781 55.753906 C 368.761719 55.699219 368.820312 55.613281 368.886719 55.632812 C 369.058594 55.6875 369.269531 55.660156 369.386719 55.503906 C 369.757812 54.964844 369.371094 54.121094 369.53125 53.488281 C 369.574219 53.339844 369.609375 53.152344 369.753906 53.078125 C 369.902344 53.011719 369.84375 52.773438 369.765625 52.671875 C 369.542969 52.363281 369.113281 52.433594 368.921875 52.742188 C 368.785156 52.984375 368.804688 53.277344 368.761719 53.542969 C 368.71875 53.96875 368.433594 54.46875 367.945312 54.277344 C 367.75 54.1875 367.542969 54.097656 367.324219 54.097656 C 367 54.09375 366.683594 54.273438 366.480469 54.523438 C 365.976562 55.253906 366.003906 56.207031 366.097656 57.054688 C 366.121094 57.273438 366.15625 57.488281 366.195312 57.703125 C 366.203125 57.785156 366.277344 57.929688 366.171875 57.960938 Z M 366.171875 57.960938 " fill-opacity="1" fill-rule="nonzero"/><path fill="#ffffff" d="M 355.074219 57.132812 C 355.015625 57.089844 355.050781 57.023438 355.085938 56.976562 C 355.171875 56.839844 355.253906 56.703125 355.332031 56.566406 C 355.558594 56.15625 355.765625 55.726562 356.066406 55.375 C 356.273438 55.113281 356.53125 54.910156 356.796875 54.71875 C 356.964844 54.589844 357.136719 54.464844 357.253906 54.289062 C 357.355469 54.125 357.414062 53.855469 357.21875 53.734375 C 356.949219 53.605469 356.628906 53.714844 356.363281 53.804688 C 355.882812 53.980469 355.445312 54.246094 355.066406 54.589844 C 354.839844 54.785156 354.660156 55.027344 354.480469 55.269531 C 354.171875 55.691406 353.859375 56.113281 353.511719 56.503906 C 353.347656 56.6875 353.171875 56.863281 352.988281 57.03125 C 352.890625 57.121094 352.789062 57.214844 352.683594 57.300781 C 352.640625 57.332031 352.597656 57.367188 352.546875 57.363281 C 352.453125 57.359375 352.445312 57.222656 352.542969 57.222656 C 353.179688 56.71875 353.699219 56.089844 354.171875 55.433594 C 354.371094 55.167969 354.554688 54.886719 354.777344 54.640625 C 354.953125 54.464844 355.140625 54.304688 355.34375 54.160156 C 355.769531 53.859375 356.382812 53.542969 356.90625 53.511719 C 357.421875 53.472656 357.660156 53.871094 357.425781 54.328125 C 357.199219 54.714844 356.769531 54.902344 356.453125 55.203125 C 356.242188 55.398438 356.058594 55.632812 355.902344 55.878906 C 355.730469 56.152344 355.589844 56.445312 355.429688 56.722656 C 355.351562 56.855469 355.269531 56.988281 355.183594 57.117188 C 355.160156 57.15625 355.105469 57.160156 355.074219 57.132812 Z M 355.074219 57.132812 " fill-opacity="1" fill-rule="nonzero"/><path fill="#ffffff" d="M 344.5625 58.855469 C 344.554688 58.90625 344.542969 58.957031 344.527344 59.003906 C 344.507812 59.007812 344.492188 59.007812 344.476562 59.007812 C 344.460938 59.011719 344.445312 59.011719 344.429688 59.011719 C 344.414062 59.015625 344.398438 59.015625 344.382812 59.019531 C 344.371094 59.019531 344.359375 59.019531 344.34375 59.023438 C 344.34375 59.023438 344.339844 59.023438 344.335938 59.023438 C 344.347656 59 344.355469 58.976562 344.363281 58.953125 C 344.371094 58.925781 344.378906 58.898438 344.386719 58.867188 C 344.394531 58.867188 344.40625 58.867188 344.414062 58.863281 C 344.421875 58.863281 344.425781 58.863281 344.429688 58.863281 C 344.433594 58.863281 344.4375 58.863281 344.445312 58.863281 C 344.453125 58.859375 344.464844 58.859375 344.472656 58.859375 C 344.484375 58.859375 344.496094 58.855469 344.507812 58.855469 C 344.515625 58.855469 344.523438 58.855469 344.527344 58.855469 C 344.539062 58.855469 344.550781 58.855469 344.5625 58.855469 Z M 344.5625 58.855469 " fill-opacity="1" fill-rule="nonzero"/><path fill="#ffffff" d="M 345.085938 58.875 C 345.148438 58.886719 345.167969 58.976562 345.117188 59.011719 C 345.078125 59.035156 345.03125 59.015625 344.996094 59.015625 C 344.921875 59.007812 344.847656 59 344.777344 59 C 344.765625 59 344.757812 59 344.746094 59 C 344.703125 59 344.65625 59 344.613281 59 C 344.59375 59 344.574219 59.003906 344.554688 59.003906 C 344.542969 59.003906 344.535156 59.003906 344.523438 59.003906 C 344.507812 59.007812 344.492188 59.007812 344.476562 59.007812 C 344.460938 59.011719 344.445312 59.011719 344.429688 59.011719 C 344.414062 59.015625 344.398438 59.015625 344.382812 59.019531 C 344.371094 59.019531 344.359375 59.019531 344.34375 59.023438 C 344.34375 59.023438 344.339844 59.023438 344.335938 59.023438 C 344.328125 59.023438 344.316406 59.027344 344.308594 59.027344 C 344.300781 59.027344 344.292969 59.03125 344.285156 59.03125 C 344.265625 59.035156 344.242188 59.039062 344.222656 59.042969 C 344.214844 59.042969 344.203125 59.046875 344.191406 59.046875 C 344.144531 59.054688 344.097656 59.066406 344.046875 59.078125 C 344.035156 59.082031 344.023438 59.082031 344.011719 59.085938 C 343.996094 59.089844 343.984375 59.09375 343.96875 59.097656 C 343.921875 59.109375 343.875 59.121094 343.828125 59.136719 C 343.824219 59.140625 343.816406 59.140625 343.808594 59.144531 C 343.796875 59.148438 343.785156 59.152344 343.769531 59.15625 C 343.757812 59.160156 343.742188 59.164062 343.726562 59.171875 C 343.710938 59.175781 343.699219 59.183594 343.683594 59.1875 C 343.664062 59.195312 343.652344 59.199219 343.636719 59.207031 C 343.621094 59.210938 343.609375 59.214844 343.59375 59.222656 C 343.578125 59.226562 343.558594 59.234375 343.542969 59.242188 C 343.527344 59.25 343.511719 59.253906 343.496094 59.261719 C 343.46875 59.273438 343.4375 59.289062 343.410156 59.300781 C 343.394531 59.308594 343.378906 59.316406 343.363281 59.324219 C 343.347656 59.332031 343.332031 59.335938 343.316406 59.34375 C 343.316406 59.347656 343.3125 59.347656 343.308594 59.351562 C 343.296875 59.355469 343.285156 59.363281 343.273438 59.367188 C 343.261719 59.375 343.246094 59.382812 343.234375 59.390625 C 343.21875 59.398438 343.203125 59.40625 343.191406 59.414062 C 343.179688 59.417969 343.164062 59.425781 343.152344 59.433594 C 343.140625 59.441406 343.125 59.449219 343.109375 59.460938 C 343.101562 59.464844 343.09375 59.46875 343.085938 59.472656 C 342.980469 59.539062 342.878906 59.613281 342.785156 59.6875 C 342.753906 59.707031 342.730469 59.746094 342.691406 59.75 C 342.625 59.753906 342.59375 59.667969 342.640625 59.628906 C 342.65625 59.613281 342.671875 59.601562 342.6875 59.585938 C 342.691406 59.582031 342.695312 59.578125 342.703125 59.574219 C 342.722656 59.558594 342.742188 59.542969 342.761719 59.523438 C 342.769531 59.519531 342.777344 59.515625 342.785156 59.507812 C 342.789062 59.503906 342.796875 59.5 342.804688 59.492188 C 342.820312 59.480469 342.835938 59.46875 342.855469 59.457031 C 342.863281 59.449219 342.871094 59.445312 342.882812 59.4375 C 342.921875 59.410156 342.964844 59.382812 343.007812 59.355469 C 343.03125 59.339844 343.054688 59.324219 343.082031 59.308594 C 343.101562 59.296875 343.125 59.285156 343.148438 59.269531 C 343.152344 59.269531 343.15625 59.265625 343.160156 59.265625 C 343.171875 59.257812 343.183594 59.25 343.195312 59.246094 C 343.199219 59.246094 343.199219 59.246094 343.199219 59.242188 C 343.214844 59.234375 343.230469 59.226562 343.246094 59.21875 C 343.296875 59.195312 343.347656 59.171875 343.394531 59.148438 C 343.398438 59.144531 343.402344 59.144531 343.40625 59.140625 C 343.421875 59.136719 343.4375 59.128906 343.453125 59.121094 C 343.46875 59.113281 343.484375 59.109375 343.5 59.101562 C 343.503906 59.101562 343.507812 59.097656 343.511719 59.097656 C 343.527344 59.089844 343.542969 59.085938 343.558594 59.078125 C 343.574219 59.070312 343.589844 59.066406 343.605469 59.058594 C 343.609375 59.058594 343.609375 59.058594 343.613281 59.058594 C 343.625 59.050781 343.640625 59.046875 343.65625 59.039062 C 343.660156 59.039062 343.664062 59.039062 343.664062 59.039062 C 343.679688 59.03125 343.695312 59.027344 343.710938 59.023438 C 343.714844 59.019531 343.71875 59.019531 343.722656 59.019531 C 343.738281 59.011719 343.753906 59.007812 343.769531 59.003906 C 343.789062 58.996094 343.804688 58.992188 343.824219 58.984375 C 343.839844 58.980469 343.859375 58.976562 343.878906 58.96875 C 343.894531 58.964844 343.914062 58.960938 343.933594 58.953125 C 343.949219 58.949219 343.96875 58.945312 343.984375 58.941406 C 344 58.9375 344.015625 58.933594 344.03125 58.929688 C 344.046875 58.925781 344.058594 58.921875 344.074219 58.921875 C 344.078125 58.917969 344.082031 58.917969 344.089844 58.917969 C 344.101562 58.914062 344.113281 58.910156 344.125 58.910156 C 344.144531 58.90625 344.160156 58.902344 344.179688 58.898438 C 344.1875 58.898438 344.199219 58.894531 344.207031 58.894531 C 344.210938 58.894531 344.21875 58.890625 344.222656 58.890625 C 344.238281 58.886719 344.253906 58.886719 344.265625 58.882812 C 344.28125 58.882812 344.296875 58.878906 344.3125 58.878906 C 344.328125 58.875 344.34375 58.871094 344.359375 58.871094 C 344.371094 58.871094 344.378906 58.867188 344.386719 58.867188 C 344.394531 58.867188 344.40625 58.867188 344.414062 58.863281 C 344.421875 58.863281 344.425781 58.863281 344.429688 58.863281 C 344.433594 58.863281 344.4375 58.863281 344.441406 58.863281 C 344.453125 58.859375 344.464844 58.859375 344.472656 58.859375 C 344.484375 58.859375 344.496094 58.859375 344.507812 58.855469 C 344.515625 58.855469 344.519531 58.855469 344.527344 58.855469 C 344.539062 58.855469 344.550781 58.855469 344.5625 58.851562 C 344.578125 58.851562 344.59375 58.851562 344.613281 58.851562 C 344.621094 58.851562 344.628906 58.851562 344.636719 58.851562 C 344.648438 58.851562 344.660156 58.851562 344.671875 58.851562 C 344.683594 58.847656 344.695312 58.847656 344.707031 58.847656 C 344.730469 58.847656 344.753906 58.847656 344.777344 58.851562 C 344.789062 58.851562 344.796875 58.851562 344.808594 58.851562 C 344.820312 58.851562 344.832031 58.851562 344.84375 58.851562 C 344.855469 58.851562 344.867188 58.855469 344.878906 58.855469 C 344.890625 58.855469 344.902344 58.855469 344.914062 58.855469 C 344.925781 58.859375 344.9375 58.859375 344.949219 58.859375 C 344.960938 58.859375 344.96875 58.863281 344.980469 58.863281 C 345.015625 58.867188 345.050781 58.871094 345.085938 58.875 Z M 345.085938 58.875 " fill-opacity="1" fill-rule="nonzero"/><path fill="#ffffff" d="M 345.761719 57.710938 C 345.652344 57.734375 345.542969 57.746094 345.433594 57.757812 C 345.324219 57.78125 345.230469 57.726562 345.289062 57.609375 C 345.335938 57.511719 345.488281 57.152344 345.621094 57.203125 C 345.734375 57.1875 345.847656 57.394531 345.914062 57.472656 C 346.027344 57.625 345.898438 57.6875 345.761719 57.710938 Z M 345.761719 57.710938 " fill-opacity="1" fill-rule="nonzero"/><path fill="#ffffff" d="M 345.460938 57.601562 C 345.464844 57.601562 345.472656 57.597656 345.476562 57.597656 C 345.46875 57.597656 345.464844 57.59375 345.457031 57.59375 C 345.457031 57.597656 345.457031 57.597656 345.453125 57.601562 C 345.457031 57.601562 345.457031 57.601562 345.460938 57.601562 Z M 345.460938 57.601562 " fill-opacity="1" fill-rule="nonzero"/><path fill="#ffffff" d="M 346.007812 59.089844 C 346.019531 59.117188 345.976562 59.132812 345.964844 59.105469 C 345.957031 59.082031 345.949219 59.058594 345.941406 59.039062 C 345.925781 59.003906 345.910156 58.964844 345.894531 58.929688 C 345.882812 58.894531 345.867188 58.863281 345.855469 58.828125 C 345.855469 58.824219 345.851562 58.824219 345.851562 58.820312 C 345.84375 58.796875 345.832031 58.769531 345.820312 58.746094 C 345.8125 58.71875 345.800781 58.691406 345.789062 58.660156 C 345.777344 58.625 345.75 58.585938 345.757812 58.546875 C 345.765625 58.527344 345.796875 58.53125 345.800781 58.550781 C 345.8125 58.585938 345.828125 58.617188 345.839844 58.652344 C 345.847656 58.671875 345.851562 58.691406 345.859375 58.707031 C 345.875 58.746094 345.890625 58.785156 345.90625 58.824219 C 345.929688 58.878906 345.949219 58.933594 345.972656 58.988281 C 345.976562 59.003906 345.984375 59.015625 345.988281 59.03125 C 345.996094 59.054688 346.003906 59.070312 346.007812 59.089844 Z M 346.007812 59.089844 " fill-opacity="1" fill-rule="nonzero"/><path fill="#ffffff" d="M 346.332031 58.9375 C 346.324219 58.921875 346.3125 58.90625 346.300781 58.894531 C 346.210938 58.78125 346.125 58.660156 346.042969 58.539062 C 346.035156 58.519531 346.058594 58.5 346.074219 58.507812 C 346.085938 58.515625 346.09375 58.527344 346.101562 58.539062 C 346.1875 58.664062 346.28125 58.785156 346.371094 58.910156 C 346.390625 58.9375 346.351562 58.960938 346.332031 58.9375 Z M 346.332031 58.9375 " fill-opacity="1" fill-rule="nonzero"/><path fill="#ffffff" d="M 346.667969 58.804688 C 346.515625 58.660156 346.367188 58.503906 346.21875 58.363281 C 346.21875 58.328125 346.261719 58.332031 346.277344 58.351562 C 346.398438 58.457031 346.507812 58.578125 346.621094 58.6875 C 346.648438 58.714844 346.671875 58.738281 346.699219 58.765625 C 346.722656 58.785156 346.691406 58.824219 346.667969 58.804688 Z M 346.667969 58.804688 " fill-opacity="1" fill-rule="nonzero"/><path fill="#ffffff" d="M 346.589844 57.011719 C 346.585938 57 346.59375 56.984375 346.605469 56.976562 C 346.761719 56.886719 346.910156 56.785156 347.066406 56.695312 C 347.09375 56.679688 347.117188 56.722656 347.089844 56.738281 C 347.03125 56.777344 346.972656 56.8125 346.914062 56.851562 C 346.835938 56.898438 346.761719 56.945312 346.683594 56.988281 C 346.65625 56.996094 346.613281 57.042969 346.589844 57.011719 Z M 346.589844 57.011719 " fill-opacity="1" fill-rule="nonzero"/><path fill="#ffffff" d="M 346.527344 56.761719 C 346.46875 56.730469 346.640625 56.601562 346.664062 56.570312 C 346.722656 56.507812 346.78125 56.449219 346.84375 56.390625 C 346.851562 56.382812 346.867188 56.382812 346.878906 56.394531 C 346.886719 56.402344 346.886719 56.417969 346.875 56.425781 C 346.824219 56.480469 346.773438 56.535156 346.71875 56.585938 C 346.664062 56.640625 346.609375 56.695312 346.554688 56.75 C 346.550781 56.761719 346.539062 56.765625 346.527344 56.761719 Z M 346.527344 56.761719 " fill-opacity="1" fill-rule="nonzero"/><path fill="#ffffff" d="M 346.441406 56.609375 C 346.394531 56.585938 346.492188 56.480469 346.503906 56.449219 C 346.539062 56.394531 346.578125 56.339844 346.613281 56.285156 C 346.65625 56.226562 346.695312 56.171875 346.734375 56.113281 C 346.753906 56.089844 346.792969 56.121094 346.773438 56.144531 C 346.765625 56.160156 346.753906 56.171875 346.746094 56.183594 C 346.671875 56.292969 346.597656 56.398438 346.527344 56.511719 C 346.507812 56.539062 346.488281 56.570312 346.46875 56.601562 C 346.464844 56.609375 346.449219 56.613281 346.441406 56.609375 Z M 346.441406 56.609375 " fill-opacity="1" fill-rule="nonzero"/><path fill="#ffffff" d="M 343.082031 58.875 C 342.992188 58.792969 343.152344 58.683594 343.191406 58.804688 C 343.214844 58.867188 343.132812 58.921875 343.082031 58.875 Z M 343.082031 58.875 " fill-opacity="1" fill-rule="nonzero"/><path fill="#ffffff" d="M 344.113281 58.507812 C 344.105469 58.476562 344.125 58.445312 344.152344 58.4375 C 344.183594 58.433594 344.210938 58.449219 344.21875 58.480469 C 344.226562 58.507812 344.207031 58.539062 344.179688 58.546875 C 344.148438 58.554688 344.121094 58.535156 344.113281 58.507812 Z M 344.113281 58.507812 " fill-opacity="1" fill-rule="nonzero"/><path fill="#ffffff" d="M 344.960938 55.960938 C 344.941406 55.964844 344.921875 55.953125 344.902344 55.949219 C 344.84375 55.921875 344.859375 55.832031 344.914062 55.816406 C 345.007812 55.777344 345.066406 55.941406 344.960938 55.960938 Z M 344.960938 55.960938 " fill-opacity="1" fill-rule="nonzero"/><path fill="#ffffff" d="M 345.777344 55.296875 C 345.769531 55.265625 345.792969 55.230469 345.824219 55.21875 C 345.859375 55.210938 345.894531 55.234375 345.902344 55.265625 C 345.910156 55.300781 345.890625 55.335938 345.855469 55.34375 C 345.820312 55.355469 345.785156 55.332031 345.777344 55.296875 Z M 345.777344 55.296875 " fill-opacity="1" fill-rule="nonzero"/><path fill="#ffffff" d="M 345.394531 56.609375 C 344.863281 56.609375 344.433594 56.167969 344.433594 55.628906 C 344.433594 55.089844 344.863281 54.652344 345.394531 54.652344 C 345.925781 54.652344 346.359375 55.089844 346.359375 55.628906 C 346.359375 56.167969 345.925781 56.609375 345.394531 56.609375 Z M 345.394531 54.9375 C 345.019531 54.9375 344.710938 55.25 344.710938 55.628906 C 344.710938 56.011719 345.019531 56.324219 345.394531 56.324219 C 345.773438 56.324219 346.078125 56.011719 346.078125 55.628906 C 346.078125 55.25 345.773438 54.9375 345.394531 54.9375 Z M 345.394531 54.9375 " fill-opacity="1" fill-rule="nonzero"/><path fill="#ffffff" d="M 343.015625 59.460938 C 342.808594 59.273438 342.691406 59.007812 342.691406 58.726562 C 342.691406 58.1875 343.125 57.746094 343.65625 57.746094 C 344.191406 57.746094 344.625 58.1875 344.625 58.726562 C 344.625 58.8125 344.613281 58.894531 344.59375 58.976562 L 344.324219 58.90625 C 344.339844 58.847656 344.347656 58.789062 344.347656 58.726562 C 344.347656 58.34375 344.039062 58.03125 343.65625 58.03125 C 343.277344 58.03125 342.96875 58.34375 342.96875 58.726562 C 342.96875 58.925781 343.054688 59.117188 343.199219 59.246094 Z M 343.015625 59.460938 " fill-opacity="1" fill-rule="nonzero"/></svg>