<svg xmlns="http://www.w3.org/2000/svg" width="997" height="238" version="1.0" viewBox="0 0 747.75 178.5"><defs><clipPath id="s"><path d="m443.578 37.191 47.871 1.075-.605 26.925-47.871-1.074Zm0 0"/></clipPath><clipPath id="a"><path d="M479 38h13v24h-13Zm0 0"/></clipPath><clipPath id="c"><path d="m443.578 37.191 47.871 1.075-.605 26.925-47.871-1.074Zm0 0"/></clipPath><clipPath id="d"><path d="m443.578 37.191 47.871 1.075-.605 26.925-47.871-1.074Zm0 0"/></clipPath><clipPath id="e"><path d="M451 44h25v17h-25Zm0 0"/></clipPath><clipPath id="f"><path d="m443.578 37.191 47.871 1.075-.605 26.925-47.871-1.074Zm0 0"/></clipPath><clipPath id="g"><path d="m443.578 37.191 47.871 1.075-.605 26.925-47.871-1.074Zm0 0"/></clipPath><clipPath id="h"><path d="m443.578 37.191 47.871 1.075-.605 26.925-47.871-1.074Zm0 0"/></clipPath><clipPath id="i"><path d="M466 56h5v4h-5Zm0 0"/></clipPath><clipPath id="j"><path d="m443.578 37.191 47.871 1.075-.605 26.925-47.871-1.074Zm0 0"/></clipPath><clipPath id="k"><path d="m443.578 37.191 47.871 1.075-.605 26.925-47.871-1.074Zm0 0"/></clipPath><clipPath id="l"><path d="m443.578 37.191 47.871 1.075-.605 26.925-47.871-1.074Zm0 0"/></clipPath><clipPath id="m"><path d="M467 56h3v4h-3Zm0 0"/></clipPath><clipPath id="n"><path d="m443.578 37.191 47.871 1.075-.605 26.925-47.871-1.074Zm0 0"/></clipPath><clipPath id="o"><path d="m443.578 37.191 47.871 1.075-.605 26.925-47.871-1.074Zm0 0"/></clipPath><clipPath id="p"><path d="m443.578 37.191 47.871 1.075-.605 26.925-47.871-1.074Zm0 0"/></clipPath><clipPath id="q"><path d="M455 56h6v4h-6Zm0 0"/></clipPath><clipPath id="r"><path d="m443.578 37.191 47.871 1.075-.605 26.925-47.871-1.074Zm0 0"/></clipPath><clipPath id="b"><path d="m443.578 37.191 47.871 1.075-.605 26.925-47.871-1.074Zm0 0"/></clipPath><clipPath id="t"><path d="m443.578 37.191 47.871 1.075-.605 26.925-47.871-1.074Zm0 0"/></clipPath><clipPath id="u"><path d="M457 56h2v4h-2Zm0 0"/></clipPath><clipPath id="v"><path d="m443.578 37.191 47.871 1.075-.605 26.925-47.871-1.074Zm0 0"/></clipPath><clipPath id="w"><path d="m443.578 37.191 47.871 1.075-.605 26.925-47.871-1.074Zm0 0"/></clipPath><clipPath id="x"><path d="m443.578 37.191 47.871 1.075-.605 26.925-47.871-1.074Zm0 0"/></clipPath><clipPath id="y"><path d="M443 58h9v7h-9Zm0 0"/></clipPath><clipPath id="z"><path d="m443.578 37.191 47.871 1.075-.605 26.925-47.871-1.074Zm0 0"/></clipPath><clipPath id="A"><path d="m443.578 37.191 47.871 1.075-.605 26.925-47.871-1.074Zm0 0"/></clipPath><clipPath id="B"><path d="m443.578 37.191 47.871 1.075-.605 26.925-47.871-1.074Zm0 0"/></clipPath><clipPath id="C"><path d="M474 59h10v6h-10Zm0 0"/></clipPath><clipPath id="D"><path d="m443.578 37.191 47.871 1.075-.605 26.925-47.871-1.074Zm0 0"/></clipPath><clipPath id="E"><path d="m443.578 37.191 47.871 1.075-.605 26.925-47.871-1.074Zm0 0"/></clipPath><clipPath id="F"><path d="m443.578 37.191 47.871 1.075-.605 26.925-47.871-1.074Zm0 0"/></clipPath><clipPath id="G"><path d="M326 47.137h13.648V66.59H326Zm0 0"/></clipPath><clipPath id="H"><path d="M298.5 47.137H314V66.59h-15.5Zm0 0"/></clipPath><clipPath id="I"><path d="M367.762 82h46.386v12h-46.386Zm0 0"/></clipPath><clipPath id="J"><path d="M338.887 42.504H374V60.46h-35.113Zm0 0"/></clipPath></defs><path d="M299.017 104.025v-7.601h-11.363v7.601h-7.52V69.853h7.52v7.602h11.363v-7.602c0-1.586-.25-3.008-.836-4.43-.585-1.417-1.421-2.59-2.421-3.675-1.09-1.004-2.258-1.836-3.68-2.422-1.418-.586-2.84-.836-4.426-.836h-7.52c-1.59 0-3.007.25-4.43.836-1.421.586-2.589 1.418-3.593 2.422-1.086 1.086-1.836 2.258-2.422 3.676-.586 1.421-.918 2.843-.918 4.43v34.171c0 1.59.332 3.008.918 4.348.586 1.418 1.336 2.59 2.422 3.59 1.004 1.086 2.172 1.84 3.594 2.425 1.422.582 2.84.918 4.43.918h7.52c1.585 0 3.007-.336 4.425-.918 1.422-.585 2.59-1.34 3.68-2.425 1-1 1.836-2.172 2.421-3.59.586-1.34.836-2.758.836-4.348ZM335.11 69.771c0-1.59-.25-3.008-.836-4.347-.586-1.418-1.422-2.59-2.422-3.59-1.09-1.09-2.257-1.84-3.68-2.426-1.417-.586-2.84-.918-4.425-.918h-7.52c-1.59 0-3.007.332-4.43.918-1.421.586-2.59 1.336-3.593 2.426-1.086 1-1.836 2.172-2.422 3.59a10.644 10.644 0 0 0-.918 4.347v45.535h11.363V92.58h7.52v22.726h11.363Zm-18.883 11.446V69.77h7.52v11.446ZM361.175 69.853h8.691V58.49h-28.91v11.363h8.856v45.453h11.363Zm0 0"/><path fill="#fa2904" d="M405.957 58.49h-11.363v22.727h-7.52V58.49h-11.363v56.816h11.363V92.58h7.52v22.726h11.363ZM442.885 104.025V58.49h-11.363v45.535h-7.52V58.49H412.64v45.535c0 1.59.332 3.008.918 4.348.586 1.418 1.336 2.59 2.422 3.59 1.004 1.086 2.172 1.84 3.594 2.425 1.421.582 2.84.918 4.43.918h7.519c1.586 0 3.008-.336 4.426-.918 1.421-.585 2.59-1.34 3.68-2.425 1-1 1.835-2.172 2.421-3.59.586-1.34.836-2.758.836-4.348ZM479.813 104.025v-9.691c0-1.754-.504-3.34-1.422-4.594-.918-1.254-2.254-2.258-3.843-2.844 1.753-.5 3.093-1.418 4.011-2.754.836-1.254 1.254-2.843 1.254-4.597v-9.692c0-1.586-.25-3.008-.836-4.43-.586-1.417-1.422-2.59-2.422-3.675-1.09-1.004-2.257-1.836-3.68-2.422-1.417-.586-2.84-.836-4.425-.836h-15.457a3.388 3.388 0 0 0-3.426 3.426v49.965a3.388 3.388 0 0 0 3.426 3.425h15.457c1.586 0 3.008-.336 4.426-.918 1.422-.585 2.59-1.34 3.68-2.425 1-1 1.835-2.172 2.421-3.59.586-1.34.836-2.758.836-4.348Zm-18.883 0V92.662h7.52v11.363Zm0-22.808V69.853h7.52v11.364Zm0 0"/><g clip-path="url(#a)"><g clip-path="url(#b)"><g clip-path="url(#c)"><g clip-path="url(#d)"><path fill="#040606" d="M483.29 54.168c.733 1.945 1.19 4.57.464 7.07l4.46.102c.11-1.117.196-2.926-.093-4.82-.441-2.872-1.601-5.524-3.203-7.934-.477-.715-.977-1.387-1.008-2.281-.043-1.184.504-2.657 1.746-2.98.524-.134 1.188-.157 1.68.058.726.316 1.469.816 2.293.554.742-.234 1.441-.894 1.566-1.671.153-.942-.308-1.871-.984-2.485a5.157 5.157 0 0 0-1.508-.922c-1.77-.703-3.762-.43-5.394.399-2.79 1.41-4.297 4.547-3.747 7.324.555 2.781 2.934 5.469 3.727 7.586"/></g></g></g></g><g clip-path="url(#e)"><g clip-path="url(#f)"><g clip-path="url(#g)"><g clip-path="url(#h)"><path fill="#040606" d="M473.95 45.148c-.563.13-1.114.489-1.583.856-1.12.871-2.187 1.879-3.308 2.75-.282.223-.575.445-.907.555-.683.218-1.394-.09-2.09-.246-.656-.149-2.132-.223-2.507-.239-.375 0-1.852.008-2.516.125-.7.13-1.426.403-2.098.153-.328-.122-.609-.36-.882-.594-1.079-.922-2.098-1.973-3.18-2.895-.453-.39-.984-.773-1.543-.925-2.246-.622-2.02 2.972-1.711 4.386.262 1.211.957 2.406 1.035 3.645.02.289-1.422 3.152-.742 7.718.008.06 5.64.211 11.371.34 5.727.13 11.36.227 11.371.172.887-4.535-.426-7.457-.394-7.746.132-1.234.879-2.394 1.195-3.594.371-1.398.762-4.98-1.512-4.46"/></g></g></g></g><g clip-path="url(#i)"><g clip-path="url(#j)"><g clip-path="url(#k)"><g clip-path="url(#l)"><path fill="#61b95e" d="M469.188 59.523c1.261-.636 1.617-2.46 1.617-2.46s-1.692-.79-2.953-.153c-1.262.637-1.614 2.461-1.614 2.461s1.688.79 2.95.152"/></g></g></g></g><g clip-path="url(#m)"><g clip-path="url(#n)"><g clip-path="url(#o)"><g clip-path="url(#p)"><path fill="#040606" d="M469.11 58.246c-.036.766-.688 1.36-.688 1.36s-.594-.653-.555-1.422c.04-.766.692-1.356.692-1.356s.59.652.55 1.418"/></g></g></g></g><g clip-path="url(#q)"><g clip-path="url(#r)"><g clip-path="url(#s)"><g clip-path="url(#t)"><path fill="#61b95e" d="M457.45 59.262c-1.235-.696-1.505-2.532-1.505-2.532s1.727-.714 2.957-.023c1.23.695 1.5 2.531 1.5 2.531s-1.722.715-2.953.024"/></g></g></g></g><g clip-path="url(#u)"><g clip-path="url(#v)"><g clip-path="url(#w)"><g clip-path="url(#x)"><path fill="#040606" d="M457.574 57.988c.004.778.637 1.407.637 1.407s.629-.633.625-1.41c-.004-.782-.637-1.41-.637-1.41s-.629.636-.625 1.413"/></g></g></g></g><g clip-path="url(#y)"><g clip-path="url(#z)"><g clip-path="url(#A)"><g clip-path="url(#B)"><path fill="#040606" d="M451.02 60.262c-.31-.903-1.711-1.66-3.45-1.782-1.89-.136-3.504.532-3.757 1.516a2.097 2.097 0 0 0-.688 1.426c-.078 1.098.652 2.043 1.629 2.113.426.028.824-.11 1.148-.367.278.57.797.973 1.422 1.016.606.043 1.16-.258 1.516-.75.277.261.625.433 1.02.46.976.07 1.831-.765 1.91-1.859.054-.73-.254-1.39-.75-1.773"/></g></g></g></g><g clip-path="url(#C)"><g clip-path="url(#D)"><g clip-path="url(#E)"><g clip-path="url(#F)"><path fill="#040606" d="M475.566 60.813c.348-.887 1.786-1.583 3.524-1.626 1.898-.05 3.476.688 3.687 1.68.368.356.606.875.621 1.457.032 1.102-.742 2.012-1.722 2.035a1.654 1.654 0 0 1-1.13-.414c-.3.555-.839.934-1.464.953-.605.012-1.148-.312-1.48-.82-.29.25-.645.406-1.04.414-.98.028-1.796-.844-1.828-1.945-.02-.73.317-1.375.832-1.734"/></g></g></g></g><g clip-path="url(#G)"><path d="M338.71 53.902c-.44.516-1.007.762-1.605 1.047-.37.18-.546.348-.64.754-.09.379-.164.758-.246 1.137-.688 3.219-1.375 6.437-2.067 9.656a.553.553 0 0 1-.027.086h-7.418c.695-2.25 2.356-7.246 2.668-8.582.191-.816.531-1.746.504-2.594-.027-.832-.762-1.476-1.027-2.234-.43-1.223.101-2.785 1.359-3.274.71-.277 1.516-.148 2.121.262.313-1.445 1.016-2.816 2.707-2.945a1.997 1.997 0 0 1 2.078 1.426c.14.46.133.937.051 1.41.598-.063 1.238.144 1.652.62.825.946.672 2.317-.11 3.231"/></g><path fill="#d7a790" d="M335.176 54.082c-.11-.062-.52-.11-.574-.207-.036-.055.074-.504.086-.594.015-.156.042-.324.019-.484-.082-.586-.738-.598-1.14-.317-.31.215-.43.59-.645.88-.137.011-.274.007-.379.019-.305.039-.613.133-.828.367-.399.426-.29 1.125.262 1.348.257.105.55.09.824.054.379-.046.605-.136.953.063.512.297 1.148.633 1.644.09.364-.395.235-.973-.222-1.219M332.11 51.445c-.266-.453-.938-.593-1.282-.144a.616.616 0 0 0-.101.597c0 .012.003.02.003.032.032.101.082.21.141.3.16.247.383.415.68.438.3.02.574-.195.66-.473a.953.953 0 0 0-.102-.75M335.762 50.273c-.004-.007 0-.015 0-.023a.657.657 0 0 0-.114-.309.472.472 0 0 0-.191-.168.054.054 0 0 0-.016-.011.657.657 0 0 0-.515-.043c-.192.058-.309.207-.422.363-.195.277-.313.66-.145.98.188.348.586.403.907.208.234-.145.406-.387.472-.653a.988.988 0 0 0 .024-.344M337.457 52.398a.557.557 0 0 0-.418-.132c-.367-.016-.77.21-.95.515-.151.266-.132.598.095.813.222.21.55.199.812.07.438-.223.953-.828.461-1.266"/><g clip-path="url(#H)"><path d="M313.316 66.582h-7.695a.056.056 0 0 0-.008-.027c-1.047-3.121-2.09-6.246-3.133-9.368-.12-.367-.238-.738-.367-1.101-.144-.395-.332-.543-.722-.68-.63-.218-1.215-.398-1.711-.863-.88-.82-1.184-2.168-.47-3.2.36-.515.97-.792 1.575-.8-.137-.457-.2-.934-.11-1.406a1.997 1.997 0 0 1 1.907-1.645c1.695-.062 2.547 1.223 3.02 2.625.554-.476 1.34-.691 2.078-.496 1.304.348 2.007 1.84 1.715 3.102-.18.785-.836 1.504-.77 2.336.066.847.508 1.73.79 2.523.483 1.36 3.022 6.922 3.901 9"/></g><path fill="#d7a790" d="M302.867 55.11c.477.554 1.125.238 1.645-.044.355-.191.582-.097.957-.039.27.043.562.07.824-.027.559-.21.684-.906.3-1.344-.21-.238-.515-.34-.82-.386-.101-.02-.242-.02-.378-.032-.207-.293-.317-.675-.618-.898-.394-.293-1.05-.297-1.152.289-.027.156 0 .324.008.484.008.086.105.54.07.594-.058.094-.469.133-.582.188-.465.238-.605.808-.254 1.214M306.137 52.09a.665.665 0 0 0 .648.492c.3-.012.527-.176.692-.418.062-.09.117-.191.148-.297.004-.008.004-.02.008-.027a.619.619 0 0 0-.086-.602c-.336-.46-1.008-.34-1.285.11a.941.941 0 0 0-.125.742M302.645 50.074v-.023a.6.6 0 0 1 .12-.305.47.47 0 0 1 .196-.164c.004-.004.008-.008.016-.012a.658.658 0 0 1 .515-.03c.192.065.305.218.41.378.192.281.297.668.118.984-.196.344-.594.383-.91.18a1.09 1.09 0 0 1-.454-.664 1.007 1.007 0 0 1-.011-.344M301.316 53.426c.254.14.582.16.813-.047.23-.207.262-.54.117-.805a1.116 1.116 0 0 0-.933-.543.554.554 0 0 0-.426.121c-.504.422-.004 1.043.43 1.274"/><g clip-path="url(#I)"><path d="M397.488 92.742c-2.5.856-6.136-.555-6.234-3.414 7.59-3.433 4.351-10.008-.149-5.89-2.761-3.579-8.332.601-.64 5.71-.106 3.215-4.758 4.961-7.25 3.086a1.958 1.958 0 0 1-.309-.34c-.414-.453-.879.145-.504.54 2.196 2.597 7.22 1.425 8.48-1.555 1.11 2.3 4.11 3.433 6.579 2.8.719-.226 2.348-.859 1.848-1.784-.524-.57-.856.636-1.82.847Zm-11.504-5.117c.004.004.004.008.008.012.328.574.281.726.188.804a.188.188 0 0 1-.118.043c-.128 0-.265-.109-.34-.171a.054.054 0 0 1-.015-.012c-2.84-3.082-7.078-4.739-12.96-5.067-.083-.004-.126-.046-.13-.129 0-.085.043-.128.13-.136 2.257-.176 4.898.148 7.25.89 1.878.594 4.44 1.727 5.987 3.766Zm-18.004-.426c-.078.024-.132 0-.164-.074-.03-.078-.011-.133.063-.168 4.531-2.27 12.789-1.578 16.672 1.39.625.532.613.676.547.778a.171.171 0 0 1-.172.086c-.106 0-.23-.043-.348-.09-.008-.004-.012-.008-.02-.008-5.328-3.066-10.75-3.691-16.578-1.914Zm15.618 3.09c-4.98-1.371-8.793-1.203-12.758.57-.074.036-.133.016-.176-.05-.039-.07-.027-.13.04-.176 2.925-2.106 9.386-2.633 12.8-1.043.512.285.59.43.547.555-.051.175-.305.16-.426.152-.012-.004-.02-.004-.027-.008Zm25.566-7.32c.086.008.125.05.125.136 0 .082-.043.125-.129.13-5.879.328-10.12 1.984-12.957 5.066a.054.054 0 0 0-.015.011c-.079.063-.215.172-.34.172a.19.19 0 0 1-.121-.043c-.09-.078-.141-.23.187-.804l.012-.012c1.543-2.04 4.105-3.172 5.984-3.766 2.352-.742 4.996-1.066 7.254-.89Zm4.93 4.156c-.031.074-.09.098-.168.074-5.828-1.777-11.25-1.152-16.578 1.914a1.065 1.065 0 0 1-.363.098.174.174 0 0 1-.176-.086c-.067-.102-.075-.246.543-.773 3.89-2.973 12.144-3.665 16.675-1.395.075.035.098.09.067.168Zm-2.89 3.508c.066.047.081.105.038.176-.043.066-.101.086-.176.05-3.96-1.773-7.777-1.941-12.753-.57l-.032.008c-.12.008-.37.023-.426-.152-.039-.125.036-.27.536-.551 3.43-1.594 9.89-1.067 12.812 1.039Zm0 0"/></g><g clip-path="url(#J)"><path d="M373.86 51.91c-.255-1.476-1-2.828-1.255-4.308-.132-.696-.132-1.403-.066-2.106.05-.805.14-1.934-.406-2.582a1.025 1.025 0 0 0-.942-.348c-1.074.196-1.41 1.348-1.507 2.309-.168 1.527.363 2.695.953 4.05.367.856.828 1.669 1.152 2.548.195.511.352 1.05.445 1.593.067.38.125.766.11 1.153a2.873 2.873 0 0 1-.492 1.445c-.375-2.082-1.934-3.781-3.86-4.535a7.128 7.128 0 0 0-.394-.176c.367-.328.449-.906.488-1.43.043-.46.027-.933.14-1.386.044-.2.16-.371.18-.575.028-.593-.543-.687-.87-.265-.364.414-.411.941-.466 1.469-.039.238-.066.832-.347.894-.176-.02-.293-.176-.414-.289-.438-.476-1.137-.715-1.754-.488-.606.254-1.032.87-1.23 1.492-2.188.242-4.34 1.156-6.536 1.918-.984.352-1.953.727-2.926 1.102.004-.016.004-.028.008-.04.047-.289.149-.593.309-.843.183-.317.496-.535.672-.856.25-.504-.02-.894-.575-.746-.523.117-.96.516-1.25.965-.183.305-.3.637-.453.957-.246.55-.547 1.004-.937 1.387-.223.078-.45.152-.672.226-.477.164-.953.282-1.45.383-.46-.32-.96-.59-1.488-.777-1.234-.43-2.605-.309-3.816.207-.176-.098-.352-.192-.524-.29a28.862 28.862 0 0 1-1.304-.75c-.117-.066-.23-.136-.352-.198-.05-.024-.105-.067-.164-.055-.144.043-.027.203.008.289.098.203.2.402.297.601.207.418.406.84.633 1.25-.407.329-.77.711-1.063 1.137-.238.348-.523.89-.719 1.461-.414.07-.824.14-1.234.207-.266.055-.539.07-.793.164-.058.024-.11.094-.086.156.031.079.113.114.176.16.281.176.578.333.875.485.273.14.55.273.836.383.004.012.004.027.008.039.043 1.164 1.261 1.043 2.125.945.101-.012.203-.02.304-.027 8.243-.184 16.489-.188 24.73-.285a7.981 7.981 0 0 0 1.88-.106c1.222-.203 1.847-1.289 2.035-2.453.238-.137.457-.3.66-.488a4.184 4.184 0 0 0 1.129-1.742c.332-1.036.383-2.16.191-3.23Zm0 0"/></g><path fill="#fff" d="M366.172 57.96c-.11.017-.094-.16-.121-.23a9.18 9.18 0 0 1-.106-.656c-.086-.71-.11-1.445.133-2.129.055-.156.125-.304.215-.445.227-.34.629-.582 1.043-.566.172.004.348.046.504.12.07.028.133.063.207.087.215.074.402-.106.476-.297.102-.239.094-.5.133-.75.024-.164.059-.332.153-.469.199-.285.597-.414.898-.219.246.145.414.54.191.77-.03.031-.07.035-.097.066a.936.936 0 0 0-.125.363c-.082.555.133 1.122-.016 1.672a.776.776 0 0 1-.246.422.627.627 0 0 1-.562.09.077.077 0 0 1-.051-.035c-.04-.055.02-.14.086-.121.172.054.383.027.5-.13.37-.538-.016-1.382.144-2.015.043-.148.078-.336.223-.41.148-.066.09-.305.012-.406-.223-.309-.653-.238-.844.07-.137.242-.117.535-.16.801-.043.426-.328.926-.817.734-.195-.09-.402-.18-.62-.18-.325-.003-.641.176-.845.426-.503.73-.476 1.684-.382 2.532.023.218.058.433.097.648.008.082.082.227-.023.258ZM355.074 57.133c-.058-.043-.023-.11.012-.156.086-.137.168-.274.246-.41.227-.41.434-.84.734-1.192.207-.262.465-.465.73-.656.169-.13.34-.254.458-.43.101-.164.16-.434-.035-.555-.27-.129-.59-.02-.856.07a3.94 3.94 0 0 0-1.297.786c-.226.195-.406.437-.586.68-.308.421-.62.843-.968 1.234-.164.184-.34.36-.524.527-.097.09-.199.184-.304.27-.043.031-.086.066-.137.062-.094-.004-.102-.14-.004-.14.637-.504 1.156-1.133 1.629-1.79.2-.265.383-.546.605-.792.176-.176.364-.336.567-.48.426-.302 1.039-.618 1.562-.65.516-.038.754.36.52.817-.227.387-.656.574-.973.875-.21.195-.394.43-.55.676-.173.273-.313.566-.473.844a8.29 8.29 0 0 1-.246.394c-.024.04-.079.043-.11.016ZM344.563 58.855a.914.914 0 0 1-.036.149c-.02.004-.035.004-.05.004-.016.004-.032.004-.047.004-.016.004-.032.004-.047.008-.012 0-.024 0-.04.003h-.007a.522.522 0 0 0 .027-.07l.024-.086c.008 0 .02 0 .027-.004h.031c.008-.004.02-.004.028-.004.011 0 .023-.004.035-.004H344.562Zm0 0"/><path fill="#fff" d="M345.086 58.875c.062.012.082.102.031.137-.039.023-.086.004-.12.004a2.134 2.134 0 0 0-.22-.016h-.164c-.02 0-.039.004-.058.004h-.032c-.015.004-.03.004-.046.004-.016.004-.032.004-.047.004-.016.004-.032.004-.047.008-.012 0-.024 0-.04.003h-.007c-.008 0-.02.004-.027.004-.008 0-.016.004-.024.004l-.062.012c-.008 0-.02.004-.032.004-.046.008-.093.02-.144.031-.012.004-.024.004-.035.008l-.043.012c-.047.011-.094.023-.14.039-.005.004-.013.004-.02.008a.491.491 0 0 1-.04.011c-.011.004-.027.008-.042.016-.016.004-.028.012-.043.016-.02.007-.032.011-.047.019a.19.19 0 0 0-.043.016.271.271 0 0 0-.051.02c-.016.007-.031.01-.047.019-.027.011-.058.027-.086.039l-.047.023c-.015.008-.031.012-.047.02 0 .004-.003.004-.007.008-.012.003-.024.011-.036.015-.011.008-.027.016-.039.024l-.043.023a.182.182 0 0 0-.039.02c-.011.007-.027.015-.043.027l-.023.012a3.46 3.46 0 0 0-.3.215c-.032.019-.056.058-.095.062-.066.004-.097-.082-.05-.121.015-.016.03-.027.046-.043a.054.054 0 0 1 .016-.012c.02-.015.04-.031.059-.05.008-.004.015-.008.023-.016.004-.004.012-.008.02-.016a.571.571 0 0 1 .05-.035c.008-.008.016-.012.028-.02.039-.027.082-.054.125-.082l.074-.046c.02-.012.043-.024.066-.04l.012-.003a.158.158 0 0 1 .035-.02c.004 0 .004 0 .004-.004l.047-.023.149-.07c.003-.004.007-.004.011-.008.016-.004.031-.012.047-.02s.031-.012.047-.02l.012-.003c.015-.008.031-.012.047-.02.015-.008.03-.012.046-.02h.008c.012-.007.028-.011.043-.019h.008a.22.22 0 0 1 .047-.016c.004-.003.008-.003.012-.003a.22.22 0 0 1 .047-.016l.054-.02c.016-.004.035-.007.055-.015.016-.004.035-.008.055-.016l.05-.012.047-.011c.016-.004.028-.008.043-.008.004-.004.008-.004.016-.004a.114.114 0 0 1 .035-.008l.055-.012.027-.003.016-.004c.015-.004.03-.004.043-.008.015 0 .03-.004.046-.004.016-.004.032-.008.047-.008.012 0 .02-.004.028-.004s.02 0 .027-.004h.027c.012-.004.024-.004.032-.004.011 0 .023 0 .035-.004h.02c.011 0 .023 0 .034-.003h.11c.012-.004.023-.004.035-.004.023 0 .047 0 .07.004h.067c.011 0 .023.003.035.003h.035c.012.004.024.004.035.004.012 0 .02.004.031.004l.106.012ZM345.762 57.71c-.11.024-.219.036-.328.048-.11.023-.204-.031-.145-.149.047-.097.2-.457.332-.406.113-.016.227.192.293.27.113.152-.016.215-.152.238Zm0 0"/><path fill="#fff" d="M345.46 57.602c.005 0 .013-.004.017-.004-.008 0-.012-.004-.02-.004 0 .004 0 .004-.004.008h.008ZM346.008 59.09c.012.027-.031.043-.043.015l-.024-.066-.046-.11c-.012-.034-.028-.066-.04-.1 0-.005-.003-.005-.003-.009a.6.6 0 0 0-.032-.074c-.007-.027-.02-.055-.03-.086-.013-.035-.04-.074-.032-.113.008-.02.039-.016.043.004.012.035.027.066.039.101.008.02.012.04.02.055l.046.117c.024.055.043.11.067.164.004.016.011.028.015.043.008.024.016.04.02.059ZM346.332 58.938a5.893 5.893 0 0 1-.29-.398c-.007-.02.017-.04.032-.032.012.008.02.02.028.031.086.125.18.246.27.371.019.028-.02.05-.04.028ZM346.668 58.805c-.152-.145-.3-.301-.45-.442 0-.035.044-.031.06-.011.12.105.23.226.343.336l.078.078c.024.02-.008.058-.031.039ZM346.59 57.012c-.004-.012.004-.028.015-.035.157-.09.305-.192.461-.282.028-.015.051.028.024.043-.059.04-.117.075-.176.114-.078.046-.152.093-.23.136-.028.008-.07.055-.094.024ZM346.527 56.762c-.058-.032.114-.16.137-.192.059-.062.117-.12.18-.18.008-.007.023-.007.035.005a.02.02 0 0 1-.004.03c-.05.055-.102.11-.156.16l-.164.165c-.004.012-.016.016-.028.012ZM346.441 56.61c-.046-.024.051-.13.063-.16.035-.055.074-.11.11-.165.042-.058.081-.113.12-.172.02-.023.059.008.04.032-.008.015-.02.027-.028.039-.074.109-.148.214-.219.328-.02.027-.039.058-.058.09-.004.007-.02.011-.028.007ZM343.082 58.875c-.09-.082.07-.191.11-.07.023.062-.06.117-.11.07ZM344.113 58.508a.06.06 0 0 1 .04-.07c.03-.004.058.011.066.042.008.028-.012.06-.04.067a.055.055 0 0 1-.066-.04ZM344.96 55.96c-.019.005-.038-.007-.058-.01-.058-.028-.043-.118.012-.134.094-.039.152.125.047.145ZM345.777 55.297c-.007-.031.016-.067.047-.078a.067.067 0 0 1 .078.047c.008.035-.011.07-.047.078-.035.011-.07-.012-.078-.047Zm0 0"/><path fill="#fff" d="M345.395 56.61a.972.972 0 0 1-.961-.981c0-.54.43-.977.96-.977.532 0 .965.438.965.977 0 .539-.433.98-.964.98Zm0-1.672a.691.691 0 0 0-.684.69c0 .384.309.696.684.696a.69.69 0 0 0 .683-.695.689.689 0 0 0-.683-.691ZM343.016 59.46a.988.988 0 0 1-.325-.733c0-.54.434-.98.965-.98a.976.976 0 0 1 .938 1.23l-.27-.07a.694.694 0 0 0-.668-.875.693.693 0 0 0-.687.695c0 .199.086.39.23.52Zm0 0"/></svg>