<svg xmlns="http://www.w3.org/2000/svg" width="997" height="238" version="1.0" viewBox="0 0 747.75 178.5"><defs><clipPath id="I"><path d="m318.648 8.531 79.602 8.485-13.008 122.007-79.601-8.488Zm0 0"/></clipPath><clipPath id="a"><path d="M350 45h24v21h-24Zm0 0"/></clipPath><clipPath id="c"><path d="m318.648 8.531 79.602 8.485-13.008 122.007-79.601-8.488Zm0 0"/></clipPath><clipPath id="d"><path d="m318.648 8.531 79.602 8.485-13.008 122.007-79.601-8.488Zm0 0"/></clipPath><clipPath id="e"><path d="M329 48h24v21h-24Zm0 0"/></clipPath><clipPath id="f"><path d="m318.648 8.531 79.602 8.485-13.008 122.007-79.601-8.488Zm0 0"/></clipPath><clipPath id="g"><path d="m318.648 8.531 79.602 8.485-13.008 122.007-79.601-8.488Zm0 0"/></clipPath><clipPath id="h"><path d="m318.648 8.531 79.602 8.485-13.008 122.007-79.601-8.488Zm0 0"/></clipPath><clipPath id="i"><path d="M359 61h24v21h-24Zm0 0"/></clipPath><clipPath id="j"><path d="m318.648 8.531 79.602 8.485-13.008 122.007-79.601-8.488Zm0 0"/></clipPath><clipPath id="k"><path d="m318.648 8.531 79.602 8.485-13.008 122.007-79.601-8.488Zm0 0"/></clipPath><clipPath id="l"><path d="m318.648 8.531 79.602 8.485-13.008 122.007-79.601-8.488Zm0 0"/></clipPath><clipPath id="m"><path d="M314 38h24v21h-24Zm0 0"/></clipPath><clipPath id="n"><path d="m318.648 8.531 79.602 8.485-13.008 122.007-79.601-8.488Zm0 0"/></clipPath><clipPath id="o"><path d="m318.648 8.531 79.602 8.485-13.008 122.007-79.601-8.488Zm0 0"/></clipPath><clipPath id="p"><path d="m318.648 8.531 79.602 8.485-13.008 122.007-79.601-8.488Zm0 0"/></clipPath><clipPath id="q"><path d="M363 26h24v22h-24Zm0 0"/></clipPath><clipPath id="r"><path d="m318.648 8.531 79.602 8.485-13.008 122.007-79.601-8.488Zm0 0"/></clipPath><clipPath id="s"><path d="m318.648 8.531 79.602 8.485-13.008 122.007-79.601-8.488Zm0 0"/></clipPath><clipPath id="t"><path d="m318.648 8.531 79.602 8.485-13.008 122.007-79.601-8.488Zm0 0"/></clipPath><clipPath id="u"><path d="M366 56h23v21h-23Zm0 0"/></clipPath><clipPath id="v"><path d="m318.648 8.531 79.602 8.485-13.008 122.007-79.601-8.488Zm0 0"/></clipPath><clipPath id="w"><path d="m318.648 8.531 79.602 8.485-13.008 122.007-79.601-8.488Zm0 0"/></clipPath><clipPath id="x"><path d="m318.648 8.531 79.602 8.485-13.008 122.007-79.601-8.488Zm0 0"/></clipPath><clipPath id="y"><path d="M339 12h28v25h-28Zm0 0"/></clipPath><clipPath id="z"><path d="m318.648 8.531 79.602 8.485-13.008 122.007-79.601-8.488Zm0 0"/></clipPath><clipPath id="A"><path d="m318.648 8.531 79.602 8.485-13.008 122.007-79.601-8.488Zm0 0"/></clipPath><clipPath id="B"><path d="m318.648 8.531 79.602 8.485-13.008 122.007-79.601-8.488Zm0 0"/></clipPath><clipPath id="C"><path d="M334 32h51v102h-51Zm0 0"/></clipPath><clipPath id="D"><path d="m318.648 8.531 79.602 8.485-13.008 122.007-79.601-8.488Zm0 0"/></clipPath><clipPath id="E"><path d="m318.648 8.531 79.602 8.485-13.008 122.007-79.601-8.488Zm0 0"/></clipPath><clipPath id="F"><path d="m318.648 8.531 79.602 8.485-13.008 122.007-79.601-8.488Zm0 0"/></clipPath><clipPath id="G"><path d="M341 40h28v93h-28Zm0 0"/></clipPath><clipPath id="H"><path d="m318.648 8.531 79.602 8.485-13.008 122.007-79.601-8.488Zm0 0"/></clipPath><clipPath id="b"><path d="m318.648 8.531 79.602 8.485-13.008 122.007-79.601-8.488Zm0 0"/></clipPath><clipPath id="J"><path d="m318.648 8.531 79.602 8.485-13.008 122.007-79.601-8.488Zm0 0"/></clipPath><clipPath id="K"><path d="M334 48h6v10h-6Zm0 0"/></clipPath><clipPath id="L"><path d="m318.648 8.531 79.602 8.485-13.008 122.007-79.601-8.488Zm0 0"/></clipPath><clipPath id="M"><path d="m318.648 8.531 79.602 8.485-13.008 122.007-79.601-8.488Zm0 0"/></clipPath><clipPath id="N"><path d="m318.648 8.531 79.602 8.485-13.008 122.007-79.601-8.488Zm0 0"/></clipPath><clipPath id="O"><path d="M349 26h24v27h-24Zm0 0"/></clipPath><clipPath id="P"><path d="m318.648 8.531 79.602 8.485-13.008 122.007-79.601-8.488Zm0 0"/></clipPath><clipPath id="Q"><path d="m318.648 8.531 79.602 8.485-13.008 122.007-79.601-8.488Zm0 0"/></clipPath><clipPath id="R"><path d="m318.648 8.531 79.602 8.485-13.008 122.007-79.601-8.488Zm0 0"/></clipPath><clipPath id="S"><path d="M331 15h29v26h-29Zm0 0"/></clipPath><clipPath id="T"><path d="m318.648 8.531 79.602 8.485-13.008 122.007-79.601-8.488Zm0 0"/></clipPath><clipPath id="U"><path d="m318.648 8.531 79.602 8.485-13.008 122.007-79.601-8.488Zm0 0"/></clipPath><clipPath id="V"><path d="m318.648 8.531 79.602 8.485-13.008 122.007-79.601-8.488Zm0 0"/></clipPath><clipPath id="W"><path d="M334 35h29v26h-29Zm0 0"/></clipPath><clipPath id="X"><path d="m318.648 8.531 79.602 8.485-13.008 122.007-79.601-8.488Zm0 0"/></clipPath><clipPath id="Y"><path d="m318.648 8.531 79.602 8.485-13.008 122.007-79.601-8.488Zm0 0"/></clipPath><clipPath id="Z"><path d="m318.648 8.531 79.602 8.485-13.008 122.007-79.601-8.488Zm0 0"/></clipPath><clipPath id="aa"><path d="M319 29h24v21h-24Zm0 0"/></clipPath><clipPath id="ab"><path d="m318.648 8.531 79.602 8.485-13.008 122.007-79.601-8.488Zm0 0"/></clipPath><clipPath id="ac"><path d="m318.648 8.531 79.602 8.485-13.008 122.007-79.601-8.488Zm0 0"/></clipPath><clipPath id="ad"><path d="m318.648 8.531 79.602 8.485-13.008 122.007-79.601-8.488Zm0 0"/></clipPath><clipPath id="ae"><path d="M365 38h24v26h-24Zm0 0"/></clipPath><clipPath id="af"><path d="m318.648 8.531 79.602 8.485-13.008 122.007-79.601-8.488Zm0 0"/></clipPath><clipPath id="ag"><path d="m318.648 8.531 79.602 8.485-13.008 122.007-79.601-8.488Zm0 0"/></clipPath><clipPath id="ah"><path d="m318.648 8.531 79.602 8.485-13.008 122.007-79.601-8.488Zm0 0"/></clipPath><clipPath id="ai"><path d="M318 32h27v33h-27Zm0 0"/></clipPath><clipPath id="aj"><path d="m318.648 8.531 79.602 8.485-13.008 122.007-79.601-8.488Zm0 0"/></clipPath><clipPath id="ak"><path d="m318.648 8.531 79.602 8.485-13.008 122.007-79.601-8.488Zm0 0"/></clipPath><clipPath id="al"><path d="m318.648 8.531 79.602 8.485-13.008 122.007-79.601-8.488Zm0 0"/></clipPath><clipPath id="am"><path d="M371 63h21v20h-21Zm0 0"/></clipPath><clipPath id="an"><path d="m318.648 8.531 79.602 8.485-13.008 122.007-79.601-8.488Zm0 0"/></clipPath><clipPath id="ao"><path d="m318.648 8.531 79.602 8.485-13.008 122.007-79.601-8.488Zm0 0"/></clipPath><clipPath id="ap"><path d="m318.648 8.531 79.602 8.485-13.008 122.007-79.601-8.488Zm0 0"/></clipPath></defs><path d="M274.186 132.153c6.434 0 14.243-3.164 17.407-6.644 1.054-1.164 1.687-2.536.738-3.59-.211-.211-.633-.317-1.055-.317-.844 0-1.898.422-2.847.95-.95.632-1.899 1.16-3.059 1.898-.422.316-.95.426-1.266.426-.847 0-1.058-.742 0-1.27 1.688-.949 3.27-2.11 4.325-3.27 1.054-1.054 1.265-2.53.316-3.374-.211-.211-.633-.317-1.16-.317-.633 0-1.371.106-1.793.528-2.535 2.636-6.016 4.746-9.813 4.746-5.273 0-10.761-6.434-7.175-26.797 2.851-15.93 10.34-22.996 16.46-22.996 3.692 0 6.434 2.215 8.227 4.746.211.527.844.633 1.477.633.527 0 .949-.106 1.37-.317 1.055-.843 1.372-2.32.739-3.375-.633-1.16-1.687-2.215-3.164-3.164-.844-.633-.422-1.37.422-1.37.316 0 .738.21 1.16.526.95.739 1.687 1.266 2.426 1.899.742.527 1.586.95 2.43.95.421 0 .843-.106 1.265-.317 1.371-1.055 1.16-2.426.527-3.586-2.003-3.485-8.546-6.965-15.086-6.965-16.457 0-26.796 11.71-30.593 33.23-5.278 29.86 3.797 37.032 17.722 37.137ZM262.16 115.17c.422 3.48 1.266 5.695 3.48 7.804 1.583 1.582 4.118 2.957 7.598 3.696-.633 0-5.383-.317-8.441-2.43l.949.742c-3.375-2.008-4.219-4.96-3.586-9.812ZM298.023 132.259c1.375 0 2.641-1.055 3.274-2.848l.633-1.371c.21-.633.527-.95.738-.95.316 0 .422.317.422.95v1.37c-.317 1.9.633 2.638 2.742 2.638h19.832c1.898 0 2.535-.528 2.746-1.688.211-1.16-.633-1.476-2.008-1.793-.633-.316-1.476-.422-2.32-.738-.844-.106-.527-.633.316-.95.528-.105.528-.105 1.16-.316 1.372-.316 2.536-.633 2.852-2.218.211-1.583-1.27-1.793-2.64-1.793-3.376 0-10.864-.106-14.032-.106h-.422c-1.476 0-1.898-.633-1.687-2.004 1.16-5.168 1.793-10.129 2.847-15.191.317-1.899.739-2.426 2.536-2.426.316 0 .527.105.738.105h11.812c2.43 0 3.485-.843 3.801-2.214.211-1.16-1.37-1.793-2.847-2.32-1.27-.528-1.375-1.266.421-1.794 1.477-.422 2.426-1.058 2.637-2.007.211-1.477-.527-2.004-2.531-2.004h-11.606c-1.898 0-2.425-.95-2.109-2.637 1.16-4.957 1.688-9.707 2.742-14.664.422-2.215.738-2.531 3.48-2.531h11.606c1.899 0 3.375-.739 3.586-2.215.422-2.11-3.797-1.688-3.691-2.32.105-.528.738-.739 2.847-1.587 1.266-.632 1.688-1.054 1.793-1.687.317-1.371-.527-1.898-1.687-1.898h-16.985c-2.53 0-3.375.527-4.218 2.636l-.739 2.43c-.105.527-.421.844-.632.844-.215 0-.32-.317-.215-.844l-.211-2.113c-.317-1.477-.844-2.004-1.793-2.004-2.004 0-3.375 1.054-3.797 3.484-1.055 5.38-1.793 10.969-2.742 16.563l-8.23 45.257c-.317 1.372-.528 2.954 1.581 2.954ZM338.426 132.364c1.902-.105 2.746-1.055 3.062-2.742l.739-3.375c.105-.95.633-1.371 1.054-1.371.422 0 .739.422.633 1.37l-.633 3.481c-.21 1.899.528 2.532 2.215 2.532 1.793-.106 2.637-.95 3.164-4.008 5.172-28.274 8.336-45.153 10.973-61.719.422-2.215 0-3.164-1.898-3.164-1.793 0-2.954.95-3.375 2.953l-.422 1.586c-.211.527-.422.844-.637.844-.211 0-.422-.317-.316-.844l-.106-1.691c.211-2.637-.633-3.375-2.531-3.375-1.582 0-2.531.738-3.059 3.586l-10.972 62.984c-.317 2.004.105 2.953 2.109 2.953ZM363.11 132.048c2.325 0 3.168-.739 3.38-2.004.21-.95.527-1.371.843-1.371 1.582 0 .211 3.586 4.43 3.586l10.023.105c13.926 0 25.11-5.8 27.64-20.254 1.688-9.285-3.062-14.453-10.55-16.144-.527-.211-.844-.528.106-.739 5.59-1.582 12.132-6.96 13.609-15.718 2.11-11.707-6.121-18.04-20.149-18.04-7.808 0-10.761 1.477-12.449 4.22-.21.421-.527.632-.633.632-.21 0-.316-.21-.316-.633.527-2.953-.844-4.008-2.535-4.008-2.531 0-3.586 1.266-3.902 2.954-3.692 21.101-7.805 42.515-12.028 63.617-.527 2.953.211 3.797 2.531 3.797Zm34.606-64.989c7.277 0 11.71 5.7 9.285 12.133-.422-6.75-2.957-9.808-10.34-12.133Zm-14.453 6.016c.21-.95.949-1.371 2.004-1.371h4.851c8.442 0 10.973 3.691 9.918 9.387-1.16 6.754-6.222 9.812-11.605 9.812h-6.012c-1.477 0-2.32-.422-2.11-1.793Zm-5.7 30.172c.11-.95.426-1.899 1.797-1.899h6.434c8.863 0 13.082 2.848 11.816 10.024-1.265 7.488-6.753 10.758-16.246 10.758h-4.644c-1.793 0-2.32-.633-2.004-2.426ZM435.375 132.68c13.399 0 25.426-9.285 30.172-36.183 4.008-22.895-4.219-34.29-17.723-34.29-13.398 0-26.164 13.188-29.855 34.29-4.856 27.531 5.695 36.183 17.406 36.183Zm24.684-50.953c-1.266-6.754-4.852-12.132-12.34-14.347 8.965 0 12.765 7.488 12.34 14.347Zm-29.223 14.77c2.746-15.934 10.129-23.317 14.984-23.317 6.223 0 10.125 7.91 7.489 23.317-3.059 17.406-9.496 25.422-15.614 25.422-6.859 0-9.812-8.86-6.859-25.422ZM468.917 131.204c.21.738.848 1.371 1.691 1.371 1.16 0 1.899-.844 2.32-1.582.528-.738 1.16-2.32 1.583-3.48l.949-3.063c.21-.527.422-.738.633-.738.105 0 .316.21.316.633l-.105 3.484c-.106 2.426 1.582 3.902 3.902 4.008 2.215.105 5.066.21 8.02.21h8.015c1.477 0 2.43-.527 2.64-1.792.212-1.266-.421-1.688-2.113-1.899-.316 0-.843 0-1.582-.105-1.898-.106-2.214-.317-2.214-.739.105-.421.949-.738 2.425-1.054l1.266-.317c1.477-.421 2.746-1.054 2.957-2.64.21-1.371-.422-2.11-2.535-2.11H484.85c-1.69 0-2.113-.738-1.69-2.425l9.812-52.223c.632-3.797-.106-5.063-1.793-5.168-1.582 0-2.426.95-3.27 3.059l-.738 2.425c-.106.426-.317.637-.422.637-.211 0-.316-.21-.316-.637 0-.949.105-1.793.105-2.425 0-1.793-1.16-2.743-2.32-2.743-1.903 0-3.168 1.371-3.485 3.164l-11.816 63.301c-.211 1.371-.211 2.215 0 2.848Zm0 0"/><g clip-path="url(#a)"><g clip-path="url(#b)"><g clip-path="url(#c)"><g clip-path="url(#d)"><path fill="#3d5421" d="M370.754 51.848c1.52-2.262-4.29-6.66-6.176-3.692-1.578-1.168-4.273-3.285-6.195-2.886-2.309.476-4.664 3.804-2.426 5.523-1.902-1.98-4.742.45-5.207 2.594-.336 1.566 1.125 5.156 2.594 5.742-.031 1.144.539 2.758 1.125 3.496 1.62 2.043 5.277 1.637 5.976-.816-.12 2.164 2.055 3.5 4.114 3.511 3.77.024 2.668-1.613 4.27-3.832 1.198-1.656 1.808-1.168 3.401-2.613 2.032-1.84 1.54-7.129-1.476-7.027"/></g></g></g></g><g clip-path="url(#e)"><g clip-path="url(#f)"><g clip-path="url(#g)"><g clip-path="url(#h)"><path fill="#3d5421" d="M349.367 55.234c1.516-2.261-4.289-6.656-6.176-3.691-1.582-1.168-4.277-3.281-6.195-2.883-2.308.477-4.668 3.805-2.426 5.52-1.902-1.977-4.746.453-5.207 2.597-.336 1.567 1.125 5.157 2.594 5.739-.031 1.144.54 2.761 1.121 3.496 1.625 2.047 5.281 1.64 5.98-.817-.12 2.168 2.055 3.504 4.114 3.516 3.77.023 2.668-1.613 4.27-3.832 1.199-1.66 1.808-1.168 3.402-2.613 2.031-1.844 1.535-7.13-1.477-7.032"/></g></g></g></g><g clip-path="url(#i)"><g clip-path="url(#j)"><g clip-path="url(#k)"><g clip-path="url(#l)"><path fill="#3d5421" d="M379.992 68.496c1.516-2.258-4.289-6.656-6.176-3.687-1.582-1.168-4.273-3.286-6.195-2.887-2.312.48-4.668 3.805-2.426 5.523-1.902-1.98-4.746.45-5.21 2.598-.337 1.562 1.128 5.152 2.597 5.738-.035 1.145.54 2.758 1.125 3.496 1.617 2.043 5.277 1.637 5.977-.816-.122 2.164 2.054 3.5 4.113 3.512 3.765.023 2.668-1.61 4.27-3.832 1.199-1.66 1.804-1.168 3.402-2.614 2.031-1.84 1.535-7.129-1.477-7.03"/></g></g></g></g><g clip-path="url(#m)"><g clip-path="url(#n)"><g clip-path="url(#o)"><g clip-path="url(#p)"><path fill="#3d5421" d="M334.742 45.262c1.516-2.262-4.289-6.657-6.176-3.692-1.582-1.164-4.277-3.277-6.195-2.883-2.312.477-4.668 3.805-2.426 5.52-1.902-1.977-4.746.453-5.21 2.598-.337 1.566 1.128 5.156 2.597 5.738-.035 1.145.54 2.762 1.121 3.496 1.621 2.047 5.281 1.637 5.98-.816-.12 2.168 2.055 3.504 4.114 3.515 3.765.024 2.664-1.613 4.27-3.832 1.199-1.66 1.808-1.168 3.402-2.613 2.031-1.844 1.535-7.129-1.477-7.031"/></g></g></g></g><g clip-path="url(#q)"><g clip-path="url(#r)"><g clip-path="url(#s)"><g clip-path="url(#t)"><path fill="#65962c" d="M383.71 33.61c1.517-2.262-4.288-6.66-6.175-3.692-1.578-1.168-4.273-3.281-6.195-2.887-2.309.48-4.668 3.809-2.426 5.524-1.902-1.98-4.746.453-5.207 2.597-.336 1.567 1.125 5.153 2.594 5.739-.031 1.144.539 2.761 1.125 3.496 1.62 2.043 5.281 1.636 5.976-.817-.12 2.164 2.055 3.5 4.114 3.512 3.77.023 2.668-1.61 4.27-3.832 1.198-1.66 1.808-1.164 3.401-2.61 2.032-1.843 1.536-7.132-1.476-7.03"/></g></g></g></g><g clip-path="url(#u)"><g clip-path="url(#v)"><g clip-path="url(#w)"><g clip-path="url(#x)"><path fill="#65962c" d="M386.266 63.266c1.515-2.258-4.29-6.657-6.176-3.692-1.582-1.164-4.274-3.281-6.195-2.883-2.313.48-4.668 3.805-2.426 5.524-1.903-1.98-4.746.45-5.211 2.597-.336 1.563 1.129 5.153 2.597 5.739-.035 1.144.54 2.758 1.125 3.496 1.622 2.043 5.278 1.637 5.977-.817-.121 2.165 2.055 3.5 4.113 3.512 3.766.024 2.664-1.613 4.27-3.832 1.2-1.66 1.808-1.168 3.402-2.613 2.031-1.84 1.535-7.129-1.476-7.031"/></g></g></g></g><g clip-path="url(#y)"><g clip-path="url(#z)"><g clip-path="url(#A)"><g clip-path="url(#B)"><path fill="#65962c" d="M363.008 20.477c1.754-2.614-4.957-7.696-7.137-4.266-1.828-1.352-4.945-3.793-7.164-3.336-2.672.55-5.394 4.398-2.805 6.383-2.199-2.29-5.484.523-6.02 3.004-.39 1.808 1.302 5.957 2.997 6.633-.035 1.324.625 3.19 1.3 4.043 1.876 2.359 6.106 1.89 6.91-.946-.136 2.504 2.376 4.051 4.759 4.063 4.355.023 3.082-1.867 4.933-4.434 1.387-1.914 2.094-1.348 3.934-3.02 2.348-2.124 1.777-8.238-1.707-8.124"/></g></g></g></g><g clip-path="url(#C)"><g clip-path="url(#D)"><g clip-path="url(#E)"><g clip-path="url(#F)"><path fill="#9b6736" d="M377.082 70.805c-2.953-.446-4.68.226-7.629.675 1.906-3.949 7.004-4.636 8.485-8.316.664-1.648 1.68-2.816-.583-3.543-3.03-.973-2.324 1.969-3.84 3.598-5.742 6.176-10.769 11.71-15.706 18.785 2.203-6.043.628-10.59 5.773-15.23 4.79-4.325 6.09-7.297 9.219-12.794 1.613-2.843 11.86-9.152 3.258-6.367-6.395 2.067-6.739 9.223-10.848 13.535-.922-1.933-1.664-4.203-3.086-6.203-1.14 1.41-.457 2.89-.93 3.98-.75 1.731-1.406 3.278-2.527 5.286-1.582 2.852-3.7 6.828-4.668 9.812-2.188 6.72-1.281 14.551-4.64 20.993-1.602-4.555.304-10.282-.11-14.774-.613-6.601-.395-9.652 2.18-15.797 1.765-4.207.828-10.03 3.59-14.148 1.39-2.074 3.84-3.27 5.34-5.371 1.456-2.04 2.144-4.739 3.648-6.828-.914-1.106-.89-2.387-.695-3.797l-3.797-.403c-.13 2.09.125 4.137-.82 6.106-1.372 2.855-4.544 5.562-6.458 8.422-.226-4.559-2.617-8.367-3.8-12.73-.254-.938.19-2.044.296-2.946l-4.437-.473c-.39 1.153.062 2.883.18 4.254.449 5.23 2.425 9.063 2.207 14.547-.18 4.438-.856 9.024-1.446 13.61-2.258-5.438-2.164-11.278-5.5-16.52a38.197 38.197 0 0 0-4.277-5.52l-1.426 13.375c3.64 3.575 6.86 6.606 8.211 12.606 1.656 7.375 1.7 15.648.945 23.808.043.165.07.344.055.54-.933 13.105-.594 26.859-4.512 39.496 3.227.382 6.008 2.183 9.192.648-.606-6.793 1.344-13.094 1.918-19.86.586-6.968 2.246-13.624 6.324-19.425 1.95-2.773 4.96-5.746 6.36-8.574 1.562-3.168 1.57-6.114 4.167-8.828 5.832-6.098 11.72 1.234 17.524-5.297-4.262 1.687-3.414.222-7.137-.332"/></g></g></g></g><g clip-path="url(#G)"><g clip-path="url(#H)"><g clip-path="url(#I)"><g clip-path="url(#J)"><path fill="#8d5b31" d="M367.094 70.5c-.387 1.059-1.383 1.813-2.086 2.664-.723.879-1.219 1.953-1.86 2.895-1.3 1.906-1.925 4.207-2.988 6.242-.535 1.023-1.156 1.976-1.824 2.918-.45.633-.945.863-1.508 1.375-.305.281-.61.582-.906.898.672-3.37.672-6.933.7-10.308.034-4.528 1.472-10.18 5.198-13.11.868-.683-.207-2.011-1.074-1.332-3.324 2.617-4.855 6.977-5.625 11.004-.383 2.012-.281 4.18-.215 6.219.07 2.305-.191 4.965-.77 7.191-1.038 4.028-2.546 7.98-4.097 11.848-.387.965-.605 1.922-.8 2.941-.196 1.016-.88 2.172-.91 3.203-.036 1.18-.384 2.227-.872 3.286.238-1.801.477-3.598.652-5.414.352-3.66-.82-7.29-.546-10.907.136-1.816.042-3.64.234-5.449.144-1.375.176-2.848-.012-4.223-.23-1.664.09-3.261-.012-4.918-.086-1.445-.105-2.886-.37-4.312-.344-1.848.19-3.766.218-5.633.016-1.058.258-2.324.457-3.344.328-1.68 1.047-3.257 1.324-4.949a9.83 9.83 0 0 1 .528-1.926h.011a9 9 0 0 1 .555-1.629c.18-.386.438-.726.746-.992.043-.129.086-.258.137-.39l.004-.012a.864.864 0 0 0 .074-.195c.316-.801.723-1.578 1.004-2.059.797-1.348 2.07-2.387 2.953-3.695.762-1.121 1.418-2.309 2.172-3.434.785-1.168 1.758-2.191 2.473-3.402.55-.942-.82-1.965-1.38-1.016-.8 1.356-1.886 2.535-2.765 3.848-1.047 1.554-1.851 3.39-3.2 4.726-1.058 1.055-1.913 2.215-2.429 3.621-.086.235-.183.47-.277.704a1.01 1.01 0 0 0-.215.273c-.016.035-.035.066-.05.098-.157-.887-.368-1.77-.427-2.598a16.934 16.934 0 0 0-.484-2.953c-.184-.75-.797-2.23-.434-3 .137-.29.094-.55-.043-.746-.425.273-.96.414-1.605.344l-.031-.004c-.508 1.457.379 3.472.715 4.859.273 1.125.218 2.332.363 3.484.133 1.059.558 2.082.308 3.145a.717.717 0 0 0 .067.539c-.04.086-.082.168-.121.258-.25.582-.262 1.351-.348 1.972-.148 1.063-.555 2.122-.851 3.153-.793 2.773-.696 5.394-1.164 8.222-.278 1.688.39 3.196.226 4.832-.148 1.45.195 2.883.059 4.356-.149 1.644.254 3.238.183 4.875-.066 1.664-.168 3.312-.148 4.984.02 1.727-.34 3.391-.063 5.114.297 1.859.39 3.746.5 5.625.11 1.82-.125 3.609-.394 5.414-.262 1.71-.313 3.394-.633 5.105-.328 1.719-.363 3.508-.61 5.238-.261 1.872-.714 3.707-1.015 5.567-.313 1.945-.645 3.879-1.281 5.75-.434 1.265-.754 2.832-1.41 4.047.414.425.824.86 1.226 1.297.738-1.153.86-2.317 1.36-3.641a30.65 30.65 0 0 0 1.398-4.879c.715-3.586 1.375-7.227 1.762-10.863l.007-.055c.524-.426.758-1.047 1.04-1.664.52-1.129 1.074-2.246 1.53-3.398.423-1.079.403-2.055.68-3.133.254-.985.625-1.918.832-2.926.692-3.34 2.184-6.453 3.434-9.629a.788.788 0 0 0 .567-.5c.765-1.953 2.386-3.379 3.89-4.707 1.266-1.113 2.137-2.887 2.922-4.36 1.21-2.269 2.04-4.628 3.402-6.82.688-1.105 1.328-2.132 2.25-3.066.551-.563 1.016-1.172 1.282-1.918.378-1.035-1.215-1.66-1.59-.625"/></g></g></g></g><g clip-path="url(#K)"><g clip-path="url(#L)"><g clip-path="url(#M)"><g clip-path="url(#N)"><path fill="#8d5b31" d="M338.926 54.676c-.371-.996-.637-2.074-1.117-3.02-.63-1.226-1.7-2.136-2.387-3.293a.852.852 0 0 0-.34-.328c-.133.512-.25 1.024-.36 1.547l-.058.54c.258.304.508.608.703.948.223.383.406.828.703 1.153.532.586.246.894.57 1.433.532.887.755 1.883.942 2.895.035.183.09.375.148.57.516-.43 1.063-.726 1.665-.887a14.653 14.653 0 0 0-.47-1.558"/></g></g></g></g><g clip-path="url(#O)"><g clip-path="url(#P)"><g clip-path="url(#Q)"><g clip-path="url(#R)"><path fill="#80cc28" d="M371.766 34.805c-1.485-3.246-3.317-1.137-5.672-.207 2.094-2.11 3.027-5.946-.133-7.739-2.035-1.148-5.043.493-5.848 2.871-.98-1.12-3.976-1.007-5.422.497-1.39 1.453-1.785 3.66-1.234 5.52-1.566-.09-3.988 1.312-3.965 3.675.024 2.453 3.512 5.34 5.563 5.473l.851-.32c-1.484 2.327.86 7.167 3.266 7.675 1.871.395 4.457-2.148 4.035-4.129 3.324 2.422 8.234-3.652 5.68-7.64 2.117-.86 3.968-3.297 2.879-5.676"/></g></g></g></g><g clip-path="url(#S)"><g clip-path="url(#T)"><g clip-path="url(#U)"><g clip-path="url(#V)"><path fill="#80cc28" d="M355.914 24.191c1.879-2.804-5.316-8.253-7.66-4.578-1.957-1.445-5.3-4.066-7.68-3.578-2.863.594-5.785 4.719-3.008 6.848-2.359-2.453-5.886.562-6.457 3.222-.418 1.942 1.395 6.387 3.215 7.114-.039 1.422.672 3.422 1.395 4.336 2.008 2.535 6.547 2.03 7.41-1.012-.149 2.684 2.55 4.34 5.101 4.355 4.672.028 3.31-2 5.297-4.75 1.485-2.058 2.243-1.449 4.22-3.242 2.515-2.281 1.905-8.84-1.833-8.715"/></g></g></g></g><g clip-path="url(#W)"><g clip-path="url(#X)"><g clip-path="url(#Y)"><g clip-path="url(#Z)"><path fill="#65962c" d="M359.36 43.914c1.878-2.805-5.32-8.254-7.66-4.578-1.962-1.445-5.302-4.066-7.68-3.574-2.868.593-5.79 4.718-3.012 6.847-2.36-2.453-5.883.559-6.457 3.22-.418 1.94 1.394 6.39 3.219 7.116-.043 1.418.668 3.422 1.394 4.336 2.008 2.532 6.547 2.028 7.41-1.011-.148 2.683 2.547 4.34 5.102 4.355 4.672.027 3.304-2 5.293-4.754 1.488-2.055 2.242-1.445 4.219-3.238 2.519-2.281 1.906-8.84-1.829-8.719"/></g></g></g></g><g clip-path="url(#aa)"><g clip-path="url(#ab)"><g clip-path="url(#ac)"><g clip-path="url(#ad)"><path fill="#65962c" d="M339.965 35.656c1.515-2.261-4.293-6.656-6.18-3.691-1.578-1.168-4.273-3.281-6.195-2.883-2.309.477-4.664 3.805-2.426 5.52-1.902-1.98-4.742.453-5.207 2.597-.336 1.567 1.125 5.153 2.598 5.739-.035 1.144.535 2.761 1.12 3.496 1.622 2.043 5.282 1.64 5.981-.817-.12 2.164 2.055 3.504 4.114 3.516 3.765.02 2.664-1.613 4.265-3.836 1.2-1.656 1.809-1.164 3.402-2.61 2.032-1.84 1.54-7.128-1.472-7.03"/></g></g></g></g><g clip-path="url(#ae)"><g clip-path="url(#af)"><g clip-path="url(#ag)"><g clip-path="url(#ah)"><path fill="#80cc28" d="M381.824 43.957c2.711-4.207-2.437-6.34-5.68-5.395-1.507.438-5.472 3.29-5.613 5.247-3.219-.168-8.09 6.953-1.515 10.996.582-.446 1.351-.742 1.859-1.285l-.938 1.125c-.652 2.417-3.05 6.964-.113 8.66 2.012 1.16 5.637-1.09 6.488-3.258 3.032 8.555 14.352-5.172 7.754-7.422 7.45-.418 5.106-16.105-2.242-8.668"/></g></g></g></g><g clip-path="url(#ai)"><g clip-path="url(#aj)"><g clip-path="url(#ak)"><g clip-path="url(#al)"><path fill="#80cc28" d="m338.758 40.707-.719-.895c6.016-9.824-20.937-10.078-8.875 1.446-4.332-1.996-9.05 1.578-10.242 6.012-.918 3.402 2.625 11.097 5.637 11.195-.016 2.379 1.816 5.976 4.875 6.117 5.097.234 6.59-5.781 5.507-9.973 2.262 2.106 7.22-.12 8.825-3.062 1.613-2.953-.043-14.297-5.008-10.84"/></g></g></g></g><g clip-path="url(#am)"><g clip-path="url(#an)"><g clip-path="url(#ao)"><g clip-path="url(#ap)"><path fill="#80cc28" d="M386.984 72.484c2.598-3.054 3.036-7.261-1.664-8.941-2.53-.906-7.312 1.73-7.093 4.234-1.797-.16-5.594-.316-6.551 1.72-1.274 2.71 2.469 5.808 4.926 5.64-3.454.808-3.067 4.136-1.27 6.18 2.48 2.816 7.766 1.07 7.34-2.75.82 4.144 6.324 3.246 7.926-.063 1.406-2.91-.782-8.14-3.614-6.02"/></g></g></g></g></svg>