<svg xmlns="http://www.w3.org/2000/svg" xmlns:xlink="http://www.w3.org/1999/xlink" width="997" zoomAndPan="magnify" viewBox="0 0 747.75 178.499995" height="238" preserveAspectRatio="xMidYMid meet" version="1.0"><defs><g/><clipPath id="7f71771fb0"><path d="M 350 45 L 374 45 L 374 66 L 350 66 Z M 350 45 " clip-rule="nonzero"/></clipPath><clipPath id="8d4e7c38e7"><path d="M 318.648438 8.53125 L 398.25 17.015625 L 385.242188 139.023438 L 305.640625 130.535156 Z M 318.648438 8.53125 " clip-rule="nonzero"/></clipPath><clipPath id="43910c5488"><path d="M 318.648438 8.53125 L 398.25 17.015625 L 385.242188 139.023438 L 305.640625 130.535156 Z M 318.648438 8.53125 " clip-rule="nonzero"/></clipPath><clipPath id="b361be5a0e"><path d="M 318.648438 8.53125 L 398.25 17.015625 L 385.242188 139.023438 L 305.640625 130.535156 Z M 318.648438 8.53125 " clip-rule="nonzero"/></clipPath><clipPath id="46faf67254"><path d="M 329 48 L 353 48 L 353 69 L 329 69 Z M 329 48 " clip-rule="nonzero"/></clipPath><clipPath id="17870627e1"><path d="M 318.648438 8.53125 L 398.25 17.015625 L 385.242188 139.023438 L 305.640625 130.535156 Z M 318.648438 8.53125 " clip-rule="nonzero"/></clipPath><clipPath id="e01c22d651"><path d="M 318.648438 8.53125 L 398.25 17.015625 L 385.242188 139.023438 L 305.640625 130.535156 Z M 318.648438 8.53125 " clip-rule="nonzero"/></clipPath><clipPath id="db20068917"><path d="M 318.648438 8.53125 L 398.25 17.015625 L 385.242188 139.023438 L 305.640625 130.535156 Z M 318.648438 8.53125 " clip-rule="nonzero"/></clipPath><clipPath id="5f45648822"><path d="M 359 61 L 383 61 L 383 82 L 359 82 Z M 359 61 " clip-rule="nonzero"/></clipPath><clipPath id="f1728a26f5"><path d="M 318.648438 8.53125 L 398.25 17.015625 L 385.242188 139.023438 L 305.640625 130.535156 Z M 318.648438 8.53125 " clip-rule="nonzero"/></clipPath><clipPath id="bcde6c4eff"><path d="M 318.648438 8.53125 L 398.25 17.015625 L 385.242188 139.023438 L 305.640625 130.535156 Z M 318.648438 8.53125 " clip-rule="nonzero"/></clipPath><clipPath id="fe33a68443"><path d="M 318.648438 8.53125 L 398.25 17.015625 L 385.242188 139.023438 L 305.640625 130.535156 Z M 318.648438 8.53125 " clip-rule="nonzero"/></clipPath><clipPath id="7c177e500b"><path d="M 314 38 L 338 38 L 338 59 L 314 59 Z M 314 38 " clip-rule="nonzero"/></clipPath><clipPath id="2f1c6b5d15"><path d="M 318.648438 8.53125 L 398.25 17.015625 L 385.242188 139.023438 L 305.640625 130.535156 Z M 318.648438 8.53125 " clip-rule="nonzero"/></clipPath><clipPath id="21b0694fe3"><path d="M 318.648438 8.53125 L 398.25 17.015625 L 385.242188 139.023438 L 305.640625 130.535156 Z M 318.648438 8.53125 " clip-rule="nonzero"/></clipPath><clipPath id="5b71e37fbf"><path d="M 318.648438 8.53125 L 398.25 17.015625 L 385.242188 139.023438 L 305.640625 130.535156 Z M 318.648438 8.53125 " clip-rule="nonzero"/></clipPath><clipPath id="e575cb5716"><path d="M 363 26 L 387 26 L 387 48 L 363 48 Z M 363 26 " clip-rule="nonzero"/></clipPath><clipPath id="0b39f62d2b"><path d="M 318.648438 8.53125 L 398.25 17.015625 L 385.242188 139.023438 L 305.640625 130.535156 Z M 318.648438 8.53125 " clip-rule="nonzero"/></clipPath><clipPath id="f765887eae"><path d="M 318.648438 8.53125 L 398.25 17.015625 L 385.242188 139.023438 L 305.640625 130.535156 Z M 318.648438 8.53125 " clip-rule="nonzero"/></clipPath><clipPath id="01f567cd61"><path d="M 318.648438 8.53125 L 398.25 17.015625 L 385.242188 139.023438 L 305.640625 130.535156 Z M 318.648438 8.53125 " clip-rule="nonzero"/></clipPath><clipPath id="1c8c5d384e"><path d="M 366 56 L 389 56 L 389 77 L 366 77 Z M 366 56 " clip-rule="nonzero"/></clipPath><clipPath id="2b96f9b169"><path d="M 318.648438 8.53125 L 398.25 17.015625 L 385.242188 139.023438 L 305.640625 130.535156 Z M 318.648438 8.53125 " clip-rule="nonzero"/></clipPath><clipPath id="61b4d4a7ca"><path d="M 318.648438 8.53125 L 398.25 17.015625 L 385.242188 139.023438 L 305.640625 130.535156 Z M 318.648438 8.53125 " clip-rule="nonzero"/></clipPath><clipPath id="4a69a48ec4"><path d="M 318.648438 8.53125 L 398.25 17.015625 L 385.242188 139.023438 L 305.640625 130.535156 Z M 318.648438 8.53125 " clip-rule="nonzero"/></clipPath><clipPath id="d91b8c5a34"><path d="M 339 12 L 367 12 L 367 37 L 339 37 Z M 339 12 " clip-rule="nonzero"/></clipPath><clipPath id="06fa196bec"><path d="M 318.648438 8.53125 L 398.25 17.015625 L 385.242188 139.023438 L 305.640625 130.535156 Z M 318.648438 8.53125 " clip-rule="nonzero"/></clipPath><clipPath id="4307456941"><path d="M 318.648438 8.53125 L 398.25 17.015625 L 385.242188 139.023438 L 305.640625 130.535156 Z M 318.648438 8.53125 " clip-rule="nonzero"/></clipPath><clipPath id="58e7d5837c"><path d="M 318.648438 8.53125 L 398.25 17.015625 L 385.242188 139.023438 L 305.640625 130.535156 Z M 318.648438 8.53125 " clip-rule="nonzero"/></clipPath><clipPath id="94d4e2c23f"><path d="M 334 32 L 385 32 L 385 134 L 334 134 Z M 334 32 " clip-rule="nonzero"/></clipPath><clipPath id="190d4f93b4"><path d="M 318.648438 8.53125 L 398.25 17.015625 L 385.242188 139.023438 L 305.640625 130.535156 Z M 318.648438 8.53125 " clip-rule="nonzero"/></clipPath><clipPath id="031bc76ff4"><path d="M 318.648438 8.53125 L 398.25 17.015625 L 385.242188 139.023438 L 305.640625 130.535156 Z M 318.648438 8.53125 " clip-rule="nonzero"/></clipPath><clipPath id="cb10b8efdb"><path d="M 318.648438 8.53125 L 398.25 17.015625 L 385.242188 139.023438 L 305.640625 130.535156 Z M 318.648438 8.53125 " clip-rule="nonzero"/></clipPath><clipPath id="31c52d697d"><path d="M 341 40 L 369 40 L 369 133 L 341 133 Z M 341 40 " clip-rule="nonzero"/></clipPath><clipPath id="662b8141e9"><path d="M 318.648438 8.53125 L 398.25 17.015625 L 385.242188 139.023438 L 305.640625 130.535156 Z M 318.648438 8.53125 " clip-rule="nonzero"/></clipPath><clipPath id="0ef1f513f6"><path d="M 318.648438 8.53125 L 398.25 17.015625 L 385.242188 139.023438 L 305.640625 130.535156 Z M 318.648438 8.53125 " clip-rule="nonzero"/></clipPath><clipPath id="3c2bd20f49"><path d="M 318.648438 8.53125 L 398.25 17.015625 L 385.242188 139.023438 L 305.640625 130.535156 Z M 318.648438 8.53125 " clip-rule="nonzero"/></clipPath><clipPath id="516fccc6bf"><path d="M 334 48 L 340 48 L 340 58 L 334 58 Z M 334 48 " clip-rule="nonzero"/></clipPath><clipPath id="5856ef0ced"><path d="M 318.648438 8.53125 L 398.25 17.015625 L 385.242188 139.023438 L 305.640625 130.535156 Z M 318.648438 8.53125 " clip-rule="nonzero"/></clipPath><clipPath id="142684cbb3"><path d="M 318.648438 8.53125 L 398.25 17.015625 L 385.242188 139.023438 L 305.640625 130.535156 Z M 318.648438 8.53125 " clip-rule="nonzero"/></clipPath><clipPath id="c04f09c908"><path d="M 318.648438 8.53125 L 398.25 17.015625 L 385.242188 139.023438 L 305.640625 130.535156 Z M 318.648438 8.53125 " clip-rule="nonzero"/></clipPath><clipPath id="60feb7b90d"><path d="M 349 26 L 373 26 L 373 53 L 349 53 Z M 349 26 " clip-rule="nonzero"/></clipPath><clipPath id="4c567bb4f4"><path d="M 318.648438 8.53125 L 398.25 17.015625 L 385.242188 139.023438 L 305.640625 130.535156 Z M 318.648438 8.53125 " clip-rule="nonzero"/></clipPath><clipPath id="fcb99c384d"><path d="M 318.648438 8.53125 L 398.25 17.015625 L 385.242188 139.023438 L 305.640625 130.535156 Z M 318.648438 8.53125 " clip-rule="nonzero"/></clipPath><clipPath id="ec9334a18c"><path d="M 318.648438 8.53125 L 398.25 17.015625 L 385.242188 139.023438 L 305.640625 130.535156 Z M 318.648438 8.53125 " clip-rule="nonzero"/></clipPath><clipPath id="556b2ef87e"><path d="M 331 15 L 360 15 L 360 41 L 331 41 Z M 331 15 " clip-rule="nonzero"/></clipPath><clipPath id="f44db14b1e"><path d="M 318.648438 8.53125 L 398.25 17.015625 L 385.242188 139.023438 L 305.640625 130.535156 Z M 318.648438 8.53125 " clip-rule="nonzero"/></clipPath><clipPath id="d5881f63e5"><path d="M 318.648438 8.53125 L 398.25 17.015625 L 385.242188 139.023438 L 305.640625 130.535156 Z M 318.648438 8.53125 " clip-rule="nonzero"/></clipPath><clipPath id="a091a3d514"><path d="M 318.648438 8.53125 L 398.25 17.015625 L 385.242188 139.023438 L 305.640625 130.535156 Z M 318.648438 8.53125 " clip-rule="nonzero"/></clipPath><clipPath id="0ef50661a5"><path d="M 334 35 L 363 35 L 363 61 L 334 61 Z M 334 35 " clip-rule="nonzero"/></clipPath><clipPath id="9db977bfb5"><path d="M 318.648438 8.53125 L 398.25 17.015625 L 385.242188 139.023438 L 305.640625 130.535156 Z M 318.648438 8.53125 " clip-rule="nonzero"/></clipPath><clipPath id="b37e498a7d"><path d="M 318.648438 8.53125 L 398.25 17.015625 L 385.242188 139.023438 L 305.640625 130.535156 Z M 318.648438 8.53125 " clip-rule="nonzero"/></clipPath><clipPath id="227bc3d1cc"><path d="M 318.648438 8.53125 L 398.25 17.015625 L 385.242188 139.023438 L 305.640625 130.535156 Z M 318.648438 8.53125 " clip-rule="nonzero"/></clipPath><clipPath id="894aca95ba"><path d="M 319 29 L 343 29 L 343 50 L 319 50 Z M 319 29 " clip-rule="nonzero"/></clipPath><clipPath id="842c87be99"><path d="M 318.648438 8.53125 L 398.25 17.015625 L 385.242188 139.023438 L 305.640625 130.535156 Z M 318.648438 8.53125 " clip-rule="nonzero"/></clipPath><clipPath id="653c21c55f"><path d="M 318.648438 8.53125 L 398.25 17.015625 L 385.242188 139.023438 L 305.640625 130.535156 Z M 318.648438 8.53125 " clip-rule="nonzero"/></clipPath><clipPath id="8e26b7f388"><path d="M 318.648438 8.53125 L 398.25 17.015625 L 385.242188 139.023438 L 305.640625 130.535156 Z M 318.648438 8.53125 " clip-rule="nonzero"/></clipPath><clipPath id="f9282aac77"><path d="M 365 38 L 389 38 L 389 64 L 365 64 Z M 365 38 " clip-rule="nonzero"/></clipPath><clipPath id="91bc145b53"><path d="M 318.648438 8.53125 L 398.25 17.015625 L 385.242188 139.023438 L 305.640625 130.535156 Z M 318.648438 8.53125 " clip-rule="nonzero"/></clipPath><clipPath id="e4eb2ecd29"><path d="M 318.648438 8.53125 L 398.25 17.015625 L 385.242188 139.023438 L 305.640625 130.535156 Z M 318.648438 8.53125 " clip-rule="nonzero"/></clipPath><clipPath id="e61df670a6"><path d="M 318.648438 8.53125 L 398.25 17.015625 L 385.242188 139.023438 L 305.640625 130.535156 Z M 318.648438 8.53125 " clip-rule="nonzero"/></clipPath><clipPath id="7ce06b40aa"><path d="M 318 32 L 345 32 L 345 65 L 318 65 Z M 318 32 " clip-rule="nonzero"/></clipPath><clipPath id="7674694307"><path d="M 318.648438 8.53125 L 398.25 17.015625 L 385.242188 139.023438 L 305.640625 130.535156 Z M 318.648438 8.53125 " clip-rule="nonzero"/></clipPath><clipPath id="6ca7167a69"><path d="M 318.648438 8.53125 L 398.25 17.015625 L 385.242188 139.023438 L 305.640625 130.535156 Z M 318.648438 8.53125 " clip-rule="nonzero"/></clipPath><clipPath id="c88bbf6312"><path d="M 318.648438 8.53125 L 398.25 17.015625 L 385.242188 139.023438 L 305.640625 130.535156 Z M 318.648438 8.53125 " clip-rule="nonzero"/></clipPath><clipPath id="d575436327"><path d="M 371 63 L 392 63 L 392 83 L 371 83 Z M 371 63 " clip-rule="nonzero"/></clipPath><clipPath id="152128b6a2"><path d="M 318.648438 8.53125 L 398.25 17.015625 L 385.242188 139.023438 L 305.640625 130.535156 Z M 318.648438 8.53125 " clip-rule="nonzero"/></clipPath><clipPath id="332f6534cb"><path d="M 318.648438 8.53125 L 398.25 17.015625 L 385.242188 139.023438 L 305.640625 130.535156 Z M 318.648438 8.53125 " clip-rule="nonzero"/></clipPath><clipPath id="272dcb688b"><path d="M 318.648438 8.53125 L 398.25 17.015625 L 385.242188 139.023438 L 305.640625 130.535156 Z M 318.648438 8.53125 " clip-rule="nonzero"/></clipPath></defs><g fill="#000000" fill-opacity="1"><g transform="translate(247.600444, 132.047655)"><g><path d="M 26.585938 0.105469 C 33.019531 0.105469 40.828125 -3.058594 43.992188 -6.539062 C 45.046875 -7.703125 45.679688 -9.074219 44.730469 -10.128906 C 44.519531 -10.339844 44.097656 -10.445312 43.675781 -10.445312 C 42.832031 -10.445312 41.777344 -10.023438 40.828125 -9.496094 C 39.878906 -8.863281 38.929688 -8.335938 37.769531 -7.597656 C 37.347656 -7.28125 36.820312 -7.171875 36.503906 -7.171875 C 35.65625 -7.171875 35.445312 -7.914062 36.503906 -8.441406 C 38.191406 -9.390625 39.773438 -10.550781 40.828125 -11.710938 C 41.882812 -12.765625 42.09375 -14.242188 41.144531 -15.085938 C 40.933594 -15.296875 40.511719 -15.402344 39.984375 -15.402344 C 39.351562 -15.402344 38.613281 -15.296875 38.191406 -14.875 C 35.65625 -12.238281 32.175781 -10.128906 28.378906 -10.128906 C 23.105469 -10.128906 17.617188 -16.5625 21.203125 -36.925781 C 24.054688 -52.855469 31.542969 -59.921875 37.664062 -59.921875 C 41.355469 -59.921875 44.097656 -57.707031 45.890625 -55.175781 C 46.101562 -54.648438 46.734375 -54.542969 47.367188 -54.542969 C 47.894531 -54.542969 48.316406 -54.648438 48.738281 -54.859375 C 49.792969 -55.703125 50.109375 -57.179688 49.476562 -58.234375 C 48.84375 -59.394531 47.789062 -60.449219 46.3125 -61.398438 C 45.46875 -62.03125 45.890625 -62.769531 46.734375 -62.769531 C 47.050781 -62.769531 47.472656 -62.558594 47.894531 -62.242188 C 48.84375 -61.503906 49.582031 -60.976562 50.320312 -60.34375 C 51.0625 -59.816406 51.90625 -59.394531 52.75 -59.394531 C 53.171875 -59.394531 53.59375 -59.5 54.015625 -59.710938 C 55.386719 -60.765625 55.175781 -62.136719 54.542969 -63.296875 C 52.539062 -66.78125 45.996094 -70.261719 39.457031 -70.261719 C 23 -70.261719 12.660156 -58.550781 8.863281 -37.03125 C 3.585938 -7.171875 12.660156 0 26.585938 0.105469 Z M 14.558594 -16.878906 C 14.980469 -13.398438 15.824219 -11.183594 18.039062 -9.074219 C 19.621094 -7.492188 22.15625 -6.117188 25.636719 -5.378906 C 25.003906 -5.378906 20.253906 -5.695312 17.195312 -7.808594 L 18.144531 -7.066406 C 14.769531 -9.074219 13.925781 -12.027344 14.558594 -16.878906 Z M 14.558594 -16.878906 "/></g></g></g><g fill="#000000" fill-opacity="1"><g transform="translate(291.695219, 132.047655)"><g><path d="M 6.328125 0.210938 C 7.703125 0.210938 8.96875 -0.84375 9.601562 -2.636719 L 10.234375 -4.007812 C 10.445312 -4.640625 10.761719 -4.957031 10.972656 -4.957031 C 11.289062 -4.957031 11.394531 -4.640625 11.394531 -4.007812 L 11.394531 -2.636719 C 11.078125 -0.738281 12.027344 0 14.136719 0 L 33.96875 0 C 35.867188 0 36.503906 -0.527344 36.714844 -1.6875 C 36.925781 -2.847656 36.082031 -3.164062 34.707031 -3.480469 C 34.074219 -3.796875 33.230469 -3.902344 32.386719 -4.21875 C 31.542969 -4.324219 31.859375 -4.851562 32.703125 -5.167969 C 33.230469 -5.273438 33.230469 -5.273438 33.863281 -5.484375 C 35.234375 -5.800781 36.398438 -6.117188 36.714844 -7.703125 C 36.925781 -9.285156 35.445312 -9.496094 34.074219 -9.496094 C 30.699219 -9.496094 23.210938 -9.601562 20.042969 -9.601562 L 19.621094 -9.601562 C 18.144531 -9.601562 17.722656 -10.234375 17.933594 -11.605469 C 19.09375 -16.773438 19.726562 -21.734375 20.78125 -26.796875 C 21.097656 -28.695312 21.519531 -29.222656 23.316406 -29.222656 C 23.632812 -29.222656 23.84375 -29.117188 24.054688 -29.117188 L 35.867188 -29.117188 C 38.296875 -29.117188 39.351562 -29.960938 39.667969 -31.332031 C 39.878906 -32.492188 38.296875 -33.125 36.820312 -33.652344 C 35.550781 -34.179688 35.445312 -34.917969 37.242188 -35.445312 C 38.71875 -35.867188 39.667969 -36.503906 39.878906 -37.453125 C 40.089844 -38.929688 39.351562 -39.457031 37.347656 -39.457031 L 25.742188 -39.457031 C 23.84375 -39.457031 23.316406 -40.40625 23.632812 -42.09375 C 24.792969 -47.050781 25.320312 -51.800781 26.375 -56.757812 C 26.796875 -58.972656 27.113281 -59.289062 29.855469 -59.289062 L 41.460938 -59.289062 C 43.359375 -59.289062 44.835938 -60.027344 45.046875 -61.503906 C 45.46875 -63.613281 41.25 -63.191406 41.355469 -63.824219 C 41.460938 -64.351562 42.09375 -64.5625 44.203125 -65.410156 C 45.46875 -66.042969 45.890625 -66.464844 45.996094 -67.097656 C 46.3125 -68.46875 45.46875 -68.996094 44.308594 -68.996094 L 27.324219 -68.996094 C 24.792969 -68.996094 23.949219 -68.46875 23.105469 -66.359375 L 22.367188 -63.929688 C 22.261719 -63.402344 21.945312 -63.085938 21.734375 -63.085938 C 21.519531 -63.085938 21.414062 -63.402344 21.519531 -63.929688 L 21.308594 -66.042969 C 20.992188 -67.519531 20.464844 -68.046875 19.515625 -68.046875 C 17.511719 -68.046875 16.140625 -66.992188 15.71875 -64.5625 C 14.664062 -59.183594 13.925781 -53.59375 12.976562 -48 L 4.746094 -2.742188 C 4.429688 -1.371094 4.21875 0.210938 6.328125 0.210938 Z M 6.328125 0.210938 "/></g></g></g><g fill="#000000" fill-opacity="1"><g transform="translate(331.781378, 132.047655)"><g><path d="M 6.644531 0.316406 C 8.546875 0.210938 9.390625 -0.738281 9.707031 -2.425781 L 10.445312 -5.800781 C 10.550781 -6.75 11.078125 -7.171875 11.5 -7.171875 C 11.921875 -7.171875 12.238281 -6.75 12.132812 -5.800781 L 11.5 -2.320312 C 11.289062 -0.421875 12.027344 0.210938 13.714844 0.210938 C 15.507812 0.105469 16.351562 -0.738281 16.878906 -3.796875 C 22.050781 -32.070312 25.214844 -48.949219 27.851562 -65.515625 C 28.273438 -67.730469 27.851562 -68.679688 25.953125 -68.679688 C 24.160156 -68.679688 23 -67.730469 22.578125 -65.726562 L 22.15625 -64.140625 C 21.945312 -63.613281 21.734375 -63.296875 21.519531 -63.296875 C 21.308594 -63.296875 21.097656 -63.613281 21.203125 -64.140625 L 21.097656 -65.832031 C 21.308594 -68.46875 20.464844 -69.207031 18.566406 -69.207031 C 16.984375 -69.207031 16.035156 -68.46875 15.507812 -65.621094 L 4.535156 -2.636719 C 4.21875 -0.632812 4.640625 0.316406 6.644531 0.316406 Z M 6.644531 0.316406 "/></g></g></g><g fill="#000000" fill-opacity="1"><g transform="translate(356.044051, 132.047655)"><g><path d="M 7.066406 0 C 9.390625 0 10.234375 -0.738281 10.445312 -2.003906 C 10.65625 -2.953125 10.972656 -3.375 11.289062 -3.375 C 12.871094 -3.375 11.5 0.210938 15.71875 0.210938 L 25.742188 0.316406 C 39.667969 0.316406 50.851562 -5.484375 53.382812 -19.9375 C 55.070312 -29.222656 50.320312 -34.390625 42.832031 -36.082031 C 42.304688 -36.292969 41.988281 -36.609375 42.9375 -36.820312 C 48.527344 -38.402344 55.070312 -43.78125 56.546875 -52.539062 C 58.65625 -64.246094 50.425781 -70.578125 36.398438 -70.578125 C 28.589844 -70.578125 25.636719 -69.101562 23.949219 -66.359375 C 23.738281 -65.9375 23.421875 -65.726562 23.316406 -65.726562 C 23.105469 -65.726562 23 -65.9375 23 -66.359375 C 23.527344 -69.3125 22.15625 -70.367188 20.464844 -70.367188 C 17.933594 -70.367188 16.878906 -69.101562 16.5625 -67.414062 C 12.871094 -46.3125 8.757812 -24.898438 4.535156 -3.796875 C 4.007812 -0.84375 4.746094 0 7.066406 0 Z M 41.671875 -64.988281 C 48.949219 -64.988281 53.382812 -59.289062 50.957031 -52.855469 C 50.535156 -59.605469 48 -62.664062 40.617188 -64.988281 Z M 27.21875 -58.972656 C 27.429688 -59.921875 28.167969 -60.34375 29.222656 -60.34375 L 34.074219 -60.34375 C 42.515625 -60.34375 45.046875 -56.652344 43.992188 -50.957031 C 42.832031 -44.203125 37.769531 -41.144531 32.386719 -41.144531 L 26.375 -41.144531 C 24.898438 -41.144531 24.054688 -41.566406 24.265625 -42.9375 Z M 21.519531 -28.800781 C 21.628906 -29.75 21.945312 -30.699219 23.316406 -30.699219 L 29.75 -30.699219 C 38.613281 -30.699219 42.832031 -27.851562 41.566406 -20.675781 C 40.300781 -13.1875 34.8125 -9.917969 25.320312 -9.917969 L 20.675781 -9.917969 C 18.882812 -9.917969 18.355469 -10.550781 18.671875 -12.34375 Z M 21.519531 -28.800781 "/></g></g></g><g fill="#000000" fill-opacity="1"><g transform="translate(409.738399, 132.047655)"><g><path d="M 25.636719 0.632812 C 39.035156 0.632812 51.0625 -8.652344 55.808594 -35.550781 C 59.816406 -58.445312 51.589844 -69.839844 38.085938 -69.839844 C 24.6875 -69.839844 11.921875 -56.652344 8.230469 -35.550781 C 3.375 -8.019531 13.925781 0.632812 25.636719 0.632812 Z M 50.320312 -50.320312 C 49.054688 -57.074219 45.46875 -62.453125 37.980469 -64.667969 C 46.945312 -64.667969 50.746094 -57.179688 50.320312 -50.320312 Z M 21.097656 -35.550781 C 23.84375 -51.484375 31.226562 -58.867188 36.082031 -58.867188 C 42.304688 -58.867188 46.207031 -50.957031 43.570312 -35.550781 C 40.511719 -18.144531 34.074219 -10.128906 27.957031 -10.128906 C 21.097656 -10.128906 18.144531 -18.988281 21.097656 -35.550781 Z M 21.097656 -35.550781 "/></g></g></g><g fill="#000000" fill-opacity="1"><g transform="translate(462.27235, 132.047655)"><g><path d="M 6.644531 -0.84375 C 6.855469 -0.105469 7.492188 0.527344 8.335938 0.527344 C 9.496094 0.527344 10.234375 -0.316406 10.65625 -1.054688 C 11.183594 -1.792969 11.816406 -3.375 12.238281 -4.535156 L 13.1875 -7.597656 C 13.398438 -8.125 13.609375 -8.335938 13.820312 -8.335938 C 13.925781 -8.335938 14.136719 -8.125 14.136719 -7.703125 L 14.03125 -4.21875 C 13.925781 -1.792969 15.613281 -0.316406 17.933594 -0.210938 C 20.148438 -0.105469 23 0 25.953125 0 L 33.96875 0 C 35.445312 0 36.398438 -0.527344 36.609375 -1.792969 C 36.820312 -3.058594 36.1875 -3.480469 34.496094 -3.691406 C 34.179688 -3.691406 33.652344 -3.691406 32.914062 -3.796875 C 31.015625 -3.902344 30.699219 -4.113281 30.699219 -4.535156 C 30.804688 -4.957031 31.648438 -5.273438 33.125 -5.589844 L 34.390625 -5.90625 C 35.867188 -6.328125 37.136719 -6.960938 37.347656 -8.546875 C 37.558594 -9.917969 36.925781 -10.65625 34.8125 -10.65625 L 22.578125 -10.65625 C 20.886719 -10.65625 20.464844 -11.394531 20.886719 -13.082031 L 30.699219 -65.304688 C 31.332031 -69.101562 30.59375 -70.367188 28.90625 -70.472656 C 27.324219 -70.472656 26.480469 -69.523438 25.636719 -67.414062 L 24.898438 -64.988281 C 24.792969 -64.5625 24.582031 -64.351562 24.476562 -64.351562 C 24.265625 -64.351562 24.160156 -64.5625 24.160156 -64.988281 C 24.160156 -65.9375 24.265625 -66.78125 24.265625 -67.414062 C 24.265625 -69.207031 23.105469 -70.15625 21.945312 -70.15625 C 20.042969 -70.15625 18.777344 -68.785156 18.460938 -66.992188 L 6.644531 -3.691406 C 6.433594 -2.320312 6.433594 -1.476562 6.644531 -0.84375 Z M 6.644531 -0.84375 "/></g></g></g><g clip-path="url(#7f71771fb0)"><g clip-path="url(#8d4e7c38e7)"><g clip-path="url(#43910c5488)"><g clip-path="url(#b361be5a0e)"><path fill="#3d5421" d="M 370.753906 51.847656 C 372.273438 49.585938 366.464844 45.1875 364.578125 48.15625 C 363 46.988281 360.304688 44.871094 358.382812 45.269531 C 356.074219 45.746094 353.71875 49.074219 355.957031 50.792969 C 354.054688 48.8125 351.214844 51.242188 350.75 53.386719 C 350.414062 54.953125 351.875 58.542969 353.34375 59.128906 C 353.3125 60.273438 353.882812 61.886719 354.46875 62.625 C 356.089844 64.667969 359.746094 64.261719 360.445312 61.808594 C 360.324219 63.972656 362.5 65.308594 364.558594 65.320312 C 368.328125 65.34375 367.226562 63.707031 368.828125 61.488281 C 370.027344 59.832031 370.636719 60.320312 372.230469 58.875 C 374.261719 57.035156 373.769531 51.746094 370.753906 51.847656 " fill-opacity="1" fill-rule="nonzero"/></g></g></g></g><g clip-path="url(#46faf67254)"><g clip-path="url(#17870627e1)"><g clip-path="url(#e01c22d651)"><g clip-path="url(#db20068917)"><path fill="#3d5421" d="M 349.367188 55.234375 C 350.882812 52.972656 345.078125 48.578125 343.191406 51.542969 C 341.609375 50.375 338.914062 48.261719 336.996094 48.660156 C 334.6875 49.136719 332.328125 52.464844 334.570312 54.179688 C 332.667969 52.203125 329.824219 54.632812 329.363281 56.777344 C 329.027344 58.34375 330.488281 61.933594 331.957031 62.515625 C 331.925781 63.660156 332.496094 65.277344 333.078125 66.011719 C 334.703125 68.058594 338.359375 67.652344 339.058594 65.195312 C 338.9375 67.363281 341.113281 68.699219 343.171875 68.710938 C 346.941406 68.734375 345.839844 67.097656 347.441406 64.878906 C 348.640625 63.21875 349.25 63.710938 350.84375 62.265625 C 352.875 60.421875 352.378906 55.136719 349.367188 55.234375 " fill-opacity="1" fill-rule="nonzero"/></g></g></g></g><g clip-path="url(#5f45648822)"><g clip-path="url(#f1728a26f5)"><g clip-path="url(#bcde6c4eff)"><g clip-path="url(#fe33a68443)"><path fill="#3d5421" d="M 379.992188 68.496094 C 381.507812 66.238281 375.703125 61.839844 373.816406 64.808594 C 372.234375 63.640625 369.542969 61.523438 367.621094 61.921875 C 365.308594 62.402344 362.953125 65.726562 365.195312 67.445312 C 363.292969 65.464844 360.449219 67.894531 359.984375 70.042969 C 359.648438 71.605469 361.113281 75.195312 362.582031 75.78125 C 362.546875 76.925781 363.121094 78.539062 363.707031 79.277344 C 365.324219 81.320312 368.984375 80.914062 369.683594 78.460938 C 369.5625 80.625 371.738281 81.960938 373.796875 81.972656 C 377.5625 81.996094 376.464844 80.363281 378.066406 78.140625 C 379.265625 76.480469 379.871094 76.972656 381.46875 75.527344 C 383.5 73.6875 383.003906 68.398438 379.992188 68.496094 " fill-opacity="1" fill-rule="nonzero"/></g></g></g></g><g clip-path="url(#7c177e500b)"><g clip-path="url(#2f1c6b5d15)"><g clip-path="url(#21b0694fe3)"><g clip-path="url(#5b71e37fbf)"><path fill="#3d5421" d="M 334.742188 45.261719 C 336.257812 43 330.453125 38.605469 328.566406 41.570312 C 326.984375 40.40625 324.289062 38.292969 322.371094 38.6875 C 320.058594 39.164062 317.703125 42.492188 319.945312 44.207031 C 318.042969 42.230469 315.199219 44.660156 314.734375 46.804688 C 314.398438 48.371094 315.863281 51.960938 317.332031 52.542969 C 317.296875 53.6875 317.871094 55.304688 318.453125 56.039062 C 320.074219 58.085938 323.734375 57.675781 324.433594 55.222656 C 324.3125 57.390625 326.488281 58.726562 328.546875 58.738281 C 332.3125 58.761719 331.210938 57.125 332.816406 54.90625 C 334.015625 53.246094 334.625 53.738281 336.21875 52.292969 C 338.25 50.449219 337.753906 45.164062 334.742188 45.261719 " fill-opacity="1" fill-rule="nonzero"/></g></g></g></g><g clip-path="url(#e575cb5716)"><g clip-path="url(#0b39f62d2b)"><g clip-path="url(#f765887eae)"><g clip-path="url(#01f567cd61)"><path fill="#65962c" d="M 383.710938 33.609375 C 385.226562 31.347656 379.421875 26.949219 377.535156 29.917969 C 375.957031 28.75 373.261719 26.636719 371.339844 27.03125 C 369.03125 27.511719 366.671875 30.839844 368.914062 32.554688 C 367.011719 30.574219 364.167969 33.007812 363.707031 35.152344 C 363.371094 36.71875 364.832031 40.304688 366.300781 40.890625 C 366.269531 42.035156 366.839844 43.652344 367.425781 44.386719 C 369.046875 46.429688 372.707031 46.023438 373.402344 43.570312 C 373.28125 45.734375 375.457031 47.070312 377.515625 47.082031 C 381.285156 47.105469 380.183594 45.472656 381.785156 43.25 C 382.984375 41.589844 383.59375 42.085938 385.1875 40.640625 C 387.21875 38.796875 386.722656 33.507812 383.710938 33.609375 " fill-opacity="1" fill-rule="nonzero"/></g></g></g></g><g clip-path="url(#1c8c5d384e)"><g clip-path="url(#2b96f9b169)"><g clip-path="url(#61b4d4a7ca)"><g clip-path="url(#4a69a48ec4)"><path fill="#65962c" d="M 386.265625 63.265625 C 387.78125 61.007812 381.976562 56.609375 380.089844 59.574219 C 378.507812 58.410156 375.816406 56.292969 373.894531 56.691406 C 371.582031 57.171875 369.226562 60.496094 371.46875 62.214844 C 369.566406 60.234375 366.722656 62.664062 366.257812 64.8125 C 365.921875 66.375 367.386719 69.964844 368.855469 70.550781 C 368.820312 71.695312 369.394531 73.308594 369.980469 74.046875 C 371.601562 76.089844 375.257812 75.683594 375.957031 73.230469 C 375.835938 75.394531 378.011719 76.730469 380.070312 76.742188 C 383.835938 76.765625 382.734375 75.128906 384.339844 72.910156 C 385.539062 71.25 386.148438 71.742188 387.742188 70.296875 C 389.773438 68.457031 389.277344 63.167969 386.265625 63.265625 " fill-opacity="1" fill-rule="nonzero"/></g></g></g></g><g clip-path="url(#d91b8c5a34)"><g clip-path="url(#06fa196bec)"><g clip-path="url(#4307456941)"><g clip-path="url(#58e7d5837c)"><path fill="#65962c" d="M 363.007812 20.476562 C 364.761719 17.863281 358.050781 12.78125 355.871094 16.210938 C 354.042969 14.859375 350.925781 12.417969 348.707031 12.875 C 346.035156 13.425781 343.3125 17.273438 345.902344 19.257812 C 343.703125 16.96875 340.417969 19.78125 339.882812 22.261719 C 339.492188 24.070312 341.183594 28.21875 342.878906 28.894531 C 342.84375 30.21875 343.503906 32.085938 344.179688 32.9375 C 346.054688 35.296875 350.285156 34.828125 351.089844 31.992188 C 350.953125 34.496094 353.464844 36.042969 355.847656 36.054688 C 360.203125 36.078125 358.929688 34.1875 360.78125 31.621094 C 362.167969 29.707031 362.875 30.273438 364.714844 28.601562 C 367.0625 26.476562 366.492188 20.363281 363.007812 20.476562 " fill-opacity="1" fill-rule="nonzero"/></g></g></g></g><g clip-path="url(#94d4e2c23f)"><g clip-path="url(#190d4f93b4)"><g clip-path="url(#031bc76ff4)"><g clip-path="url(#cb10b8efdb)"><path fill="#9b6736" d="M 377.082031 70.804688 C 374.128906 70.359375 372.402344 71.03125 369.453125 71.480469 C 371.359375 67.53125 376.457031 66.84375 377.9375 63.164062 C 378.601562 61.515625 379.617188 60.347656 377.355469 59.621094 C 374.324219 58.648438 375.03125 61.589844 373.515625 63.21875 C 367.773438 69.394531 362.746094 74.929688 357.808594 82.003906 C 360.011719 75.960938 358.4375 71.414062 363.582031 66.773438 C 368.371094 62.449219 369.671875 59.476562 372.800781 53.980469 C 374.414062 51.136719 384.660156 44.828125 376.058594 47.613281 C 369.664062 49.679688 369.320312 56.835938 365.210938 61.148438 C 364.289062 59.214844 363.546875 56.945312 362.125 54.945312 C 360.984375 56.355469 361.667969 57.835938 361.195312 58.925781 C 360.445312 60.65625 359.789062 62.203125 358.667969 64.210938 C 357.085938 67.0625 354.96875 71.039062 354 74.023438 C 351.8125 80.742188 352.71875 88.574219 349.359375 95.015625 C 347.757812 90.460938 349.664062 84.734375 349.25 80.242188 C 348.636719 73.640625 348.855469 70.589844 351.429688 64.445312 C 353.195312 60.238281 352.257812 54.414062 355.019531 50.296875 C 356.410156 48.222656 358.859375 47.027344 360.359375 44.925781 C 361.816406 42.886719 362.503906 40.1875 364.007812 38.097656 C 363.09375 36.992188 363.117188 35.710938 363.3125 34.300781 L 359.515625 33.898438 C 359.386719 35.988281 359.640625 38.035156 358.695312 40.003906 C 357.324219 42.859375 354.152344 45.566406 352.238281 48.425781 C 352.011719 43.867188 349.621094 40.058594 348.4375 35.695312 C 348.183594 34.757812 348.628906 33.652344 348.734375 32.75 L 344.296875 32.277344 C 343.90625 33.429688 344.359375 35.160156 344.476562 36.53125 C 344.925781 41.761719 346.902344 45.59375 346.683594 51.078125 C 346.503906 55.515625 345.828125 60.101562 345.238281 64.6875 C 342.980469 59.25 343.074219 53.410156 339.738281 48.167969 C 338.398438 46.0625 336.976562 44.285156 335.460938 42.648438 L 334.035156 56.023438 C 337.675781 59.597656 340.894531 62.628906 342.246094 68.628906 C 343.902344 76.003906 343.945312 84.277344 343.191406 92.4375 C 343.234375 92.601562 343.261719 92.78125 343.246094 92.976562 C 342.3125 106.082031 342.652344 119.835938 338.734375 132.472656 C 341.960938 132.855469 344.742188 134.65625 347.925781 133.121094 C 347.320312 126.328125 349.269531 120.027344 349.84375 113.261719 C 350.429688 106.292969 352.089844 99.636719 356.167969 93.835938 C 358.117188 91.0625 361.128906 88.089844 362.527344 85.261719 C 364.089844 82.09375 364.097656 79.148438 366.695312 76.433594 C 372.527344 70.335938 378.414062 77.667969 384.21875 71.136719 C 379.957031 72.824219 380.804688 71.359375 377.082031 70.804688 " fill-opacity="1" fill-rule="nonzero"/></g></g></g></g><g clip-path="url(#31c52d697d)"><g clip-path="url(#662b8141e9)"><g clip-path="url(#0ef1f513f6)"><g clip-path="url(#3c2bd20f49)"><path fill="#8d5b31" d="M 367.09375 70.5 C 366.707031 71.558594 365.710938 72.3125 365.007812 73.164062 C 364.285156 74.042969 363.789062 75.117188 363.148438 76.058594 C 361.847656 77.964844 361.222656 80.265625 360.160156 82.300781 C 359.625 83.324219 359.003906 84.277344 358.335938 85.21875 C 357.886719 85.851562 357.390625 86.082031 356.828125 86.59375 C 356.523438 86.875 356.21875 87.175781 355.921875 87.492188 C 356.59375 84.121094 356.59375 80.558594 356.621094 77.183594 C 356.65625 72.65625 358.09375 67.003906 361.820312 64.074219 C 362.6875 63.390625 361.613281 62.0625 360.746094 62.742188 C 357.421875 65.359375 355.890625 69.71875 355.121094 73.746094 C 354.738281 75.757812 354.839844 77.925781 354.90625 79.964844 C 354.976562 82.269531 354.714844 84.929688 354.136719 87.15625 C 353.097656 91.183594 351.589844 95.136719 350.039062 99.003906 C 349.652344 99.96875 349.433594 100.925781 349.238281 101.945312 C 349.042969 102.960938 348.359375 104.117188 348.328125 105.148438 C 348.292969 106.328125 347.945312 107.375 347.457031 108.433594 C 347.695312 106.632812 347.933594 104.835938 348.109375 103.019531 C 348.460938 99.359375 347.289062 95.730469 347.5625 92.113281 C 347.699219 90.296875 347.605469 88.472656 347.796875 86.664062 C 347.941406 85.289062 347.972656 83.816406 347.785156 82.441406 C 347.554688 80.777344 347.875 79.179688 347.773438 77.523438 C 347.6875 76.078125 347.667969 74.636719 347.402344 73.210938 C 347.058594 71.363281 347.59375 69.445312 347.621094 67.578125 C 347.636719 66.519531 347.878906 65.253906 348.078125 64.234375 C 348.40625 62.554688 349.125 60.976562 349.402344 59.285156 C 349.519531 58.578125 349.703125 57.953125 349.929688 57.359375 L 349.941406 57.359375 C 350.070312 56.800781 350.261719 56.257812 350.496094 55.730469 C 350.675781 55.34375 350.933594 55.003906 351.242188 54.738281 C 351.285156 54.609375 351.328125 54.480469 351.378906 54.347656 L 351.382812 54.335938 C 351.417969 54.269531 351.441406 54.203125 351.457031 54.140625 C 351.773438 53.339844 352.179688 52.5625 352.460938 52.082031 C 353.257812 50.734375 354.53125 49.695312 355.414062 48.386719 C 356.175781 47.265625 356.832031 46.078125 357.585938 44.953125 C 358.371094 43.785156 359.34375 42.761719 360.058594 41.550781 C 360.609375 40.609375 359.238281 39.585938 358.679688 40.535156 C 357.878906 41.890625 356.792969 43.070312 355.914062 44.382812 C 354.867188 45.9375 354.0625 47.773438 352.714844 49.109375 C 351.65625 50.164062 350.800781 51.324219 350.285156 52.730469 C 350.199219 52.964844 350.101562 53.199219 350.007812 53.433594 C 349.925781 53.507812 349.851562 53.597656 349.792969 53.707031 C 349.777344 53.742188 349.757812 53.773438 349.742188 53.804688 C 349.585938 52.917969 349.375 52.035156 349.316406 51.207031 C 349.242188 50.179688 349.082031 49.261719 348.832031 48.253906 C 348.648438 47.503906 348.035156 46.023438 348.398438 45.253906 C 348.535156 44.964844 348.492188 44.703125 348.355469 44.507812 C 347.929688 44.78125 347.394531 44.921875 346.75 44.851562 L 346.71875 44.847656 C 346.210938 46.304688 347.097656 48.320312 347.433594 49.707031 C 347.707031 50.832031 347.652344 52.039062 347.796875 53.191406 C 347.929688 54.25 348.355469 55.273438 348.105469 56.335938 C 348.054688 56.554688 348.089844 56.734375 348.171875 56.875 C 348.132812 56.960938 348.089844 57.042969 348.050781 57.132812 C 347.800781 57.714844 347.789062 58.484375 347.703125 59.105469 C 347.554688 60.167969 347.148438 61.226562 346.851562 62.257812 C 346.058594 65.03125 346.15625 67.652344 345.6875 70.480469 C 345.410156 72.167969 346.078125 73.675781 345.914062 75.3125 C 345.765625 76.761719 346.109375 78.195312 345.972656 79.667969 C 345.824219 81.3125 346.226562 82.90625 346.15625 84.542969 C 346.089844 86.207031 345.988281 87.855469 346.007812 89.527344 C 346.027344 91.253906 345.667969 92.917969 345.945312 94.640625 C 346.242188 96.5 346.335938 98.386719 346.445312 100.265625 C 346.554688 102.085938 346.320312 103.875 346.050781 105.679688 C 345.789062 107.390625 345.738281 109.074219 345.417969 110.785156 C 345.089844 112.503906 345.054688 114.292969 344.808594 116.023438 C 344.546875 117.894531 344.09375 119.730469 343.792969 121.589844 C 343.480469 123.535156 343.148438 125.46875 342.511719 127.339844 C 342.078125 128.605469 341.757812 130.171875 341.101562 131.386719 C 341.515625 131.8125 341.925781 132.246094 342.328125 132.683594 C 343.066406 131.53125 343.1875 130.367188 343.6875 129.042969 C 344.292969 127.441406 344.75 125.84375 345.085938 124.164062 C 345.800781 120.578125 346.460938 116.9375 346.847656 113.300781 L 346.855469 113.246094 C 347.378906 112.820312 347.613281 112.199219 347.894531 111.582031 C 348.414062 110.453125 348.96875 109.335938 349.425781 108.183594 C 349.847656 107.105469 349.828125 106.128906 350.105469 105.050781 C 350.359375 104.066406 350.730469 103.132812 350.9375 102.125 C 351.628906 98.785156 353.121094 95.671875 354.371094 92.496094 C 354.605469 92.441406 354.820312 92.289062 354.9375 91.996094 C 355.703125 90.042969 357.324219 88.617188 358.828125 87.289062 C 360.09375 86.175781 360.964844 84.402344 361.75 82.929688 C 362.960938 80.660156 363.789062 78.300781 365.152344 76.109375 C 365.839844 75.003906 366.480469 73.976562 367.402344 73.042969 C 367.953125 72.480469 368.417969 71.871094 368.683594 71.125 C 369.0625 70.089844 367.46875 69.464844 367.09375 70.5 " fill-opacity="1" fill-rule="nonzero"/></g></g></g></g><g clip-path="url(#516fccc6bf)"><g clip-path="url(#5856ef0ced)"><g clip-path="url(#142684cbb3)"><g clip-path="url(#c04f09c908)"><path fill="#8d5b31" d="M 338.925781 54.675781 C 338.554688 53.679688 338.289062 52.601562 337.808594 51.65625 C 337.179688 50.429688 336.109375 49.519531 335.421875 48.363281 C 335.332031 48.210938 335.214844 48.105469 335.082031 48.035156 C 334.949219 48.546875 334.832031 49.058594 334.722656 49.582031 L 334.664062 50.121094 C 334.921875 50.425781 335.171875 50.730469 335.367188 51.070312 C 335.589844 51.453125 335.773438 51.898438 336.070312 52.222656 C 336.601562 52.808594 336.316406 53.117188 336.640625 53.65625 C 337.171875 54.542969 337.394531 55.539062 337.582031 56.550781 C 337.617188 56.734375 337.671875 56.925781 337.730469 57.121094 C 338.246094 56.691406 338.792969 56.394531 339.394531 56.234375 C 339.257812 55.691406 339.105469 55.152344 338.925781 54.675781 " fill-opacity="1" fill-rule="nonzero"/></g></g></g></g><g clip-path="url(#60feb7b90d)"><g clip-path="url(#4c567bb4f4)"><g clip-path="url(#fcb99c384d)"><g clip-path="url(#ec9334a18c)"><path fill="#80cc28" d="M 371.765625 34.804688 C 370.28125 31.558594 368.449219 33.667969 366.09375 34.597656 C 368.1875 32.488281 369.121094 28.652344 365.960938 26.859375 C 363.925781 25.710938 360.917969 27.351562 360.113281 29.730469 C 359.132812 28.609375 356.136719 28.722656 354.691406 30.226562 C 353.300781 31.679688 352.90625 33.886719 353.457031 35.746094 C 351.890625 35.65625 349.46875 37.058594 349.492188 39.421875 C 349.515625 41.875 353.003906 44.761719 355.054688 44.894531 L 355.90625 44.574219 C 354.421875 46.902344 356.765625 51.742188 359.171875 52.25 C 361.042969 52.644531 363.628906 50.101562 363.207031 48.121094 C 366.53125 50.542969 371.441406 44.46875 368.886719 40.480469 C 371.003906 39.621094 372.855469 37.183594 371.765625 34.804688 " fill-opacity="1" fill-rule="nonzero"/></g></g></g></g><g clip-path="url(#556b2ef87e)"><g clip-path="url(#f44db14b1e)"><g clip-path="url(#d5881f63e5)"><g clip-path="url(#a091a3d514)"><path fill="#80cc28" d="M 355.914062 24.191406 C 357.792969 21.386719 350.597656 15.9375 348.253906 19.613281 C 346.296875 18.167969 342.953125 15.546875 340.574219 16.035156 C 337.710938 16.628906 334.789062 20.753906 337.566406 22.882812 C 335.207031 20.429688 331.679688 23.445312 331.109375 26.105469 C 330.691406 28.046875 332.503906 32.492188 334.324219 33.21875 C 334.285156 34.640625 334.996094 36.640625 335.71875 37.554688 C 337.726562 40.089844 342.265625 39.585938 343.128906 36.542969 C 342.980469 39.226562 345.679688 40.882812 348.230469 40.898438 C 352.902344 40.925781 351.539062 38.898438 353.527344 36.148438 C 355.011719 34.089844 355.769531 34.699219 357.746094 32.90625 C 360.261719 30.625 359.652344 24.066406 355.914062 24.191406 " fill-opacity="1" fill-rule="nonzero"/></g></g></g></g><g clip-path="url(#0ef50661a5)"><g clip-path="url(#9db977bfb5)"><g clip-path="url(#b37e498a7d)"><g clip-path="url(#227bc3d1cc)"><path fill="#65962c" d="M 359.359375 43.914062 C 361.238281 41.109375 354.039062 35.660156 351.699219 39.335938 C 349.738281 37.890625 346.398438 35.269531 344.019531 35.761719 C 341.152344 36.355469 338.230469 40.480469 341.007812 42.609375 C 338.648438 40.15625 335.125 43.167969 334.550781 45.828125 C 334.132812 47.769531 335.945312 52.21875 337.769531 52.945312 C 337.726562 54.363281 338.4375 56.367188 339.164062 57.28125 C 341.171875 59.8125 345.710938 59.308594 346.574219 56.269531 C 346.425781 58.953125 349.121094 60.609375 351.675781 60.625 C 356.347656 60.652344 354.980469 58.625 356.96875 55.871094 C 358.457031 53.816406 359.210938 54.425781 361.1875 52.632812 C 363.707031 50.351562 363.09375 43.792969 359.359375 43.914062 " fill-opacity="1" fill-rule="nonzero"/></g></g></g></g><g clip-path="url(#894aca95ba)"><g clip-path="url(#842c87be99)"><g clip-path="url(#653c21c55f)"><g clip-path="url(#8e26b7f388)"><path fill="#65962c" d="M 339.964844 35.65625 C 341.480469 33.394531 335.671875 29 333.785156 31.964844 C 332.207031 30.796875 329.511719 28.683594 327.589844 29.082031 C 325.28125 29.558594 322.925781 32.886719 325.164062 34.601562 C 323.261719 32.621094 320.421875 35.054688 319.957031 37.199219 C 319.621094 38.765625 321.082031 42.351562 322.554688 42.9375 C 322.519531 44.082031 323.089844 45.699219 323.675781 46.433594 C 325.296875 48.476562 328.957031 48.074219 329.65625 45.617188 C 329.535156 47.78125 331.710938 49.121094 333.769531 49.132812 C 337.535156 49.152344 336.433594 47.519531 338.035156 45.296875 C 339.234375 43.640625 339.84375 44.132812 341.4375 42.6875 C 343.46875 40.847656 342.976562 35.558594 339.964844 35.65625 " fill-opacity="1" fill-rule="nonzero"/></g></g></g></g><g clip-path="url(#f9282aac77)"><g clip-path="url(#91bc145b53)"><g clip-path="url(#e4eb2ecd29)"><g clip-path="url(#e61df670a6)"><path fill="#80cc28" d="M 381.824219 43.957031 C 384.535156 39.75 379.386719 37.617188 376.144531 38.5625 C 374.636719 39 370.671875 41.851562 370.53125 43.808594 C 367.3125 43.640625 362.441406 50.761719 369.015625 54.804688 C 369.597656 54.359375 370.367188 54.0625 370.875 53.519531 L 369.9375 54.644531 C 369.285156 57.0625 366.886719 61.609375 369.824219 63.304688 C 371.835938 64.464844 375.460938 62.214844 376.3125 60.046875 C 379.34375 68.601562 390.664062 54.875 384.066406 52.625 C 391.515625 52.207031 389.171875 36.519531 381.824219 43.957031 " fill-opacity="1" fill-rule="nonzero"/></g></g></g></g><g clip-path="url(#7ce06b40aa)"><g clip-path="url(#7674694307)"><g clip-path="url(#6ca7167a69)"><g clip-path="url(#c88bbf6312)"><path fill="#80cc28" d="M 338.757812 40.707031 L 338.039062 39.8125 C 344.054688 29.988281 317.101562 29.734375 329.164062 41.257812 C 324.832031 39.261719 320.113281 42.835938 318.921875 47.269531 C 318.003906 50.671875 321.546875 58.367188 324.558594 58.464844 C 324.542969 60.84375 326.375 64.441406 329.433594 64.582031 C 334.53125 64.816406 336.023438 58.800781 334.941406 54.609375 C 337.203125 56.714844 342.160156 54.488281 343.765625 51.546875 C 345.378906 48.59375 343.722656 37.25 338.757812 40.707031 " fill-opacity="1" fill-rule="nonzero"/></g></g></g></g><g clip-path="url(#d575436327)"><g clip-path="url(#152128b6a2)"><g clip-path="url(#332f6534cb)"><g clip-path="url(#272dcb688b)"><path fill="#80cc28" d="M 386.984375 72.484375 C 389.582031 69.429688 390.019531 65.222656 385.320312 63.542969 C 382.789062 62.636719 378.007812 65.273438 378.226562 67.777344 C 376.429688 67.617188 372.632812 67.460938 371.675781 69.496094 C 370.402344 72.207031 374.144531 75.304688 376.601562 75.136719 C 373.148438 75.945312 373.535156 79.273438 375.332031 81.316406 C 377.8125 84.132812 383.097656 82.386719 382.671875 78.566406 C 383.492188 82.710938 388.996094 81.8125 390.597656 78.503906 C 392.003906 75.59375 389.816406 70.363281 386.984375 72.484375 " fill-opacity="1" fill-rule="nonzero"/></g></g></g></g></svg>