<svg xmlns="http://www.w3.org/2000/svg" xmlns:xlink="http://www.w3.org/1999/xlink" width="997" zoomAndPan="magnify" viewBox="0 0 747.75 178.499995" height="238" preserveAspectRatio="xMidYMid meet" version="1.0"><defs><g/><clipPath id="0b250dc0fd"><path d="M 653.871094 54.941406 L 724.195312 54.941406 L 724.195312 116.292969 L 653.871094 116.292969 Z M 653.871094 54.941406 " clip-rule="nonzero"/></clipPath><clipPath id="c12aa79f11"><path d="M 22.664062 31.921875 L 137.132812 31.921875 L 137.132812 146.390625 L 22.664062 146.390625 Z M 22.664062 31.921875 " clip-rule="nonzero"/></clipPath><clipPath id="6d195e9abf"><path d="M 211 55 L 249 55 L 249 121.144531 L 211 121.144531 Z M 211 55 " clip-rule="nonzero"/></clipPath><clipPath id="ad8ca5ad69"><path d="M 227 91 L 245 91 L 245 121.144531 L 227 121.144531 Z M 227 91 " clip-rule="nonzero"/></clipPath></defs><g fill="#000000" fill-opacity="1"><g transform="translate(145.066657, 114.683171)"><g><path d="M 36.007812 -55.046875 L 22.183594 -41.222656 C 21.769531 -40.808594 21.191406 -41.390625 21.355469 -41.804688 L 26.160156 -48.675781 C 24.667969 -54.632812 19.535156 -58.9375 12.996094 -58.9375 C 5.792969 -58.9375 0 -53.144531 0 -45.777344 L 0 -12.996094 C 0 -5.792969 5.792969 0 12.996094 0 C 17.300781 0 20.53125 -1.65625 23.425781 -4.800781 L 29.46875 -11.09375 L 36.835938 -3.726562 C 42.050781 1.40625 50.328125 1.40625 55.378906 -3.726562 C 60.59375 -8.855469 60.59375 -17.136719 55.378906 -22.351562 L 48.011719 -29.71875 L 54.550781 -36.421875 C 59.765625 -41.636719 59.765625 -49.917969 54.550781 -55.046875 C 49.503906 -60.179688 41.222656 -60.179688 36.007812 -55.046875 Z M 36.007812 -55.046875 "/></g></g></g><g fill="#000000" fill-opacity="1"><g transform="translate(205.904691, 114.683171)"><g/></g></g><g fill="#000000" fill-opacity="1"><g transform="translate(227.343052, 114.683171)"><g/></g></g><g fill="#000000" fill-opacity="1"><g transform="translate(248.779693, 114.683171)"><g><path d="M 29.800781 -59.601562 C 13.410156 -59.601562 -0.25 -46.027344 -0.25 -29.46875 C -0.25 -12.832031 13.410156 0.496094 29.800781 0.496094 C 46.4375 0.496094 60.015625 -12.832031 60.015625 -29.46875 C 60.015625 -46.027344 46.4375 -59.601562 29.800781 -59.601562 Z M 29.800781 -32.613281 C 31.539062 -32.613281 33.027344 -31.375 33.027344 -29.46875 C 33.027344 -27.730469 31.539062 -26.242188 29.800781 -26.242188 C 28.3125 -26.242188 26.820312 -27.730469 26.820312 -29.46875 C 26.820312 -31.375 28.3125 -32.613281 29.800781 -32.613281 Z M 29.800781 -32.613281 "/></g></g></g><g fill="#000000" fill-opacity="1"><g transform="translate(311.025428, 114.683171)"><g><path d="M 52.566406 -45.777344 C 52.566406 -53.0625 46.523438 -58.855469 39.15625 -58.855469 L 21.191406 -58.855469 C -2.730469 -59.105469 -6.457031 -32.117188 9.769531 -23.59375 C 11.921875 -22.515625 14.320312 -21.605469 16.640625 -21.441406 C 17.300781 -21.191406 17.136719 -20.363281 16.472656 -20.363281 C 12.582031 -20.363281 8.277344 -21.441406 5.050781 -23.59375 C 1.40625 -20.941406 -0.164062 -17.632812 -0.164062 -13.160156 C -0.164062 -7.285156 5.960938 0.0820312 12.996094 0.0820312 L 31.125 0.0820312 C 57.367188 0.0820312 59.269531 -32.367188 37.167969 -37.417969 C 36.503906 -37.582031 36.753906 -38.492188 37.417969 -38.492188 C 40.726562 -38.246094 43.957031 -37.417969 46.6875 -35.84375 C 50.578125 -37.832031 52.566406 -41.472656 52.566406 -45.777344 Z M 52.566406 -45.777344 "/></g></g></g><g fill="#000000" fill-opacity="1"><g transform="translate(366.069853, 114.683171)"><g><path d="M 36.007812 -55.046875 L 22.183594 -41.222656 C 21.769531 -40.808594 21.191406 -41.390625 21.355469 -41.804688 L 26.160156 -48.675781 C 24.667969 -54.632812 19.535156 -58.9375 12.996094 -58.9375 C 5.792969 -58.9375 0 -53.144531 0 -45.777344 L 0 -12.996094 C 0 -5.792969 5.792969 0 12.996094 0 C 17.300781 0 20.53125 -1.65625 23.425781 -4.800781 L 29.46875 -11.09375 L 36.835938 -3.726562 C 42.050781 1.40625 50.328125 1.40625 55.378906 -3.726562 C 60.59375 -8.855469 60.59375 -17.136719 55.378906 -22.351562 L 48.011719 -29.71875 L 54.550781 -36.421875 C 59.765625 -41.636719 59.765625 -49.917969 54.550781 -55.046875 C 49.503906 -60.179688 41.222656 -60.179688 36.007812 -55.046875 Z M 36.007812 -55.046875 "/></g></g></g><g fill="#000000" fill-opacity="1"><g transform="translate(426.908425, 114.683171)"><g><path d="M 29.800781 -59.601562 C 13.410156 -59.601562 -0.25 -46.027344 -0.25 -29.46875 C -0.25 -12.832031 13.410156 0.496094 29.800781 0.496094 C 46.4375 0.496094 60.015625 -12.832031 60.015625 -29.46875 C 60.015625 -46.027344 46.4375 -59.601562 29.800781 -59.601562 Z M 29.800781 -32.613281 C 31.539062 -32.613281 33.027344 -31.375 33.027344 -29.46875 C 33.027344 -27.730469 31.539062 -26.242188 29.800781 -26.242188 C 28.3125 -26.242188 26.820312 -27.730469 26.820312 -29.46875 C 26.820312 -31.375 28.3125 -32.613281 29.800781 -32.613281 Z M 29.800781 -32.613281 "/></g></g></g><g fill="#000000" fill-opacity="1"><g transform="translate(489.154171, 114.683171)"><g><path d="M 13.742188 0.578125 C 21.027344 0.578125 27.070312 -5.628906 27.070312 -12.914062 L 27.070312 -19.617188 C 27.070312 -20.28125 27.648438 -20.445312 27.898438 -19.785156 L 29.386719 -11.671875 C 42.632812 -11.257812 53.558594 -22.019531 53.558594 -35.179688 C 53.558594 -48.261719 43.210938 -58.773438 30.050781 -58.773438 L 13.742188 -58.773438 C 6.042969 -58.773438 0 -52.730469 0 -45.363281 L 0 -12.914062 C 0 -5.378906 6.042969 0.578125 13.742188 0.578125 Z M 28.3125 -38.246094 C 30.050781 -38.246094 31.539062 -36.917969 31.539062 -35.179688 C 31.539062 -33.441406 30.050781 -31.953125 28.3125 -31.953125 C 27.898438 -31.953125 27.484375 -32.117188 27.070312 -32.367188 L 27.070312 -38.078125 C 27.484375 -38.246094 27.898438 -38.246094 28.3125 -38.246094 Z M 28.3125 -38.246094 "/></g></g></g><g fill="#000000" fill-opacity="1"><g transform="translate(544.198607, 114.683171)"><g><path d="M 7.203125 -1.074219 C 13.742188 1.988281 21.523438 -0.746094 24.667969 -7.285156 L 27.152344 -12.664062 L 24.917969 -21.9375 C 24.832031 -22.515625 25.414062 -22.597656 25.578125 -22.269531 L 32.699219 -7.285156 C 35.761719 -0.746094 43.542969 1.988281 50.082031 -1.074219 C 56.621094 -4.140625 59.351562 -12.003906 56.289062 -18.378906 L 40.480469 -51.65625 C 35.679688 -61.753906 21.355469 -61.589844 16.640625 -51.570312 L 0.992188 -18.378906 C -2.070312 -12.003906 0.664062 -4.140625 7.203125 -1.074219 Z M 7.203125 -1.074219 "/></g></g></g><g fill="#000000" fill-opacity="1"><g transform="translate(603.547274, 114.683171)"><g><path d="M -0.164062 -29.636719 C -0.164062 -13.160156 13.246094 -0.0820312 29.636719 -0.0820312 L 41.390625 -0.0820312 C 47.929688 -0.0820312 54.386719 -6.375 54.386719 -12.996094 L 54.386719 -19.949219 C 54.386719 -25.910156 50.578125 -30.875 45.445312 -32.449219 C 44.949219 -32.699219 44.949219 -32.699219 44.949219 -33.113281 C 44.949219 -33.277344 44.949219 -33.527344 45.445312 -33.527344 C 50.828125 -35.179688 54.632812 -39.816406 54.632812 -46.109375 C 54.632812 -53.0625 48.675781 -58.773438 41.390625 -58.773438 L 29.882812 -58.773438 C 13.492188 -58.773438 -0.164062 -46.109375 -0.164062 -29.636719 Z M 28.3125 -23.425781 L 28.3125 -29.386719 C 28.3125 -31.457031 29.46875 -32.863281 31.621094 -32.863281 L 37.003906 -32.863281 C 37.582031 -32.863281 37.832031 -32.035156 37.167969 -31.871094 C 33.441406 -30.296875 30.875 -27.152344 29.46875 -23.261719 C 29.136719 -22.597656 28.3125 -22.847656 28.3125 -23.425781 Z M 28.3125 -23.425781 "/></g></g></g><g fill="#000000" fill-opacity="1"><g transform="translate(660.412732, 114.683171)"><g><path d="M 29.800781 -59.601562 C 13.410156 -59.601562 -0.25 -46.027344 -0.25 -29.46875 C -0.25 -12.832031 13.410156 0.496094 29.800781 0.496094 C 46.4375 0.496094 60.015625 -12.832031 60.015625 -29.46875 C 60.015625 -46.027344 46.4375 -59.601562 29.800781 -59.601562 Z M 29.800781 -32.613281 C 31.539062 -32.613281 33.027344 -31.375 33.027344 -29.46875 C 33.027344 -27.730469 31.539062 -26.242188 29.800781 -26.242188 C 28.3125 -26.242188 26.820312 -27.730469 26.820312 -29.46875 C 26.820312 -31.375 28.3125 -32.613281 29.800781 -32.613281 Z M 29.800781 -32.613281 "/></g></g></g><g clip-path="url(#0b250dc0fd)"><path fill="#67c6e8" d="M 691.140625 93.585938 C 689.496094 92.503906 690.03125 89.757812 692.828125 90.792969 C 695.628906 91.828125 695.128906 97.082031 694.09375 98.539062 C 693.058594 99.992188 688.6875 99.992188 688.6875 99.992188 C 690.875 97.273438 692.792969 94.664062 691.140625 93.585938 Z M 695.789062 88.375 C 695.789062 88.375 698.160156 89.652344 698.710938 93.394531 C 699.261719 97.136719 696.4375 98.792969 696.4375 98.792969 C 694.5 96.230469 697.28125 94.644531 695.644531 92.28125 C 694.003906 89.917969 695.789062 88.375 695.789062 88.375 Z M 699.292969 86.652344 C 699.292969 86.652344 701.707031 87.839844 702.398438 91.558594 C 703.089844 95.277344 700.328125 97.042969 700.328125 97.042969 C 698.296875 94.550781 701.019531 92.863281 699.292969 90.5625 C 697.570312 88.261719 699.292969 86.652344 699.292969 86.652344 Z M 705.480469 91.980469 C 705.136719 94.472656 703.71875 94.433594 703.71875 94.433594 C 703.71875 94.433594 703.335938 89.988281 702.644531 88.222656 C 701.953125 86.460938 705.828125 89.488281 705.480469 91.980469 Z M 693.722656 82.214844 C 696.210938 83.113281 697.851562 81.910156 698.667969 81.007812 C 699.125 80.5 699.785156 80.234375 700.464844 80.300781 C 718.066406 82.015625 722.957031 75.96875 724.195312 68.667969 C 723.105469 70.421875 721.371094 72.714844 718.953125 74.4375 C 714.484375 63.027344 703.382812 54.945312 690.390625 54.945312 C 676.003906 54.945312 663.9375 64.851562 660.625 78.214844 C 667.507812 76.585938 675.183594 79.3125 680.0625 78.5625 C 687.539062 77.414062 687.710938 72.753906 692.371094 75.515625 C 697.027344 78.277344 699.683594 76.058594 699.234375 77.257812 C 699.234375 77.257812 698.273438 82.011719 693.328125 80.25 C 688.382812 78.488281 687.117188 79.40625 684.511719 81.554688 C 681.902344 83.699219 677.992188 87.152344 673.085938 89.375 C 673.085938 89.375 658.027344 88.21875 653.867188 103.042969 C 655.175781 101.578125 657.898438 98.953125 661.949219 97.097656 C 666.492188 108.347656 677.511719 116.289062 690.390625 116.289062 C 704.941406 116.289062 717.113281 106.15625 720.261719 92.566406 C 713.386719 94.613281 706.230469 93.457031 706.230469 93.457031 C 707.640625 89.804688 705.394531 87.246094 704.03125 86.785156 C 702.671875 86.328125 701.570312 87.304688 701.570312 87.304688 C 701.570312 87.304688 699.757812 85.207031 698.320312 85.722656 C 696.882812 86.238281 697.257812 87.699219 697.257812 87.699219 C 693.550781 86.769531 693.375 89.804688 693.375 89.804688 C 689.667969 88.511719 687.511719 91.875 689.496094 93.585938 C 691.476562 95.292969 688.976562 98.71875 687.882812 99.324219 C 686.792969 99.925781 684.289062 98.402344 684.289062 98.402344 C 685.546875 97.125 688.191406 94.550781 687.882812 94.242188 C 687.578125 93.9375 685.582031 96.503906 683.550781 97.464844 C 681.519531 98.421875 680.214844 96.351562 680.214844 96.351562 C 680.214844 96.351562 686.847656 91.90625 686.886719 91.253906 C 686.925781 90.601562 684.777344 92.710938 681.097656 95.011719 C 677.417969 97.308594 676 93.585938 676 93.585938 C 679.679688 92.273438 684.472656 88.835938 684.394531 88.109375 C 684.316406 87.378906 679.066406 91.636719 676.382812 92.519531 C 673.699219 93.398438 673.085938 91.289062 673.085938 91.289062 C 673.085938 91.289062 679.910156 87.074219 684.242188 83.394531 C 688.574219 79.714844 689.984375 80.863281 693.722656 82.214844 " fill-opacity="1" fill-rule="nonzero"/></g><g clip-path="url(#c12aa79f11)"><path fill="#67c6e8" d="M 79.898438 146.390625 C 48.28125 146.390625 22.664062 120.769531 22.664062 89.15625 C 22.664062 57.539062 48.28125 31.921875 79.898438 31.921875 C 111.515625 31.921875 137.132812 57.539062 137.132812 89.15625 C 137.132812 120.769531 111.515625 146.390625 79.898438 146.390625 Z M 79.898438 146.390625 " fill-opacity="1" fill-rule="nonzero"/></g><path fill="#ffffff" d="M 100.546875 103.371094 C 95.695312 97.625 88.367188 89.429688 80.539062 84.1875 C 79.644531 84.578125 78.707031 84.828125 77.792969 84.964844 L 77.675781 84.988281 C 76.785156 86.75 75.410156 88.835938 73.511719 90.183594 C 72.230469 91.101562 70.71875 91.558594 69 91.558594 C 67.261719 91.558594 65.660156 91.054688 64.628906 90.621094 C 63.894531 90.324219 63.324219 89.726562 63.046875 88.996094 C 62.773438 88.261719 62.796875 87.4375 63.140625 86.726562 L 67.421875 77.664062 C 67.832031 76.792969 68.496094 76.082031 69.34375 75.601562 L 75.707031 72.054688 L 72.046875 70.359375 C 71.382812 70.0625 70.582031 70.039062 69.894531 70.3125 C 65.863281 71.960938 60.394531 72.832031 57.988281 73.152344 C 57.78125 73.449219 57.554688 73.703125 57.234375 73.90625 C 54.074219 76.128906 48.304688 82.148438 45.078125 97.375 L 47.273438 98.703125 L 47.871094 99.066406 C 48.074219 98.816406 48.304688 98.542969 48.535156 98.222656 L 48.578125 98.152344 C 49.082031 97.511719 50.113281 96.414062 51.488281 96.230469 L 51.875 96.183594 L 52.082031 96.160156 C 52.175781 96.160156 52.289062 96.136719 52.425781 96.136719 C 52.515625 96.136719 52.632812 96.136719 52.722656 96.136719 C 53.066406 96.160156 53.386719 96.230469 53.707031 96.320312 C 54.074219 96.433594 54.371094 96.574219 54.667969 96.753906 L 55.585938 97.328125 C 56.292969 97.738281 56.867188 98.382812 57.257812 99.089844 C 57.601562 98.703125 57.941406 98.3125 58.285156 97.898438 C 58.722656 97.328125 60.027344 96.136719 61.582031 96.113281 L 62.132812 96.113281 C 62.363281 96.113281 62.589844 96.160156 62.796875 96.183594 C 63.140625 96.25 63.4375 96.34375 63.734375 96.480469 C 64.054688 96.617188 64.332031 96.777344 64.582031 96.984375 L 65.496094 97.601562 L 65.542969 97.625 C 66.4375 98.3125 67.054688 99.296875 67.238281 100.351562 C 67.511719 100.28125 67.808594 100.234375 68.085938 100.234375 L 68.222656 100.234375 L 68.632812 100.257812 L 68.816406 100.257812 C 69.046875 100.28125 69.253906 100.304688 69.480469 100.371094 C 69.800781 100.464844 70.097656 100.554688 70.398438 100.714844 C 70.695312 100.875 70.96875 101.035156 71.222656 101.242188 L 72.183594 101.953125 L 72.230469 102 C 73.257812 102.84375 73.855469 104.105469 73.855469 105.386719 L 73.855469 105.914062 L 74.242188 105.957031 C 74.472656 106.003906 74.679688 106.050781 74.882812 106.117188 C 75.203125 106.234375 75.503906 106.347656 75.777344 106.507812 C 76.097656 106.691406 76.371094 106.898438 76.625 107.148438 L 77.515625 108.066406 C 78.480469 108.980469 78.960938 110.261719 78.84375 111.523438 L 78.777344 112.347656 C 78.707031 112.988281 78.5 113.582031 78.15625 114.109375 C 78.042969 114.292969 77.90625 114.453125 77.769531 114.589844 C 77.242188 115.117188 76.832031 115.503906 76.488281 115.871094 C 76.257812 116.101562 76.050781 116.304688 75.847656 116.511719 L 76.394531 116.855469 L 79.164062 118 C 79.164062 118 80.449219 118.4375 81.5 118.710938 C 82.277344 118.917969 83.101562 118.757812 83.742188 118.277344 L 84.363281 117.519531 C 84.660156 117.015625 84.910156 116.238281 84.363281 115.871094 C 81.613281 114.039062 80.265625 112.78125 79.074219 111.589844 C 79.074219 111.589844 79.164062 110.261719 80.308594 111.179688 C 81.433594 112.09375 80.539062 112.140625 83.261719 113.765625 C 84.546875 114.476562 85.875 115.160156 87.132812 115.757812 C 87.886719 116.125 88.78125 116.03125 89.445312 115.527344 L 90.542969 114.429688 C 91.046875 113.695312 90.976562 112.667969 90.359375 112.207031 C 87.382812 110.011719 86.996094 109.667969 84.890625 107.605469 C 84.890625 107.605469 85.09375 106.074219 86.46875 107.171875 C 87.796875 108.25 86.742188 108.339844 89.902344 110.261719 C 90.839844 110.765625 91.800781 111.222656 92.992188 111.683594 C 93.65625 111.933594 94.390625 111.886719 94.960938 111.453125 L 96.199219 110.101562 C 96.65625 109.371094 96.105469 108.132812 95.71875 107.746094 C 95.578125 107.605469 95.535156 107.515625 95.144531 107.195312 C 92.191406 104.746094 88.988281 101.816406 87.222656 99.753906 C 87.222656 99.753906 87.566406 98.199219 88.988281 99.570312 C 90.292969 100.832031 89.308594 100.851562 91.917969 102.824219 C 93.429688 103.898438 95.03125 104.996094 96.609375 106.003906 C 97.367188 106.484375 98.375 106.484375 99.105469 105.980469 L 100.640625 104.515625 C 100.84375 104.378906 100.9375 104.058594 100.960938 103.714844 Z M 100.546875 103.371094 " fill-opacity="1" fill-rule="nonzero"/><path fill="#000000" d="M 37.726562 90.070312 C 36.445312 90.070312 35.414062 91.101562 35.414062 92.382812 C 35.414062 93.664062 36.445312 94.695312 37.726562 94.695312 C 39.011719 94.695312 40.039062 93.664062 40.039062 92.382812 C 40.0625 91.101562 39.011719 90.070312 37.726562 90.070312 Z M 37.726562 90.070312 " fill-opacity="1" fill-rule="nonzero"/><path fill="#ffffff" d="M 42.902344 97.304688 C 46.246094 81.1875 52.472656 74.6875 55.996094 72.191406 C 56.453125 71.871094 56.410156 71.183594 55.882812 70.929688 L 45.121094 65.941406 C 44.320312 65.574219 43.359375 65.78125 42.789062 66.46875 C 35.074219 75.554688 31.316406 84.1875 31.316406 92.816406 C 31.316406 93.480469 31.636719 94.101562 32.164062 94.464844 L 40.359375 100.097656 C 40.886719 100.464844 41.574219 100.464844 42.125 100.097656 C 42.558594 99.824219 42.789062 99.320312 42.808594 98.816406 L 42.878906 97.398438 Z M 37.726562 94.71875 C 36.445312 94.71875 35.414062 93.6875 35.414062 92.40625 C 35.414062 91.125 36.445312 90.09375 37.726562 90.09375 C 39.011719 90.09375 40.039062 91.125 40.039062 92.40625 C 40.0625 93.664062 39.011719 94.71875 37.726562 94.71875 Z M 37.726562 94.71875 " fill-opacity="1" fill-rule="nonzero"/><path fill="#ffffff" d="M 102.425781 73.976562 C 102.265625 73.863281 102.128906 73.746094 101.992188 73.609375 C 96.152344 74.777344 86.332031 72.738281 82.1875 71.734375 C 81.570312 71.59375 80.949219 71.6875 80.402344 71.984375 L 70.421875 77.546875 C 69.984375 77.800781 69.617188 78.164062 69.414062 78.625 L 65.132812 87.691406 C 65.039062 87.871094 65.039062 88.054688 65.109375 88.238281 C 65.175781 88.421875 65.316406 88.558594 65.496094 88.628906 C 67.03125 89.269531 69.9375 90.070312 72.273438 88.421875 C 74.105469 87.140625 75.363281 84.917969 76.121094 83.269531 L 76.210938 83.089844 C 76.808594 81.875 77.289062 80.570312 77.675781 79.21875 C 77.722656 80.410156 77.65625 81.621094 77.515625 82.8125 C 78.179688 82.722656 79.234375 82.46875 80.402344 81.851562 L 80.609375 81.738281 C 82.074219 80.9375 83.421875 79.996094 84.589844 78.785156 C 83.835938 80.089844 82.851562 81.28125 81.773438 82.332031 C 89.8125 87.710938 97.273438 96.046875 102.242188 101.929688 C 102.355469 102.066406 102.472656 102.203125 102.585938 102.339844 L 102.675781 102.339844 C 108.355469 100.808594 112.382812 97.96875 114.375 96.320312 C 111.078125 81.921875 105.515625 76.152344 102.425781 73.976562 Z M 102.425781 73.976562 " fill-opacity="1" fill-rule="nonzero"/><path fill="#000000" d="M 121.929688 90.070312 C 120.648438 90.070312 119.617188 91.101562 119.617188 92.382812 C 119.617188 93.664062 120.648438 94.695312 121.929688 94.695312 C 123.210938 94.695312 124.242188 93.664062 124.242188 92.382812 C 124.265625 91.101562 123.210938 90.070312 121.929688 90.070312 Z M 121.929688 90.070312 " fill-opacity="1" fill-rule="nonzero"/><path fill="#000000" d="M 118.542969 65.046875 C 117.742188 64.109375 116.597656 63.582031 115.359375 63.582031 C 114.742188 63.582031 114.167969 63.71875 113.621094 63.972656 L 102.859375 68.960938 C 101.921875 69.398438 101.28125 70.3125 101.1875 71.34375 C 101.1875 71.414062 101.1875 71.480469 101.1875 71.550781 C 100.25 71.710938 99.128906 71.777344 97.847656 71.777344 C 92.328125 71.777344 85.414062 70.269531 82.691406 69.625 C 82.324219 69.535156 81.980469 69.488281 81.613281 69.488281 C 80.8125 69.488281 80.035156 69.695312 79.324219 70.085938 L 78.066406 70.792969 L 72.960938 68.4375 C 72.34375 68.136719 71.632812 68 70.921875 68 C 70.28125 68 69.664062 68.117188 69.070312 68.367188 C 65.589844 69.765625 60.964844 70.589844 58.402344 70.976562 C 58.195312 70.109375 57.621094 69.375 56.796875 68.984375 L 46.039062 63.996094 C 45.488281 63.742188 44.894531 63.605469 44.296875 63.605469 C 43.085938 63.605469 41.917969 64.132812 41.117188 65.070312 C 33.082031 74.570312 29.144531 83.636719 29.144531 92.816406 C 29.144531 94.191406 29.808594 95.496094 30.953125 96.273438 L 39.148438 101.90625 C 39.765625 102.339844 40.5 102.570312 41.253906 102.570312 C 41.984375 102.570312 42.71875 102.339844 43.335938 101.929688 C 44.070312 101.449219 44.597656 100.691406 44.847656 99.847656 L 46.128906 100.625 L 46.449219 100.832031 C 46.152344 101.21875 45.808594 101.699219 45.464844 102.296875 C 44.78125 103.578125 45.03125 106.300781 46.609375 107.308594 L 48.488281 108.546875 C 48.671875 108.660156 48.855469 108.773438 49.058594 108.867188 C 49.21875 109.644531 49.585938 110.355469 50.183594 110.835938 L 52.242188 112.550781 C 53.113281 113.238281 54.164062 113.605469 55.308594 113.605469 C 55.378906 113.605469 55.449219 113.605469 55.515625 113.605469 C 55.675781 113.902344 55.882812 114.175781 56.15625 114.40625 L 58.148438 116.214844 C 59.042969 116.992188 60.1875 117.40625 61.421875 117.40625 C 61.835938 117.40625 62.246094 117.359375 62.636719 117.292969 C 62.660156 117.3125 64.558594 119.28125 64.558594 119.28125 C 65.496094 120.222656 66.757812 120.726562 68.199219 120.726562 C 69.9375 120.726562 71.449219 119.992188 71.632812 119.902344 L 71.726562 119.855469 L 71.816406 119.785156 C 72.847656 119.144531 73.535156 118.640625 74.152344 118.136719 L 75.363281 118.894531 L 78.363281 120.152344 L 78.433594 120.175781 C 78.480469 120.199219 79.785156 120.632812 80.90625 120.929688 C 81.316406 121.046875 81.730469 121.089844 82.164062 121.089844 C 83.171875 121.089844 84.203125 120.746094 85.027344 120.152344 L 85.324219 119.945312 L 86.332031 118.503906 L 86.375 118.4375 C 86.445312 118.296875 86.515625 118.160156 86.582031 118.046875 C 87.0625 118.230469 87.589844 118.320312 88.09375 118.320312 C 89.054688 118.320312 89.949219 118.023438 90.726562 117.453125 L 90.886719 117.335938 L 92.511719 115.644531 L 92.605469 115.484375 C 92.878906 115.070312 93.085938 114.613281 93.199219 114.132812 C 93.40625 114.15625 93.589844 114.175781 93.792969 114.175781 C 94.6875 114.175781 95.558594 113.902344 96.265625 113.351562 L 96.425781 113.238281 L 98.167969 111.363281 L 98.28125 111.203125 C 98.808594 110.398438 98.875 109.484375 98.738281 108.613281 C 99.3125 108.5 99.859375 108.269531 100.34375 107.925781 L 100.480469 107.835938 L 102.082031 106.300781 C 102.652344 105.820312 102.953125 105.15625 103.066406 104.492188 L 103.203125 104.449219 C 108.402344 103.027344 112.339844 100.578125 114.671875 98.839844 L 114.671875 98.90625 C 114.71875 100.144531 115.359375 101.265625 116.320312 101.90625 C 116.941406 102.320312 117.671875 102.546875 118.40625 102.546875 C 119.160156 102.546875 119.894531 102.320312 120.511719 101.882812 L 128.707031 96.25 C 129.828125 95.472656 130.515625 94.191406 130.515625 92.816406 C 130.515625 83.636719 126.601562 74.570312 118.542969 65.046875 Z M 42.832031 98.839844 C 42.808594 99.34375 42.582031 99.847656 42.148438 100.121094 C 41.597656 100.488281 40.910156 100.488281 40.382812 100.121094 L 32.1875 94.488281 C 31.636719 94.121094 31.316406 93.503906 31.339844 92.839844 C 31.339844 84.210938 35.09375 75.578125 42.808594 66.492188 C 43.382812 65.804688 44.34375 65.597656 45.144531 65.964844 L 55.90625 70.953125 C 56.410156 71.183594 56.476562 71.894531 56.019531 72.214844 C 52.496094 74.6875 46.265625 81.1875 42.925781 97.328125 L 42.902344 97.441406 Z M 70.648438 117.953125 C 70.648438 117.953125 67.789062 119.421875 66.117188 117.75 L 64.261719 115.824219 C 63.988281 115.574219 63.941406 114.980469 64.011719 114.496094 C 63.550781 114.773438 61.21875 115.964844 59.613281 114.589844 L 57.621094 112.78125 C 57.1875 112.4375 57.164062 111.292969 57.417969 110.902344 C 56.523438 111.339844 54.898438 111.886719 53.640625 110.859375 L 51.578125 109.140625 C 51.121094 108.796875 51.050781 107.585938 51.304688 107.195312 C 50.847656 107.195312 50.296875 107.082031 49.679688 106.691406 L 47.800781 105.457031 C 47.296875 105.15625 47.183594 103.691406 47.390625 103.304688 C 48.351562 101.65625 49.152344 101.175781 50.320312 99.570312 C 50.664062 99.136719 51.257812 98.542969 51.785156 98.472656 L 52.175781 98.425781 C 52.195312 98.425781 52.21875 98.425781 52.265625 98.425781 C 52.378906 98.425781 52.472656 98.425781 52.585938 98.425781 C 52.746094 98.449219 52.90625 98.472656 53.089844 98.519531 C 53.25 98.5625 53.410156 98.632812 53.570312 98.722656 L 54.464844 99.273438 C 55.035156 99.617188 55.449219 100.191406 55.5625 100.832031 L 55.699219 101.675781 C 55.746094 101.976562 55.722656 102.25 55.652344 102.5 C 55.628906 102.59375 55.585938 102.660156 55.5625 102.753906 C 55.082031 103.554688 54.808594 104.105469 54.554688 104.539062 C 56.433594 103.050781 58.308594 101.496094 60.003906 99.367188 C 60.300781 98.976562 61.054688 98.402344 61.605469 98.402344 L 61.996094 98.402344 C 62.019531 98.402344 62.0625 98.402344 62.085938 98.402344 C 62.203125 98.402344 62.316406 98.425781 62.40625 98.449219 C 62.566406 98.472656 62.726562 98.542969 62.910156 98.609375 C 63.070312 98.679688 63.207031 98.769531 63.367188 98.882812 L 64.285156 99.503906 C 64.835938 99.914062 65.15625 100.53125 65.175781 101.152344 L 65.199219 102 C 65.199219 102.296875 65.15625 102.546875 65.039062 102.777344 C 64.996094 102.867188 64.949219 102.9375 64.902344 103.003906 C 62.980469 105.523438 61.054688 107.746094 59.132812 109.554688 C 61.605469 107.746094 64.171875 106.050781 66.503906 103.441406 C 66.824219 103.050781 67.605469 102.546875 68.152344 102.570312 L 68.542969 102.59375 C 68.566406 102.59375 68.613281 102.59375 68.632812 102.59375 C 68.75 102.59375 68.863281 102.617188 68.953125 102.640625 C 69.113281 102.683594 69.277344 102.730469 69.4375 102.824219 C 69.597656 102.890625 69.734375 103.003906 69.871094 103.121094 L 70.832031 103.808594 C 71.359375 104.242188 71.65625 104.859375 71.65625 105.476562 L 71.632812 106.300781 C 71.632812 106.578125 71.566406 106.851562 71.425781 107.082031 C 71.382812 107.148438 71.335938 107.242188 71.289062 107.308594 C 69.480469 109.414062 67.695312 111.316406 65.933594 112.894531 C 68.085938 111.636719 69.710938 110.558594 71.65625 108.910156 C 72.023438 108.570312 72.847656 108.109375 73.394531 108.179688 L 73.785156 108.226562 C 73.808594 108.226562 73.855469 108.226562 73.878906 108.25 C 73.992188 108.269531 74.105469 108.292969 74.199219 108.316406 C 74.359375 108.363281 74.519531 108.429688 74.679688 108.523438 C 74.839844 108.613281 74.976562 108.707031 75.089844 108.84375 L 75.9375 109.714844 C 76.441406 110.171875 76.691406 110.8125 76.648438 111.429688 L 76.578125 112.253906 C 76.554688 112.527344 76.464844 112.78125 76.328125 113.011719 C 76.28125 113.078125 76.210938 113.148438 76.167969 113.214844 C 73.511719 115.847656 73.214844 116.328125 70.648438 117.953125 Z M 100.664062 104.675781 L 99.128906 106.140625 C 98.375 106.644531 97.386719 106.667969 96.632812 106.164062 C 95.054688 105.15625 93.472656 104.058594 91.941406 102.984375 C 89.332031 101.015625 90.316406 100.992188 89.007812 99.730469 C 87.589844 98.359375 87.246094 99.914062 87.246094 99.914062 C 89.007812 101.976562 92.214844 104.90625 95.167969 107.355469 C 95.558594 107.675781 95.601562 107.746094 95.742188 107.90625 C 96.128906 108.316406 96.679688 109.554688 96.222656 110.261719 L 94.984375 111.613281 C 94.414062 112.046875 93.679688 112.09375 93.015625 111.84375 C 91.824219 111.363281 90.863281 110.925781 89.925781 110.421875 C 86.765625 108.523438 87.820312 108.429688 86.492188 107.332031 C 85.117188 106.234375 84.910156 107.765625 84.910156 107.765625 C 87.019531 109.828125 87.40625 110.148438 90.382812 112.367188 C 91 112.828125 91.070312 113.855469 90.566406 114.589844 L 89.46875 115.6875 C 88.804688 116.191406 87.910156 116.261719 87.15625 115.917969 C 85.894531 115.320312 84.589844 114.636719 83.285156 113.925781 C 80.5625 112.300781 81.453125 112.253906 80.332031 111.339844 C 79.1875 110.421875 79.097656 111.75 79.097656 111.75 C 80.289062 112.941406 81.636719 114.199219 84.386719 116.03125 C 84.933594 116.398438 84.660156 117.175781 84.386719 117.679688 L 83.765625 118.4375 C 83.125 118.917969 82.300781 119.078125 81.523438 118.871094 C 80.46875 118.597656 79.1875 118.160156 79.1875 118.160156 L 76.417969 117.015625 L 75.867188 116.671875 C 76.074219 116.46875 76.28125 116.261719 76.511719 116.03125 C 76.851562 115.6875 77.265625 115.277344 77.792969 114.75 C 77.929688 114.589844 78.066406 114.429688 78.179688 114.269531 C 78.523438 113.742188 78.753906 113.171875 78.800781 112.507812 L 78.867188 111.683594 C 78.980469 110.421875 78.480469 109.140625 77.539062 108.226562 L 76.648438 107.308594 C 76.394531 107.082031 76.121094 106.851562 75.800781 106.667969 C 75.523438 106.507812 75.226562 106.371094 74.90625 106.277344 C 74.703125 106.210938 74.472656 106.164062 74.265625 106.117188 L 73.878906 106.074219 L 73.878906 105.546875 C 73.898438 104.289062 73.28125 103.003906 72.25 102.160156 L 72.207031 102.113281 L 71.246094 101.402344 C 70.992188 101.195312 70.742188 101.035156 70.421875 100.875 C 70.121094 100.738281 69.824219 100.625 69.503906 100.53125 C 69.296875 100.488281 69.070312 100.441406 68.839844 100.417969 L 68.65625 100.417969 L 68.246094 100.394531 L 68.109375 100.394531 C 67.832031 100.394531 67.535156 100.441406 67.261719 100.511719 C 67.078125 99.457031 66.460938 98.472656 65.566406 97.785156 L 65.519531 97.761719 L 64.605469 97.144531 C 64.351562 96.960938 64.054688 96.777344 63.757812 96.640625 C 63.460938 96.503906 63.140625 96.410156 62.820312 96.34375 C 62.613281 96.296875 62.382812 96.273438 62.15625 96.273438 L 61.605469 96.273438 C 60.050781 96.273438 58.746094 97.464844 58.308594 98.058594 C 57.988281 98.472656 57.644531 98.863281 57.277344 99.25 C 56.890625 98.519531 56.316406 97.898438 55.609375 97.488281 L 54.691406 96.914062 C 54.394531 96.734375 54.074219 96.59375 53.730469 96.480469 C 53.410156 96.390625 53.089844 96.320312 52.746094 96.296875 C 52.65625 96.296875 52.539062 96.296875 52.449219 96.296875 C 52.335938 96.296875 52.195312 96.296875 52.105469 96.320312 L 51.898438 96.34375 L 51.511719 96.390625 C 50.136719 96.574219 49.105469 97.671875 48.601562 98.3125 L 48.558594 98.382812 C 48.328125 98.703125 48.097656 98.976562 47.894531 99.226562 L 47.296875 98.863281 L 45.101562 97.535156 C 48.328125 82.285156 54.097656 76.289062 57.257812 74.066406 C 57.554688 73.863281 57.804688 73.585938 58.011719 73.3125 C 60.394531 72.992188 65.863281 72.097656 69.917969 70.472656 C 70.625 70.199219 71.40625 70.199219 72.070312 70.519531 L 75.730469 72.214844 L 69.34375 75.648438 C 68.496094 76.128906 67.832031 76.839844 67.421875 77.707031 L 63.140625 86.773438 C 62.796875 87.484375 62.773438 88.308594 63.046875 89.039062 C 63.324219 89.773438 63.894531 90.34375 64.628906 90.664062 C 65.660156 91.078125 67.261719 91.605469 69 91.605469 C 70.695312 91.605469 72.207031 91.148438 73.511719 90.230469 C 75.410156 88.878906 76.785156 86.796875 77.675781 85.035156 L 77.792969 85.011719 C 78.707031 84.875 79.644531 84.597656 80.539062 84.234375 C 88.367188 89.476562 95.695312 97.671875 100.546875 103.417969 L 100.960938 103.921875 C 100.9375 104.21875 100.84375 104.539062 100.664062 104.675781 Z M 102.632812 102.363281 L 102.539062 102.363281 C 102.425781 102.226562 102.3125 102.089844 102.195312 101.953125 C 97.226562 96.070312 89.765625 87.734375 81.730469 82.355469 C 82.804688 81.300781 83.789062 80.113281 84.546875 78.808594 C 83.378906 79.996094 82.027344 80.960938 80.5625 81.761719 L 80.355469 81.875 C 79.1875 82.492188 78.136719 82.746094 77.472656 82.835938 C 77.609375 81.621094 77.65625 80.433594 77.632812 79.242188 C 77.242188 80.59375 76.761719 81.898438 76.167969 83.109375 L 76.074219 83.292969 C 75.320312 84.917969 74.058594 87.140625 72.230469 88.445312 C 69.894531 90.09375 66.984375 89.292969 65.453125 88.652344 C 65.269531 88.582031 65.132812 88.445312 65.0625 88.261719 C 64.996094 88.078125 64.996094 87.871094 65.085938 87.710938 L 69.367188 78.648438 C 69.574219 78.1875 69.9375 77.824219 70.375 77.570312 L 80.355469 72.007812 C 80.90625 71.710938 81.546875 71.617188 82.140625 71.753906 C 86.285156 72.738281 96.105469 74.800781 101.945312 73.632812 C 102.082031 73.769531 102.21875 73.886719 102.378906 74 C 105.46875 76.175781 111.035156 81.945312 114.308594 96.390625 C 112.339844 98.015625 108.308594 100.832031 102.632812 102.363281 Z M 128.363281 92.816406 C 128.363281 93.480469 128.042969 94.101562 127.515625 94.464844 L 119.320312 100.097656 C 118.792969 100.464844 118.105469 100.464844 117.558594 100.097656 C 117.121094 99.824219 116.894531 99.320312 116.871094 98.816406 L 116.800781 97.398438 L 116.78125 97.28125 C 113.4375 81.164062 107.210938 74.664062 103.683594 72.167969 C 103.226562 71.847656 103.273438 71.160156 103.800781 70.910156 L 114.558594 65.917969 C 115.359375 65.550781 116.320312 65.757812 116.894531 66.445312 C 124.585938 75.554688 128.339844 84.1875 128.363281 92.816406 Z M 128.363281 92.816406 " fill-opacity="1" fill-rule="nonzero"/><path fill="#ffffff" d="M 114.535156 65.941406 L 103.777344 70.929688 C 103.273438 71.160156 103.203125 71.871094 103.660156 72.191406 C 107.1875 74.664062 113.414062 81.164062 116.757812 97.304688 L 116.78125 97.417969 L 116.847656 98.839844 C 116.871094 99.34375 117.101562 99.847656 117.535156 100.121094 C 118.085938 100.488281 118.769531 100.488281 119.296875 100.121094 L 127.492188 94.488281 C 128.042969 94.121094 128.363281 93.503906 128.339844 92.839844 C 128.339844 84.210938 124.585938 75.578125 116.871094 66.492188 C 116.296875 65.78125 115.335938 65.574219 114.535156 65.941406 Z M 121.929688 90.070312 C 123.210938 90.070312 124.242188 91.101562 124.242188 92.382812 C 124.242188 93.664062 123.210938 94.695312 121.929688 94.695312 C 120.648438 94.695312 119.617188 93.664062 119.617188 92.382812 C 119.617188 91.101562 120.648438 90.070312 121.929688 90.070312 Z M 121.929688 90.070312 " fill-opacity="1" fill-rule="nonzero"/><path fill="#ffffff" d="M 76.371094 113.011719 C 76.507812 112.804688 76.601562 112.550781 76.625 112.253906 L 76.691406 111.429688 C 76.738281 110.835938 76.488281 110.195312 75.984375 109.714844 L 75.136719 108.84375 C 75 108.730469 74.863281 108.613281 74.722656 108.523438 C 74.5625 108.429688 74.402344 108.363281 74.242188 108.316406 C 74.128906 108.269531 74.015625 108.25 73.921875 108.25 C 73.898438 108.25 73.855469 108.25 73.832031 108.226562 L 73.441406 108.179688 C 72.894531 108.109375 72.070312 108.570312 71.703125 108.910156 C 69.757812 110.558594 68.128906 111.636719 65.980469 112.894531 C 67.742188 111.316406 69.550781 109.414062 71.335938 107.308594 C 71.382812 107.242188 71.449219 107.171875 71.472656 107.082031 C 71.585938 106.851562 71.65625 106.601562 71.679688 106.300781 L 71.703125 105.476562 C 71.703125 104.859375 71.40625 104.242188 70.878906 103.808594 L 69.917969 103.121094 C 69.777344 103.003906 69.640625 102.914062 69.480469 102.824219 C 69.320312 102.753906 69.160156 102.683594 69 102.640625 C 68.886719 102.617188 68.773438 102.59375 68.679688 102.59375 C 68.65625 102.59375 68.613281 102.59375 68.589844 102.59375 L 68.199219 102.570312 C 67.648438 102.546875 66.871094 103.050781 66.550781 103.441406 C 64.238281 106.050781 61.652344 107.746094 59.179688 109.554688 C 61.101562 107.746094 63.027344 105.523438 64.949219 103.003906 C 64.996094 102.9375 65.039062 102.867188 65.085938 102.777344 C 65.199219 102.546875 65.246094 102.273438 65.246094 102 L 65.222656 101.152344 C 65.199219 100.53125 64.855469 99.914062 64.332031 99.503906 L 63.414062 98.882812 C 63.277344 98.769531 63.117188 98.679688 62.957031 98.609375 C 62.796875 98.542969 62.613281 98.496094 62.453125 98.449219 C 62.339844 98.425781 62.222656 98.402344 62.132812 98.402344 C 62.109375 98.402344 62.0625 98.402344 62.042969 98.402344 L 61.652344 98.402344 C 61.101562 98.402344 60.347656 98.953125 60.050781 99.367188 C 58.355469 101.496094 56.476562 103.050781 54.601562 104.539062 C 54.851562 104.105469 55.128906 103.554688 55.609375 102.753906 C 55.652344 102.683594 55.675781 102.59375 55.699219 102.5 C 55.769531 102.25 55.792969 101.976562 55.746094 101.675781 L 55.609375 100.832031 C 55.492188 100.210938 55.082031 99.617188 54.507812 99.273438 L 53.617188 98.722656 C 53.457031 98.632812 53.296875 98.5625 53.136719 98.519531 C 52.976562 98.472656 52.792969 98.425781 52.632812 98.425781 C 52.515625 98.425781 52.402344 98.425781 52.3125 98.425781 C 52.289062 98.425781 52.265625 98.425781 52.21875 98.425781 L 51.832031 98.472656 C 51.304688 98.542969 50.6875 99.136719 50.367188 99.570312 C 49.199219 101.175781 48.398438 101.65625 47.433594 103.304688 C 47.230469 103.691406 47.34375 105.15625 47.847656 105.457031 L 49.722656 106.691406 C 50.34375 107.082031 50.890625 107.21875 51.351562 107.195312 C 51.097656 107.5625 51.167969 108.773438 51.625 109.140625 L 53.683594 110.859375 C 54.945312 111.886719 56.570312 111.339844 57.460938 110.902344 C 57.210938 111.292969 57.234375 112.4375 57.667969 112.78125 L 59.660156 114.589844 C 61.238281 115.984375 63.574219 114.773438 64.054688 114.496094 C 63.988281 114.980469 64.03125 115.550781 64.308594 115.824219 L 66.160156 117.75 C 67.832031 119.421875 70.695312 117.953125 70.695312 117.953125 C 73.234375 116.328125 73.535156 115.824219 76.234375 113.191406 C 76.257812 113.148438 76.304688 113.078125 76.371094 113.011719 Z M 76.371094 113.011719 " fill-opacity="1" fill-rule="nonzero"/><path fill="#29abe2" d="M 218.335938 60.332031 C 215.585938 56.679688 217.699219 54.765625 219.378906 55.128906 C 221.058594 55.488281 222.886719 55.273438 222.886719 55.273438 C 215.539062 50.066406 213.410156 55.394531 214.371094 56.859375 C 215.328125 58.324219 218.335938 60.332031 218.335938 60.332031 " fill-opacity="1" fill-rule="nonzero"/><path fill="#000000" d="M 212.019531 74.960938 C 212.019531 74.960938 217.015625 76.980469 213.371094 79.183594 C 213.371094 79.183594 214.699219 77.25 212.019531 74.960938 Z M 215.328125 76.644531 C 214.570312 75.3125 209.777344 72.25 207.910156 71.089844 C 207.46875 70.8125 206.886719 70.925781 206.574219 71.34375 C 203.21875 75.804688 207.886719 78.570312 210.960938 79.339844 C 214.199219 80.144531 216.273438 78.304688 215.328125 76.644531 " fill-opacity="1" fill-rule="nonzero"/><path fill="#000000" d="M 209.640625 81.386719 C 209.640625 81.386719 213.59375 82.984375 210.710938 84.722656 C 210.710938 84.722656 211.761719 83.195312 209.640625 81.386719 Z M 212.257812 82.71875 C 211.660156 81.664062 207.867188 79.238281 206.390625 78.320312 C 206.039062 78.101562 205.582031 78.191406 205.332031 78.519531 C 202.679688 82.050781 206.371094 84.238281 208.804688 84.847656 C 211.367188 85.488281 213.003906 84.03125 212.257812 82.71875 " fill-opacity="1" fill-rule="nonzero"/><path fill="#000000" d="M 218.695312 75.394531 C 218.695312 75.394531 220 72.566406 216.46875 70.164062 C 216.46875 70.164062 222.496094 72.992188 218.695312 75.394531 Z M 207.617188 69.277344 C 209.378906 70.742188 214.921875 75.226562 217.324219 75.863281 C 220.203125 76.628906 221.957031 73.84375 219.933594 71.601562 C 218.316406 69.808594 212.539062 66.726562 210.277344 65.558594 C 209.554688 65.183594 208.691406 65.160156 207.960938 65.523438 C 206.945312 66.027344 206.679688 66.777344 206.6875 67.433594 C 206.699219 68.152344 207.0625 68.816406 207.617188 69.277344 " fill-opacity="1" fill-rule="nonzero"/><path fill="#000000" d="M 222.789062 69.808594 C 222.789062 69.808594 224.164062 67.339844 221.035156 64.46875 C 221.035156 64.46875 226.1875 67.160156 222.789062 69.808594 Z M 211.382812 64.15625 C 213.753906 66.070312 219.226562 70.316406 221.417969 70.59375 C 224.253906 70.953125 225.839844 68.402344 224.207031 66.0625 C 222.863281 64.136719 216.734375 60.644531 214.597656 59.460938 C 214.023438 59.144531 213.359375 59.015625 212.710938 59.121094 C 211.601562 59.308594 210.964844 59.855469 210.609375 60.488281 C 209.917969 61.714844 210.289062 63.269531 211.382812 64.15625 " fill-opacity="1" fill-rule="nonzero"/><path fill="#000000" d="M 227.238281 59.761719 C 221.507812 63.652344 219.574219 57.601562 219.574219 57.601562 C 222.46875 60.972656 227.238281 59.761719 227.238281 59.761719 Z M 218.359375 56.769531 C 218.089844 58.65625 220.292969 63.234375 224.65625 61.976562 C 229.019531 60.71875 229.199219 58.835938 232.484375 56.769531 C 232.484375 56.769531 231.585938 54.167969 226.996094 55.511719 C 222.40625 56.859375 218.628906 54.886719 218.359375 56.769531 " fill-opacity="1" fill-rule="nonzero"/><g clip-path="url(#6d195e9abf)"><path fill="#29abe2" d="M 241.390625 89.132812 C 241.390625 89.132812 245.382812 83.296875 246.941406 77.734375 C 246.941406 77.734375 247.421875 83.253906 241.390625 89.132812 Z M 240.402344 65.925781 C 240.402344 65.925781 242.878906 62.023438 243.257812 59.148438 C 243.257812 59.148438 243.910156 62.964844 240.402344 65.925781 Z M 245.304688 64.859375 C 245.304688 64.859375 246.90625 69.519531 241.855469 71.988281 C 241.855469 71.988281 245.125 68.457031 245.304688 64.859375 Z M 246.65625 70.925781 C 246.65625 70.925781 248.457031 75.445312 243.011719 78.40625 C 243.011719 78.40625 246.679688 74.554688 246.65625 70.925781 Z M 216.714844 113.417969 C 216.714844 113.417969 211.675781 106.683594 215.996094 101.207031 C 220.3125 95.730469 234.441406 92.679688 234.441406 92.679688 C 218.335938 99.683594 216.714844 113.417969 216.714844 113.417969 Z M 247.449219 75.789062 C 246.6875 76.773438 245.859375 77.179688 245.859375 77.179688 C 249.789062 73.289062 246.683594 68.84375 246.683594 68.84375 C 246.171875 69.742188 245.289062 70.476562 245.289062 70.476562 C 248.769531 65.6875 244.632812 61.945312 244.632812 61.945312 C 244.152344 63.503906 242.96875 64.582031 242.96875 64.582031 C 242.96875 64.582031 245.214844 61.035156 243.957031 57.710938 C 242.695312 54.390625 235.902344 55.421875 231.628906 59.644531 C 227.355469 63.863281 223.847656 63.367188 223.847656 63.367188 C 223.90625 63.425781 223.960938 63.484375 224.015625 63.542969 C 224.464844 64.027344 225.675781 65.472656 225.890625 67.207031 C 225.9375 67.800781 225.871094 68.394531 225.710938 68.996094 C 224.71875 71.890625 221.617188 71.988281 221.617188 71.988281 C 221.617188 71.988281 222.835938 74.0625 221.304688 75.933594 C 219.773438 77.804688 216.757812 77.410156 216.757812 77.410156 C 216.757812 77.410156 217.386719 79.207031 215.722656 80.082031 C 214.058594 80.957031 211.574219 88.460938 211.144531 95.648438 L 211.144531 95.644531 C 210.152344 107.511719 216.199219 121.140625 216.199219 121.140625 C 216.199219 121.140625 222.769531 100.402344 232.484375 95.824219 C 242.203125 91.242188 244.453125 87.070312 246.835938 83.074219 C 249.21875 79.078125 247.449219 75.789062 247.449219 75.789062 " fill-opacity="1" fill-rule="nonzero"/></g><g clip-path="url(#ad8ca5ad69)"><path fill="#000000" d="M 241.085938 116.679688 C 239.726562 106.386719 230.449219 101.417969 230.449219 101.417969 C 230.449219 101.417969 235.335938 97.109375 239.230469 103.304688 C 243.128906 109.496094 241.085938 116.679688 241.085938 116.679688 Z M 234.222656 95.972656 C 229.398438 97.945312 227.296875 101.835938 227.296875 101.835938 C 237.34375 105.757812 240.601562 121.140625 240.601562 121.140625 C 249.507812 108.75 242.015625 91.363281 242.015625 91.363281 C 242.015625 91.363281 239.046875 93.996094 234.222656 95.972656 " fill-opacity="1" fill-rule="nonzero"/></g></svg>