<svg xmlns="http://www.w3.org/2000/svg" width="997" height="238" version="1.0" viewBox="0 0 747.75 178.5"><defs><clipPath id="a"><path d="M653.871 54.941h70.324v61.352h-70.324Zm0 0"/></clipPath><clipPath id="b"><path d="M22.664 31.922h114.469V146.39H22.664Zm0 0"/></clipPath><clipPath id="c"><path d="M211 55h38v66.145h-38Zm0 0"/></clipPath><clipPath id="d"><path d="M227 91h18v30.145h-18Zm0 0"/></clipPath></defs><path d="M181.074 59.636 167.25 73.461c-.414.414-.992-.168-.828-.583l4.805-6.87c-1.492-5.958-6.625-10.262-13.164-10.262-7.203 0-12.996 5.793-12.996 13.16v32.781a12.963 12.963 0 0 0 12.996 12.996c4.304 0 7.535-1.656 10.43-4.8l6.042-6.294 7.368 7.368c5.214 5.132 13.492 5.132 18.543 0 5.214-5.13 5.214-13.41 0-18.625l-7.368-7.368 6.54-6.703c5.214-5.215 5.214-13.496 0-18.625-5.047-5.133-13.329-5.133-18.544 0ZM278.58 55.082c-16.39 0-30.05 13.574-30.05 30.132 0 16.637 13.66 29.965 30.05 29.965 16.637 0 30.215-13.328 30.215-29.965 0-16.558-13.578-30.132-30.215-30.132Zm0 26.988c1.739 0 3.227 1.238 3.227 3.144 0 1.739-1.488 3.227-3.227 3.227-1.488 0-2.98-1.488-2.98-3.227 0-1.906 1.492-3.144 2.98-3.144Zm0 0"/><path d="M363.592 68.906c0-7.285-6.043-13.078-13.41-13.078h-17.965c-23.922-.25-27.649 26.738-11.422 35.261 2.152 1.079 4.55 1.989 6.871 2.153.66.25.496 1.078-.168 1.078-3.89 0-8.195-1.078-11.422-3.23-3.644 2.652-5.215 5.96-5.215 10.433 0 5.875 6.125 13.242 13.16 13.242h18.13c26.242 0 28.144-32.449 6.042-37.5-.664-.164-.414-1.074.25-1.074 3.309.246 6.54 1.074 9.27 2.648 3.89-1.988 5.879-5.628 5.879-9.933Zm0 0"/><path d="m402.078 59.636-13.825 13.825c-.414.414-.992-.168-.828-.583l4.805-6.87c-1.492-5.958-6.625-10.262-13.164-10.262-7.203 0-12.996 5.793-12.996 13.16v32.781a12.963 12.963 0 0 0 12.996 12.996c4.305 0 7.535-1.656 10.43-4.8l6.043-6.294 7.367 7.368c5.215 5.132 13.492 5.132 18.543 0 5.215-5.13 5.215-13.41 0-18.625l-7.367-7.368 6.539-6.703c5.214-5.215 5.214-13.496 0-18.625-5.047-5.133-13.328-5.133-18.543 0ZM456.71 55.082c-16.391 0-30.052 13.574-30.052 30.132 0 16.637 13.66 29.965 30.051 29.965 16.637 0 30.215-13.328 30.215-29.965 0-16.558-13.578-30.132-30.215-30.132Zm0 26.988c1.737 0 3.226 1.238 3.226 3.144 0 1.739-1.489 3.227-3.227 3.227-1.488 0-2.98-1.488-2.98-3.227 0-1.906 1.492-3.144 2.98-3.144ZM502.896 115.261c7.286 0 13.328-6.207 13.328-13.492v-6.703c0-.664.579-.828.829-.168l1.488 8.113c13.246.414 24.172-10.347 24.172-23.508 0-13.082-10.348-23.593-23.508-23.593h-16.309c-7.699 0-13.742 6.043-13.742 13.41v32.45c0 7.534 6.043 13.491 13.742 13.491Zm14.57-38.824c1.739 0 3.227 1.328 3.227 3.066 0 1.739-1.488 3.227-3.226 3.227-.414 0-.828-.164-1.243-.414v-5.711c.415-.168.829-.168 1.243-.168ZM551.402 113.609c6.539 3.062 14.32.328 17.465-6.211l2.484-5.379-2.234-9.273c-.086-.578.496-.66.66-.332l7.12 14.984c3.063 6.54 10.845 9.273 17.384 6.211 6.539-3.066 9.27-10.93 6.207-17.305l-15.809-33.277c-4.8-10.098-19.125-9.934-23.84.086l-15.648 33.191c-3.063 6.375-.328 14.239 6.21 17.305ZM603.383 85.046c0 16.477 13.41 29.555 29.801 29.555h11.754c6.539 0 12.996-6.293 12.996-12.914v-6.953c0-5.961-3.809-10.926-8.941-12.5-.497-.25-.497-.25-.497-.664 0-.164 0-.414.497-.414 5.382-1.653 9.187-6.29 9.187-12.582 0-6.953-5.957-12.664-13.242-12.664H633.43c-16.39 0-30.047 12.664-30.047 29.136Zm28.477 6.211v-5.96c0-2.07 1.156-3.477 3.308-3.477h5.383c.578 0 .828.828.164.992-3.726 1.574-6.293 4.719-7.699 8.61-.332.664-1.156.414-1.156-.165ZM690.214 55.082c-16.391 0-30.051 13.574-30.051 30.132 0 16.637 13.66 29.965 30.05 29.965 16.637 0 30.215-13.328 30.215-29.965 0-16.558-13.578-30.132-30.214-30.132Zm0 26.988c1.738 0 3.226 1.238 3.226 3.144 0 1.739-1.488 3.227-3.226 3.227-1.489 0-2.981-1.488-2.981-3.227 0-1.906 1.492-3.144 2.98-3.144Zm0 0"/><g clip-path="url(#a)"><path fill="#67c6e8" d="M691.14 93.586c-1.644-1.082-1.109-3.828 1.688-2.793 2.8 1.035 2.3 6.289 1.266 7.746-1.035 1.453-5.407 1.453-5.407 1.453 2.188-2.719 4.106-5.328 2.454-6.406Zm4.65-5.211s2.37 1.277 2.92 5.02c.552 3.742-2.273 5.398-2.273 5.398-1.937-2.563.844-4.148-.792-6.512-1.641-2.363.144-3.906.144-3.906Zm3.503-1.723s2.414 1.188 3.105 4.907c.692 3.718-2.07 5.484-2.07 5.484-2.031-2.492.692-4.18-1.035-6.48-1.723-2.301 0-3.91 0-3.91Zm6.187 5.328c-.343 2.493-1.761 2.454-1.761 2.454s-.383-4.446-1.074-6.211c-.692-1.762 3.183 1.265 2.835 3.757Zm-11.757-9.765c2.488.898 4.129-.305 4.945-1.207a2.134 2.134 0 0 1 1.797-.707c17.601 1.715 22.492-4.332 23.73-11.633-1.09 1.754-2.824 4.047-5.242 5.77-4.469-11.41-15.57-19.493-28.562-19.493-14.387 0-26.453 9.907-29.766 23.27 6.883-1.63 14.559 1.097 19.438.347 7.476-1.148 7.648-5.808 12.308-3.046 4.656 2.761 7.313.543 6.863 1.742 0 0-.96 4.754-5.906 2.992-4.945-1.762-6.21-.844-8.816 1.305-2.61 2.144-6.52 5.597-11.426 7.82 0 0-15.059-1.156-19.219 13.668a25.02 25.02 0 0 1 8.082-5.945c4.543 11.25 15.563 19.191 28.442 19.191 14.55 0 26.722-10.133 29.87-23.723-6.874 2.047-14.03.891-14.03.891 1.41-3.652-.836-6.21-2.2-6.672-1.36-.457-2.46.52-2.46.52s-1.813-2.098-3.25-1.582c-1.438.515-1.063 1.976-1.063 1.976-3.707-.93-3.883 2.106-3.883 2.106-3.707-1.293-5.863 2.07-3.879 3.78 1.98 1.708-.52 5.134-1.613 5.74-1.09.6-3.594-.923-3.594-.923 1.258-1.277 3.902-3.851 3.594-4.16-.305-.305-2.301 2.262-4.332 3.223-2.031.957-3.336-1.113-3.336-1.113s6.633-4.446 6.672-5.098c.039-.652-2.11 1.457-5.79 3.758-3.679 2.297-5.097-1.426-5.097-1.426 3.68-1.313 8.473-4.75 8.395-5.477-.079-.73-5.329 3.528-8.012 4.41-2.684.88-3.297-1.23-3.297-1.23s6.824-4.215 11.156-7.894c4.332-3.68 5.742-2.532 9.48-1.18"/></g><g clip-path="url(#b)"><path fill="#67c6e8" d="M79.898 146.39c-31.617 0-57.234-25.62-57.234-57.234 0-31.617 25.617-57.234 57.234-57.234 31.618 0 57.235 25.617 57.235 57.234 0 31.614-25.617 57.235-57.235 57.235Zm0 0"/></g><path fill="#fff" d="M100.547 103.371c-4.852-5.746-12.18-13.941-20.008-19.183-.894.39-1.832.64-2.746.777l-.117.023c-.89 1.762-2.266 3.848-4.164 5.196-1.282.918-2.793 1.375-4.512 1.375-1.738 0-3.34-.504-4.371-.938a2.84 2.84 0 0 1-1.582-1.625 2.9 2.9 0 0 1 .094-2.27l4.28-9.062a4.628 4.628 0 0 1 1.923-2.062l6.363-3.547-3.66-1.696a2.814 2.814 0 0 0-2.152-.046c-4.032 1.648-9.5 2.519-11.907 2.84-.207.296-.433.55-.754.753-3.16 2.223-8.93 8.242-12.156 23.469l2.195 1.328.598.363c.203-.25.434-.523.664-.843l.043-.07c.504-.641 1.535-1.739 2.91-1.923l.387-.046.207-.024c.094 0 .207-.023.344-.023h.297c.343.023.664.093.984.183.367.114.664.254.961.434l.918.574c.707.41 1.281 1.055 1.672 1.762a46.2 46.2 0 0 0 1.027-1.192c.438-.57 1.742-1.761 3.297-1.785h.55c.231 0 .458.047.665.07.344.067.64.16.937.297.32.137.598.297.848.504l.914.618.047.023c.894.688 1.512 1.672 1.695 2.727.274-.07.57-.118.848-.118h.137l.41.024h.183c.23.023.438.047.664.113.32.094.618.184.918.344.297.16.57.32.825.527l.96.711.047.047c1.028.844 1.625 2.105 1.625 3.387v.527l.387.043c.23.047.438.094.64.16.321.117.622.23.895.39.32.184.594.391.848.641l.89.918c.965.914 1.446 2.196 1.329 3.457l-.067.825a3.99 3.99 0 0 1-.62 1.761c-.114.184-.25.344-.387.48-.528.528-.938.915-1.282 1.282-.23.23-.437.434-.64.64l.547.344 2.77 1.145s1.284.438 2.335.71a2.612 2.612 0 0 0 2.242-.433l.621-.757c.297-.504.547-1.282 0-1.649-2.75-1.832-4.097-3.09-5.289-4.281 0 0 .09-1.328 1.235-.41 1.125.914.23.96 2.953 2.586a71.627 71.627 0 0 0 3.87 1.992 2.22 2.22 0 0 0 2.313-.23l1.098-1.098c.504-.735.434-1.762-.184-2.223-2.976-2.195-3.363-2.539-5.468-4.602 0 0 .203-1.53 1.578-.433 1.328 1.078.273 1.168 3.433 3.09.938.504 1.899.96 3.09 1.422.664.25 1.399.203 1.969-.23l1.238-1.352c.457-.73-.094-1.97-.48-2.356-.14-.14-.184-.23-.574-.55-2.954-2.45-6.157-5.38-7.922-7.442 0 0 .343-1.555 1.765-.184 1.305 1.262.32 1.282 2.93 3.254a116.105 116.105 0 0 0 4.691 3.18c.758.48 1.766.48 2.496-.024l1.536-1.464c.203-.137.296-.457.32-.801Zm0 0"/><path d="M37.727 90.07a2.307 2.307 0 0 0-2.313 2.313 2.307 2.307 0 0 0 2.313 2.312 2.305 2.305 0 0 0 2.312-2.312c.023-1.281-1.027-2.313-2.312-2.313Zm0 0"/><path fill="#fff" d="M42.902 97.305c3.344-16.118 9.57-22.618 13.094-25.114a.727.727 0 0 0-.113-1.261L45.12 65.94a1.967 1.967 0 0 0-2.332.528c-7.715 9.086-11.473 17.719-11.473 26.347 0 .664.32 1.286.848 1.649l8.195 5.633c.528.367 1.215.367 1.766 0 .434-.274.664-.778.684-1.282l.07-1.418Zm-5.175-2.586a2.307 2.307 0 0 1-2.313-2.313 2.307 2.307 0 0 1 2.313-2.312 2.305 2.305 0 0 1 2.312 2.312c.023 1.258-1.027 2.313-2.312 2.313ZM102.426 73.977a3.264 3.264 0 0 1-.434-.368c-5.84 1.168-15.66-.87-19.805-1.875a2.528 2.528 0 0 0-1.785.25l-9.98 5.563c-.438.254-.805.617-1.008 1.078l-4.281 9.066a.64.64 0 0 0-.024.547c.067.184.207.32.387.39 1.535.642 4.442 1.442 6.777-.206 1.832-1.281 3.09-3.504 3.848-5.152l.09-.18a23.288 23.288 0 0 0 1.465-3.871 23.064 23.064 0 0 1-.16 3.594c.664-.09 1.718-.344 2.886-.961l.207-.114c1.465-.8 2.813-1.742 3.98-2.953-.753 1.305-1.737 2.496-2.816 3.547 8.04 5.379 15.5 13.715 20.47 19.598.112.136.23.273.343.41h.09c5.68-1.531 9.707-4.371 11.699-6.02-3.297-14.398-8.86-20.168-11.95-22.343Zm0 0"/><path d="M121.93 90.07a2.307 2.307 0 0 0-2.313 2.313 2.307 2.307 0 0 0 2.313 2.312 2.307 2.307 0 0 0 2.312-2.312c.024-1.281-1.031-2.313-2.312-2.313Zm0 0"/><path d="M118.543 65.047a4.151 4.151 0 0 0-4.922-1.074L102.86 68.96a2.93 2.93 0 0 0-1.671 2.383v.207c-.938.16-2.06.226-3.34.226-5.52 0-12.434-1.507-15.157-2.152a4.433 4.433 0 0 0-1.078-.137c-.8 0-1.578.207-2.289.598l-1.258.707-5.105-2.356c-.617-.3-1.328-.437-2.04-.437-.64 0-1.257.117-1.85.367-3.481 1.399-8.106 2.223-10.669 2.61a2.945 2.945 0 0 0-1.605-1.993l-10.758-4.988a4.167 4.167 0 0 0-1.742-.39c-1.211 0-2.379.527-3.18 1.464-8.035 9.5-11.972 18.567-11.972 27.746 0 1.375.664 2.68 1.808 3.457l8.195 5.633a3.659 3.659 0 0 0 2.106.664c.73 0 1.465-.23 2.082-.64.734-.48 1.262-1.239 1.512-2.082l1.28.777.321.207c-.297.387-.64.867-.984 1.465-.684 1.281-.434 4.004 1.144 5.012l1.88 1.238c.183.113.366.226.57.32.16.778.527 1.488 1.125 1.969l2.058 1.715a4.88 4.88 0 0 0 3.067 1.054h.207c.16.297.367.57.64.801l1.992 1.809c.895.777 2.04 1.191 3.274 1.191.414 0 .824-.047 1.215-.113.023.02 1.922 1.988 1.922 1.988.937.942 2.199 1.446 3.64 1.446 1.739 0 3.25-.735 3.434-.825l.094-.047.09-.07a21.216 21.216 0 0 0 2.335-1.648l1.211.758 3 1.257.07.024c.047.023 1.352.457 2.473.754.41.117.824.16 1.258.16 1.008 0 2.04-.344 2.863-.938l.297-.207 1.008-1.441.043-.067c.07-.14.14-.277.207-.39a4.387 4.387 0 0 0 4.145-.594l.16-.117 1.625-1.691.093-.16c.274-.415.48-.872.594-1.352.207.023.39.043.594.043.894 0 1.766-.274 2.473-.824l.16-.114 1.742-1.875.113-.16c.528-.805.594-1.719.457-2.59a4.159 4.159 0 0 0 1.606-.687l.136-.09 1.602-1.535c.57-.48.871-1.145.984-1.809l.137-.043c5.2-1.422 9.137-3.87 11.469-5.61v.067c.047 1.239.687 2.36 1.648 3a3.78 3.78 0 0 0 2.086.64 3.63 3.63 0 0 0 2.106-.663l8.195-5.633a4.19 4.19 0 0 0 1.809-3.434c0-9.18-3.914-18.246-11.973-27.77ZM42.832 98.84c-.023.504-.25 1.008-.684 1.281-.55.367-1.238.367-1.765 0l-8.196-5.633a1.893 1.893 0 0 1-.847-1.648c0-8.63 3.754-17.262 11.469-26.348a1.974 1.974 0 0 1 2.336-.527l10.761 4.988c.504.23.57.942.114 1.262-3.524 2.472-9.754 8.972-13.094 25.113l-.024.113Zm27.816 19.113s-2.859 1.469-4.53-.203l-1.856-1.926c-.274-.25-.32-.844-.25-1.328-.461.277-2.793 1.469-4.399.094l-1.992-1.809c-.434-.344-.457-1.488-.203-1.879-.895.438-2.52.985-3.777-.043l-2.063-1.718c-.457-.344-.527-1.555-.273-1.946-.457 0-1.008-.113-1.625-.504l-1.88-1.234c-.503-.3-.616-1.766-.41-2.152.962-1.649 1.762-2.13 2.93-3.735.344-.433.938-1.027 1.465-1.097l.39-.047H52.586c.161.023.321.047.505.094.16.043.32.113.48.203l.895.55c.57.344.984.918 1.097 1.559l.137.844c.047.3.024.574-.047.824-.023.094-.066.16-.09.254-.48.8-.753 1.351-1.007 1.785 1.879-1.488 3.754-3.043 5.449-5.172.297-.39 1.05-.965 1.601-.965h.481c.117 0 .23.024.32.047.16.024.32.094.504.16.16.07.297.16.457.274l.918.62c.55.411.871 1.028.89 1.65l.024.847c0 .297-.043.547-.16.777-.043.09-.09.16-.137.227-1.922 2.52-3.847 4.742-5.77 6.55 2.473-1.808 5.04-3.503 7.372-6.113.32-.39 1.101-.894 1.648-.87l.391.023h.09c.117 0 .23.023.32.047.16.043.324.09.484.183.16.067.297.18.434.297l.961.688c.527.433.824 1.05.824 1.668l-.023.824a1.5 1.5 0 0 1-.207.781c-.043.066-.09.16-.137.227-1.809 2.105-3.594 4.007-5.355 5.586 2.152-1.258 3.777-2.336 5.722-3.985.367-.34 1.192-.8 1.739-.73l.39.047c.024 0 .07 0 .094.023.113.02.226.043.32.066.16.047.32.114.48.207.16.09.298.184.41.32l.849.872c.503.457.753 1.097.71 1.715l-.07.824a1.776 1.776 0 0 1-.25.758c-.047.066-.117.136-.16.203-2.656 2.633-2.953 3.113-5.52 4.738Zm30.016-13.277-1.535 1.465c-.754.504-1.742.527-2.496.023-1.578-1.008-3.16-2.105-4.692-3.18-2.609-1.968-1.625-1.992-2.933-3.254-1.418-1.37-1.762.184-1.762.184 1.762 2.063 4.969 4.992 7.922 7.441.39.32.434.391.574.551.387.41.938 1.649.48 2.356l-1.238 1.351c-.57.434-1.304.48-1.968.23-1.192-.48-2.153-.917-3.09-1.421-3.16-1.899-2.106-1.992-3.434-3.09-1.375-1.098-1.582.434-1.582.434 2.11 2.062 2.496 2.382 5.473 4.601.617.461.687 1.488.183 2.223l-1.097 1.097c-.664.504-1.559.575-2.313.231a77.937 77.937 0 0 1-3.87-1.992c-2.724-1.625-1.833-1.672-2.954-2.586-1.144-.918-1.234.41-1.234.41 1.191 1.191 2.539 2.45 5.289 4.281.547.367.273 1.145 0 1.649l-.621.757c-.641.481-1.465.641-2.243.434-1.054-.273-2.335-.71-2.335-.71l-2.77-1.145-.55-.344c.206-.203.413-.41.644-.64.34-.344.754-.755 1.281-1.282.137-.16.273-.32.387-.48.343-.528.574-1.098.62-1.762l.067-.824c.113-1.262-.387-2.543-1.328-3.457l-.89-.918a5.075 5.075 0 0 0-.848-.641 4.083 4.083 0 0 0-.895-.39c-.203-.067-.433-.114-.64-.16l-.387-.044v-.527c.02-1.258-.598-2.543-1.629-3.387l-.043-.047-.96-.71a4.251 4.251 0 0 0-.825-.528 6.81 6.81 0 0 0-.918-.344 6.523 6.523 0 0 0-.664-.113h-.184l-.41-.023h-.137a3.49 3.49 0 0 0-.847.117c-.184-1.055-.801-2.04-1.696-2.727l-.046-.023-.915-.617a5.218 5.218 0 0 0-.847-.504 4.364 4.364 0 0 0-.938-.297 3.062 3.062 0 0 0-.664-.07h-.55c-1.555 0-2.86 1.19-3.297 1.785-.32.414-.664.804-1.032 1.191a4.418 4.418 0 0 0-1.668-1.762l-.918-.574a4.656 4.656 0 0 0-.96-.434c-.32-.09-.641-.16-.985-.183h-.297c-.113 0-.254 0-.344.023l-.207.024-.386.047c-1.375.183-2.407 1.28-2.91 1.921l-.043.07c-.23.321-.461.595-.664.845l-.598-.364-2.195-1.328c3.226-15.25 8.996-21.246 12.156-23.469.297-.203.547-.48.754-.754 2.383-.32 7.851-1.214 11.906-2.84.707-.273 1.488-.273 2.152.048l3.66 1.695-6.386 3.433a4.639 4.639 0 0 0-1.922 2.059l-4.281 9.066a2.892 2.892 0 0 0-.094 2.266c.277.734.848 1.305 1.582 1.625 1.031.414 2.633.941 4.371.941 1.695 0 3.207-.457 4.512-1.375 1.898-1.351 3.273-3.433 4.164-5.195l.117-.023a12.198 12.198 0 0 0 2.746-.778c7.828 5.243 15.156 13.438 20.008 19.184l.414.504c-.023.297-.117.617-.297.754Zm1.969-2.313h-.094a31.88 31.88 0 0 0-.344-.41c-4.968-5.883-12.43-14.219-20.465-19.598 1.075-1.054 2.06-2.242 2.817-3.546-1.168 1.187-2.52 2.152-3.984 2.953l-.208.113c-1.168.617-2.218.871-2.882.96.136-1.214.183-2.401.16-3.593-.39 1.352-.871 2.656-1.465 3.867l-.094.184c-.754 1.625-2.015 3.848-3.844 5.152-2.335 1.649-5.246.848-6.777.207a.665.665 0 0 1-.39-.39.674.674 0 0 1 .023-.551l4.281-9.063c.207-.46.57-.824 1.008-1.078l9.98-5.562a2.571 2.571 0 0 1 1.786-.254c4.144.984 13.964 3.047 19.804 1.879.137.137.274.254.434.367 3.09 2.176 8.656 7.945 11.93 22.39-1.97 1.626-6 4.442-11.676 5.973Zm25.73-9.547c0 .664-.32 1.286-.847 1.649l-8.196 5.633a1.546 1.546 0 0 1-1.761 0c-.438-.274-.664-.778-.688-1.282l-.07-1.418-.02-.117c-3.344-16.117-9.57-22.617-13.097-25.113a.724.724 0 0 1 .117-1.258l10.758-4.992c.8-.367 1.761-.16 2.336.527 7.69 9.11 11.445 17.743 11.468 26.371Zm0 0"/><path fill="#fff" d="m114.535 65.941-10.758 4.989c-.504.23-.574.941-.117 1.261 3.528 2.473 9.754 8.973 13.098 25.114l.023.113.067 1.422c.023.504.254 1.008.687 1.281.55.367 1.235.367 1.762 0l8.195-5.633c.551-.367.871-.984.848-1.648 0-8.63-3.754-17.262-11.469-26.348a1.95 1.95 0 0 0-2.336-.55Zm7.395 24.13a2.307 2.307 0 0 1 2.312 2.312 2.307 2.307 0 0 1-2.312 2.312 2.307 2.307 0 0 1-2.313-2.312 2.307 2.307 0 0 1 2.313-2.313ZM76.371 113.012c.137-.207.23-.461.254-.758l.066-.824c.047-.594-.203-1.235-.707-1.715l-.847-.871c-.137-.114-.274-.23-.414-.32-.16-.094-.32-.16-.48-.208a.855.855 0 0 0-.321-.066c-.024 0-.067 0-.09-.023l-.39-.047c-.547-.07-1.372.39-1.739.73-1.945 1.649-3.574 2.727-5.723 3.985 1.762-1.579 3.57-3.48 5.356-5.586.047-.067.113-.137.137-.227.113-.23.183-.48.207-.781l.023-.824c0-.618-.297-1.235-.824-1.668l-.961-.688a2.78 2.78 0 0 0-.438-.297c-.16-.07-.32-.14-.48-.183-.113-.024-.227-.047-.32-.047h-.09l-.39-.024c-.552-.023-1.329.48-1.65.871-2.312 2.61-4.898 4.305-7.37 6.114 1.922-1.809 3.847-4.032 5.77-6.551.046-.067.09-.137.136-.227.113-.23.16-.504.16-.777l-.023-.848c-.024-.62-.368-1.238-.891-1.648l-.918-.621a1.942 1.942 0 0 0-.457-.274c-.16-.066-.344-.113-.504-.16a1.762 1.762 0 0 0-.32-.047h-.48c-.551 0-1.305.551-1.602.965-1.696 2.13-3.574 3.684-5.45 5.172.25-.434.528-.984 1.008-1.785a.925.925 0 0 0 .09-.254c.07-.25.094-.523.047-.824l-.137-.844a2.376 2.376 0 0 0-1.101-1.559l-.89-.55c-.161-.09-.321-.16-.481-.203a1.909 1.909 0 0 0-.504-.094H52.219l-.387.047c-.527.07-1.145.664-1.465 1.097-1.168 1.606-1.969 2.086-2.933 3.735-.204.386-.09 1.851.414 2.152l1.875 1.234c.62.391 1.168.528 1.629.504-.254.368-.184 1.578.273 1.946l2.059 1.718c1.261 1.028 2.886.48 3.777.043-.25.391-.227 1.535.207 1.88l1.992 1.808c1.578 1.394 3.914.183 4.395-.094-.067.484-.024 1.055.254 1.328l1.851 1.926c1.672 1.672 4.535.203 4.535.203 2.54-1.625 2.84-2.129 5.54-4.762a.835.835 0 0 1 .136-.18Zm0 0"/><path fill="#29abe2" d="M218.336 60.332c-2.75-3.652-.637-5.566 1.043-5.203 1.68.36 3.508.144 3.508.144-7.348-5.207-9.477.122-8.516 1.586.957 1.465 3.965 3.473 3.965 3.473"/><path d="M212.02 74.96s4.996 2.02 1.351 4.224c0 0 1.328-1.934-1.351-4.223Zm3.308 1.685c-.758-1.332-5.55-4.395-7.418-5.555a1.004 1.004 0 0 0-1.336.254c-3.355 4.46 1.313 7.226 4.387 7.996 3.238.805 5.312-1.035 4.367-2.695M209.64 81.387s3.954 1.597 1.07 3.336c0 0 1.052-1.528-1.07-3.336Zm2.618 1.332c-.598-1.055-4.39-3.48-5.867-4.399a.8.8 0 0 0-1.059.2c-2.652 3.53 1.04 5.718 3.473 6.328 2.562.64 4.199-.817 3.453-2.13M218.695 75.395s1.305-2.829-2.226-5.23c0 0 6.027 2.827 2.226 5.23Zm-11.078-6.118c1.762 1.465 7.305 5.95 9.707 6.586 2.88.766 4.633-2.02 2.61-4.261-1.618-1.793-7.395-4.875-9.657-6.043a2.562 2.562 0 0 0-2.316-.036c-1.016.504-1.281 1.254-1.274 1.91.012.72.375 1.383.93 1.844M222.79 69.809s1.374-2.47-1.755-5.34c0 0 5.153 2.691 1.754 5.34Zm-11.407-5.653c2.37 1.914 7.844 6.16 10.035 6.438 2.836.36 4.422-2.192 2.789-4.531-1.344-1.926-7.473-5.418-9.61-6.602a2.94 2.94 0 0 0-1.886-.34c-1.11.188-1.746.734-2.102 1.367-.691 1.227-.32 2.782.774 3.668M227.238 59.762c-5.73 3.89-7.664-2.16-7.664-2.16 2.895 3.37 7.664 2.16 7.664 2.16Zm-8.879-2.992c-.27 1.886 1.934 6.464 6.297 5.207 4.364-1.258 4.543-3.141 7.828-5.207 0 0-.898-2.602-5.488-1.258-4.59 1.347-8.367-.625-8.637 1.258"/><g clip-path="url(#c)"><path fill="#29abe2" d="M241.39 89.133s3.993-5.836 5.551-11.399c0 0 .48 5.52-5.55 11.399Zm-.988-23.207s2.477-3.903 2.856-6.778c0 0 .652 3.817-2.856 6.778Zm4.903-1.067s1.601 4.66-3.45 7.13c0 0 3.27-3.532 3.45-7.13Zm1.351 6.067s1.801 4.52-3.644 7.48c0 0 3.668-3.851 3.644-7.48Zm-29.941 42.492s-5.04-6.734-.719-12.211c4.316-5.477 18.445-8.527 18.445-8.527-16.105 7.004-17.726 20.738-17.726 20.738Zm30.734-37.629c-.762.984-1.59 1.39-1.59 1.39 3.93-3.89.825-8.335.825-8.335-.512.898-1.395 1.633-1.395 1.633 3.48-4.79-.656-8.532-.656-8.532-.48 1.559-1.664 2.637-1.664 2.637s2.246-3.547.988-6.871c-1.262-3.32-8.055-2.29-12.328 1.934-4.274 4.218-7.781 3.722-7.781 3.722.058.059.113.117.168.176.449.484 1.66 1.93 1.875 3.664a5.29 5.29 0 0 1-.18 1.79c-.992 2.894-4.094 2.991-4.094 2.991s1.219 2.075-.312 3.946c-1.532 1.87-4.547 1.476-4.547 1.476s.629 1.797-1.035 2.672c-1.664.875-4.149 8.379-4.578 15.566v-.003c-.993 11.867 5.054 25.496 5.054 25.496s6.57-20.739 16.285-25.317c9.72-4.582 11.97-8.754 14.352-12.75 2.383-3.996.613-7.285.613-7.285"/></g><g clip-path="url(#d)"><path d="M241.086 116.68c-1.36-10.293-10.637-15.262-10.637-15.262s4.887-4.309 8.781 1.887c3.899 6.191 1.856 13.375 1.856 13.375Zm-6.863-20.707c-4.825 1.972-6.926 5.863-6.926 5.863 10.047 3.922 13.305 19.305 13.305 19.305 8.906-12.391 1.414-29.778 1.414-29.778s-2.97 2.633-7.793 4.61"/></g></svg>