<svg xmlns="http://www.w3.org/2000/svg" xmlns:xlink="http://www.w3.org/1999/xlink" width="997" zoomAndPan="magnify" viewBox="0 0 747.75 178.499995" height="238" preserveAspectRatio="xMidYMid meet" version="1.0"><defs><g/><clipPath id="ced37f1e81"><path d="M 382 78 L 392 78 L 392 90 L 382 90 Z M 382 78 " clip-rule="nonzero"/></clipPath><clipPath id="30bf1c321a"><path d="M 377.703125 68.972656 L 449.148438 61.59375 L 452.988281 98.804688 L 381.546875 106.183594 Z M 377.703125 68.972656 " clip-rule="nonzero"/></clipPath><clipPath id="d5d72feec3"><path d="M 377.703125 68.972656 L 449.148438 61.59375 L 452.988281 98.804688 L 381.546875 106.183594 Z M 377.703125 68.972656 " clip-rule="nonzero"/></clipPath><clipPath id="8b8fa00a63"><path d="M 377.703125 68.972656 L 449.148438 61.59375 L 452.988281 98.804688 L 381.546875 106.183594 Z M 377.703125 68.972656 " clip-rule="nonzero"/></clipPath><clipPath id="0d246c84aa"><path d="M 379 75 L 390 75 L 390 92 L 379 92 Z M 379 75 " clip-rule="nonzero"/></clipPath><clipPath id="8b4ef89ae5"><path d="M 377.703125 68.972656 L 449.148438 61.59375 L 452.988281 98.804688 L 381.546875 106.183594 Z M 377.703125 68.972656 " clip-rule="nonzero"/></clipPath><clipPath id="80c940a191"><path d="M 377.703125 68.972656 L 449.148438 61.59375 L 452.988281 98.804688 L 381.546875 106.183594 Z M 377.703125 68.972656 " clip-rule="nonzero"/></clipPath><clipPath id="2ed68511f1"><path d="M 377.703125 68.972656 L 449.148438 61.59375 L 452.988281 98.804688 L 381.546875 106.183594 Z M 377.703125 68.972656 " clip-rule="nonzero"/></clipPath><clipPath id="a66997ff4e"><path d="M 386 69 L 450 69 L 450 103 L 386 103 Z M 386 69 " clip-rule="nonzero"/></clipPath><clipPath id="54339bbdaa"><path d="M 377.703125 68.972656 L 449.148438 61.59375 L 452.988281 98.804688 L 381.546875 106.183594 Z M 377.703125 68.972656 " clip-rule="nonzero"/></clipPath><clipPath id="71b7b3e029"><path d="M 377.703125 68.972656 L 449.148438 61.59375 L 452.988281 98.804688 L 381.546875 106.183594 Z M 377.703125 68.972656 " clip-rule="nonzero"/></clipPath><clipPath id="5351e78bb1"><path d="M 377.703125 68.972656 L 449.148438 61.59375 L 452.988281 98.804688 L 381.546875 106.183594 Z M 377.703125 68.972656 " clip-rule="nonzero"/></clipPath><clipPath id="bddead574b"><path d="M 385 70 L 451 70 L 451 104 L 385 104 Z M 385 70 " clip-rule="nonzero"/></clipPath><clipPath id="8bef6beb45"><path d="M 377.703125 68.972656 L 449.148438 61.59375 L 452.988281 98.804688 L 381.546875 106.183594 Z M 377.703125 68.972656 " clip-rule="nonzero"/></clipPath><clipPath id="fe308366f9"><path d="M 377.703125 68.972656 L 449.148438 61.59375 L 452.988281 98.804688 L 381.546875 106.183594 Z M 377.703125 68.972656 " clip-rule="nonzero"/></clipPath><clipPath id="dd7682f141"><path d="M 377.703125 68.972656 L 449.148438 61.59375 L 452.988281 98.804688 L 381.546875 106.183594 Z M 377.703125 68.972656 " clip-rule="nonzero"/></clipPath><clipPath id="348b685981"><path d="M 399 91 L 405 91 L 405 96 L 399 96 Z M 399 91 " clip-rule="nonzero"/></clipPath><clipPath id="05a94927f5"><path d="M 377.703125 68.972656 L 449.148438 61.59375 L 452.988281 98.804688 L 381.546875 106.183594 Z M 377.703125 68.972656 " clip-rule="nonzero"/></clipPath><clipPath id="34b50b950c"><path d="M 377.703125 68.972656 L 449.148438 61.59375 L 452.988281 98.804688 L 381.546875 106.183594 Z M 377.703125 68.972656 " clip-rule="nonzero"/></clipPath><clipPath id="d7b697a356"><path d="M 377.703125 68.972656 L 449.148438 61.59375 L 452.988281 98.804688 L 381.546875 106.183594 Z M 377.703125 68.972656 " clip-rule="nonzero"/></clipPath><clipPath id="2689ee3eb4"><path d="M 403 78 L 406 78 L 406 86 L 403 86 Z M 403 78 " clip-rule="nonzero"/></clipPath><clipPath id="9b24f6e7a8"><path d="M 377.703125 68.972656 L 449.148438 61.59375 L 452.988281 98.804688 L 381.546875 106.183594 Z M 377.703125 68.972656 " clip-rule="nonzero"/></clipPath><clipPath id="456d7a3f0f"><path d="M 377.703125 68.972656 L 449.148438 61.59375 L 452.988281 98.804688 L 381.546875 106.183594 Z M 377.703125 68.972656 " clip-rule="nonzero"/></clipPath><clipPath id="1d9ea5e0d8"><path d="M 377.703125 68.972656 L 449.148438 61.59375 L 452.988281 98.804688 L 381.546875 106.183594 Z M 377.703125 68.972656 " clip-rule="nonzero"/></clipPath><clipPath id="36dbde6dfe"><path d="M 411 83 L 413 83 L 413 85 L 411 85 Z M 411 83 " clip-rule="nonzero"/></clipPath><clipPath id="85f7cd02a4"><path d="M 377.703125 68.972656 L 449.148438 61.59375 L 452.988281 98.804688 L 381.546875 106.183594 Z M 377.703125 68.972656 " clip-rule="nonzero"/></clipPath><clipPath id="79bb2f0fa9"><path d="M 377.703125 68.972656 L 449.148438 61.59375 L 452.988281 98.804688 L 381.546875 106.183594 Z M 377.703125 68.972656 " clip-rule="nonzero"/></clipPath><clipPath id="f9e5299547"><path d="M 377.703125 68.972656 L 449.148438 61.59375 L 452.988281 98.804688 L 381.546875 106.183594 Z M 377.703125 68.972656 " clip-rule="nonzero"/></clipPath><clipPath id="4bee44a527"><path d="M 418 82 L 420 82 L 420 84 L 418 84 Z M 418 82 " clip-rule="nonzero"/></clipPath><clipPath id="c59181f3b6"><path d="M 377.703125 68.972656 L 449.148438 61.59375 L 452.988281 98.804688 L 381.546875 106.183594 Z M 377.703125 68.972656 " clip-rule="nonzero"/></clipPath><clipPath id="4a02ebf1ab"><path d="M 377.703125 68.972656 L 449.148438 61.59375 L 452.988281 98.804688 L 381.546875 106.183594 Z M 377.703125 68.972656 " clip-rule="nonzero"/></clipPath><clipPath id="efec75aa5a"><path d="M 377.703125 68.972656 L 449.148438 61.59375 L 452.988281 98.804688 L 381.546875 106.183594 Z M 377.703125 68.972656 " clip-rule="nonzero"/></clipPath><clipPath id="df60fcdaca"><path d="M 423 82 L 425 82 L 425 84 L 423 84 Z M 423 82 " clip-rule="nonzero"/></clipPath><clipPath id="b2577a7ec8"><path d="M 377.703125 68.972656 L 449.148438 61.59375 L 452.988281 98.804688 L 381.546875 106.183594 Z M 377.703125 68.972656 " clip-rule="nonzero"/></clipPath><clipPath id="0ab323f7da"><path d="M 377.703125 68.972656 L 449.148438 61.59375 L 452.988281 98.804688 L 381.546875 106.183594 Z M 377.703125 68.972656 " clip-rule="nonzero"/></clipPath><clipPath id="cbe7dbdb17"><path d="M 377.703125 68.972656 L 449.148438 61.59375 L 452.988281 98.804688 L 381.546875 106.183594 Z M 377.703125 68.972656 " clip-rule="nonzero"/></clipPath><clipPath id="7488efafa6"><path d="M 426 82 L 427 82 L 427 84 L 426 84 Z M 426 82 " clip-rule="nonzero"/></clipPath><clipPath id="471fcaf54e"><path d="M 377.703125 68.972656 L 449.148438 61.59375 L 452.988281 98.804688 L 381.546875 106.183594 Z M 377.703125 68.972656 " clip-rule="nonzero"/></clipPath><clipPath id="7aa3f9c56c"><path d="M 377.703125 68.972656 L 449.148438 61.59375 L 452.988281 98.804688 L 381.546875 106.183594 Z M 377.703125 68.972656 " clip-rule="nonzero"/></clipPath><clipPath id="9be4efa31b"><path d="M 377.703125 68.972656 L 449.148438 61.59375 L 452.988281 98.804688 L 381.546875 106.183594 Z M 377.703125 68.972656 " clip-rule="nonzero"/></clipPath><clipPath id="9713280c63"><path d="M 406 84 L 407 84 L 407 85 L 406 85 Z M 406 84 " clip-rule="nonzero"/></clipPath><clipPath id="b9da43145a"><path d="M 377.703125 68.972656 L 449.148438 61.59375 L 452.988281 98.804688 L 381.546875 106.183594 Z M 377.703125 68.972656 " clip-rule="nonzero"/></clipPath><clipPath id="e3bf69b567"><path d="M 377.703125 68.972656 L 449.148438 61.59375 L 452.988281 98.804688 L 381.546875 106.183594 Z M 377.703125 68.972656 " clip-rule="nonzero"/></clipPath><clipPath id="7cb2b9c0af"><path d="M 377.703125 68.972656 L 449.148438 61.59375 L 452.988281 98.804688 L 381.546875 106.183594 Z M 377.703125 68.972656 " clip-rule="nonzero"/></clipPath><clipPath id="92aa336bfb"><path d="M 402 84 L 404 84 L 404 86 L 402 86 Z M 402 84 " clip-rule="nonzero"/></clipPath><clipPath id="454df3f727"><path d="M 377.703125 68.972656 L 449.148438 61.59375 L 452.988281 98.804688 L 381.546875 106.183594 Z M 377.703125 68.972656 " clip-rule="nonzero"/></clipPath><clipPath id="3f93dffa4a"><path d="M 377.703125 68.972656 L 449.148438 61.59375 L 452.988281 98.804688 L 381.546875 106.183594 Z M 377.703125 68.972656 " clip-rule="nonzero"/></clipPath><clipPath id="fc416ac64f"><path d="M 377.703125 68.972656 L 449.148438 61.59375 L 452.988281 98.804688 L 381.546875 106.183594 Z M 377.703125 68.972656 " clip-rule="nonzero"/></clipPath><clipPath id="d9905bb340"><path d="M 416 82 L 418 82 L 418 84 L 416 84 Z M 416 82 " clip-rule="nonzero"/></clipPath><clipPath id="14ccfcf375"><path d="M 377.703125 68.972656 L 449.148438 61.59375 L 452.988281 98.804688 L 381.546875 106.183594 Z M 377.703125 68.972656 " clip-rule="nonzero"/></clipPath><clipPath id="50a65f7dc9"><path d="M 377.703125 68.972656 L 449.148438 61.59375 L 452.988281 98.804688 L 381.546875 106.183594 Z M 377.703125 68.972656 " clip-rule="nonzero"/></clipPath><clipPath id="67a693d51d"><path d="M 377.703125 68.972656 L 449.148438 61.59375 L 452.988281 98.804688 L 381.546875 106.183594 Z M 377.703125 68.972656 " clip-rule="nonzero"/></clipPath><clipPath id="fc10a878d1"><path d="M 428 82 L 430 82 L 430 84 L 428 84 Z M 428 82 " clip-rule="nonzero"/></clipPath><clipPath id="5c6012f997"><path d="M 377.703125 68.972656 L 449.148438 61.59375 L 452.988281 98.804688 L 381.546875 106.183594 Z M 377.703125 68.972656 " clip-rule="nonzero"/></clipPath><clipPath id="6393776894"><path d="M 377.703125 68.972656 L 449.148438 61.59375 L 452.988281 98.804688 L 381.546875 106.183594 Z M 377.703125 68.972656 " clip-rule="nonzero"/></clipPath><clipPath id="1b0655905f"><path d="M 377.703125 68.972656 L 449.148438 61.59375 L 452.988281 98.804688 L 381.546875 106.183594 Z M 377.703125 68.972656 " clip-rule="nonzero"/></clipPath><clipPath id="9b3b03790d"><path d="M 571.726562 68.277344 L 623.347656 68.277344 L 623.347656 99.699219 L 571.726562 99.699219 Z M 571.726562 68.277344 " clip-rule="nonzero"/></clipPath></defs><g clip-path="url(#ced37f1e81)"><g clip-path="url(#30bf1c321a)"><g clip-path="url(#d5d72feec3)"><g clip-path="url(#8b8fa00a63)"><path fill="#f2cc8f" d="M 385.703125 82.871094 C 385.722656 82.871094 385.746094 82.875 385.761719 82.871094 C 385.628906 82.871094 385.496094 82.863281 385.363281 82.863281 C 386.410156 82.890625 387.449219 83.070312 388.445312 83.402344 C 388.304688 83.355469 388.164062 83.308594 388.023438 83.261719 C 388.476562 83.414062 388.945312 83.582031 389.351562 83.828125 C 389.210938 83.742188 389.070312 83.65625 388.929688 83.570312 C 388.972656 83.597656 389.011719 83.628906 389.050781 83.660156 C 388.917969 83.535156 388.789062 83.414062 388.65625 83.292969 C 388.691406 83.324219 388.722656 83.359375 388.753906 83.398438 C 388.636719 83.246094 388.519531 83.089844 388.398438 82.933594 C 388.40625 82.949219 388.417969 82.960938 388.425781 82.976562 C 388.335938 82.804688 388.246094 82.628906 388.160156 82.457031 C 388.183594 82.5 388.195312 82.542969 388.214844 82.585938 C 388.160156 82.414062 388.105469 82.242188 388.050781 82.070312 C 388.0625 82.117188 388.070312 82.160156 388.074219 82.207031 C 388.058594 82.042969 388.039062 81.878906 388.023438 81.714844 C 388.027344 81.84375 388.015625 81.96875 388 82.097656 C 388.019531 81.953125 388.039062 81.804688 388.054688 81.660156 C 387.96875 82.347656 387.828125 83.035156 387.542969 83.671875 C 387.597656 83.550781 387.652344 83.433594 387.703125 83.3125 C 387.496094 83.765625 387.21875 84.183594 386.855469 84.535156 C 386.945312 84.445312 387.035156 84.359375 387.125 84.273438 C 386.730469 84.648438 386.261719 84.933594 385.753906 85.121094 C 385.871094 85.078125 385.988281 85.035156 386.105469 84.992188 C 385.664062 85.148438 385.207031 85.230469 384.738281 85.21875 C 384.871094 85.21875 385.003906 85.226562 385.136719 85.226562 C 385.011719 85.222656 384.886719 85.210938 384.765625 85.195312 C 385.386719 86.378906 386.007812 87.566406 386.625 88.746094 C 387.015625 88.328125 387.359375 87.863281 387.625 87.351562 C 387.933594 86.761719 388.199219 86.132812 388.335938 85.484375 C 388.496094 84.734375 388.601562 83.863281 388.429688 83.109375 C 388.335938 82.679688 388.160156 82.246094 387.917969 81.878906 C 387.597656 81.378906 387.148438 80.910156 386.601562 80.65625 C 386.261719 80.5 385.878906 80.417969 385.503906 80.46875 C 385.261719 80.503906 385.011719 80.621094 384.789062 80.730469 C 384.199219 81.011719 383.65625 81.378906 383.179688 81.824219 C 383.003906 81.929688 382.886719 82.078125 382.828125 82.265625 C 382.722656 82.453125 382.679688 82.660156 382.695312 82.882812 C 382.707031 83.335938 382.839844 83.75 383.046875 84.148438 C 383.257812 84.550781 383.550781 84.96875 383.933594 85.238281 C 384.28125 85.484375 384.722656 85.730469 385.167969 85.648438 C 386.574219 85.390625 387.945312 84.96875 389.257812 84.410156 C 389.617188 84.261719 389.742188 83.671875 389.742188 83.351562 C 389.75 82.84375 389.535156 82.242188 389.257812 81.828125 C 388.964844 81.394531 388.582031 80.945312 388.089844 80.738281 C 387.949219 80.695312 387.808594 80.644531 387.667969 80.601562 C 387.402344 80.542969 387.152344 80.585938 386.917969 80.71875 C 386.664062 80.828125 386.40625 80.929688 386.144531 81.023438 C 386.265625 80.980469 386.378906 80.9375 386.5 80.894531 C 385.535156 81.246094 384.542969 81.511719 383.53125 81.695312 C 384.191406 82.972656 384.859375 84.246094 385.519531 85.519531 C 386.035156 85.035156 386.664062 84.59375 387.332031 84.339844 C 387.210938 84.382812 387.097656 84.425781 386.976562 84.46875 C 387.066406 84.441406 387.152344 84.421875 387.246094 84.421875 C 387.113281 84.417969 386.980469 84.414062 386.847656 84.414062 C 386.886719 84.414062 386.921875 84.421875 386.957031 84.429688 C 386.816406 84.382812 386.675781 84.335938 386.539062 84.292969 C 386.5625 84.300781 386.589844 84.3125 386.617188 84.324219 C 386.476562 84.238281 386.335938 84.152344 386.195312 84.066406 C 386.21875 84.078125 386.238281 84.097656 386.261719 84.113281 C 386.128906 83.992188 385.996094 83.867188 385.863281 83.746094 C 385.882812 83.761719 385.898438 83.78125 385.914062 83.804688 C 385.800781 83.648438 385.683594 83.492188 385.5625 83.335938 C 385.578125 83.359375 385.589844 83.378906 385.601562 83.402344 C 385.511719 83.230469 385.421875 83.058594 385.335938 82.882812 C 385.347656 82.90625 385.355469 82.933594 385.363281 82.957031 C 385.3125 82.78125 385.257812 82.613281 385.203125 82.441406 C 385.21875 82.492188 385.230469 82.539062 385.238281 82.59375 C 385.222656 82.429688 385.203125 82.265625 385.183594 82.101562 C 385.214844 82.402344 385.1875 82.710938 385.15625 83.007812 C 385.171875 82.859375 385.191406 82.714844 385.207031 82.566406 C 385.132812 83.132812 384.980469 83.679688 384.75 84.199219 C 384.800781 84.078125 384.855469 83.960938 384.910156 83.839844 C 384.621094 84.476562 384.222656 85.058594 383.742188 85.574219 C 383.6875 85.695312 383.636719 85.816406 383.582031 85.9375 C 383.566406 86.082031 383.546875 86.230469 383.527344 86.375 C 383.523438 86.816406 383.675781 87.25 383.878906 87.636719 C 384.0625 87.984375 384.28125 88.28125 384.566406 88.546875 C 384.84375 88.800781 385.214844 89.078125 385.605469 89.128906 C 386.667969 89.265625 387.703125 89.078125 388.644531 88.5625 C 389.449219 88.121094 390.140625 87.402344 390.535156 86.578125 C 390.777344 86.074219 390.980469 85.5625 391.101562 85.023438 C 391.21875 84.503906 391.3125 83.953125 391.335938 83.425781 C 391.359375 82.75 391.125 82.0625 390.769531 81.496094 C 390.390625 80.894531 389.882812 80.453125 389.265625 80.117188 C 388.746094 79.832031 388.164062 79.644531 387.605469 79.460938 C 386.449219 79.082031 385.28125 78.9375 384.066406 78.910156 C 383.679688 78.902344 383.371094 79.351562 383.285156 79.664062 C 383.15625 80.105469 383.265625 80.699219 383.445312 81.105469 C 383.671875 81.617188 384 82.128906 384.464844 82.457031 C 384.605469 82.542969 384.746094 82.628906 384.886719 82.714844 C 385.144531 82.855469 385.417969 82.902344 385.703125 82.871094 Z M 385.703125 82.871094 " fill-opacity="1" fill-rule="nonzero"/></g></g></g></g><g clip-path="url(#0d246c84aa)"><g clip-path="url(#8b4ef89ae5)"><g clip-path="url(#80c940a191)"><g clip-path="url(#2ed68511f1)"><path fill="#e07a5f" d="M 388.148438 78.503906 C 387.808594 78.367188 387.46875 78.234375 387.132812 78.097656 C 387.300781 78.167969 387.46875 78.234375 387.632812 78.296875 C 386.023438 77.648438 384.429688 76.960938 382.855469 76.234375 C 382.421875 76.035156 381.972656 75.914062 381.496094 75.863281 C 381.082031 75.820312 380.601562 75.804688 380.199219 75.953125 C 379.964844 76.039062 379.726562 76.148438 379.558594 76.34375 C 379.320312 76.621094 379.449219 76.972656 379.625 77.234375 C 380.683594 78.757812 381.863281 80.199219 383.144531 81.546875 C 383.210938 81.175781 383.273438 80.800781 383.339844 80.429688 C 382.082031 81.027344 380.832031 81.628906 379.574219 82.222656 C 379.367188 82.335938 379.238281 82.507812 379.179688 82.730469 C 379.152344 82.902344 379.1875 83.054688 379.292969 83.1875 C 379.550781 83.636719 380.089844 83.9375 380.582031 84.070312 C 381.136719 84.226562 381.695312 84.378906 382.25 84.53125 C 382.78125 84.675781 383.335938 84.792969 383.859375 84.980469 C 383.695312 84.910156 383.527344 84.84375 383.363281 84.777344 C 383.410156 84.800781 383.453125 84.820312 383.496094 84.84375 C 383.363281 84.761719 383.222656 84.675781 383.089844 84.59375 C 383.117188 84.609375 383.144531 84.632812 383.167969 84.652344 C 383.066406 84.558594 382.96875 84.460938 382.867188 84.367188 C 382.910156 84.410156 382.941406 84.449219 382.96875 84.5 C 382.910156 84.398438 382.855469 84.296875 382.796875 84.199219 C 382.832031 84.273438 382.847656 84.347656 382.859375 84.429688 C 382.851562 84.328125 382.839844 84.222656 382.832031 84.121094 C 382.839844 84.335938 382.769531 84.535156 382.679688 84.730469 C 382.726562 84.636719 382.765625 84.542969 382.808594 84.449219 C 382.621094 84.835938 382.386719 85.203125 382.167969 85.578125 C 381.9375 85.976562 381.707031 86.378906 381.472656 86.78125 C 381.011719 87.582031 380.542969 88.386719 380.082031 89.1875 C 380.035156 89.28125 379.996094 89.375 379.953125 89.46875 C 379.921875 89.640625 379.960938 89.792969 380.0625 89.925781 C 380.234375 90.230469 380.539062 90.460938 380.855469 90.605469 C 381.195312 90.765625 381.554688 90.875 381.921875 90.945312 C 382.207031 91.003906 382.488281 91.019531 382.773438 90.996094 C 383.023438 91 383.265625 90.964844 383.507812 90.886719 C 385.351562 90.089844 387.195312 89.289062 389.039062 88.492188 C 389.34375 88.359375 389.738281 88.207031 389.808594 87.820312 C 389.871094 87.46875 389.574219 87.113281 389.3125 86.929688 C 388.886719 86.621094 388.363281 86.417969 387.839844 86.339844 C 387.644531 86.320312 387.453125 86.300781 387.257812 86.28125 C 386.914062 86.265625 386.582031 86.304688 386.253906 86.402344 C 384.414062 87.203125 382.574219 88 380.730469 88.800781 C 381.871094 89.367188 383.011719 89.9375 384.15625 90.5 C 384.890625 89.234375 385.625 87.960938 386.355469 86.695312 C 386.527344 86.402344 386.710938 86.109375 386.863281 85.808594 C 386.957031 85.621094 387.054688 85.421875 387.117188 85.222656 C 387.183594 85 387.167969 84.804688 387.140625 84.566406 C 387.113281 84.355469 387.007812 84.171875 386.886719 83.996094 C 386.667969 83.6875 386.292969 83.4375 385.953125 83.277344 C 385.496094 83.054688 385.019531 82.9375 384.53125 82.804688 C 383.722656 82.582031 382.914062 82.359375 382.105469 82.136719 C 382.441406 82.753906 382.78125 83.371094 383.113281 83.984375 C 384.371094 83.386719 385.625 82.789062 386.882812 82.191406 C 387.316406 81.984375 387.40625 81.417969 387.078125 81.074219 C 385.796875 79.730469 384.621094 78.289062 383.5625 76.765625 C 382.484375 77.097656 381.410156 77.429688 380.332031 77.761719 C 382.402344 78.714844 384.503906 79.597656 386.625 80.429688 C 386.902344 80.527344 387.1875 80.582031 387.484375 80.597656 C 387.757812 80.640625 388.035156 80.644531 388.3125 80.605469 C 388.546875 80.59375 388.765625 80.53125 388.96875 80.425781 C 389.148438 80.371094 389.296875 80.265625 389.421875 80.117188 C 389.609375 79.824219 389.589844 79.503906 389.355469 79.226562 C 389.035156 78.863281 388.589844 78.675781 388.148438 78.503906 Z M 388.148438 78.503906 " fill-opacity="1" fill-rule="nonzero"/></g></g></g></g><g clip-path="url(#a66997ff4e)"><g clip-path="url(#54339bbdaa)"><g clip-path="url(#71b7b3e029)"><g clip-path="url(#5351e78bb1)"><path fill="#f4f1de" d="M 386.085938 71.132812 L 394.835938 78.828125 C 394.835938 78.828125 391.316406 77.773438 390.523438 80.957031 C 390.234375 82.125 391.113281 82.597656 390.960938 84.441406 C 390.855469 85.742188 391.394531 87.722656 391.394531 87.722656 L 392.855469 87.835938 L 395.019531 92.457031 C 395.019531 92.457031 388.46875 100.203125 390.617188 102.28125 C 393.363281 104.925781 416.902344 91.820312 416.902344 91.820312 C 416.902344 91.820312 449.140625 88.042969 449.875 82.71875 C 450.605469 77.394531 436.167969 75.367188 436.167969 75.367188 C 436.167969 75.367188 429.980469 73.296875 416.988281 74.671875 C 416.988281 74.671875 411.214844 66.34375 409.109375 70.792969 C 407 75.238281 406.753906 75.867188 406.753906 75.867188 L 399.472656 76.429688 C 399.472656 76.429688 391.203125 67.632812 386.085938 71.132812 Z M 386.085938 71.132812 " fill-opacity="1" fill-rule="nonzero"/></g></g></g></g><g clip-path="url(#bddead574b)"><g clip-path="url(#8bef6beb45)"><g clip-path="url(#fe308366f9)"><g clip-path="url(#dd7682f141)"><path fill="#000000" d="M 450 80.773438 C 449.039062 80.066406 447.949219 79.488281 446.84375 79.023438 C 445.566406 78.480469 444.203125 78.125 442.882812 77.667969 C 442.308594 77.476562 441.765625 77.203125 441.195312 77.015625 C 439.804688 76.558594 438.394531 76.160156 437.015625 75.667969 C 435.601562 75.164062 434.175781 74.851562 432.660156 74.875 C 431.6875 74.894531 430.714844 74.757812 429.738281 74.757812 C 428.464844 74.753906 427.195312 74.675781 425.921875 74.925781 C 425.019531 75.101562 424.054688 75.203125 423.148438 75.085938 C 421.578125 74.882812 420.023438 74.695312 418.445312 75 C 418.128906 75.0625 417.796875 75.066406 417.472656 75.109375 C 416.949219 75.179688 416.59375 74.9375 416.292969 74.53125 C 415.742188 73.773438 415.195312 73.011719 414.625 72.269531 C 414 71.78125 413.386719 71.28125 412.765625 70.785156 C 412.300781 70.679688 411.84375 70.546875 411.390625 70.398438 C 411.019531 70.367188 410.644531 70.34375 410.273438 70.3125 C 409.789062 70.273438 409.449219 70.519531 409.191406 70.9375 C 408.355469 72.304688 407.542969 73.683594 407.070312 75.226562 C 406.929688 75.683594 406.707031 75.929688 406.183594 75.914062 C 405.445312 75.886719 404.699219 75.925781 403.957031 75.933594 C 403.332031 75.9375 402.710938 75.949219 402.085938 75.941406 C 401.652344 75.933594 401.210938 75.863281 400.78125 75.894531 C 399.757812 75.957031 398.800781 75.90625 397.960938 75.1875 C 397.839844 75.082031 397.71875 74.980469 397.59375 74.871094 C 396.925781 74.539062 396.265625 74.1875 395.609375 73.828125 C 394.523438 73.230469 393.457031 72.597656 392.371094 72 C 391.453125 71.683594 390.503906 71.429688 389.636719 71.003906 C 388.398438 70.398438 387.144531 70.582031 385.871094 70.671875 C 385.773438 70.679688 385.675781 70.769531 385.574219 70.820312 C 385.636719 70.929688 385.679688 71.0625 385.765625 71.144531 C 386 71.371094 386.265625 71.558594 386.5 71.78125 C 387.460938 72.695312 388.394531 73.628906 389.367188 74.523438 C 390.597656 75.652344 391.863281 76.742188 393.101562 77.859375 C 393.328125 78.066406 393.5 78.328125 393.695312 78.570312 C 393.355469 78.578125 393.007812 78.640625 392.675781 78.585938 C 392.082031 78.484375 391.597656 78.59375 391.292969 79.132812 C 391.078125 79.527344 390.777344 79.667969 390.328125 79.667969 C 390.109375 79.667969 389.753906 79.816406 389.699219 79.976562 C 389.5625 80.382812 389.5 80.839844 389.539062 81.265625 C 389.558594 81.449219 389.890625 81.621094 390.109375 81.757812 C 390.339844 81.90625 390.449219 82.144531 390.160156 82.199219 C 389.515625 82.320312 389.414062 82.839844 389.199219 83.28125 C 388.867188 83.96875 388.9375 84.21875 389.609375 84.578125 C 390.125 84.851562 390.558594 85.132812 390.191406 85.808594 C 390.21875 86.203125 390.191406 86.605469 390.277344 86.984375 C 390.558594 88.269531 391.03125 88.722656 392.464844 88.695312 C 392.535156 88.695312 392.605469 88.679688 392.675781 88.671875 C 393.046875 88.628906 393.316406 88.777344 393.464844 89.109375 C 393.902344 90.082031 394.34375 91.054688 394.75 92.035156 C 394.828125 92.230469 394.847656 92.515625 394.761719 92.699219 C 394.347656 93.554688 393.964844 94.4375 393.425781 95.214844 C 392.109375 97.121094 391.035156 99.117188 390.386719 101.351562 C 390.011719 102.644531 390.554688 103.386719 391.917969 103.339844 C 392.382812 103.328125 392.847656 103.347656 393.3125 103.324219 C 393.5625 103.3125 393.828125 103.285156 394.0625 103.203125 C 394.742188 102.976562 395.410156 102.722656 396.082031 102.480469 C 396.449219 102.34375 396.808594 102.15625 397.183594 102.070312 C 397.359375 101.921875 397.542969 101.777344 397.726562 101.632812 C 399.363281 100.378906 401.183594 99.347656 403.058594 98.492188 C 403.558594 98.265625 404.0625 98.046875 404.574219 97.839844 C 405.089844 97.515625 405.636719 97.230469 406.238281 97.039062 C 406.257812 97.035156 406.277344 97.019531 406.296875 97.007812 C 408.128906 96.101562 409.949219 95.183594 411.792969 94.300781 C 412.441406 93.988281 413.171875 93.839844 413.792969 93.488281 C 415.273438 92.640625 416.902344 92.242188 418.515625 91.808594 C 420.0625 91.394531 421.65625 91.144531 423.214844 90.761719 C 425.726562 90.148438 428.246094 89.601562 430.800781 89.230469 C 433.378906 88.855469 435.96875 88.566406 438.5 87.933594 C 439.695312 87.632812 440.847656 87.183594 442.023438 86.808594 C 443.222656 86.421875 444.433594 86.078125 445.613281 85.648438 C 446.816406 85.214844 447.988281 84.699219 449.171875 84.210938 C 449.429688 84.105469 449.707031 83.996094 449.90625 83.816406 C 450.960938 82.867188 451.234375 81.675781 450 80.773438 Z M 437.871094 77.445312 C 438.042969 76.980469 438.277344 76.917969 438.746094 77.101562 C 439.167969 77.269531 439.164062 77.554688 438.984375 77.878906 C 438.710938 78.375 438.417969 78.867188 438.105469 79.347656 C 438.03125 79.464844 437.863281 79.523438 437.738281 79.613281 C 437.671875 79.476562 437.578125 79.339844 437.546875 79.195312 C 437.511719 79.042969 437.539062 78.878906 437.535156 78.671875 C 437.636719 78.289062 437.722656 77.859375 437.871094 77.445312 Z M 433.175781 76.988281 C 433.304688 76.613281 433.566406 76.207031 433.886719 75.996094 C 434.164062 75.820312 434.609375 75.894531 434.984375 75.855469 L 434.992188 75.949219 C 435.152344 75.960938 435.324219 75.941406 435.476562 75.992188 C 435.726562 76.078125 436.042969 76.152344 436.164062 76.335938 C 436.234375 76.445312 436.050781 76.839844 435.875 76.972656 C 435.347656 77.382812 434.800781 77.78125 434.207031 78.074219 C 433.945312 78.199219 433.398438 78.175781 433.261719 78 C 433.078125 77.777344 433.066406 77.296875 433.175781 76.988281 Z M 408.339844 75.382812 C 409.035156 74.128906 409.753906 72.886719 410.425781 71.621094 C 410.808594 70.902344 411.257812 70.785156 411.804688 71.417969 C 412.472656 72.183594 413.054688 73.015625 413.6875 73.808594 C 414 74.203125 414.339844 74.578125 414.660156 74.96875 C 414.765625 75.105469 414.839844 75.269531 414.933594 75.421875 C 414.789062 75.484375 414.65625 75.582031 414.507812 75.597656 C 414.011719 75.664062 413.507812 75.699219 413.003906 75.746094 C 413 75.714844 412.996094 75.675781 412.996094 75.640625 C 412.71875 75.632812 412.441406 75.601562 412.164062 75.621094 C 410.984375 75.691406 409.804688 75.78125 408.625 75.851562 C 408.484375 75.859375 408.335938 75.789062 408.191406 75.753906 C 408.238281 75.628906 408.273438 75.5 408.339844 75.382812 Z M 392.78125 76.175781 L 392.785156 76.171875 C 392.796875 76.1875 392.8125 76.203125 392.828125 76.214844 C 392.828125 76.222656 392.820312 76.230469 392.820312 76.242188 C 392.8125 76.28125 392.765625 76.3125 392.722656 76.285156 C 392.160156 75.914062 391.941406 75.605469 391.375 75.242188 C 391.367188 75.25 391.222656 75.09375 391.167969 75.050781 L 391.078125 74.976562 C 390.539062 74.488281 389.992188 74 389.449219 73.507812 C 389.453125 73.503906 389.453125 73.503906 389.453125 73.5 C 389.394531 73.457031 389.328125 73.417969 389.269531 73.367188 C 388.492188 72.746094 388.433594 72.625 387.71875 72.132812 C 387.542969 71.953125 387.371094 71.773438 387.195312 71.597656 C 387.59375 71.636719 389.609375 73.339844 389.609375 73.339844 C 390.171875 73.851562 390.734375 74.363281 391.296875 74.875 Z M 389.304688 72.113281 C 389.527344 72.175781 389.734375 72.273438 389.9375 72.375 C 390.128906 72.472656 390.3125 72.574219 390.5 72.679688 C 390.675781 72.777344 390.851562 72.863281 391.035156 72.949219 C 391.242188 73.050781 391.449219 73.160156 391.644531 73.28125 C 391.730469 73.320312 391.820312 73.359375 391.902344 73.410156 C 393.363281 74.207031 394.804688 75.042969 396.238281 75.894531 C 397.085938 76.398438 397.90625 76.964844 398.742188 77.492188 C 398.9375 77.613281 399.171875 77.675781 399.355469 77.808594 C 399.601562 77.988281 399.875 78.179688 400.023438 78.429688 C 400.222656 78.757812 400.101562 78.992188 399.65625 79 C 398.519531 79.019531 397.378906 79.070312 396.242188 79.089844 C 396.046875 79.089844 395.816406 79.019531 395.664062 78.898438 C 395.117188 78.46875 394.59375 78.011719 394.074219 77.550781 C 393.824219 77.328125 393.585938 77.09375 394.007812 76.769531 C 394.109375 76.695312 394.136719 76.351562 394.050781 76.238281 C 393.8125 75.902344 393.527344 75.585938 393.210938 75.324219 C 392.378906 74.644531 391.570312 74.101562 390.726562 73.4375 C 390.652344 73.414062 390.535156 73.28125 390.472656 73.234375 C 390.226562 73.054688 390.351562 73.140625 390.136719 72.980469 C 389.953125 72.84375 389.960938 72.882812 389.804688 72.714844 C 389.789062 72.695312 389.242188 72.320312 389.246094 72.292969 C 389.246094 72.292969 389.246094 72.289062 389.242188 72.289062 C 389.191406 72.277344 389.175781 72.238281 389.179688 72.199219 Z M 394.890625 89.953125 C 394.5625 89.242188 394.332031 88.484375 393.984375 87.785156 C 393.683594 87.191406 393.253906 86.667969 392.925781 86.089844 C 392.460938 85.261719 392.015625 84.425781 391.609375 83.570312 C 390.972656 82.234375 391.277344 80.941406 391.921875 79.703125 C 392.019531 79.519531 392.3125 79.355469 392.53125 79.328125 C 393.132812 79.257812 393.738281 79.257812 394.34375 79.246094 C 394.480469 79.242188 394.644531 79.257812 394.742188 79.335938 C 395.339844 79.796875 396.023438 79.792969 396.734375 79.777344 C 397.613281 79.761719 398.496094 79.820312 399.375 79.835938 C 400.0625 79.84375 400.125 79.902344 400.0625 80.597656 C 400.050781 80.691406 400.046875 80.78125 400.039062 80.875 C 400.03125 80.878906 400.023438 80.875 400.011719 80.875 C 399.996094 81.085938 400.015625 81.300781 399.957031 81.496094 C 399.589844 82.714844 400.054688 83.789062 400.5625 84.828125 C 401.085938 85.90625 401.707031 86.9375 402.304688 87.976562 C 402.574219 88.449219 402.25 88.546875 401.921875 88.640625 C 400.960938 88.917969 399.992188 89.167969 399.035156 89.453125 C 398.039062 89.75 397.042969 90.0625 396.054688 90.394531 C 395.273438 90.660156 395.230469 90.683594 394.890625 89.953125 Z M 392.789062 99.761719 C 392.414062 100.53125 392.128906 101.34375 391.777344 102.125 C 391.710938 102.273438 391.515625 102.367188 391.378906 102.488281 C 391.296875 102.289062 391.121094 102.074219 391.152344 101.898438 C 391.230469 101.46875 391.390625 101.050781 391.546875 100.640625 C 392.179688 98.992188 393.0625 97.476562 393.964844 95.960938 C 394.363281 95.285156 394.628906 94.539062 394.992188 93.839844 C 395.179688 93.480469 395.449219 93.15625 395.667969 92.8125 C 395.765625 92.660156 395.828125 92.492188 395.90625 92.332031 C 395.875 92.324219 395.84375 92.316406 395.808594 92.308594 C 395.808594 92.015625 395.683594 91.597656 395.824219 91.457031 C 396.109375 91.183594 396.535156 91.042969 396.914062 90.882812 C 397.300781 90.726562 397.703125 90.605469 398.105469 90.484375 C 398.199219 90.457031 398.3125 90.5 398.417969 90.507812 C 398.390625 90.59375 398.378906 90.691406 398.328125 90.761719 C 397.890625 91.417969 397.445312 92.070312 397.011719 92.726562 C 395.5 95.015625 394 97.304688 392.789062 99.761719 Z M 442.738281 78.945312 C 441.890625 80.355469 441.617188 81.871094 441.988281 83.476562 C 442.066406 83.832031 441.871094 83.867188 441.617188 83.894531 C 440.691406 83.988281 439.765625 84.105469 438.839844 84.175781 C 437.980469 84.242188 437.121094 84.246094 436.261719 84.296875 C 435.355469 84.347656 435.03125 84.792969 435.34375 85.636719 C 435.527344 86.132812 435.8125 86.59375 436.09375 87.042969 C 436.269531 87.324219 436.242188 87.441406 435.921875 87.523438 C 435.359375 87.667969 434.808594 87.878906 434.238281 87.96875 C 432.972656 88.171875 431.695312 88.304688 430.433594 88.492188 C 429.210938 88.675781 427.992188 88.859375 426.78125 89.101562 C 425.828125 89.296875 424.894531 89.585938 423.953125 89.824219 C 423.480469 89.945312 423.003906 90.050781 422.53125 90.15625 C 421.257812 90.441406 419.980469 90.722656 418.710938 91.003906 C 418.011719 91.164062 417.925781 91.113281 417.710938 90.433594 C 417.683594 90.347656 417.664062 90.253906 417.640625 90.164062 C 417.386719 89.113281 417.324219 89.070312 416.210938 89.242188 C 413.449219 89.671875 410.863281 90.679688 408.324219 91.785156 C 407.308594 92.226562 406.382812 92.898438 405.472656 93.535156 C 404.253906 94.382812 403.089844 95.3125 401.902344 96.203125 C 401.753906 96.316406 401.585938 96.398438 401.429688 96.5 C 400.238281 97.300781 399.066406 98.132812 397.851562 98.894531 C 396.890625 99.496094 395.925781 100.109375 394.78125 100.328125 C 394.5 100.382812 394.421875 100.296875 394.535156 100.042969 C 394.582031 99.9375 394.644531 99.839844 394.714844 99.742188 C 395.445312 98.726562 396.183594 97.71875 396.902344 96.691406 C 397.246094 96.199219 397.570312 95.691406 397.859375 95.160156 C 398.488281 94 399.097656 92.828125 399.699219 91.652344 C 399.921875 91.21875 400.085938 90.761719 400.292969 90.324219 C 400.472656 89.941406 400.792969 89.746094 401.214844 89.65625 C 402.878906 89.300781 404.53125 88.898438 406.195312 88.574219 C 407.40625 88.335938 408.628906 88.195312 409.851562 88.007812 C 411 87.832031 412.144531 87.597656 413.296875 87.492188 C 415.21875 87.3125 417.160156 87.292969 419.078125 87.058594 C 420.820312 86.847656 422.558594 86.855469 424.304688 86.90625 C 425.8125 86.945312 427.324219 87 428.832031 87.03125 C 429.246094 87.039062 429.65625 86.96875 430.101562 86.796875 C 429.929688 86.761719 429.757812 86.691406 429.582031 86.6875 C 428.144531 86.613281 426.703125 86.558594 425.261719 86.496094 C 424.449219 86.464844 423.636719 86.472656 422.828125 86.394531 C 421.476562 86.269531 420.136719 86.375 418.789062 86.5 C 416.585938 86.699219 414.371094 86.769531 412.171875 86.972656 C 410.695312 87.109375 409.226562 87.367188 407.757812 87.59375 C 406.539062 87.78125 405.324219 87.992188 404.113281 88.210938 C 403.605469 88.304688 403.261719 88.140625 403.007812 87.703125 C 402.449219 86.738281 401.816406 85.816406 401.320312 84.824219 C 400.5625 83.308594 400.480469 81.707031 401.058594 80.105469 C 401.152344 79.84375 401.488281 79.667969 401.710938 79.453125 C 401.5 78.632812 401.40625 77.777344 400.652344 77.1875 C 400.25 76.875 400.332031 76.636719 400.859375 76.605469 C 401.457031 76.570312 402.058594 76.683594 402.660156 76.683594 C 404.097656 76.6875 405.539062 76.664062 406.976562 76.644531 C 407.628906 76.636719 408.28125 76.597656 408.929688 76.59375 C 409.070312 76.589844 409.21875 76.679688 409.359375 76.726562 C 409.304688 76.871094 409.277344 77.03125 409.191406 77.15625 C 408.351562 78.359375 407.742188 79.652344 407.746094 81.140625 C 407.75 81.78125 407.875 82.421875 408 83.054688 C 408.066406 83.382812 408.101562 83.628906 407.78125 83.839844 C 407.675781 83.90625 407.566406 84.128906 407.609375 84.21875 C 407.65625 84.335938 407.863281 84.472656 407.984375 84.457031 C 408.472656 84.386719 409.066406 84.78125 409.445312 84.160156 C 409.46875 84.121094 409.578125 84.144531 409.636719 84.113281 C 409.78125 84.050781 409.921875 83.976562 410.0625 83.90625 C 409.910156 83.816406 409.753906 83.652344 409.605469 83.660156 C 409.226562 83.679688 409.148438 83.453125 409.039062 83.179688 C 408.121094 80.820312 408.882812 78.773438 410.265625 76.863281 C 410.40625 76.664062 410.710938 76.484375 410.953125 76.460938 C 411.828125 76.382812 412.710938 76.378906 413.59375 76.339844 C 413.828125 76.328125 414.058594 76.292969 414.285156 76.265625 C 414.832031 76.195312 415.378906 76.128906 415.925781 76.054688 C 416.234375 76.011719 416.324219 76.101562 416.140625 76.386719 C 415.863281 76.816406 415.578125 77.242188 415.339844 77.695312 C 415.039062 78.269531 414.761719 78.859375 414.523438 79.460938 C 414.15625 80.398438 414.320312 81.328125 414.621094 82.25 C 414.742188 82.621094 415.019531 83.054688 414.300781 83.167969 C 414.222656 83.179688 414.117188 83.625 414.152344 83.648438 C 414.351562 83.761719 414.617188 83.902344 414.808594 83.855469 C 415.144531 83.769531 415.480469 83.59375 415.746094 83.375 C 415.871094 83.273438 415.910156 82.964844 415.867188 82.777344 C 415.730469 82.238281 415.480469 81.726562 415.382812 81.1875 C 415.296875 80.722656 415.230469 80.1875 415.382812 79.761719 C 415.808594 78.589844 416.335938 77.449219 416.867188 76.316406 C 416.964844 76.105469 417.257812 75.894531 417.492188 75.855469 C 418.386719 75.703125 419.292969 75.542969 420.191406 75.535156 C 421 75.527344 421.808594 75.707031 422.613281 75.820312 C 422.929688 75.863281 422.890625 76.066406 422.773438 76.277344 C 422.574219 76.644531 422.382812 77.019531 422.167969 77.375 C 421.324219 78.773438 421.457031 80.253906 421.757812 81.753906 C 421.796875 81.957031 421.847656 82.167969 421.925781 82.355469 C 422.085938 82.730469 422.125 82.980469 421.566406 82.875 C 421.480469 82.855469 421.355469 83.050781 421.246094 83.152344 C 421.375 83.257812 421.535156 83.480469 421.621094 83.453125 C 422 83.34375 422.304688 83.402344 422.667969 83.554688 C 423.027344 83.703125 423.269531 83.335938 423.148438 82.902344 C 422.933594 82.125 422.707031 81.347656 422.527344 80.5625 C 422.277344 79.496094 422.566406 78.496094 422.980469 77.527344 C 423.089844 77.269531 423.277344 77.035156 423.339844 76.773438 C 423.511719 76.058594 423.984375 75.851562 424.664062 75.816406 C 426.265625 75.742188 427.863281 75.613281 429.464844 75.527344 C 429.835938 75.507812 430.207031 75.570312 430.582031 75.609375 C 430.90625 75.640625 431.035156 75.820312 430.914062 76.136719 C 430.871094 76.242188 430.832031 76.355469 430.773438 76.453125 C 429.71875 78.136719 429.925781 79.953125 430.222656 81.773438 C 430.261719 82.011719 430.382812 82.265625 430.535156 82.457031 C 430.621094 82.570312 430.851562 82.613281 431.007812 82.597656 C 431.066406 82.59375 431.152344 82.324219 431.136719 82.191406 C 431.09375 81.847656 431.015625 81.503906 430.929688 81.167969 C 430.648438 80.078125 430.558594 78.96875 430.84375 77.875 C 431.019531 77.210938 431.332031 76.582031 431.621094 75.949219 C 431.730469 75.707031 432.566406 75.542969 432.769531 75.707031 C 432.824219 75.753906 432.839844 75.925781 432.796875 75.996094 C 431.652344 77.894531 432.238281 79.792969 432.769531 81.691406 C 432.851562 81.984375 433.011719 82.144531 433.316406 82.097656 C 434.574219 81.917969 435.828125 81.832031 437.035156 81.296875 C 438.042969 80.851562 438.640625 80.148438 439.09375 79.242188 C 439.277344 78.878906 439.363281 78.464844 439.460938 78.0625 C 439.5625 77.65625 439.757812 77.453125 440.203125 77.601562 C 440.996094 77.863281 441.796875 78.113281 442.59375 78.363281 C 442.9375 78.476562 442.902344 78.671875 442.738281 78.945312 Z M 449.636719 83.355469 C 449.375 83.589844 449.101562 83.605469 448.898438 83.234375 C 448.6875 82.847656 448.402344 82.496094 448.246094 82.09375 C 448.132812 81.808594 448.152344 81.460938 448.179688 81.148438 C 448.191406 81.046875 448.464844 80.867188 448.558594 80.894531 C 449.398438 81.15625 450.011719 81.660156 449.957031 82.871094 C 449.902344 82.953125 449.808594 83.195312 449.636719 83.355469 Z M 449.636719 83.355469 " fill-opacity="1" fill-rule="nonzero"/></g></g></g></g><g clip-path="url(#348b685981)"><g clip-path="url(#05a94927f5)"><g clip-path="url(#34b50b950c)"><g clip-path="url(#d7b697a356)"><path fill="#000000" d="M 403.132812 91.445312 C 403.628906 91.621094 404.144531 91.609375 404.304688 92.175781 C 404.46875 92.777344 404.347656 93.320312 403.863281 93.757812 C 403.296875 94.273438 402.757812 94.816406 402.171875 95.3125 C 401.582031 95.816406 400.679688 95.828125 400.125 95.324219 C 399.964844 95.183594 399.875 94.882812 399.871094 94.65625 C 399.871094 93.949219 400.210938 93.351562 400.695312 92.871094 C 401.101562 92.464844 401.5625 92.097656 402.054688 91.796875 C 402.367188 91.601562 402.769531 91.558594 403.132812 91.445312 Z M 401.117188 95.136719 C 401.183594 95.121094 401.367188 95.148438 401.449219 95.070312 C 402.121094 94.4375 402.859375 93.851562 403.402344 93.125 C 403.824219 92.554688 403.507812 92.1875 402.761719 92.230469 C 402.648438 92.234375 402.515625 92.234375 402.421875 92.289062 C 401.554688 92.800781 400.710938 93.34375 400.53125 94.457031 C 400.453125 94.929688 400.578125 95.101562 401.117188 95.136719 Z M 401.117188 95.136719 " fill-opacity="1" fill-rule="nonzero"/></g></g></g></g><g clip-path="url(#2689ee3eb4)"><g clip-path="url(#9b24f6e7a8)"><g clip-path="url(#456d7a3f0f)"><g clip-path="url(#1d9ea5e0d8)"><path fill="#000000" d="M 404.296875 79.492188 C 404.429688 79.273438 404.53125 79.035156 404.695312 78.84375 C 404.8125 78.707031 405 78.636719 405.15625 78.539062 C 405.164062 78.707031 405.21875 78.886719 405.175781 79.039062 C 404.988281 79.730469 404.800781 80.421875 404.554688 81.09375 C 404.1875 82.085938 404.464844 82.957031 404.949219 83.816406 C 405.070312 84.039062 405.246094 84.238281 405.332031 84.472656 C 405.390625 84.636719 405.339844 84.84375 405.339844 85.03125 C 405.140625 84.964844 404.914062 84.9375 404.757812 84.820312 C 404.601562 84.699219 404.523438 84.484375 404.402344 84.308594 C 403.554688 83.058594 403.449219 81.742188 404.054688 80.359375 C 404.175781 80.085938 404.21875 79.78125 404.296875 79.492188 Z M 404.296875 79.492188 " fill-opacity="1" fill-rule="nonzero"/></g></g></g></g><g clip-path="url(#36dbde6dfe)"><g clip-path="url(#85f7cd02a4)"><g clip-path="url(#79bb2f0fa9)"><g clip-path="url(#f9e5299547)"><path fill="#000000" d="M 411.804688 83.398438 C 412.007812 83.648438 412.144531 83.816406 412.285156 83.984375 C 412.085938 84.105469 411.878906 84.332031 411.691406 84.316406 C 411.53125 84.300781 411.390625 84.015625 411.242188 83.847656 C 411.398438 83.726562 411.554688 83.601562 411.804688 83.398438 Z M 411.804688 83.398438 " fill-opacity="1" fill-rule="nonzero"/></g></g></g></g><g clip-path="url(#4bee44a527)"><g clip-path="url(#c59181f3b6)"><g clip-path="url(#4a02ebf1ab)"><g clip-path="url(#efec75aa5a)"><path fill="#000000" d="M 419.882812 83.441406 C 419.679688 83.53125 419.484375 83.671875 419.273438 83.695312 C 419.167969 83.703125 418.957031 83.507812 418.945312 83.386719 C 418.910156 83.074219 419.15625 82.929688 419.429688 82.96875 C 419.59375 82.988281 419.738281 83.148438 419.886719 83.246094 C 419.890625 83.308594 419.886719 83.375 419.882812 83.441406 Z M 419.882812 83.441406 " fill-opacity="1" fill-rule="nonzero"/></g></g></g></g><g clip-path="url(#df60fcdaca)"><g clip-path="url(#b2577a7ec8)"><g clip-path="url(#0ab323f7da)"><g clip-path="url(#cbe7dbdb17)"><path fill="#000000" d="M 424.789062 83.304688 C 424.527344 83.40625 424.335938 83.542969 424.265625 83.496094 C 424.105469 83.382812 424 83.1875 423.867188 83.023438 C 423.992188 82.945312 424.167969 82.769531 424.234375 82.804688 C 424.414062 82.894531 424.550781 83.078125 424.789062 83.304688 Z M 424.789062 83.304688 " fill-opacity="1" fill-rule="nonzero"/></g></g></g></g><g clip-path="url(#7488efafa6)"><g clip-path="url(#471fcaf54e)"><g clip-path="url(#7aa3f9c56c)"><g clip-path="url(#9be4efa31b)"><path fill="#000000" d="M 426.46875 82.390625 C 426.601562 82.6875 426.742188 82.855469 426.730469 83.019531 C 426.726562 83.117188 426.457031 83.308594 426.378906 83.277344 C 426.230469 83.214844 426.035156 83.027344 426.035156 82.890625 C 426.03125 82.761719 426.253906 82.625 426.46875 82.390625 Z M 426.46875 82.390625 " fill-opacity="1" fill-rule="nonzero"/></g></g></g></g><g clip-path="url(#9713280c63)"><g clip-path="url(#b9da43145a)"><g clip-path="url(#e3bf69b567)"><g clip-path="url(#7cb2b9c0af)"><path fill="#000000" d="M 406.355469 84.863281 C 406.179688 84.652344 406.089844 84.546875 406 84.441406 C 406.191406 84.316406 406.375 84.167969 406.582031 84.074219 C 406.632812 84.050781 406.769531 84.210938 406.867188 84.285156 C 406.71875 84.449219 406.570312 84.621094 406.355469 84.863281 Z M 406.355469 84.863281 " fill-opacity="1" fill-rule="nonzero"/></g></g></g></g><g clip-path="url(#92aa336bfb)"><g clip-path="url(#454df3f727)"><g clip-path="url(#3f93dffa4a)"><g clip-path="url(#fc416ac64f)"><path fill="#000000" d="M 403.335938 84.804688 C 403.023438 84.9375 402.859375 85.070312 402.722656 85.046875 C 402.585938 85.027344 402.472656 84.851562 402.351562 84.746094 C 402.492188 84.644531 402.625 84.480469 402.769531 84.472656 C 402.902344 84.460938 403.042969 84.621094 403.335938 84.804688 Z M 403.335938 84.804688 " fill-opacity="1" fill-rule="nonzero"/></g></g></g></g><g clip-path="url(#d9905bb340)"><g clip-path="url(#14ccfcf375)"><g clip-path="url(#50a65f7dc9)"><g clip-path="url(#67a693d51d)"><path fill="#000000" d="M 417.300781 82.960938 C 417.417969 83.140625 417.492188 83.25 417.566406 83.363281 C 417.40625 83.457031 417.253906 83.59375 417.082031 83.617188 C 416.996094 83.632812 416.878906 83.441406 416.777344 83.34375 C 416.929688 83.230469 417.082031 83.121094 417.300781 82.960938 Z M 417.300781 82.960938 " fill-opacity="1" fill-rule="nonzero"/></g></g></g></g><g clip-path="url(#fc10a878d1)"><g clip-path="url(#5c6012f997)"><g clip-path="url(#6393776894)"><g clip-path="url(#1b0655905f)"><path fill="#000000" d="M 429.664062 82.757812 C 429.414062 82.917969 429.261719 83.082031 429.179688 83.054688 C 429.042969 83.003906 428.949219 82.835938 428.835938 82.714844 C 428.933594 82.628906 429.03125 82.472656 429.117188 82.484375 C 429.261719 82.496094 429.398438 82.617188 429.664062 82.757812 Z M 429.664062 82.757812 " fill-opacity="1" fill-rule="nonzero"/></g></g></g></g><g fill="#000000" fill-opacity="1"><g transform="translate(14.620293, 113.345488)"><g><path d="M 88.234375 -34.089844 L 23.730469 -34.089844 C 19.550781 -34.089844 16.375 -37.265625 16.375 -41.441406 C 16.375 -45.621094 19.550781 -48.796875 23.730469 -48.796875 L 102.769531 -48.796875 L 102.769531 -58.488281 L 23.730469 -58.488281 C 13.871094 -58.488281 6.683594 -51.300781 6.683594 -41.441406 C 6.683594 -31.582031 13.871094 -24.398438 23.730469 -24.398438 L 88.234375 -24.398438 C 92.410156 -24.398438 95.585938 -21.222656 95.585938 -17.046875 C 95.585938 -12.867188 92.410156 -9.691406 88.234375 -9.691406 L 9.191406 -9.691406 L 9.191406 0 L 88.234375 0 C 98.09375 0 105.277344 -7.1875 105.277344 -17.046875 C 105.277344 -26.90625 98.09375 -34.089844 88.234375 -34.089844 Z M 88.234375 -34.089844 "/></g></g></g><g fill="#000000" fill-opacity="1"><g transform="translate(126.574496, 113.345488)"><g><path d="M 6.683594 0 L 16.375 0 L 16.375 -24.398438 L 88.234375 -24.398438 C 98.09375 -24.398438 105.277344 -31.582031 105.277344 -41.441406 C 105.277344 -51.300781 98.09375 -58.488281 88.234375 -58.488281 L 6.683594 -58.488281 Z M 16.375 -34.089844 L 16.375 -48.796875 L 88.234375 -48.796875 C 92.410156 -48.796875 95.585938 -45.621094 95.585938 -41.441406 C 95.585938 -37.265625 92.410156 -34.089844 88.234375 -34.089844 Z M 16.375 -34.089844 "/></g></g></g><g fill="#000000" fill-opacity="1"><g transform="translate(238.528699, 113.345488)"><g><path d="M 95.585938 -41.441406 L 95.585938 -34.089844 L 16.375 -34.089844 L 16.375 -41.441406 C 16.375 -45.621094 19.550781 -48.796875 23.730469 -48.796875 L 88.234375 -48.796875 C 92.410156 -48.796875 95.585938 -45.621094 95.585938 -41.441406 Z M 6.683594 0 L 16.375 0 L 16.375 -24.398438 L 95.585938 -24.398438 L 95.585938 0 L 105.277344 0 L 105.277344 -41.441406 C 105.277344 -51.300781 98.09375 -58.488281 88.234375 -58.488281 L 23.730469 -58.488281 C 13.871094 -58.488281 6.683594 -51.300781 6.683594 -41.441406 Z M 6.683594 0 "/></g></g></g><g fill="#000000" fill-opacity="1"><g transform="translate(350.482902, 113.345488)"><g><path d="M 16.375 -17.046875 L 16.375 -41.441406 C 16.375 -45.621094 19.550781 -48.796875 23.730469 -48.796875 L 105.277344 -48.796875 L 105.277344 -58.488281 L 23.730469 -58.488281 C 13.871094 -58.488281 6.683594 -51.300781 6.683594 -41.441406 L 6.683594 -17.046875 C 6.683594 -7.1875 13.871094 0 23.730469 0 L 105.277344 0 L 105.277344 -9.691406 L 23.730469 -9.691406 C 19.550781 -9.691406 16.375 -12.867188 16.375 -17.046875 Z M 16.375 -17.046875 "/></g></g></g><g fill="#000000" fill-opacity="1"><g transform="translate(462.437105, 113.345488)"><g><path d="M 6.683594 -41.441406 L 6.683594 -17.046875 C 6.683594 -7.1875 13.871094 0 23.730469 0 L 105.277344 0 L 105.277344 -9.691406 L 23.730469 -9.691406 C 19.550781 -9.691406 16.375 -12.867188 16.375 -17.046875 L 16.375 -24.398438 L 105.277344 -24.398438 L 105.277344 -34.089844 L 16.375 -34.089844 L 16.375 -41.441406 C 16.375 -45.621094 19.550781 -48.796875 23.730469 -48.796875 L 105.277344 -48.796875 L 105.277344 -58.488281 L 23.730469 -58.488281 C 13.871094 -58.488281 6.683594 -51.300781 6.683594 -41.441406 Z M 6.683594 -41.441406 "/></g></g></g><g fill="#000000" fill-opacity="1"><g transform="translate(574.391309, 113.345488)"><g><path d="M 6.683594 -34.089844 L 40.105469 -34.089844 L 40.105469 -24.398438 L 6.683594 -24.398438 Z M 6.683594 -34.089844 "/></g></g></g><g fill="#000000" fill-opacity="1"><g transform="translate(621.178122, 113.345488)"><g><path d="M 6.683594 0 L 16.375 0 L 16.375 -24.398438 L 76.035156 -24.398438 C 87.3125 -24.398438 95.585938 -16.125 95.585938 -4.847656 L 95.585938 0 L 105.277344 0 L 105.277344 -4.847656 C 105.277344 -15.375 100.515625 -24.148438 92.828125 -29.242188 C 100.515625 -34.339844 105.277344 -43.113281 105.277344 -53.640625 L 105.277344 -58.488281 L 95.585938 -58.488281 L 95.585938 -53.640625 C 95.585938 -42.363281 87.3125 -34.089844 76.035156 -34.089844 L 16.375 -34.089844 L 16.375 -58.488281 L 6.683594 -58.488281 Z M 6.683594 0 "/></g></g></g><g clip-path="url(#9b3b03790d)"><path fill="#212121" d="M 609.839844 75.398438 C 608.859375 75.398438 607.910156 75.398438 607.863281 75.402344 L 601.269531 75.890625 C 601.179688 75.898438 601.09375 75.910156 601.007812 75.929688 L 599.203125 76.347656 L 597.386719 72.496094 C 597.125 71.945312 596.59375 71.574219 595.988281 71.515625 L 591.054688 71.042969 C 591.054688 71.042969 589.425781 69.140625 589.425781 69.140625 C 589.097656 68.757812 588.617188 68.535156 588.109375 68.535156 L 582.875 68.535156 C 582.320312 68.535156 581.800781 68.800781 581.476562 69.246094 C 581.152344 69.691406 581.0625 70.265625 581.234375 70.789062 L 583.328125 77.121094 L 583.285156 77.121094 C 583.285156 77.121094 580.191406 75.585938 580.191406 75.585938 C 579.660156 75.320312 579.023438 75.347656 578.515625 75.660156 C 578.007812 75.972656 577.695312 76.523438 577.695312 77.113281 L 576.027344 77.113281 C 575.074219 77.113281 574.300781 77.882812 574.300781 78.828125 C 574.300781 79.777344 575.074219 80.546875 576.027344 80.546875 L 577.695312 80.546875 L 577.695312 82.261719 L 573.4375 82.261719 C 572.484375 82.261719 571.710938 83.03125 571.710938 83.976562 C 571.710938 84.921875 572.484375 85.691406 573.4375 85.691406 L 577.695312 85.691406 L 577.695312 87.40625 L 576.027344 87.40625 C 575.074219 87.40625 574.300781 88.175781 574.300781 89.121094 C 574.300781 90.070312 575.074219 90.839844 576.027344 90.839844 L 577.695312 90.839844 L 577.695312 90.84375 C 577.695312 91.4375 578.003906 91.992188 578.515625 92.304688 C 579.023438 92.617188 579.660156 92.644531 580.191406 92.378906 L 583.28125 90.84375 L 583.324219 90.84375 L 581.234375 97.164062 C 581.0625 97.6875 581.152344 98.261719 581.476562 98.707031 C 581.800781 99.152344 582.320312 99.414062 582.875 99.414062 L 588.109375 99.414062 C 588.617188 99.414062 589.097656 99.195312 589.425781 98.8125 L 591.054688 96.90625 C 591.054688 96.90625 595.988281 96.4375 595.988281 96.4375 C 596.59375 96.378906 597.125 96.007812 597.386719 95.457031 L 599.183594 91.648438 L 601.003906 92.070312 C 601.09375 92.09375 601.1875 92.105469 601.28125 92.113281 L 607.878906 92.550781 C 607.917969 92.550781 608.859375 92.554688 609.839844 92.554688 C 615.207031 92.554688 620.191406 89.800781 623.027344 85.273438 C 623.28125 84.871094 623.34375 84.402344 623.242188 83.976562 C 623.34375 83.546875 623.28125 83.082031 623.027344 82.679688 C 620.191406 78.152344 615.207031 75.398438 609.839844 75.398438 Z M 609.839844 75.398438 " fill-opacity="1" fill-rule="evenodd"/></g><path fill="#848ba4" d="M 582.871094 87.414062 L 587.277344 87.410156 L 587.277344 80.5625 L 582.871094 80.550781 C 582.601562 80.550781 582.339844 80.488281 582.101562 80.371094 C 582.101562 80.371094 581.148438 79.898438 581.148438 79.898438 C 581.148438 79.898438 581.148438 88.070312 581.148438 88.070312 L 582.101562 87.59375 C 582.339844 87.476562 582.605469 87.414062 582.871094 87.414062 Z M 582.871094 87.414062 " fill-opacity="1" fill-rule="evenodd"/><path fill="#9398aa" d="M 587.277344 84.839844 L 587.277344 80.5625 L 582.871094 80.550781 C 582.601562 80.550781 582.339844 80.488281 582.101562 80.371094 L 581.148438 79.898438 L 581.148438 85.496094 L 582.101562 85.023438 C 582.339844 84.902344 582.605469 84.839844 582.871094 84.839844 Z M 587.277344 84.839844 " fill-opacity="1" fill-rule="evenodd"/><path fill="#ffd08a" d="M 595.765625 77.140625 L 594.679688 74.835938 L 590.027344 74.394531 C 589.582031 74.351562 589.167969 74.136719 588.878906 73.796875 C 588.878906 73.796875 587.3125 71.96875 587.3125 71.96875 C 587.3125 71.96875 585.257812 71.96875 585.257812 71.96875 L 586.964844 77.132812 L 595.710938 77.152344 Z M 595.765625 77.140625 " fill-opacity="1" fill-rule="evenodd"/><path fill="#ffd08a" d="M 595.710938 90.839844 L 586.957031 90.84375 L 585.257812 95.984375 C 585.257812 95.984375 587.3125 95.984375 587.3125 95.984375 L 588.878906 94.15625 C 589.167969 93.816406 589.582031 93.601562 590.027344 93.558594 C 590.027344 93.558594 594.679688 93.113281 594.679688 93.113281 L 595.75 90.847656 Z M 595.710938 90.839844 " fill-opacity="1" fill-rule="evenodd"/><path fill="#63c6ff" d="M 595.910156 87.40625 L 595.910156 80.585938 L 590.730469 80.570312 L 590.730469 87.410156 Z M 595.910156 87.40625 " fill-opacity="1" fill-rule="evenodd"/><path fill="#8bd0f7" d="M 595.910156 84.832031 L 595.910156 80.585938 L 590.730469 80.570312 L 590.730469 84.835938 Z M 595.910156 84.832031 " fill-opacity="1" fill-rule="evenodd"/><path fill="#d5d9e2" d="M 606.265625 89.003906 L 606.265625 78.960938 L 601.660156 79.300781 L 599.359375 79.832031 L 599.359375 88.164062 L 601.652344 88.699219 Z M 606.265625 89.003906 " fill-opacity="1" fill-rule="evenodd"/><path fill="#f0f3f7" d="M 601.652344 86.125 L 606.265625 86.429688 L 606.265625 78.960938 L 601.660156 79.300781 L 599.359375 79.832031 L 599.359375 85.59375 Z M 601.652344 86.125 " fill-opacity="1" fill-rule="evenodd"/><path fill="#e54a5d" d="M 619.753906 83.976562 C 617.503906 80.761719 613.804688 78.828125 609.839844 78.828125 L 609.71875 78.828125 L 609.71875 89.121094 L 609.839844 89.121094 C 613.804688 89.121094 617.503906 87.191406 619.753906 83.976562 Z M 619.753906 83.976562 " fill-opacity="1" fill-rule="evenodd"/><path fill="#e8596a" d="M 618.714844 82.6875 C 616.449219 80.253906 613.242188 78.828125 609.839844 78.828125 L 609.71875 78.828125 L 609.71875 86.550781 L 609.839844 86.550781 C 613.242188 86.550781 616.449219 85.125 618.714844 82.6875 Z M 618.714844 82.6875 " fill-opacity="1" fill-rule="evenodd"/></svg>