<svg xmlns="http://www.w3.org/2000/svg" width="997" height="238" version="1.0" viewBox="0 0 747.75 178.5"><defs><clipPath id="C"><path d="M418 82h2v2h-2Zm0 0"/></clipPath><clipPath id="a"><path d="M382 78h10v12h-10Zm0 0"/></clipPath><clipPath id="c"><path d="m377.703 68.973 71.445-7.38 3.84 37.212-71.441 7.379Zm0 0"/></clipPath><clipPath id="d"><path d="m377.703 68.973 71.445-7.38 3.84 37.212-71.441 7.379Zm0 0"/></clipPath><clipPath id="e"><path d="M379 75h11v17h-11Zm0 0"/></clipPath><clipPath id="f"><path d="m377.703 68.973 71.445-7.38 3.84 37.212-71.441 7.379Zm0 0"/></clipPath><clipPath id="g"><path d="m377.703 68.973 71.445-7.38 3.84 37.212-71.441 7.379Zm0 0"/></clipPath><clipPath id="h"><path d="m377.703 68.973 71.445-7.38 3.84 37.212-71.441 7.379Zm0 0"/></clipPath><clipPath id="i"><path d="M386 69h64v34h-64Zm0 0"/></clipPath><clipPath id="j"><path d="m377.703 68.973 71.445-7.38 3.84 37.212-71.441 7.379Zm0 0"/></clipPath><clipPath id="k"><path d="m377.703 68.973 71.445-7.38 3.84 37.212-71.441 7.379Zm0 0"/></clipPath><clipPath id="l"><path d="m377.703 68.973 71.445-7.38 3.84 37.212-71.441 7.379Zm0 0"/></clipPath><clipPath id="m"><path d="M385 70h66v34h-66Zm0 0"/></clipPath><clipPath id="n"><path d="m377.703 68.973 71.445-7.38 3.84 37.212-71.441 7.379Zm0 0"/></clipPath><clipPath id="o"><path d="m377.703 68.973 71.445-7.38 3.84 37.212-71.441 7.379Zm0 0"/></clipPath><clipPath id="p"><path d="m377.703 68.973 71.445-7.38 3.84 37.212-71.441 7.379Zm0 0"/></clipPath><clipPath id="q"><path d="M399 91h6v5h-6Zm0 0"/></clipPath><clipPath id="r"><path d="m377.703 68.973 71.445-7.38 3.84 37.212-71.441 7.379Zm0 0"/></clipPath><clipPath id="s"><path d="m377.703 68.973 71.445-7.38 3.84 37.212-71.441 7.379Zm0 0"/></clipPath><clipPath id="t"><path d="m377.703 68.973 71.445-7.38 3.84 37.212-71.441 7.379Zm0 0"/></clipPath><clipPath id="u"><path d="M403 78h3v8h-3Zm0 0"/></clipPath><clipPath id="v"><path d="m377.703 68.973 71.445-7.38 3.84 37.212-71.441 7.379Zm0 0"/></clipPath><clipPath id="w"><path d="m377.703 68.973 71.445-7.38 3.84 37.212-71.441 7.379Zm0 0"/></clipPath><clipPath id="x"><path d="m377.703 68.973 71.445-7.38 3.84 37.212-71.441 7.379Zm0 0"/></clipPath><clipPath id="y"><path d="M411 83h2v2h-2Zm0 0"/></clipPath><clipPath id="z"><path d="m377.703 68.973 71.445-7.38 3.84 37.212-71.441 7.379Zm0 0"/></clipPath><clipPath id="A"><path d="m377.703 68.973 71.445-7.38 3.84 37.212-71.441 7.379Zm0 0"/></clipPath><clipPath id="B"><path d="m377.703 68.973 71.445-7.38 3.84 37.212-71.441 7.379Zm0 0"/></clipPath><clipPath id="b"><path d="m377.703 68.973 71.445-7.38 3.84 37.212-71.441 7.379Zm0 0"/></clipPath><clipPath id="D"><path d="m377.703 68.973 71.445-7.38 3.84 37.212-71.441 7.379Zm0 0"/></clipPath><clipPath id="E"><path d="m377.703 68.973 71.445-7.38 3.84 37.212-71.441 7.379Zm0 0"/></clipPath><clipPath id="F"><path d="m377.703 68.973 71.445-7.38 3.84 37.212-71.441 7.379Zm0 0"/></clipPath><clipPath id="G"><path d="M423 82h2v2h-2Zm0 0"/></clipPath><clipPath id="H"><path d="m377.703 68.973 71.445-7.38 3.84 37.212-71.441 7.379Zm0 0"/></clipPath><clipPath id="I"><path d="m377.703 68.973 71.445-7.38 3.84 37.212-71.441 7.379Zm0 0"/></clipPath><clipPath id="J"><path d="m377.703 68.973 71.445-7.38 3.84 37.212-71.441 7.379Zm0 0"/></clipPath><clipPath id="K"><path d="M426 82h1v2h-1Zm0 0"/></clipPath><clipPath id="L"><path d="m377.703 68.973 71.445-7.38 3.84 37.212-71.441 7.379Zm0 0"/></clipPath><clipPath id="M"><path d="m377.703 68.973 71.445-7.38 3.84 37.212-71.441 7.379Zm0 0"/></clipPath><clipPath id="N"><path d="m377.703 68.973 71.445-7.38 3.84 37.212-71.441 7.379Zm0 0"/></clipPath><clipPath id="O"><path d="M406 84h1v1h-1Zm0 0"/></clipPath><clipPath id="P"><path d="m377.703 68.973 71.445-7.38 3.84 37.212-71.441 7.379Zm0 0"/></clipPath><clipPath id="Q"><path d="m377.703 68.973 71.445-7.38 3.84 37.212-71.441 7.379Zm0 0"/></clipPath><clipPath id="R"><path d="m377.703 68.973 71.445-7.38 3.84 37.212-71.441 7.379Zm0 0"/></clipPath><clipPath id="S"><path d="M402 84h2v2h-2Zm0 0"/></clipPath><clipPath id="T"><path d="m377.703 68.973 71.445-7.38 3.84 37.212-71.441 7.379Zm0 0"/></clipPath><clipPath id="U"><path d="m377.703 68.973 71.445-7.38 3.84 37.212-71.441 7.379Zm0 0"/></clipPath><clipPath id="V"><path d="m377.703 68.973 71.445-7.38 3.84 37.212-71.441 7.379Zm0 0"/></clipPath><clipPath id="W"><path d="M416 82h2v2h-2Zm0 0"/></clipPath><clipPath id="X"><path d="m377.703 68.973 71.445-7.38 3.84 37.212-71.441 7.379Zm0 0"/></clipPath><clipPath id="Y"><path d="m377.703 68.973 71.445-7.38 3.84 37.212-71.441 7.379Zm0 0"/></clipPath><clipPath id="Z"><path d="m377.703 68.973 71.445-7.38 3.84 37.212-71.441 7.379Zm0 0"/></clipPath><clipPath id="aa"><path d="M428 82h2v2h-2Zm0 0"/></clipPath><clipPath id="ab"><path d="m377.703 68.973 71.445-7.38 3.84 37.212-71.441 7.379Zm0 0"/></clipPath><clipPath id="ac"><path d="m377.703 68.973 71.445-7.38 3.84 37.212-71.441 7.379Zm0 0"/></clipPath><clipPath id="ad"><path d="m377.703 68.973 71.445-7.38 3.84 37.212-71.441 7.379Zm0 0"/></clipPath><clipPath id="ae"><path d="M571.727 68.277h51.62V99.7h-51.62Zm0 0"/></clipPath></defs><g clip-path="url(#a)"><g clip-path="url(#b)"><g clip-path="url(#c)"><g clip-path="url(#d)"><path fill="#f2cc8f" d="M385.703 82.871c.02 0 .043.004.059 0-.133 0-.266-.008-.399-.008 1.047.028 2.086.207 3.082.54-.14-.048-.28-.094-.422-.141.454.152.922.32 1.329.566l-.422-.258c.043.028.082.059.12.09a33.856 33.856 0 0 0-.394-.367.844.844 0 0 1 .098.105c-.117-.152-.234-.308-.356-.464.008.015.02.027.028.043-.09-.172-.18-.348-.266-.52.024.043.035.086.055.129l-.164-.516c.012.047.02.09.023.137-.015-.164-.035-.328-.05-.492.003.129-.008.254-.024.383.02-.145.04-.293.055-.438-.086.688-.227 1.375-.512 2.012.055-.121.11-.238.16-.36a3.996 3.996 0 0 1-.848 1.223c.09-.09.18-.176.27-.262-.395.375-.863.66-1.371.848l.351-.129a3.794 3.794 0 0 1-1.367.227c.133 0 .266.008.399.008a3.852 3.852 0 0 1-.371-.032l1.859 3.551c.39-.418.734-.883 1-1.394.309-.59.574-1.22.71-1.868.161-.75.267-1.62.095-2.375a3.706 3.706 0 0 0-.512-1.23c-.32-.5-.77-.969-1.316-1.223a2.008 2.008 0 0 0-1.098-.187c-.242.035-.492.152-.715.261a6.368 6.368 0 0 0-1.61 1.094.77.77 0 0 0-.35.442 1.08 1.08 0 0 0-.134.617c.012.453.145.867.352 1.265.21.403.504.82.887 1.09.347.246.789.492 1.234.41a19.38 19.38 0 0 0 4.09-1.238c.36-.148.484-.738.484-1.058.008-.508-.207-1.11-.484-1.524-.293-.433-.676-.883-1.168-1.09-.14-.043-.281-.093-.422-.136a1.027 1.027 0 0 0-.75.117c-.254.11-.512.21-.773.304l.355-.128c-.965.351-1.957.617-2.969.8.66 1.278 1.328 2.551 1.989 3.825.515-.485 1.144-.926 1.812-1.18l-.355.129a.909.909 0 0 1 .27-.047c-.134-.004-.267-.008-.4-.008.04 0 .075.008.11.016-.14-.047-.281-.094-.418-.137.024.008.05.02.078.031l-.422-.258c.024.012.043.032.067.047-.133-.12-.266-.246-.399-.367a.25.25 0 0 1 .051.059 18.31 18.31 0 0 0-.351-.47.588.588 0 0 1 .039.067c-.09-.172-.18-.343-.266-.52.012.024.02.052.027.075-.05-.176-.105-.344-.16-.516.016.051.027.098.035.153-.015-.164-.035-.328-.054-.492.03.3.003.609-.028.906.016-.149.035-.293.051-.442a5.906 5.906 0 0 1-.457 1.633c.05-.12.105-.238.16-.36a6.48 6.48 0 0 1-1.168 1.735c-.055.121-.105.242-.16.364a16.72 16.72 0 0 1-.055.437c-.004.441.149.875.352 1.262.183.347.402.644.687.91.278.254.649.531 1.04.582a4.926 4.926 0 0 0 3.039-.567 4.569 4.569 0 0 0 1.89-1.984 7.277 7.277 0 0 0 .567-1.555c.117-.52.21-1.07.234-1.597.023-.676-.211-1.364-.566-1.93-.38-.601-.887-1.043-1.504-1.379-.52-.285-1.102-.472-1.66-.656-1.157-.379-2.325-.523-3.54-.55-.386-.009-.695.44-.78.753-.13.441-.02 1.035.16 1.441.226.512.554 1.024 1.019 1.352l.422.258c.258.14.531.187.816.156Zm0 0"/></g></g></g></g><g clip-path="url(#e)"><g clip-path="url(#f)"><g clip-path="url(#g)"><g clip-path="url(#h)"><path fill="#e07a5f" d="M388.148 78.504c-.34-.137-.68-.27-1.015-.406.168.07.336.136.5.199a105.38 105.38 0 0 1-4.778-2.063c-.433-.199-.882-.32-1.359-.37-.414-.044-.894-.06-1.297.09-.234.085-.472.194-.64.39-.239.277-.11.629.066.89a36.466 36.466 0 0 0 3.52 4.313c.066-.371.128-.746.195-1.117-1.258.597-2.508 1.199-3.766 1.793a.782.782 0 0 0-.394.507.56.56 0 0 0 .113.457c.258.45.797.75 1.289.883.555.157 1.113.309 1.668.461.531.145 1.086.262 1.61.45-.165-.07-.333-.137-.497-.204.047.024.09.043.133.067l-.406-.25c.027.015.055.039.078.058-.102-.093-.2-.191-.3-.285a.546.546 0 0 1 .1.133c-.058-.102-.113-.203-.171-.3.035.073.05.148.062.23-.007-.102-.02-.207-.027-.309.008.215-.062.414-.152.61.047-.094.086-.188.129-.282-.188.387-.422.754-.641 1.13-.23.398-.461.8-.695 1.202-.461.801-.93 1.606-1.391 2.406-.047.094-.086.188-.129.282a.558.558 0 0 0 .11.457c.171.304.476.535.792.68.34.16.7.269 1.067.34.285.058.566.074.851.05.25.004.493-.031.735-.11 1.844-.796 3.687-1.597 5.531-2.394.305-.133.7-.285.77-.672.062-.351-.235-.707-.497-.89a3.399 3.399 0 0 0-1.472-.59l-.582-.059a3.002 3.002 0 0 0-1.004.121c-1.84.801-3.68 1.598-5.524 2.399 1.141.566 2.282 1.136 3.426 1.699.735-1.266 1.469-2.54 2.2-3.805.171-.293.355-.586.507-.886.094-.188.192-.387.254-.586.067-.223.051-.418.024-.657-.028-.21-.133-.394-.254-.57-.219-.308-.594-.558-.934-.719-.457-.222-.933-.34-1.422-.472l-2.426-.668c.336.617.676 1.234 1.008 1.847 1.258-.597 2.512-1.195 3.77-1.793a.7.7 0 0 0 .195-1.117 36.08 36.08 0 0 1-3.515-4.308l-3.231.996c2.07.953 4.172 1.836 6.293 2.668.277.097.563.152.86.168.273.043.55.047.827.007.235-.011.454-.074.657-.18a.946.946 0 0 0 .453-.308c.187-.293.168-.613-.067-.89-.32-.364-.765-.551-1.207-.723Zm0 0"/></g></g></g></g><g clip-path="url(#i)"><g clip-path="url(#j)"><g clip-path="url(#k)"><g clip-path="url(#l)"><path fill="#f4f1de" d="m386.086 71.133 8.75 7.695s-3.52-1.055-4.313 2.129c-.289 1.168.59 1.64.438 3.484-.106 1.301.434 3.282.434 3.282l1.46.113 2.165 4.621s-6.551 7.746-4.403 9.824c2.746 2.645 26.285-10.46 26.285-10.46s32.239-3.778 32.973-9.102c.73-5.324-13.707-7.352-13.707-7.352s-6.188-2.07-19.18-.695c0 0-5.773-8.328-7.879-3.879-2.109 4.445-2.355 5.074-2.355 5.074l-7.281.563s-8.27-8.797-13.387-5.297Zm0 0"/></g></g></g></g><g clip-path="url(#m)"><g clip-path="url(#n)"><g clip-path="url(#o)"><g clip-path="url(#p)"><path d="M450 80.773c-.96-.707-2.05-1.285-3.156-1.75-1.278-.543-2.64-.898-3.961-1.355-.574-.191-1.117-.465-1.688-.652-1.39-.457-2.8-.856-4.18-1.348-1.413-.504-2.84-.816-4.355-.793-.973.02-1.945-.117-2.922-.117-1.273-.004-2.543-.082-3.816.168-.902.176-1.867.277-2.774.16-1.57-.203-3.125-.39-4.703-.086-.316.063-.648.066-.972.11-.524.07-.88-.172-1.18-.579-.55-.758-1.098-1.52-1.668-2.261-.625-.489-1.238-.989-1.86-1.485a15.278 15.278 0 0 1-1.374-.387c-.371-.03-.746-.054-1.118-.085-.484-.04-.824.207-1.082.624-.836 1.368-1.648 2.747-2.12 4.29-.141.457-.364.703-.887.687-.739-.027-1.485.012-2.227.02-.625.004-1.246.015-1.871.007-.434-.007-.875-.078-1.305-.046-1.023.062-1.98.011-2.82-.707-.121-.106-.242-.208-.367-.317a56.493 56.493 0 0 1-1.985-1.043c-1.086-.598-2.152-1.23-3.238-1.828-.918-.316-1.867-.57-2.734-.996-1.239-.606-2.492-.422-3.766-.332-.098.008-.195.098-.297.148.063.11.106.243.192.325.234.226.5.414.734.636.96.914 1.895 1.848 2.867 2.742 1.23 1.13 2.496 2.22 3.735 3.336.226.207.398.47.593.711-.34.008-.687.07-1.02.016-.593-.102-1.077.008-1.382.547-.215.394-.516.535-.965.535-.219 0-.574.148-.629.309-.137.406-.199.863-.16 1.289.02.183.352.355.57.492.23.148.34.387.051.441-.644.121-.746.64-.96 1.082-.333.688-.262.938.41 1.297.515.274.949.555.581 1.23.028.395 0 .797.086 1.176.282 1.286.754 1.739 2.188 1.711.07 0 .14-.015.21-.023.372-.043.641.105.79.437.437.973.879 1.946 1.285 2.926.078.195.098.48.012.664-.414.856-.797 1.739-1.336 2.516-1.317 1.906-2.39 3.902-3.04 6.137-.374 1.293.169 2.035 1.532 1.988.465-.012.93.008 1.394-.016.25-.011.516-.039.75-.12.68-.227 1.348-.481 2.02-.724.367-.136.727-.324 1.102-.41.175-.148.359-.293.543-.437 1.636-1.254 3.457-2.285 5.332-3.14.5-.227 1.003-.446 1.515-.653a7.272 7.272 0 0 1 1.664-.8c.02-.005.04-.02.059-.032 1.832-.906 3.652-1.824 5.496-2.707.648-.313 1.379-.461 2-.813 1.48-.847 3.11-1.246 4.723-1.68 1.546-.413 3.14-.663 4.699-1.046 2.512-.614 5.031-1.16 7.586-1.532 2.578-.375 5.168-.664 7.699-1.296 1.195-.301 2.348-.75 3.523-1.125 1.2-.387 2.41-.73 3.59-1.16 1.203-.434 2.375-.95 3.559-1.438.258-.106.535-.215.734-.395 1.055-.949 1.328-2.14.094-3.043Zm-12.129-3.328c.172-.465.406-.527.875-.343.422.168.418.453.238.777-.273.496-.566.988-.879 1.469-.074.117-.242.175-.367.265-.066-.136-.16-.273-.191-.418-.035-.152-.008-.316-.012-.523.102-.383.188-.813.336-1.227Zm-4.695-.457c.129-.375.39-.781.71-.992.278-.176.723-.101 1.098-.14l.008.093c.16.012.332-.008.485.043.25.086.566.16.687.344.07.11-.113.504-.289.637-.527.41-1.074.808-1.668 1.101-.262.125-.809.102-.945-.074-.184-.223-.196-.703-.086-1.012Zm-24.836-1.605c.695-1.254 1.414-2.496 2.086-3.762.383-.719.832-.836 1.379-.203.668.766 1.25 1.598 1.882 2.39.313.395.653.77.973 1.16.106.137.18.302.274.454-.145.062-.278.16-.426.176-.496.066-1 .101-1.504.148a.891.891 0 0 1-.008-.105c-.277-.008-.555-.04-.832-.02-1.18.07-2.36.16-3.539.23-.14.008-.29-.062-.434-.097.047-.125.082-.254.149-.371Zm-15.559.793.004-.004a.224.224 0 0 0 .043.043c0 .008-.008.015-.008.027-.007.04-.054.07-.097.043-.563-.37-.782-.68-1.348-1.043-.008.008-.152-.148-.207-.191l-.09-.074c-.539-.489-1.086-.977-1.629-1.47.004-.003.004-.003.004-.007-.058-.043-.125-.082-.183-.133-.778-.62-.836-.742-1.551-1.234-.176-.18-.348-.36-.524-.535.399.039 2.414 1.742 2.414 1.742l1.688 1.535Zm-3.476-4.063c.222.063.43.16.632.262.192.098.375.2.563.305.176.097.352.183.535.27.207.1.414.21.61.331.085.04.175.078.257.13 1.461.796 2.903 1.632 4.336 2.484.848.503 1.668 1.07 2.504 1.597.195.121.43.184.613.317.247.18.52.37.668.62.2.329.079.563-.367.571-1.136.02-2.277.07-3.414.09a.986.986 0 0 1-.578-.192c-.547-.43-1.07-.886-1.59-1.347-.25-.223-.488-.457-.066-.781.101-.075.129-.418.043-.532a4.787 4.787 0 0 0-.84-.914c-.832-.68-1.64-1.222-2.484-1.886-.075-.024-.192-.157-.254-.204-.246-.18-.121-.093-.336-.254-.184-.136-.176-.097-.332-.265-.016-.02-.563-.395-.559-.422 0 0 0-.004-.004-.004-.05-.012-.066-.05-.062-.09Zm5.586 17.84c-.329-.71-.559-1.469-.907-2.168-.3-.594-.73-1.117-1.058-1.695a41.713 41.713 0 0 1-1.317-2.52c-.636-1.336-.332-2.629.313-3.867.098-.183.39-.348.61-.375.6-.07 1.206-.07 1.812-.082.136-.004.3.012.398.09.598.46 1.281.457 1.992.441.88-.015 1.762.043 2.641.059.688.008.75.066.688.762-.012.093-.016.183-.024.277-.008.004-.016 0-.027 0-.016.21.004.426-.055.621-.367 1.219.098 2.293.606 3.332.523 1.078 1.144 2.11 1.742 3.149.27.472-.055.57-.383.664-.961.277-1.93.527-2.887.812-.996.297-1.992.61-2.98.942-.782.265-.825.289-1.164-.442Zm-2.102 9.809c-.375.77-.66 1.582-1.012 2.363-.066.148-.261.242-.398.363-.082-.199-.258-.414-.227-.59.078-.43.239-.847.395-1.257.633-1.649 1.515-3.164 2.418-4.68.398-.676.664-1.422 1.027-2.121.188-.36.457-.684.676-1.028.098-.152.16-.32.238-.48-.031-.008-.062-.016-.097-.023 0-.293-.125-.711.015-.852.285-.273.711-.414 1.09-.574.387-.156.79-.278 1.191-.399.094-.027.207.016.313.024-.027.086-.04.183-.09.254-.437.656-.883 1.308-1.316 1.965-1.512 2.289-3.012 4.578-4.223 7.035Zm49.95-20.817c-.848 1.41-1.122 2.926-.75 4.532.077.355-.118.39-.372.418-.926.093-1.851.21-2.777.28-.86.067-1.719.071-2.578.122-.907.05-1.23.496-.918 1.34.183.496.469.957.75 1.406.176.281.148.398-.172.48-.563.145-1.113.356-1.684.446-1.265.203-2.543.336-3.804.523-1.223.184-2.442.367-3.653.61-.953.195-1.886.484-2.828.722-.473.121-.95.227-1.422.332-1.273.285-2.55.567-3.82.848-.7.16-.785.11-1-.57-.027-.086-.047-.18-.07-.27-.254-1.05-.317-1.094-1.43-.922-2.762.43-5.348 1.438-7.887 2.543-1.015.442-1.941 1.113-2.851 1.75-1.22.848-2.383 1.778-3.57 2.668-.15.113-.317.195-.473.297-1.192.8-2.364 1.633-3.578 2.395-.961.601-1.926 1.214-3.07 1.433-.282.055-.36-.031-.247-.285a1.7 1.7 0 0 1 .18-.3c.73-1.016 1.469-2.024 2.187-3.052.344-.492.668-1 .957-1.53.63-1.161 1.239-2.333 1.84-3.509.223-.433.387-.89.594-1.328.18-.383.5-.578.922-.668 1.664-.355 3.316-.758 4.98-1.082 1.211-.238 2.434-.379 3.657-.566 1.148-.176 2.293-.41 3.445-.516 1.922-.18 3.863-.199 5.781-.433 1.742-.211 3.48-.204 5.227-.153 1.507.04 3.02.094 4.527.125.414.008.824-.062 1.27-.234-.172-.035-.344-.106-.52-.11-1.437-.074-2.879-.128-4.32-.19-.813-.032-1.625-.024-2.434-.102-1.351-.125-2.691-.02-4.039.105-2.203.2-4.418.27-6.617.473-1.477.136-2.945.394-4.414.62-1.219.188-2.434.4-3.645.618-.508.094-.851-.07-1.105-.508-.559-.965-1.192-1.887-1.688-2.879-.757-1.515-.84-3.117-.261-4.719.093-.261.43-.437.652-.652-.211-.82-.305-1.676-1.059-2.266-.402-.312-.32-.55.207-.582.598-.035 1.2.079 1.801.079 1.438.004 2.88-.02 4.317-.04.652-.007 1.304-.046 1.953-.05.14-.004.289.086.43.133-.055.144-.083.304-.169.43-.84 1.202-1.449 2.495-1.445 3.984.004.64.129 1.28.254 1.914.066.328.102.574-.219.785-.105.066-.215.289-.172.379.047.117.254.254.375.238.489-.07 1.082.324 1.461-.297.024-.039.133-.015.192-.047.144-.062.285-.136.425-.207-.152-.09-.308-.254-.457-.246-.378.02-.457-.207-.566-.48-.918-2.36-.156-4.407 1.227-6.317.14-.199.445-.379.687-.402.875-.078 1.758-.082 2.64-.121.235-.012.466-.047.692-.074.547-.07 1.094-.137 1.64-.211.31-.043.4.047.216.332-.278.43-.563.855-.801 1.308-.3.575-.578 1.164-.817 1.766-.367.937-.203 1.867.098 2.789.121.371.399.805-.32.918-.078.012-.184.457-.149.48.2.114.465.254.657.207a2.49 2.49 0 0 0 .937-.48c.125-.102.164-.41.121-.598-.137-.539-.387-1.05-.484-1.59-.086-.464-.153-1 0-1.425.426-1.172.953-2.313 1.484-3.446.098-.21.39-.421.625-.46.895-.153 1.801-.313 2.7-.32.808-.009 1.617.171 2.421.284.317.043.278.246.16.457-.199.368-.39.743-.605 1.098-.844 1.398-.711 2.879-.41 4.379.039.203.09.414.168.601.16.375.199.625-.36.52-.086-.02-.21.176-.32.277.129.106.29.328.375.301.379-.11.684-.05 1.047.102.36.148.602-.22.48-.653-.214-.777-.441-1.554-.62-2.34-.25-1.066.038-2.066.452-3.035.11-.257.297-.492.36-.754.172-.714.644-.921 1.324-.957 1.602-.074 3.2-.203 4.8-.289.372-.02.743.043 1.118.082.324.032.453.211.332.528-.043.105-.082.218-.14.316-1.055 1.684-.848 3.5-.551 5.32.039.239.16.493.312.684.086.113.317.156.473.14.058-.003.144-.273.129-.406a8.331 8.331 0 0 0-.207-1.023c-.282-1.09-.371-2.2-.086-3.293.176-.664.488-1.293.777-1.926.11-.242.945-.406 1.149-.242.054.047.07.219.027.29-1.145 1.898-.559 3.796-.027 5.694.082.293.242.454.546.407 1.258-.18 2.512-.266 3.72-.801 1.007-.445 1.605-1.149 2.058-2.055.183-.363.27-.777.367-1.18.101-.406.297-.609.742-.46.793.261 1.594.511 2.39.761.344.114.31.309.145.582Zm6.898 4.41c-.262.235-.535.25-.739-.12-.21-.387-.496-.739-.652-1.141-.113-.285-.094-.633-.066-.946.011-.101.285-.28.379-.253.84.261 1.453.765 1.398 1.976-.055.082-.148.324-.32.484Zm0 0"/></g></g></g></g><g clip-path="url(#q)"><g clip-path="url(#r)"><g clip-path="url(#s)"><g clip-path="url(#t)"><path d="M403.133 91.445c.496.176 1.012.164 1.172.73.164.602.043 1.145-.442 1.583-.566.515-1.105 1.058-1.691 1.555-.59.503-1.492.515-2.047.011-.16-.14-.25-.441-.254-.668 0-.707.34-1.304.824-1.785a7.381 7.381 0 0 1 1.36-1.074c.312-.195.715-.238 1.078-.352Zm-2.016 3.692c.067-.016.25.011.332-.067.672-.632 1.41-1.218 1.953-1.945.422-.57.106-.938-.64-.895-.114.004-.246.004-.34.06-.867.51-1.711 1.054-1.89 2.167-.079.473.046.645.585.68Zm0 0"/></g></g></g></g><g clip-path="url(#u)"><g clip-path="url(#v)"><g clip-path="url(#w)"><g clip-path="url(#x)"><path d="M404.297 79.492c.133-.219.234-.457.398-.648.118-.137.305-.207.461-.305.008.168.063.348.02.5-.188.691-.375 1.383-.621 2.055-.368.992-.09 1.863.394 2.722.121.223.297.422.383.657.059.164.008.37.008.558-.2-.066-.426-.094-.582-.21-.156-.122-.235-.337-.356-.512-.847-1.25-.953-2.567-.347-3.95.12-.273.164-.578.242-.867Zm0 0"/></g></g></g></g><g clip-path="url(#y)"><g clip-path="url(#z)"><g clip-path="url(#A)"><g clip-path="url(#B)"><path d="M411.805 83.398c.203.25.34.418.48.586-.2.121-.406.348-.594.332-.16-.015-.3-.3-.449-.468.156-.121.313-.246.563-.45Zm0 0"/></g></g></g></g><g clip-path="url(#C)"><g clip-path="url(#D)"><g clip-path="url(#E)"><g clip-path="url(#F)"><path d="M419.883 83.441c-.203.09-.399.23-.61.254-.105.008-.316-.187-.328-.308-.035-.313.211-.457.485-.418.164.02.308.18.457.277.004.063 0 .129-.004.195Zm0 0"/></g></g></g></g><g clip-path="url(#G)"><g clip-path="url(#H)"><g clip-path="url(#I)"><g clip-path="url(#J)"><path d="M424.79 83.305c-.263.101-.454.238-.524.191-.16-.113-.266-.308-.399-.473.125-.078.301-.253.367-.218.18.09.317.273.555.5Zm0 0"/></g></g></g></g><g clip-path="url(#K)"><g clip-path="url(#L)"><g clip-path="url(#M)"><g clip-path="url(#N)"><path d="M426.469 82.39c.133.297.273.465.261.63-.003.097-.273.289-.351.257-.149-.062-.344-.25-.344-.386-.004-.13.219-.266.434-.5Zm0 0"/></g></g></g></g><g clip-path="url(#O)"><g clip-path="url(#P)"><g clip-path="url(#Q)"><g clip-path="url(#R)"><path d="M406.355 84.863c-.175-.21-.265-.316-.355-.422.191-.125.375-.273.582-.367.05-.023.188.137.285.211-.148.164-.297.336-.512.578Zm0 0"/></g></g></g></g><g clip-path="url(#S)"><g clip-path="url(#T)"><g clip-path="url(#U)"><g clip-path="url(#V)"><path d="M403.336 84.805c-.313.132-.477.265-.613.242-.137-.02-.25-.195-.371-.3.14-.102.273-.267.418-.274.132-.012.273.148.566.332Zm0 0"/></g></g></g></g><g clip-path="url(#W)"><g clip-path="url(#X)"><g clip-path="url(#Y)"><g clip-path="url(#Z)"><path d="m417.3 82.96.266.403c-.16.094-.312.23-.484.254-.086.016-.203-.176-.305-.273.153-.114.305-.223.524-.383Zm0 0"/></g></g></g></g><g clip-path="url(#aa)"><g clip-path="url(#ab)"><g clip-path="url(#ac)"><g clip-path="url(#ad)"><path d="M429.664 82.758c-.25.16-.402.324-.484.297-.137-.051-.23-.22-.344-.34.098-.086.195-.242.281-.23.145.011.281.132.547.273Zm0 0"/></g></g></g></g><path d="M102.855 79.256H38.35c-4.18 0-7.356-3.176-7.356-7.352 0-4.18 3.176-7.355 7.356-7.355h79.039v-9.692H38.35c-9.859 0-17.046 7.188-17.046 17.047 0 9.86 7.187 17.043 17.047 17.043h64.504c4.175 0 7.351 3.176 7.351 7.352 0 4.18-3.176 7.355-7.351 7.355H23.812v9.691h79.043c9.859 0 17.043-7.187 17.043-17.046 0-9.86-7.184-17.043-17.043-17.043ZM133.258 113.345h9.691V88.947h71.86c9.86 0 17.043-7.184 17.043-17.043 0-9.86-7.184-17.047-17.043-17.047h-81.55Zm9.691-34.09V64.55h71.86c4.176 0 7.351 3.175 7.351 7.355 0 4.176-3.175 7.352-7.351 7.352ZM334.115 71.904v7.352h-79.211v-7.352c0-4.18 3.175-7.355 7.355-7.355h64.504c4.176 0 7.352 3.175 7.352 7.355Zm-88.903 41.441h9.692V88.947h79.21v24.398h9.692v-41.44c0-9.86-7.184-17.048-17.043-17.048H262.26c-9.86 0-17.047 7.188-17.047 17.047ZM366.858 96.299V71.904c0-4.18 3.176-7.355 7.355-7.355h81.547v-9.692h-81.547c-9.859 0-17.047 7.188-17.047 17.047V96.3c0 9.859 7.188 17.046 17.047 17.046h81.547v-9.69h-81.547c-4.18 0-7.355-3.177-7.355-7.356ZM469.12 71.904V96.3c0 9.859 7.188 17.046 17.048 17.046h81.546v-9.69h-81.546c-4.18 0-7.356-3.177-7.356-7.356v-7.352h88.902v-9.691h-88.902v-7.352c0-4.18 3.176-7.355 7.356-7.355h81.546v-9.692h-81.546c-9.86 0-17.047 7.188-17.047 17.047ZM581.075 79.256h33.422v9.691h-33.422ZM627.862 113.345h9.691V88.947h59.66c11.278 0 19.551 8.273 19.551 19.55v4.848h9.691v-4.847c0-10.528-4.761-19.3-12.449-24.395 7.688-5.097 12.45-13.87 12.45-24.398v-4.848h-9.692v4.848c0 11.277-8.273 19.55-19.55 19.55h-59.66V54.858h-9.692Zm0 0"/><g clip-path="url(#ae)"><path fill="#212121" fill-rule="evenodd" d="M609.84 75.398c-.98 0-1.93 0-1.977.004l-6.593.489a1.92 1.92 0 0 0-.262.039l-1.805.418-1.816-3.852a1.732 1.732 0 0 0-1.399-.98l-4.933-.473-1.63-1.902a1.734 1.734 0 0 0-1.316-.606h-5.234a1.73 1.73 0 0 0-1.398.711 1.713 1.713 0 0 0-.243 1.543l2.094 6.332h-.043l-3.094-1.535a1.73 1.73 0 0 0-1.675.074c-.508.313-.82.863-.82 1.453h-1.669c-.953 0-1.726.77-1.726 1.715 0 .95.773 1.719 1.726 1.719h1.668v1.715h-4.258c-.953 0-1.726.77-1.726 1.715 0 .945.773 1.714 1.726 1.714h4.258v1.715h-1.668c-.953 0-1.726.77-1.726 1.715 0 .95.773 1.719 1.726 1.719h1.668v.004c0 .594.309 1.148.82 1.46a1.73 1.73 0 0 0 1.676.075l3.09-1.535h.043l-2.09 6.32a1.713 1.713 0 0 0 1.641 2.25h5.234a1.73 1.73 0 0 0 1.317-.602l1.629-1.906 4.933-.469a1.732 1.732 0 0 0 1.399-.98l1.797-3.809 1.82.422c.09.024.183.035.277.043l6.598.438c.039 0 .98.004 1.96.004a15.556 15.556 0 0 0 13.188-7.282 1.69 1.69 0 0 0 .215-1.296c.102-.43.04-.895-.215-1.297a15.556 15.556 0 0 0-13.187-7.282Zm0 0"/></g><path fill="#848ba4" fill-rule="evenodd" d="m582.871 87.414 4.406-.004v-6.847l-4.406-.012a1.74 1.74 0 0 1-.77-.18l-.953-.473v8.172l.954-.476c.238-.117.503-.18.77-.18Zm0 0"/><path fill="#9398aa" fill-rule="evenodd" d="M587.277 84.84v-4.278l-4.406-.011a1.74 1.74 0 0 1-.77-.18l-.953-.473v5.598l.954-.473c.238-.12.503-.183.77-.183Zm0 0"/><path fill="#ffd08a" fill-rule="evenodd" d="m595.766 77.14-1.086-2.304-4.653-.441a1.728 1.728 0 0 1-1.148-.598l-1.567-1.828h-2.054l1.707 5.164 8.746.02ZM595.71 90.84l-8.753.004-1.7 5.14h2.056l1.566-1.828c.289-.34.703-.554 1.148-.597l4.653-.446 1.07-2.265Zm0 0"/><path fill="#63c6ff" fill-rule="evenodd" d="M595.91 87.406v-6.82l-5.18-.016v6.84Zm0 0"/><path fill="#8bd0f7" fill-rule="evenodd" d="M595.91 84.832v-4.246l-5.18-.016v4.266Zm0 0"/><path fill="#d5d9e2" fill-rule="evenodd" d="M606.266 89.004V78.96l-4.606.34-2.3.531v8.332l2.292.535Zm0 0"/><path fill="#f0f3f7" fill-rule="evenodd" d="m601.652 86.125 4.614.305v-7.47l-4.606.34-2.3.532v5.762Zm0 0"/><path fill="#e54a5d" fill-rule="evenodd" d="M619.754 83.977a12.1 12.1 0 0 0-9.914-5.149h-.121v10.293h.12c3.966 0 7.665-1.93 9.915-5.144Zm0 0"/><path fill="#e8596a" fill-rule="evenodd" d="M618.715 82.688a12.13 12.13 0 0 0-8.875-3.86h-.121v7.723h.12a12.12 12.12 0 0 0 8.876-3.864Zm0 0"/></svg>