<svg xmlns="http://www.w3.org/2000/svg" xmlns:xlink="http://www.w3.org/1999/xlink" width="997" zoomAndPan="magnify" viewBox="0 0 747.75 178.499995" height="238" preserveAspectRatio="xMidYMid meet" version="1.0"><defs><g/></defs><g fill="#ffbd59" fill-opacity="1"><g transform="translate(1.49251, 132.797517)"><g><path d="M 75.328125 -87.34375 L 75.328125 -79.703125 L 15.28125 -79.703125 L 15.28125 -7.640625 L 76.421875 -7.640625 L 76.421875 0 L 6.546875 0 L 6.546875 -87.34375 Z M 75.328125 -73.578125 L 75.328125 -65.9375 L 30.5625 -65.9375 L 30.5625 -54.6875 L 74.234375 -54.6875 L 74.234375 -47.046875 L 21.828125 -47.046875 L 21.828125 -73.578125 Z M 74.234375 -40.9375 L 74.234375 -33.296875 L 30.5625 -33.296875 L 30.5625 -21.390625 L 76.421875 -21.390625 L 76.421875 -13.75 L 21.828125 -13.75 L 21.828125 -40.9375 Z M 74.234375 -40.9375 "/></g></g></g><g fill="#000000" fill-opacity="1"><g transform="translate(81.837346, 132.797517)"><g><path d="M 48.03125 -64.40625 L 48.03125 -22.921875 L 4.359375 -22.921875 L 4.359375 -64.40625 Z M 39.515625 -56.765625 L 12.875 -56.765625 L 12.875 -30.5625 L 39.515625 -30.5625 Z M 32.96875 -50.21875 L 32.96875 -37.125 L 19.546875 -37.125 L 19.546875 -50.21875 Z M 32.96875 -50.21875 "/></g></g></g><g fill="#FFFFFF" fill-opacity="1"><g transform="translate(134.240026, 132.797517)"><g><path d="M 48.46875 0 L 40.171875 0 L 30.5625 -30.890625 L 30.5625 0 L 21.828125 0 L 21.828125 -87.453125 Z M 82.640625 0 L 73.90625 0 L 73.90625 -30.890625 L 64.296875 0 L 56 0 L 82.640625 -87.453125 Z M 15.28125 -87.34375 L 15.28125 0 L 6.546875 0 L 6.546875 -87.34375 Z M 37.453125 -87.34375 L 52.40625 -36.359375 L 67.140625 -87.34375 L 75.65625 -87.34375 L 52.40625 -10.8125 L 29.046875 -87.34375 Z M 97.921875 -87.34375 L 97.921875 0 L 89.1875 0 L 89.1875 -87.34375 Z M 97.921875 -87.34375 "/></g></g></g><g fill="#FFFFFF" fill-opacity="1"><g transform="translate(238.717861, 132.797517)"><g><path d="M 75.328125 -87.34375 L 75.328125 -79.703125 L 15.28125 -79.703125 L 15.28125 -7.640625 L 76.421875 -7.640625 L 76.421875 0 L 6.546875 0 L 6.546875 -87.34375 Z M 75.328125 -73.578125 L 75.328125 -65.9375 L 30.5625 -65.9375 L 30.5625 -54.6875 L 74.234375 -54.6875 L 74.234375 -47.046875 L 21.828125 -47.046875 L 21.828125 -73.578125 Z M 74.234375 -40.9375 L 74.234375 -33.296875 L 30.5625 -33.296875 L 30.5625 -21.390625 L 76.421875 -21.390625 L 76.421875 -13.75 L 21.828125 -13.75 L 21.828125 -40.9375 Z M 74.234375 -40.9375 "/></g></g></g><g fill="#FFFFFF" fill-opacity="1"><g transform="translate(319.068633, 132.797517)"><g><path d="M 49.125 -87.34375 C 60.039062 -87.34375 68.226562 -85.082031 73.6875 -80.5625 C 79.144531 -76.050781 81.875 -69.359375 81.875 -60.484375 C 81.875 -54.003906 80.691406 -48.597656 78.328125 -44.265625 C 75.960938 -39.941406 72.34375 -36.648438 67.46875 -34.390625 L 81.875 0 L 72.703125 0 L 57.421875 -38.96875 C 62.734375 -39.988281 66.644531 -42.207031 69.15625 -45.625 C 71.664062 -49.050781 72.921875 -53.785156 72.921875 -59.828125 C 72.921875 -66.597656 70.828125 -71.601562 66.640625 -74.84375 C 62.460938 -78.082031 55.859375 -79.703125 46.828125 -79.703125 L 15.28125 -79.703125 L 15.28125 0 L 6.546875 0 L 6.546875 -87.34375 Z M 48.46875 -73.578125 C 54.289062 -73.578125 58.691406 -72.375 61.671875 -69.96875 C 64.660156 -67.570312 66.15625 -64.007812 66.15625 -59.28125 C 66.15625 -54.1875 64.734375 -50.363281 61.890625 -47.8125 C 59.054688 -45.269531 54.726562 -44 48.90625 -44 L 21.828125 -44 L 21.828125 -73.578125 Z M 48.6875 -51.640625 C 51.53125 -51.640625 53.660156 -52.273438 55.078125 -53.546875 C 56.492188 -54.816406 57.203125 -56.691406 57.203125 -59.171875 C 57.203125 -63.679688 54.363281 -65.9375 48.6875 -65.9375 L 30.015625 -65.9375 L 30.015625 -51.640625 Z M 46.5 -37.984375 C 47.738281 -37.984375 49.378906 -38.054688 51.421875 -38.203125 L 65.71875 0 L 56.65625 0 L 45.859375 -30.34375 L 30.5625 -30.34375 L 30.5625 0 L 21.828125 0 L 21.828125 -37.984375 Z M 46.5 -37.984375 "/></g></g></g><g fill="#FFFFFF" fill-opacity="1"><g transform="translate(404.987188, 132.797517)"><g><path d="M 45.75 2.734375 C 36.71875 2.734375 29.085938 0.953125 22.859375 -2.609375 C 16.640625 -6.179688 11.910156 -11.441406 8.671875 -18.390625 C 5.441406 -25.347656 3.828125 -33.847656 3.828125 -43.890625 C 3.828125 -54.003906 5.425781 -62.484375 8.625 -69.328125 C 11.820312 -76.171875 16.492188 -81.335938 22.640625 -84.828125 C 28.796875 -88.316406 36.316406 -90.0625 45.203125 -90.0625 C 50.804688 -90.0625 56.242188 -89.332031 61.515625 -87.875 C 66.796875 -86.425781 72.019531 -84.242188 77.1875 -81.328125 L 73.6875 -74.890625 C 69.03125 -77.441406 64.445312 -79.332031 59.9375 -80.5625 C 55.425781 -81.800781 50.769531 -82.421875 45.96875 -82.421875 C 35.039062 -82.421875 26.773438 -79.164062 21.171875 -72.65625 C 15.566406 -66.144531 12.765625 -56.59375 12.765625 -44 C 12.765625 -35.625 14.054688 -28.523438 16.640625 -22.703125 C 19.234375 -16.878906 23.039062 -12.457031 28.0625 -9.4375 C 33.082031 -6.414062 39.226562 -4.90625 46.5 -4.90625 C 56.40625 -4.90625 65.648438 -7.78125 74.234375 -13.53125 L 77.953125 -6.984375 C 72.566406 -3.640625 67.34375 -1.1875 62.28125 0.375 C 57.21875 1.945312 51.707031 2.734375 45.75 2.734375 Z M 46.828125 -10.8125 C 37.953125 -10.8125 31.1875 -13.613281 26.53125 -19.21875 C 21.875 -24.820312 19.546875 -33.082031 19.546875 -44 C 19.546875 -54.84375 21.875 -62.972656 26.53125 -68.390625 C 31.1875 -73.816406 37.914062 -76.53125 46.71875 -76.53125 C 55.019531 -76.53125 62.957031 -74.128906 70.53125 -69.328125 L 66.8125 -62.671875 C 63.46875 -64.847656 60.25 -66.425781 57.15625 -67.40625 C 54.0625 -68.394531 50.875 -68.890625 47.59375 -68.890625 C 43.300781 -68.890625 39.753906 -68.066406 36.953125 -66.421875 C 34.148438 -64.785156 32.039062 -62.128906 30.625 -58.453125 C 29.207031 -54.785156 28.5 -49.96875 28.5 -44 C 28.5 -34.96875 30.097656 -28.453125 33.296875 -24.453125 C 36.492188 -20.453125 41.1875 -18.453125 47.375 -18.453125 C 54.4375 -18.453125 61.097656 -20.742188 67.359375 -25.328125 L 71.078125 -19 C 66.921875 -16.15625 62.894531 -14.078125 59 -12.765625 C 55.113281 -11.460938 51.054688 -10.8125 46.828125 -10.8125 Z M 46.828125 -10.8125 "/></g></g></g><g fill="#FFFFFF" fill-opacity="1"><g transform="translate(484.137072, 132.797517)"><g><path d="M 37.875 -87.34375 L 8.84375 0 L 0.546875 0 L 30.015625 -87.34375 Z M 55.234375 -87.34375 L 84.828125 0 L 76.53125 0 L 47.375 -87.34375 Z M 60.59375 -26.75 L 24.78125 -26.75 L 42.6875 -83.078125 Z M 42.6875 -59.828125 L 34.9375 -34.390625 L 50.4375 -34.390625 Z M 62.5625 -20.640625 L 69.765625 0 L 61.359375 0 L 57.09375 -12.984375 L 28.28125 -12.984375 L 24.015625 0 L 15.609375 0 L 22.8125 -20.640625 Z M 62.5625 -20.640625 "/></g></g></g><g fill="#FFFFFF" fill-opacity="1"><g transform="translate(569.509762, 132.797517)"><g><path d="M 42.90625 -87.34375 C 51.195312 -87.34375 58.289062 -85.648438 64.1875 -82.265625 C 70.082031 -78.878906 74.554688 -73.925781 77.609375 -67.40625 C 80.671875 -60.894531 82.203125 -53.019531 82.203125 -43.78125 C 82.203125 -34.457031 80.671875 -26.519531 77.609375 -19.96875 C 74.554688 -13.425781 70.082031 -8.460938 64.1875 -5.078125 C 58.289062 -1.691406 51.195312 0 42.90625 0 L 6.546875 0 L 6.546875 -87.34375 Z M 43.671875 -7.640625 C 49.785156 -7.640625 55.0625 -9.054688 59.5 -11.890625 C 63.9375 -14.734375 67.335938 -18.863281 69.703125 -24.28125 C 72.066406 -29.707031 73.25 -36.207031 73.25 -43.78125 C 73.25 -51.269531 72.066406 -57.707031 69.703125 -63.09375 C 67.335938 -68.488281 63.9375 -72.601562 59.5 -75.4375 C 55.0625 -78.28125 49.785156 -79.703125 43.671875 -79.703125 L 15.28125 -79.703125 L 15.28125 -7.640625 Z M 43.5625 -73.578125 C 50.90625 -73.578125 56.5625 -71.03125 60.53125 -65.9375 C 64.5 -60.84375 66.484375 -53.457031 66.484375 -43.78125 C 66.484375 -34.03125 64.5 -26.585938 60.53125 -21.453125 C 56.5625 -16.316406 50.90625 -13.75 43.5625 -13.75 L 21.828125 -13.75 L 21.828125 -73.578125 Z M 41.484375 -21.390625 C 45.191406 -21.390625 48.210938 -22.132812 50.546875 -23.625 C 52.878906 -25.125 54.625 -27.507812 55.78125 -30.78125 C 56.945312 -34.0625 57.53125 -38.394531 57.53125 -43.78125 C 57.53125 -51.5625 56.21875 -57.195312 53.59375 -60.6875 C 50.976562 -64.1875 46.941406 -65.9375 41.484375 -65.9375 L 30.5625 -65.9375 L 30.5625 -21.390625 Z M 41.484375 -21.390625 "/></g></g></g><g fill="#FFFFFF" fill-opacity="1"><g transform="translate(655.537498, 132.797517)"><g><path d="M 45.421875 2.734375 C 36.535156 2.734375 29 0.96875 22.8125 -2.5625 C 16.625 -6.09375 11.910156 -11.332031 8.671875 -18.28125 C 5.441406 -25.238281 3.828125 -33.738281 3.828125 -43.78125 C 3.828125 -53.820312 5.441406 -62.28125 8.671875 -69.15625 C 11.910156 -76.039062 16.625 -81.242188 22.8125 -84.765625 C 29 -88.296875 36.535156 -90.0625 45.421875 -90.0625 C 54.296875 -90.0625 61.828125 -88.296875 68.015625 -84.765625 C 74.203125 -81.242188 78.894531 -76.039062 82.09375 -69.15625 C 85.300781 -62.28125 86.90625 -53.820312 86.90625 -43.78125 C 86.90625 -33.738281 85.300781 -25.238281 82.09375 -18.28125 C 78.894531 -11.332031 74.179688 -6.09375 67.953125 -2.5625 C 61.734375 0.96875 54.222656 2.734375 45.421875 2.734375 Z M 45.421875 -4.90625 C 52.328125 -4.90625 58.203125 -6.394531 63.046875 -9.375 C 67.890625 -12.363281 71.582031 -16.769531 74.125 -22.59375 C 76.675781 -28.414062 77.953125 -35.476562 77.953125 -43.78125 C 77.953125 -52 76.675781 -59 74.125 -64.78125 C 71.582031 -70.570312 67.890625 -74.957031 63.046875 -77.9375 C 58.203125 -80.925781 52.328125 -82.421875 45.421875 -82.421875 C 38.503906 -82.421875 32.609375 -80.925781 27.734375 -77.9375 C 22.859375 -74.957031 19.144531 -70.570312 16.59375 -64.78125 C 14.039062 -59 12.765625 -52 12.765625 -43.78125 C 12.765625 -35.476562 14.039062 -28.414062 16.59375 -22.59375 C 19.144531 -16.769531 22.859375 -12.363281 27.734375 -9.375 C 32.609375 -6.394531 38.503906 -4.90625 45.421875 -4.90625 Z M 45.421875 -10.921875 C 37.046875 -10.921875 30.640625 -13.6875 26.203125 -19.21875 C 21.765625 -24.75 19.546875 -32.9375 19.546875 -43.78125 C 19.546875 -54.550781 21.765625 -62.703125 26.203125 -68.234375 C 30.640625 -73.765625 37.046875 -76.53125 45.421875 -76.53125 C 53.710938 -76.53125 60.078125 -73.765625 64.515625 -68.234375 C 68.960938 -62.703125 71.1875 -54.550781 71.1875 -43.78125 C 71.1875 -32.9375 68.960938 -24.75 64.515625 -19.21875 C 60.078125 -13.6875 53.710938 -10.921875 45.421875 -10.921875 Z M 45.421875 -18.5625 C 50.953125 -18.5625 55.132812 -20.5625 57.96875 -24.5625 C 60.8125 -28.5625 62.234375 -34.96875 62.234375 -43.78125 C 62.234375 -52.507812 60.8125 -58.875 57.96875 -62.875 C 55.132812 -66.882812 50.953125 -68.890625 45.421875 -68.890625 C 39.816406 -68.890625 35.59375 -66.882812 32.75 -62.875 C 29.914062 -58.875 28.5 -52.507812 28.5 -43.78125 C 28.5 -34.96875 29.914062 -28.5625 32.75 -24.5625 C 35.59375 -20.5625 39.816406 -18.5625 45.421875 -18.5625 Z M 45.421875 -18.5625 "/></g></g></g></svg>