<?xml version="1.0" encoding="utf-8"?>
<!-- Generator: Adobe Illustrator 26.5.0, SVG Export Plug-In . SVG Version: 6.00 Build 0)  -->
<svg version="1.1" id="Capa_1" xmlns="http://www.w3.org/2000/svg" xmlns:xlink="http://www.w3.org/1999/xlink" x="0px" y="0px"
	 viewBox="0 0 249 50" style="enable-background:new 0 0 249 50;" xml:space="preserve">
<style type="text/css">
	.st0{fill:#F09103;}
	.st1{fill:#020203;}
</style>
<path class="st0" d="M24.1,39.87c-0.04-0.04-0.07-0.08-0.1-0.12v-0.01c-3.4-4.18-5.46-9.68-5.46-15.72c0-6.04,2.06-11.54,5.46-15.72
	V8.28c0.44-0.51,1.03-1.38,1.03-2.4c0-3.57-3.96-3.37-3.96-3.37C9.06,2.51,0.17,12.4,0.17,24.02c0,11.89,9.08,21.53,21.45,21.53
	c2.02,0,3.4-1.51,3.4-3.38c0-0.97-0.46-1.73-0.83-2.19C24.16,39.94,24.13,39.91,24.1,39.87z"/>
<rect x="37.49" y="-0.02" class="st0" width="0.69" height="48.11"/>
<g>
	<path class="st1" d="M113.47,15.53h3.24v0.25c0,2.25,1.51,3.46,3.19,3.46c1.68,0,3.08-1.18,3.08-3.54V3.8h3.38v12.17
		c0,3.65-2.47,6.32-6.34,6.32c-3.9,0-6.54-2.72-6.54-6.4V15.53z"/>
	<path class="st1" d="M136.13,8.86c3.98,0,6.89,2.91,6.89,6.73c0,3.79-2.91,6.7-6.89,6.7c-4.04,0-6.95-2.91-6.95-6.7
		C129.18,11.77,132.09,8.86,136.13,8.86z M139.86,15.59c0-2.17-1.56-3.82-3.73-3.82c-2.22,0-3.79,1.65-3.79,3.82
		c0,2.14,1.57,3.79,3.79,3.79C138.3,19.38,139.86,17.73,139.86,15.59z M136.71,2.62h3.57l-2.94,4.48h-2.72L136.71,2.62z"/>
	<path class="st1" d="M154.34,9.13h3.43l-5.03,12.88h-3.74l-5.03-12.88h3.43l3.46,9.72L154.34,9.13z"/>
	<path class="st1" d="M171.8,17.89c-0.88,2.72-3.35,4.39-6.48,4.39c-4.28,0-6.59-3.24-6.59-6.7c0-3.52,2.36-6.73,6.67-6.73
		c3.93,0,6.56,2.66,6.56,6.48c0,0.38-0.03,0.71-0.08,1.04h-9.97c0.3,1.84,1.51,3.13,3.63,3.13c1.35,0,2.39-0.55,2.99-1.62H171.8z
		 M168.81,14.29c-0.22-1.79-1.84-2.77-3.43-2.77c-1.92,0-3.02,1.15-3.38,2.77H168.81z"/>
	<path class="st1" d="M174.79,9.13h2.8l0.25,1.57c0.52-0.74,1.92-1.84,4.06-1.84c3.43,0,5.36,2.17,5.36,5.33v7.83h-3.19v-7.14
		c0-1.95-1.1-3.05-2.86-3.05c-1.7,0-3.13,1.13-3.16,3.02l-0.03,7.17h-3.24V9.13z"/>
	<path class="st1" d="M203,17.89c-0.88,2.72-3.35,4.39-6.48,4.39c-4.28,0-6.59-3.24-6.59-6.7c0-3.52,2.36-6.73,6.67-6.73
		c3.93,0,6.56,2.66,6.56,6.48c0,0.38-0.03,0.71-0.08,1.04h-9.97c0.3,1.84,1.51,3.13,3.63,3.13c1.35,0,2.39-0.55,2.99-1.62H203z
		 M200,14.29c-0.22-1.79-1.84-2.77-3.43-2.77c-1.92,0-3.02,1.15-3.38,2.77H200z"/>
	<path class="st1" d="M208.02,17.62c0.16,1.4,1.37,2.09,2.66,2.09c1.13,0,2.17-0.47,2.17-1.46c0-1.07-1.24-1.32-3.02-1.65
		c-2.03-0.36-4.53-0.91-4.53-3.65c0-2.83,2.64-4.06,5.22-4.06c2.64,0,5.14,1.43,5.24,4.34h-2.97c-0.14-1.15-1.26-1.81-2.44-1.81
		c-1.02,0-2.06,0.47-2.06,1.32c0,0.71,0.77,1.04,2.53,1.4c2.33,0.44,5.19,0.85,5.19,3.87c0,2.91-2.83,4.31-5.55,4.31
		c-2.83,0-5.38-1.57-5.44-4.7H208.02z"/>
	<path class="st1" d="M232.93,14.32v-0.58c0-1.48-1.26-2.2-2.64-2.2c-1.13,0-2.33,0.47-2.55,1.62h-3.1c0.36-2.99,3.02-4.34,5.8-4.34
		c3.24,0,5.69,1.57,5.69,5.03v4.64c0,0.88,0.41,1.1,1.24,1.1v2.53c-0.38,0.05-0.77,0.08-1.18,0.08c-1.46,0-2.72-0.47-2.99-2.06
		c-0.96,1.54-2.61,2.14-4.37,2.14c-2.33,0-4.78-1.15-4.78-3.85c0-2.91,2.23-4.12,4.83-4.12H232.93z M229.16,16.44
		c-1.21,0-1.84,0.6-1.84,1.68c0,1.21,1.07,1.65,2.2,1.65c1.87,0,3.41-1.18,3.41-3.1v-0.22H229.16z"/>
	<path class="st1" d="M115.15,26.08h8.4c3.6,0,6.32,2.58,6.32,6.1c0,3.49-2.69,6.07-6.32,6.07h-5v6.04h-3.41V26.08z M123.09,35.28
		c1.95,0,3.3-1.29,3.3-3.1c0-1.78-1.35-3.1-3.3-3.1h-4.53v6.21H123.09z"/>
	<path class="st1" d="M132.34,44.29V31.41h2.83l0.27,2.31c0.66-1.62,2.12-2.58,4.09-2.58c0.36,0,0.71,0.06,0.85,0.11v2.91
		c-0.11-0.03-0.41-0.08-0.66-0.08c-2.5,0-4.18,1.68-4.18,4.26v5.96H132.34z"/>
	<path class="st1" d="M148.4,31.14c4.01,0,6.92,2.91,6.92,6.73c0,3.79-2.91,6.7-6.92,6.7c-4.01,0-6.92-2.91-6.92-6.7
		C141.48,34.05,144.39,31.14,148.4,31.14z M152.17,37.87c0-2.17-1.57-3.82-3.76-3.82s-3.76,1.65-3.76,3.82
		c0,2.14,1.56,3.79,3.76,3.79S152.17,40.01,152.17,37.87z"/>
	<path class="st1" d="M168.34,31.41h2.8v11.73c0,4.23-2.61,6.84-6.87,6.84c-3.46,0-5.96-1.87-6.62-4.86c0.49,0,2.72,0,3.21,0
		c0.47,1.32,1.87,2.06,3.43,2.06c2.12,0,3.63-1.37,3.63-3.76c0-0.11,0-0.74,0-0.82c-0.85,1.07-2.25,1.84-4.37,1.84
		c-3.63,0-6.37-2.83-6.37-6.7c0-3.87,2.75-6.59,6.37-6.59c2.09,0,3.54,0.8,4.45,1.92L168.34,31.41z M167.9,37.76
		c0-2.14-1.62-3.82-3.82-3.82c-2.25,0-3.74,1.68-3.74,3.82c0,2.17,1.48,3.93,3.74,3.93C166.31,41.68,167.9,39.93,167.9,37.76z"/>
	<path class="st1" d="M174.85,44.29V31.41h2.83l0.27,2.31c0.66-1.62,2.11-2.58,4.09-2.58c0.36,0,0.71,0.06,0.85,0.11v2.91
		c-0.11-0.03-0.41-0.08-0.66-0.08c-2.5,0-4.17,1.68-4.17,4.26v5.96H174.85z"/>
	<path class="st1" d="M193.08,36.6v-0.58c0-1.48-1.26-2.2-2.64-2.2c-1.13,0-2.33,0.47-2.55,1.62h-3.1c0.36-2.99,3.02-4.34,5.8-4.34
		c3.24,0,5.69,1.57,5.69,5.03v4.64c0,0.88,0.41,1.1,1.24,1.1v2.53c-0.38,0.05-0.77,0.08-1.18,0.08c-1.46,0-2.72-0.47-2.99-2.06
		c-0.96,1.54-2.61,2.14-4.37,2.14c-2.33,0-4.78-1.15-4.78-3.84c0-2.91,2.23-4.12,4.83-4.12H193.08z M189.32,38.72
		c-1.21,0-1.84,0.6-1.84,1.67c0,1.21,1.07,1.65,2.2,1.65c1.87,0,3.41-1.18,3.41-3.1v-0.22H189.32z"/>
	<path class="st1" d="M200.25,44.29V31.41h2.83l0.33,1.57c0.49-0.71,1.73-1.84,3.82-1.84c2.14,0,3.65,0.88,4.45,2.31
		c0.8-1.24,2.33-2.31,4.48-2.31c3.35,0,5.19,2.17,5.19,5.33v7.83h-3.21v-7.14c0-1.95-0.96-3.05-2.66-3.05
		c-1.7,0-2.99,1.07-3.05,2.91v7.28h-3.21v-7.14c0-1.95-0.99-3.05-2.69-3.05c-1.7,0-3.05,1.13-3.05,3.02v7.17H200.25z"/>
	<path class="st1" d="M233.04,36.6v-0.58c0-1.48-1.26-2.2-2.64-2.2c-1.13,0-2.33,0.47-2.55,1.62h-3.1c0.36-2.99,3.02-4.34,5.8-4.34
		c3.24,0,5.69,1.57,5.69,5.03v4.64c0,0.88,0.41,1.1,1.24,1.1v2.53c-0.38,0.05-0.77,0.08-1.18,0.08c-1.46,0-2.72-0.47-2.99-2.06
		c-0.96,1.54-2.61,2.14-4.37,2.14c-2.33,0-4.78-1.15-4.78-3.84c0-2.91,2.23-4.12,4.83-4.12H233.04z M229.27,38.72
		c-1.21,0-1.84,0.6-1.84,1.67c0,1.21,1.07,1.65,2.2,1.65c1.87,0,3.41-1.18,3.41-3.1v-0.22H229.27z"/>
	<path class="st1" d="M240.2,44.29V31.41h2.83l0.27,2.31c0.66-1.62,2.11-2.58,4.09-2.58c0.36,0,0.71,0.06,0.85,0.11v2.91
		c-0.11-0.03-0.41-0.08-0.66-0.08c-2.5,0-4.17,1.68-4.17,4.26v5.96H240.2z"/>
</g>
<path class="st0" d="M102.01,32.42c-0.39-0.39-0.92-0.61-1.47-0.61h-2.98V7.26c0-1.92-1.56-3.48-3.48-3.48H59.19
	c-1.92,0-3.48,1.56-3.48,3.48v24.56h-0.9v0h-2.08c-0.55,0-1.08,0.22-1.47,0.61c-0.39,0.39-0.61,0.92-0.61,1.47v7.47h0
	c0.07,1.63,1.41,2.93,3.06,2.93h45.84c1.64,0,2.99-1.3,3.06-2.93h0v-7.47C102.62,33.34,102.4,32.81,102.01,32.42z M63.1,22.7
	c0-0.47,0.38-0.85,0.85-0.85h25.37c0.47,0,0.85,0.38,0.85,0.85c0,0.47-0.38,0.85-0.85,0.85H63.95C63.48,23.54,63.1,23.16,63.1,22.7z
	 M90.17,17.6c0,0.47-0.38,0.85-0.85,0.85H63.95c-0.47,0-0.85-0.38-0.85-0.85c0-0.47,0.38-0.85,0.85-0.85h25.37
	C89.79,16.75,90.17,17.13,90.17,17.6z M63.95,11.66h7.8c0.47,0,0.85,0.38,0.85,0.85c0,0.47-0.38,0.85-0.85,0.85h-7.8
	c-0.47,0-0.85-0.38-0.85-0.85C63.1,12.04,63.48,11.66,63.95,11.66z M98.46,39.6c0,0.29-0.24,0.53-0.53,0.53H55.34
	c-0.29,0-0.53-0.24-0.53-0.53v-3.63h43.65V39.6z"/>
</svg>
