<svg xmlns="http://www.w3.org/2000/svg" width="997" viewBox="0 0 747.75 178.5" height="238" version="1.0"><path d="M76.82 45.454v7.64H16.775v72.063h61.14v7.64H8.04V45.455zm0 13.765v7.641H32.056v11.25h43.672v7.64H23.32V59.22zM75.728 91.86v7.64H32.055v11.907h45.86v7.64H23.32V91.86zm0 0" fill="#ffbd59"/><path d="M129.869 68.391v41.485H86.197V68.39zm-8.516 7.64h-26.64v26.204h26.64zm-6.547 6.548v13.094h-13.422V82.579zm0 0"/><path d="M182.709 132.798h-8.297l-9.61-30.891v30.89h-8.734V45.345zm34.172 0h-8.735v-30.891l-9.61 30.89h-8.296l26.64-87.453zm-67.36-87.344v87.344h-8.734V45.454zm22.172 0l14.953 50.984 14.735-50.984h8.515l-23.25 76.531-23.36-76.531zm60.469 0v87.344h-8.734V45.454zm81.884 0v7.64h-60.047v72.063h61.14v7.64h-69.874V45.455zm0 13.765v7.641H269.28v11.25h43.672v7.64h-52.406V59.22zm-1.094 32.641v7.64H269.28v11.907h45.86v7.64h-54.594V91.86zm55.242-46.406c10.914 0 19.101 2.261 24.562 6.781 5.457 4.512 8.188 11.203 8.188 20.078 0 6.48-1.184 11.887-3.547 16.219-2.367 4.324-5.985 7.617-10.86 9.875l14.407 34.39h-9.172L376.49 93.83c5.312-1.02 9.222-3.239 11.734-6.656 2.508-3.426 3.766-8.16 3.766-14.204 0-6.77-2.094-11.773-6.282-15.015-4.18-3.239-10.781-4.86-19.812-4.86H334.35v79.704h-8.734V45.454zm-.657 13.765c5.82 0 10.223 1.204 13.204 3.61 2.988 2.398 4.484 5.96 4.484 10.687 0 5.094-1.422 8.918-4.266 11.469-2.836 2.543-7.164 3.813-12.984 3.813h-27.078V59.219zm.22 21.938c2.843 0 4.972-.633 6.39-1.906 1.414-1.27 2.125-3.145 2.125-5.625 0-4.508-2.84-6.766-8.516-6.766h-18.672v14.297zm-2.188 13.656c1.238 0 2.879-.07 4.922-.219l14.296 38.204h-9.062l-10.797-30.344h-15.297v30.344h-8.734V94.813zm85.168 40.719c-9.031 0-16.664-1.781-22.89-5.344-6.22-3.57-10.95-8.832-14.188-15.781-3.23-6.957-4.844-15.457-4.844-25.5 0-10.113 1.598-18.594 4.797-25.438 3.195-6.843 7.867-12.007 14.016-15.5 6.156-3.488 13.676-5.234 22.562-5.234 5.602 0 11.04.73 16.313 2.188 5.281 1.449 10.504 3.632 15.672 6.546l-3.5 6.438c-4.657-2.55-9.243-4.442-13.75-5.672a52.554 52.554 0 00-13.97-1.86c-10.929 0-19.194 3.258-24.796 9.766-5.605 6.512-8.406 16.063-8.406 28.657 0 8.375 1.289 15.476 3.875 21.296 2.594 5.825 6.398 10.246 11.422 13.266 5.02 3.023 11.164 4.531 18.437 4.531 9.906 0 19.149-2.875 27.735-8.625l3.718 6.547c-5.386 3.344-10.61 5.797-15.672 7.36-5.062 1.57-10.574 2.359-16.53 2.359zm1.078-13.547c-8.875 0-15.64-2.8-20.297-8.406-4.656-5.602-6.984-13.864-6.984-24.781 0-10.844 2.328-18.973 6.984-24.391 4.657-5.426 11.383-8.14 20.188-8.14 8.3 0 16.238 2.402 23.812 7.202l-3.718 6.657c-3.344-2.176-6.563-3.754-9.657-4.735a31.237 31.237 0 00-9.562-1.484c-4.293 0-7.84.824-10.64 2.469-2.805 1.636-4.915 4.293-6.329 7.968-1.418 3.668-2.125 8.485-2.125 14.454 0 9.03 1.598 15.546 4.797 19.546 3.195 4 7.89 6 14.078 6 7.063 0 13.723-2.289 19.985-6.875l3.718 6.329c-4.156 2.843-8.183 4.921-12.078 6.234-3.887 1.305-7.945 1.953-12.172 1.953zm70.197-76.531l-29.031 87.344h-8.297l29.469-87.344zm17.36 0l29.593 87.344h-8.297l-29.156-87.344zm5.359 60.594h-35.813l17.907-56.329zm-17.906-33.079l-7.75 25.438h15.5zm19.875 39.188l7.203 20.64h-8.407l-4.265-12.984h-28.813l-4.265 12.985h-8.407l7.204-20.641zm65.716-66.703c8.29 0 15.383 1.695 21.281 5.078 5.895 3.387 10.367 8.34 13.422 14.86 3.063 6.511 4.594 14.386 4.594 23.624 0 9.324-1.531 17.262-4.594 23.813-3.055 6.543-7.527 11.508-13.422 14.89-5.898 3.387-12.992 5.079-21.281 5.079h-36.36V45.454zm.766 79.703c6.113 0 11.39-1.414 15.828-4.25 4.437-2.844 7.836-6.973 10.203-12.39 2.363-5.427 3.547-11.927 3.547-19.5 0-7.489-1.184-13.927-3.547-19.313-2.367-5.395-5.766-9.508-10.203-12.344-4.438-2.844-9.715-4.266-15.828-4.266H584.79v72.063zm-.11-65.938c7.344 0 13 2.547 16.969 7.641 3.969 5.094 5.953 12.48 5.953 22.156 0 9.75-1.984 17.196-5.953 22.328-3.969 5.137-9.625 7.704-16.969 7.704h-21.734V59.219zm-2.078 52.188c3.707 0 6.727-.742 9.063-2.234 2.332-1.5 4.078-3.883 5.234-7.157 1.164-3.281 1.75-7.613 1.75-13 0-7.781-1.312-13.414-3.937-16.906-2.618-3.5-6.653-5.25-12.11-5.25h-10.922v44.547zm89.966 24.125c-8.887 0-16.423-1.766-22.61-5.297-6.188-3.531-10.902-8.77-14.14-15.719-3.231-6.957-4.844-15.457-4.844-25.5 0-10.039 1.613-18.5 4.843-25.375 3.239-6.883 7.953-12.086 14.141-15.61 6.187-3.53 13.723-5.296 22.61-5.296 8.874 0 16.406 1.766 22.593 5.297 6.188 3.523 10.879 8.726 14.078 15.61 3.207 6.874 4.813 15.335 4.813 25.374 0 10.043-1.606 18.543-4.813 25.5-3.199 6.95-7.914 12.188-14.14 15.719-6.22 3.531-13.73 5.297-22.532 5.297zm0-7.64c6.906 0 12.78-1.489 17.624-4.47 4.844-2.988 8.536-7.394 11.078-13.218 2.551-5.82 3.829-12.883 3.829-21.188 0-8.218-1.278-15.218-3.829-21-2.542-5.789-6.234-10.176-11.078-13.156-4.843-2.988-10.718-4.484-17.625-4.484-6.918 0-12.812 1.496-17.687 4.484-4.875 2.98-8.59 7.367-11.14 13.156-2.555 5.782-3.829 12.782-3.829 21 0 8.305 1.274 15.367 3.828 21.188 2.551 5.824 6.266 10.23 11.14 13.219 4.876 2.98 10.77 4.468 17.688 4.468zm0-6.016c-8.376 0-14.782-2.766-19.22-8.297-4.437-5.531-6.656-13.719-6.656-24.563 0-10.77 2.22-18.922 6.657-24.453 4.437-5.531 10.843-8.297 19.218-8.297 8.29 0 14.657 2.766 19.094 8.297 4.445 5.531 6.672 13.684 6.672 24.453 0 10.844-2.227 19.032-6.672 24.563-4.437 5.531-10.805 8.297-19.094 8.297zm0-7.641c5.53 0 9.71-2 12.546-6 2.844-4 4.266-10.406 4.266-19.219 0-8.726-1.422-15.093-4.266-19.093-2.836-4.008-7.015-6.016-12.547-6.016-5.605 0-9.828 2.008-12.672 6.016-2.835 4-4.25 10.367-4.25 19.093 0 8.813 1.415 15.219 4.25 19.219 2.844 4 7.067 6 12.672 6zm0 0" fill="#FFF"/></svg>