<svg xmlns="http://www.w3.org/2000/svg" viewBox="0 0 112 50"><path d="M24.1 39.87c-.04-.04-.07-.08-.1-.12v-.01c-3.4-4.18-5.46-9.68-5.46-15.72 0-6.04 2.06-11.54 5.46-15.72v-.02c.44-.51 1.03-1.38 1.03-2.4 0-3.57-3.96-3.37-3.96-3.37C9.06 2.51.17 12.4.17 24.02c0 11.89 9.08 21.53 21.45 21.53 2.02 0 3.4-1.51 3.4-3.38 0-.97-.46-1.73-.83-2.19-.03-.04-.06-.07-.09-.11zM37.49-.02h.69v48.11h-.69zm64.52 32.44c-.39-.39-.92-.61-1.47-.61h-2.98V7.26c0-1.92-1.56-3.48-3.48-3.48H59.19c-1.92 0-3.48 1.56-3.48 3.48v24.56h-2.98a2.082 2.082 0 00-2.08 2.08v7.47a3.061 3.061 0 003.06 2.93h45.84c1.64 0 2.99-1.3 3.06-2.93V33.9c.01-.56-.21-1.09-.6-1.48zM63.1 22.7c0-.47.38-.85.85-.85h25.37a.85.85 0 110 1.7H63.95a.862.862 0 01-.85-.85zm27.07-5.1c0 .47-.38.85-.85.85H63.95a.85.85 0 110-1.7h25.37c.47 0 .85.38.85.85zm-26.22-5.94h7.8a.85.85 0 110 1.7h-7.8a.85.85 0 110-1.7zM98.46 39.6c0 .29-.24.53-.53.53H55.34c-.29 0-.53-.24-.53-.53v-3.63h43.65v3.63z" fill="#f09103"/></svg>