<?xml version="1.0" encoding="utf-8"?>
<!-- Generator: Adobe Illustrator 26.5.0, SVG Export Plug-In . SVG Version: 6.00 Build 0)  -->
<svg version="1.1" id="Capa_1" xmlns="http://www.w3.org/2000/svg" xmlns:xlink="http://www.w3.org/1999/xlink" x="0px" y="0px"
	viewBox="0 0 112 50" style="enable-background:new 0 0 249 50;" xml:space="preserve">
<style type="text/css">
	.st0{fill:#F09103;}
	.st1{fill:#020203;}
</style>
<path class="st0" d="M24.1,39.87c-0.04-0.04-0.07-0.08-0.1-0.12v-0.01c-3.4-4.18-5.46-9.68-5.46-15.72c0-6.04,2.06-11.54,5.46-15.72
	V8.28c0.44-0.51,1.03-1.38,1.03-2.4c0-3.57-3.96-3.37-3.96-3.37C9.06,2.51,0.17,12.4,0.17,24.02c0,11.89,9.08,21.53,21.45,21.53
	c2.02,0,3.4-1.51,3.4-3.38c0-0.97-0.46-1.73-0.83-2.19C24.16,39.94,24.13,39.91,24.1,39.87z"/>
<rect x="37.49" y="-0.02" class="st0" width="0.69" height="48.11"/>

<path class="st0" d="M102.01,32.42c-0.39-0.39-0.92-0.61-1.47-0.61h-2.98V7.26c0-1.92-1.56-3.48-3.48-3.48H59.19
	c-1.92,0-3.48,1.56-3.48,3.48v24.56h-0.9v0h-2.08c-0.55,0-1.08,0.22-1.47,0.61c-0.39,0.39-0.61,0.92-0.61,1.47v7.47h0
	c0.07,1.63,1.41,2.93,3.06,2.93h45.84c1.64,0,2.99-1.3,3.06-2.93h0v-7.47C102.62,33.34,102.4,32.81,102.01,32.42z M63.1,22.7
	c0-0.47,0.38-0.85,0.85-0.85h25.37c0.47,0,0.85,0.38,0.85,0.85c0,0.47-0.38,0.85-0.85,0.85H63.95C63.48,23.54,63.1,23.16,63.1,22.7z
	M90.17,17.6c0,0.47-0.38,0.85-0.85,0.85H63.95c-0.47,0-0.85-0.38-0.85-0.85c0-0.47,0.38-0.85,0.85-0.85h25.37
	C89.79,16.75,90.17,17.13,90.17,17.6z M63.95,11.66h7.8c0.47,0,0.85,0.38,0.85,0.85c0,0.47-0.38,0.85-0.85,0.85h-7.8
	c-0.47,0-0.85-0.38-0.85-0.85C63.1,12.04,63.48,11.66,63.95,11.66z M98.46,39.6c0,0.29-0.24,0.53-0.53,0.53H55.34
	c-0.29,0-0.53-0.24-0.53-0.53v-3.63h43.65V39.6z"/>
</svg>
